<svg width="596" height="552" viewBox="0 0 596 552" fill="none" xmlns="http://www.w3.org/2000/svg">
<g clip-path="url(#clip0_67_279)">
<rect width="596" height="551.19" fill="#CAFDC6"/>
<g clip-path="url(#clip1_67_279)">
<path fill-rule="evenodd" clip-rule="evenodd" d="M740.288 419.335H769.445L813.439 397.316L775.268 378.232L736.277 397.747L740.288 419.335ZM670.242 384.277H699.399L743.394 362.257L705.222 343.174L666.231 362.689L670.242 384.277ZM600.153 349.218H629.31L673.305 327.199L635.133 308.116L596.142 327.631L600.153 349.218ZM530.107 314.16H559.264L603.259 292.141L565.087 273.057L526.096 292.573L530.107 314.16ZM460.062 279.102H489.219L533.213 257.082L495.041 237.999L456.05 257.514L460.062 279.102Z" fill="#013E39"/>
<path fill-rule="evenodd" clip-rule="evenodd" d="M739.684 419.464C739.727 419.766 739.986 419.939 740.288 419.939H769.445C769.531 419.939 769.618 419.896 769.704 419.896L813.698 397.877C813.914 397.79 814.043 397.574 814.043 397.359C814.043 397.143 813.914 396.927 813.698 396.84L775.527 377.757C775.354 377.671 775.138 377.671 774.966 377.757L735.975 397.272C735.716 397.402 735.587 397.661 735.673 397.92L739.684 419.464ZM740.763 418.73L736.924 398.049L775.225 378.88L812.059 397.315L769.273 418.73H740.763ZM669.638 384.406C669.681 384.708 669.94 384.881 670.242 384.881H699.399C699.485 384.881 699.572 384.881 699.658 384.838L743.652 362.818C743.868 362.732 743.997 362.516 743.997 362.3C743.997 362.084 743.868 361.868 743.652 361.782L705.481 342.699C705.308 342.612 705.093 342.612 704.963 342.699L665.972 362.214C665.713 362.343 665.584 362.602 665.67 362.861L669.638 384.406ZM670.717 383.672L666.878 362.991L705.179 343.821L742.013 362.257L699.227 383.672H670.717ZM599.592 349.348C599.636 349.65 599.894 349.823 600.196 349.823H629.353C629.44 349.823 629.526 349.779 629.612 349.779L673.606 327.76C673.822 327.674 673.952 327.458 673.952 327.242C673.952 327.026 673.822 326.81 673.606 326.681L635.435 307.597C635.262 307.511 635.047 307.511 634.874 307.597L595.883 327.112C595.624 327.242 595.495 327.501 595.581 327.76L599.592 349.348ZM600.671 348.614L596.832 327.933L635.133 308.763L671.967 327.199L629.181 348.614H600.671ZM529.547 314.289C529.59 314.592 529.849 314.764 530.15 314.764H559.307C559.394 314.764 559.48 314.721 559.566 314.721L603.561 292.702C603.776 292.615 603.906 292.399 603.906 292.14C603.906 291.925 603.776 291.709 603.561 291.622L565.389 272.539C565.216 272.453 565.001 272.453 564.871 272.539L525.88 292.054C525.622 292.184 525.492 292.443 525.579 292.702L529.547 314.289ZM530.625 313.555L526.786 292.874L565.087 273.705L601.922 292.14L559.135 313.555H530.625ZM459.458 279.231C459.501 279.533 459.76 279.706 460.061 279.706H489.218C489.305 279.706 489.391 279.663 489.477 279.663L533.472 257.643C533.687 257.557 533.817 257.341 533.817 257.125C533.817 256.909 533.687 256.694 533.472 256.607L495.3 237.524C495.127 237.437 494.912 237.437 494.782 237.524L455.791 257.039C455.533 257.168 455.403 257.428 455.49 257.687L459.458 279.231ZM460.579 278.497L456.74 257.816L495.041 238.646L531.876 257.082C525.363 260.363 491.418 277.331 489.089 278.497H460.579Z" fill="#013E39"/>
<path fill-rule="evenodd" clip-rule="evenodd" d="M539.941 395.33L589.327 420.026L579.752 424.861L530.366 400.122L539.941 395.33Z" fill="#C9FEC6"/>
<path fill-rule="evenodd" clip-rule="evenodd" d="M540.2 394.811C540.028 394.725 539.812 394.725 539.682 394.811L530.107 399.604C529.892 399.69 529.762 399.906 529.762 400.122C529.762 400.338 529.892 400.554 530.107 400.64L579.493 425.336C579.666 425.423 579.881 425.423 580.011 425.336L589.586 420.544C589.802 420.457 589.931 420.242 589.931 420.026C589.931 419.81 589.802 419.594 589.586 419.464L540.2 394.811ZM539.941 396.02L587.99 420.069L579.752 424.214C576.215 422.444 538.604 403.619 531.703 400.165L539.941 396.02Z" fill="#013E39"/>
<path fill-rule="evenodd" clip-rule="evenodd" d="M608.909 91.7212L643.975 109.25L626.42 118.015L591.397 100.486L608.909 91.7212Z" fill="#C9FEC6"/>
<path fill-rule="evenodd" clip-rule="evenodd" d="M609.211 91.2029C609.038 91.1166 608.822 91.1166 608.693 91.2029L591.182 99.9675C590.966 100.054 590.836 100.27 590.836 100.486C590.836 100.702 590.966 100.917 591.182 101.004L626.204 118.533C626.377 118.619 626.593 118.619 626.722 118.533L644.233 109.768C644.449 109.682 644.579 109.466 644.579 109.25C644.579 109.034 644.449 108.818 644.233 108.732L609.211 91.2029ZM608.909 92.4118L642.594 109.25L626.42 117.324L592.734 100.486L608.909 92.4118Z" fill="#013E39"/>
<path fill-rule="evenodd" clip-rule="evenodd" d="M591.397 318.564L626.42 336.093V118.015L591.397 100.486V318.564Z" fill="#013E39"/>
<path fill-rule="evenodd" clip-rule="evenodd" d="M590.793 318.564C590.793 318.78 590.923 318.995 591.139 319.082L626.161 336.611C626.334 336.697 626.55 336.697 626.765 336.568C626.938 336.438 627.067 336.266 627.067 336.05V118.015C627.067 117.799 626.938 117.583 626.722 117.497L591.699 99.9674C591.527 99.8811 591.311 99.8811 591.095 100.011C590.923 100.14 590.793 100.313 590.793 100.529V318.564ZM592.001 318.175V101.479L625.816 118.403V335.1L592.001 318.175Z" fill="#013E39"/>
<path fill-rule="evenodd" clip-rule="evenodd" d="M591.397 318.564L626.42 336.093V230.875L591.397 213.346V318.564Z" fill="#013E39"/>
<path fill-rule="evenodd" clip-rule="evenodd" d="M590.793 318.564C590.793 318.78 590.923 318.996 591.139 319.082L626.161 336.611C626.334 336.698 626.55 336.698 626.765 336.568C626.938 336.439 627.067 336.266 627.067 336.05V230.875C627.067 230.659 626.938 230.443 626.722 230.357L591.699 212.828C591.527 212.741 591.311 212.741 591.095 212.871C590.923 213 590.793 213.173 590.793 213.389V318.564ZM592.001 318.175V214.339L625.816 231.264C625.816 237.697 625.816 324.868 625.816 335.1L592.001 318.175Z" fill="#013E39"/>
<path fill-rule="evenodd" clip-rule="evenodd" d="M538.863 99.4062L573.886 116.935L556.375 125.7L521.352 108.171L538.863 99.4062Z" fill="#C9FEC6"/>
<path fill-rule="evenodd" clip-rule="evenodd" d="M539.165 98.8885C538.993 98.8021 538.777 98.8021 538.647 98.8885L521.136 107.653C520.92 107.739 520.791 107.955 520.791 108.171C520.791 108.387 520.92 108.603 521.136 108.689L556.159 126.218C556.332 126.305 556.547 126.305 556.677 126.218L574.188 117.454C574.404 117.368 574.533 117.152 574.533 116.936C574.533 116.72 574.404 116.504 574.188 116.418L539.165 98.8885ZM538.863 100.097L572.549 116.936L556.375 125.01L522.689 108.171L538.863 100.097Z" fill="#013E39"/>
<path fill-rule="evenodd" clip-rule="evenodd" d="M521.352 283.506L556.375 301.035V125.7L521.352 108.171V283.506Z" fill="#013E39"/>
<path fill-rule="evenodd" clip-rule="evenodd" d="M520.748 283.506C520.748 283.722 520.877 283.938 521.093 284.024L556.116 301.553C556.288 301.639 556.504 301.639 556.719 301.51C556.892 301.38 557.021 301.208 557.021 300.992V125.7C557.021 125.484 556.892 125.268 556.676 125.182L521.653 107.653C521.481 107.567 521.265 107.567 521.05 107.696C520.834 107.826 520.748 107.998 520.748 108.214V283.506ZM521.955 283.117V109.164L555.771 126.089C555.771 134.594 555.771 286.442 555.771 300.042L521.955 283.117Z" fill="#013E39"/>
<path fill-rule="evenodd" clip-rule="evenodd" d="M521.352 283.505L556.375 301.035V160.758L521.352 143.229V283.505Z" fill="#013E39"/>
<path fill-rule="evenodd" clip-rule="evenodd" d="M520.748 283.506C520.748 283.721 520.877 283.937 521.093 284.024L556.116 301.553C556.288 301.639 556.504 301.639 556.719 301.51C556.892 301.38 557.021 301.207 557.021 300.992V160.758C557.021 160.542 556.892 160.327 556.676 160.24L521.653 142.711C521.481 142.625 521.265 142.625 521.05 142.754C520.877 142.884 520.748 143.056 520.748 143.272V283.506ZM521.955 283.117V144.222L555.771 161.147C555.771 161.147 555.771 287.65 555.771 300.042L521.955 283.117Z" fill="#013E39"/>
<path fill-rule="evenodd" clip-rule="evenodd" d="M573.886 292.27L556.375 301.035V125.7L573.886 116.936V292.27Z" fill="#C9FEC6"/>
<path fill-rule="evenodd" clip-rule="evenodd" d="M574.188 292.788C574.403 292.702 574.533 292.486 574.533 292.227V116.935C574.533 116.72 574.403 116.547 574.231 116.417C574.058 116.288 573.843 116.288 573.627 116.374L556.116 125.139C555.9 125.225 555.771 125.441 555.771 125.657V300.948C555.771 301.164 555.9 301.337 556.072 301.466C556.245 301.596 556.461 301.596 556.676 301.51L574.188 292.788ZM573.282 291.882L556.978 300.042V126.089L573.282 117.928V291.882Z" fill="#013E39"/>
<path fill-rule="evenodd" clip-rule="evenodd" d="M468.817 21.6045L503.84 39.1336L486.329 47.8982L451.306 30.3691L468.817 21.6045Z" fill="#C9FEC6"/>
<path fill-rule="evenodd" clip-rule="evenodd" d="M469.076 21.0433C468.903 20.9569 468.688 20.9569 468.558 21.0433L451.047 29.8079C450.831 29.8942 450.702 30.1101 450.702 30.326C450.702 30.5418 450.831 30.7577 451.047 30.8441L486.07 48.3732C486.242 48.4596 486.458 48.4596 486.63 48.3732L504.142 39.6086C504.357 39.5223 504.487 39.3064 504.487 39.0905C504.487 38.8747 504.357 38.6588 504.142 38.5724L469.076 21.0433ZM468.817 22.2954L502.503 39.1337L486.328 47.2075L452.643 30.3691L468.817 22.2954Z" fill="#013E39"/>
<path fill-rule="evenodd" clip-rule="evenodd" d="M451.306 248.404L486.329 265.933V47.8983L451.306 30.3691V248.404Z" fill="#013E39"/>
<path fill-rule="evenodd" clip-rule="evenodd" d="M450.702 248.404C450.702 248.62 450.831 248.836 451.047 248.922L486.07 266.451C486.242 266.538 486.458 266.538 486.673 266.408C486.846 266.279 486.975 266.106 486.975 265.89V47.855C486.975 47.6391 486.846 47.4232 486.63 47.3369L451.607 29.8077C451.435 29.7214 451.219 29.7214 451.004 29.8509C450.788 29.9804 450.702 30.1531 450.702 30.369V248.404ZM451.909 248.059C451.909 238.474 451.909 46.7324 451.909 31.362L485.725 48.2867V264.983L451.909 248.059Z" fill="#013E39"/>
<path fill-rule="evenodd" clip-rule="evenodd" d="M451.306 248.404L486.329 265.933V90.6419L451.306 73.1128V248.404Z" fill="#013E39"/>
<path fill-rule="evenodd" clip-rule="evenodd" d="M450.702 248.404C450.702 248.62 450.831 248.836 451.047 248.922L486.07 266.451C486.242 266.538 486.458 266.538 486.673 266.408C486.846 266.279 486.975 266.106 486.975 265.89V90.5986C486.975 90.3828 486.846 90.1669 486.63 90.0805L451.607 72.5514C451.435 72.465 451.219 72.465 451.004 72.5946C450.788 72.7241 450.702 72.8968 450.702 73.1127V248.404ZM451.909 248.059C451.909 248.059 451.909 88.0945 451.909 74.1057L485.725 91.0304V264.983L451.909 248.059Z" fill="#013E39"/>
<path fill-rule="evenodd" clip-rule="evenodd" d="M503.84 257.169L486.329 265.933V47.8984L503.84 39.1338V257.169Z" fill="#C9FEC6"/>
<path fill-rule="evenodd" clip-rule="evenodd" d="M504.099 257.73C504.315 257.644 504.444 257.428 504.444 257.212V39.1337C504.444 38.9178 504.314 38.7451 504.142 38.6156C503.969 38.486 503.754 38.486 503.538 38.5724L486.027 47.337C485.811 47.4233 485.682 47.6392 485.682 47.8551V265.89C485.682 266.106 485.811 266.279 485.984 266.408C486.156 266.538 486.372 266.538 486.587 266.451L504.099 257.73ZM503.236 256.823L486.932 264.983V48.2868L503.236 40.1267C503.236 55.4971 503.236 247.238 503.236 256.823Z" fill="#013E39"/>
<path fill-rule="evenodd" clip-rule="evenodd" d="M582.641 217.75L617.664 235.279L600.153 244.043L565.13 226.514L582.641 217.75Z" fill="#C9FEC6"/>
<path fill-rule="evenodd" clip-rule="evenodd" d="M582.943 217.188C582.771 217.102 582.555 217.102 582.426 217.188L564.914 225.953C564.699 226.039 564.569 226.255 564.569 226.471C564.569 226.687 564.699 226.903 564.914 226.989L599.937 244.518C600.11 244.605 600.325 244.605 600.455 244.518L617.966 235.754C618.182 235.667 618.311 235.451 618.311 235.236C618.311 235.02 618.182 234.804 617.966 234.717L582.943 217.188ZM582.641 218.44L616.327 235.279L600.153 243.353L566.467 226.514L582.641 218.44Z" fill="#013E39"/>
<path fill-rule="evenodd" clip-rule="evenodd" d="M565.13 331.689L600.153 349.218V244.043L565.13 226.514V331.689Z" fill="#C9FEC6"/>
<path fill-rule="evenodd" clip-rule="evenodd" d="M564.526 331.689C564.526 331.905 564.656 332.121 564.871 332.251L599.894 349.78C600.067 349.866 600.283 349.866 600.498 349.737C600.671 349.607 600.8 349.434 600.8 349.218V244.043C600.8 243.828 600.671 243.612 600.455 243.525L565.432 225.996C565.26 225.91 565.044 225.91 564.828 226.039C564.656 226.169 564.526 226.342 564.526 226.558V331.689ZM565.734 331.301V227.507L599.549 244.432C599.549 244.432 599.549 337.691 599.549 348.269L565.734 331.301Z" fill="#013E39"/>
<path fill-rule="evenodd" clip-rule="evenodd" d="M512.596 147.633L547.619 165.162L530.107 173.927L495.084 156.398L512.596 147.633Z" fill="#C9FEC6"/>
<path fill-rule="evenodd" clip-rule="evenodd" d="M512.898 147.072C512.725 146.985 512.509 146.985 512.337 147.072L494.825 155.836C494.61 155.923 494.48 156.138 494.48 156.354C494.48 156.57 494.61 156.786 494.825 156.872L529.848 174.402C530.021 174.488 530.237 174.488 530.366 174.402L547.877 165.637C548.093 165.551 548.223 165.335 548.223 165.076C548.223 164.86 548.093 164.644 547.877 164.558L512.898 147.072ZM512.596 148.281L546.282 165.119L530.107 173.193L496.421 156.354L512.596 148.281Z" fill="#013E39"/>
<path fill-rule="evenodd" clip-rule="evenodd" d="M495.084 296.631L530.107 314.16V173.927L495.084 156.397V296.631Z" fill="#C9FEC6"/>
<path fill-rule="evenodd" clip-rule="evenodd" d="M494.48 296.631C494.48 296.847 494.61 297.063 494.825 297.149L529.848 314.678C530.021 314.764 530.237 314.764 530.452 314.635C530.625 314.505 530.754 314.333 530.754 314.117V173.927C530.754 173.711 530.625 173.495 530.409 173.409L495.386 155.88C495.214 155.793 494.998 155.793 494.782 155.923C494.61 156.052 494.48 156.225 494.48 156.441V296.631ZM495.688 296.242V157.347L529.503 174.272C529.503 174.272 529.503 300.776 529.503 313.167L495.688 296.242Z" fill="#013E39"/>
<path fill-rule="evenodd" clip-rule="evenodd" d="M547.619 305.395L530.107 314.16V173.927L547.619 165.162V305.395Z" fill="#C9FEC6"/>
<path fill-rule="evenodd" clip-rule="evenodd" d="M547.921 305.957C548.136 305.871 548.266 305.655 548.266 305.439V165.162C548.266 164.947 548.136 164.774 547.964 164.644C547.791 164.515 547.576 164.515 547.36 164.601L529.848 173.366C529.633 173.452 529.503 173.668 529.503 173.884V314.16C529.503 314.376 529.633 314.549 529.805 314.678C529.978 314.808 530.194 314.808 530.409 314.722L547.921 305.957ZM547.015 305.007L530.711 313.167V174.272L547.015 166.112V305.007Z" fill="#013E39"/>
<path fill-rule="evenodd" clip-rule="evenodd" d="M442.55 77.5166L477.573 95.0458L460.062 103.81L425.039 86.2812L442.55 77.5166Z" fill="#C9FEC6"/>
<path fill-rule="evenodd" clip-rule="evenodd" d="M442.809 76.9554C442.636 76.869 442.42 76.869 442.291 76.9554L424.78 85.72C424.564 85.8063 424.435 86.0222 424.435 86.2812C424.435 86.4971 424.564 86.713 424.78 86.7993L459.803 104.328C459.975 104.415 460.191 104.415 460.32 104.328L477.832 95.5639C478.047 95.4776 478.177 95.2617 478.177 95.0458C478.177 94.8299 478.047 94.6141 477.832 94.5277L442.809 76.9554ZM442.55 78.1643L476.236 95.0026L460.061 103.076L426.375 86.2381L442.55 78.1643Z" fill="#013E39"/>
<path fill-rule="evenodd" clip-rule="evenodd" d="M425.039 261.573L460.062 279.102V103.81L425.039 86.2812V261.573Z" fill="#C9FEC6"/>
<path fill-rule="evenodd" clip-rule="evenodd" d="M424.435 261.573C424.435 261.789 424.564 262.004 424.78 262.091L459.803 279.62C459.975 279.706 460.191 279.706 460.406 279.577C460.579 279.447 460.708 279.274 460.708 279.059V103.767C460.708 103.551 460.579 103.335 460.363 103.249L425.34 85.7198C425.168 85.6335 424.952 85.6335 424.736 85.763C424.564 85.8926 424.435 86.0653 424.435 86.2811V261.573ZM425.642 261.184C425.642 261.184 425.642 101.22 425.642 87.231L459.457 104.156V278.109L425.642 261.184Z" fill="#013E39"/>
<path fill-rule="evenodd" clip-rule="evenodd" d="M477.573 270.337L460.062 279.102V103.81L477.573 95.0459V270.337Z" fill="#C9FEC6"/>
<path fill-rule="evenodd" clip-rule="evenodd" d="M477.832 270.855C478.047 270.769 478.177 270.553 478.177 270.337V95.0458C478.177 94.8299 478.047 94.6572 477.875 94.5277C477.702 94.3981 477.487 94.3981 477.271 94.4845L459.76 103.249C459.544 103.335 459.415 103.551 459.415 103.767V279.059C459.415 279.275 459.544 279.447 459.716 279.577C459.889 279.706 460.105 279.706 460.32 279.62L477.832 270.855ZM476.969 269.949L460.665 278.109V104.156L476.969 95.9956V269.949Z" fill="#013E39"/>
<path fill-rule="evenodd" clip-rule="evenodd" d="M207.008 462.337C207.008 462.337 219.904 462.337 229.997 462.337C237.718 462.337 245.309 460.524 252.21 457.07C291.028 437.641 426.548 369.813 472.742 346.671C475.675 345.203 477.573 342.181 477.573 338.856C477.573 335.575 475.718 332.553 472.742 331.042C452.341 320.809 419.086 304.187 419.086 304.187L207.008 462.337Z" fill="#013E39"/>
<path fill-rule="evenodd" clip-rule="evenodd" d="M206.663 461.863C206.447 462.035 206.361 462.295 206.447 462.554C206.533 462.813 206.749 462.985 207.008 462.985C207.008 462.985 219.904 462.985 229.997 462.985C237.804 462.985 245.524 461.172 252.512 457.675C291.33 438.246 426.85 370.418 473.044 347.276C476.193 345.678 478.177 342.483 478.177 338.943C478.177 335.402 476.193 332.207 473.044 330.61C452.643 320.377 419.388 303.755 419.388 303.755C419.173 303.669 418.957 303.669 418.741 303.798L206.663 461.863ZM208.819 461.733L419.173 304.964C422.666 306.734 453.247 322.018 472.483 331.646C475.244 333.028 476.969 335.834 476.969 338.9C476.969 341.965 475.244 344.771 472.483 346.153C426.289 369.295 290.77 437.123 251.951 456.552C245.136 459.963 237.631 461.733 229.997 461.733H208.819Z" fill="#013E39"/>
<path fill-rule="evenodd" clip-rule="evenodd" d="M41.1661 359.926L263.726 248.533C271.877 244.432 286.801 245.295 296.98 250.39L449.407 326.681L458.896 325.904V336.611C459.069 339.288 457.387 341.792 453.721 343.605L219.818 460.697C211.666 464.798 196.742 463.935 186.563 458.84L33.4886 382.247C27.6227 379.354 24.6035 375.641 24.6035 372.274V361.307L41.1661 359.926Z" fill="#C9FEC6"/>
<path fill-rule="evenodd" clip-rule="evenodd" d="M24 372.274C24 375.814 27.1055 379.743 33.187 382.809L186.261 459.402C196.613 464.583 211.752 465.403 220.077 461.258L453.98 344.167C457.862 342.224 459.63 339.547 459.501 336.697C459.501 336.654 459.501 336.654 459.501 336.611V325.904C459.501 325.731 459.414 325.558 459.285 325.472C459.156 325.342 458.983 325.299 458.811 325.299L449.494 326.076C444.189 323.399 297.239 249.829 297.239 249.829C286.888 244.648 271.748 243.827 263.467 247.972L40.9939 359.321L24.5607 360.66C24.2588 360.703 24 360.962 24 361.264V372.274ZM458.897 337.216C458.595 337.216 458.336 336.956 458.293 336.654C458.466 339.115 456.826 341.404 453.462 343.087L219.559 460.179C211.537 464.194 196.872 463.33 186.865 458.322L33.7478 381.729C30.9011 380.304 28.7445 378.707 27.3211 377.066C25.9409 375.469 25.2077 373.871 25.2077 372.274V361.869L41.2095 360.573C41.2958 360.573 41.3821 360.53 41.4252 360.53L263.985 249.138C272.007 245.123 286.672 245.986 296.722 250.995L449.192 327.285C449.278 327.328 449.408 327.372 449.494 327.328L458.336 326.594V336.611C458.293 336.956 458.552 337.216 458.897 337.216ZM24.6038 372.878C24.6038 372.878 23.7843 371.756 24.5607 371.669C24.7332 371.626 24.6038 372.835 24.6038 372.878ZM458.897 337.216C458.811 337.086 458.12 336.093 458.854 336.007C459.026 336.007 458.897 337.086 458.897 337.216Z" fill="#013E39"/>
<path fill-rule="evenodd" clip-rule="evenodd" d="M296.981 239.424C286.801 234.329 271.878 233.509 263.726 237.567L29.7797 354.615C21.6279 358.717 23.2669 366.143 33.4891 371.281L186.563 447.874C196.743 452.968 211.666 453.789 219.818 449.73L453.721 332.639C461.873 328.537 460.234 321.111 450.012 316.016L296.981 239.424Z" fill="#C9FEC6"/>
<path fill-rule="evenodd" clip-rule="evenodd" d="M297.239 238.863C286.887 233.681 271.748 232.861 263.467 237.006L29.5206 354.097C26.027 355.867 24.2586 358.199 24.0429 360.746C23.9135 362.257 24.3448 363.898 25.3369 365.452C26.7602 367.697 29.4344 369.943 33.1868 371.842L186.261 448.435C196.613 453.616 211.752 454.437 220.076 450.292L453.98 333.2C457.473 331.43 459.242 329.099 459.457 326.551C459.587 325.04 459.155 323.4 458.12 321.845C456.697 319.6 454.023 317.355 450.27 315.455L297.239 238.863ZM296.678 239.942L449.753 316.535C452.729 318.003 454.972 319.687 456.395 321.457C457.775 323.097 458.422 324.824 458.293 326.422C458.12 328.581 456.481 330.567 453.462 332.078L219.516 449.212C211.493 453.228 196.828 452.364 186.822 447.356L33.7475 370.72C30.7714 369.252 28.5717 367.568 27.1053 365.798C25.725 364.157 25.0781 362.43 25.2075 360.833C25.38 358.674 27.019 356.688 30.0382 355.177L263.941 238.085C272.007 234.07 286.672 234.934 296.678 239.942Z" fill="#013E39"/>
<path fill-rule="evenodd" clip-rule="evenodd" d="M294.177 245.684C284.645 240.892 270.67 240.115 263.036 243.957L42.5466 354.27C34.9123 358.113 36.4651 365.064 45.9972 369.856L189.367 441.613C198.899 446.406 212.874 447.183 220.508 443.34L440.997 332.984C448.632 329.142 447.079 322.191 437.547 317.398L294.177 245.684Z" fill="#013E39"/>
<path fill-rule="evenodd" clip-rule="evenodd" d="M294.436 245.123C284.731 240.244 270.541 239.51 262.734 243.396L42.2451 353.752C38.9671 355.393 37.285 357.638 37.0693 360.012C36.9399 361.437 37.3713 362.948 38.3202 364.459C39.6572 366.575 42.1589 368.647 45.6957 370.461L189.065 442.218C198.77 447.097 212.96 447.831 220.767 443.945L441.256 333.589C444.534 331.948 446.217 329.703 446.432 327.329C446.562 325.904 446.13 324.393 445.181 322.882C443.844 320.766 441.343 318.694 437.806 316.88L294.436 245.123ZM293.875 246.202L437.245 317.96C440.006 319.341 442.119 320.939 443.456 322.536C444.75 324.091 445.354 325.645 445.224 327.156C445.052 329.185 443.542 331.042 440.739 332.423L220.206 442.823C212.702 446.579 198.986 445.802 189.583 441.096L46.2564 369.338C43.496 367.957 41.3825 366.359 40.0454 364.762C38.7515 363.207 38.1476 361.653 38.277 360.142C38.4496 358.113 39.9592 356.256 42.7627 354.875L263.252 244.519C270.8 240.719 284.516 241.496 293.875 246.202Z" fill="#013E39"/>
<path fill-rule="evenodd" clip-rule="evenodd" d="M141.75 333.546L216.756 344.771L238.926 393.128L327.95 292.443L141.75 333.546Z" fill="#013E39"/>
<path fill-rule="evenodd" clip-rule="evenodd" d="M141.62 332.941C141.318 332.985 141.146 333.244 141.146 333.546C141.146 333.848 141.361 334.064 141.663 334.107L216.324 345.29C218.179 349.348 238.364 393.344 238.364 393.344C238.451 393.516 238.623 393.646 238.839 393.689C239.054 393.732 239.227 393.646 239.399 393.473L328.423 292.788C328.596 292.573 328.639 292.313 328.51 292.098C328.38 291.882 328.121 291.752 327.863 291.795L141.62 332.941ZM145.07 333.416C145.07 333.416 307.289 297.624 326.267 293.393L239.054 392.005L217.273 344.512C217.187 344.34 217.014 344.21 216.798 344.167L145.07 333.416Z" fill="#013E39"/>
<path fill-rule="evenodd" clip-rule="evenodd" d="M137.393 387.774C141.836 389.976 141.404 393.862 136.401 396.366C131.441 398.87 123.807 399.129 119.364 396.927C114.922 394.725 115.353 390.839 120.356 388.335C125.316 385.788 132.951 385.572 137.393 387.774Z" fill="#013E39"/>
<path fill-rule="evenodd" clip-rule="evenodd" d="M137.652 387.256C133.08 384.968 125.187 385.183 120.054 387.817C117.337 389.199 115.913 390.969 115.698 392.696C115.482 394.466 116.56 396.236 119.062 397.488C123.634 399.777 131.527 399.561 136.66 396.927C139.377 395.545 140.8 393.775 141.016 392.048C141.232 390.278 140.153 388.508 137.652 387.256ZM137.134 388.335C139.075 389.285 139.981 390.58 139.852 391.919C139.679 393.344 138.428 394.725 136.142 395.848C131.311 398.266 123.936 398.525 119.623 396.366C117.682 395.416 116.776 394.121 116.905 392.782C117.078 391.357 118.329 389.976 120.615 388.853C125.402 386.435 132.821 386.176 137.134 388.335Z" fill="#013E39"/>
<path fill-rule="evenodd" clip-rule="evenodd" d="M346.409 161.233L285.335 314.074L195.146 236.963L102.111 222.37L346.409 161.233Z" fill="#C9FEC6"/>
<path fill-rule="evenodd" clip-rule="evenodd" d="M346.97 161.492C347.057 161.276 347.013 161.06 346.884 160.888C346.755 160.715 346.496 160.629 346.28 160.715L101.982 221.808C101.723 221.894 101.508 222.153 101.508 222.412C101.508 222.715 101.723 222.931 102.025 222.974C102.025 222.974 190.488 236.833 194.888 237.524L284.947 314.548C285.076 314.678 285.292 314.721 285.464 314.678C285.637 314.635 285.81 314.505 285.896 314.333L346.97 161.492ZM345.418 162.14L285.076 313.08L195.535 236.488C195.449 236.401 195.362 236.358 195.233 236.358C195.233 236.358 120.96 224.744 105.131 222.24L345.418 162.14Z" fill="#013E39"/>
<path fill-rule="evenodd" clip-rule="evenodd" d="M285.335 314.074L212.744 251.988L346.409 161.233L285.335 314.074Z" fill="#C9FEC6"/>
<path fill-rule="evenodd" clip-rule="evenodd" d="M284.947 314.549C285.076 314.678 285.292 314.721 285.464 314.678C285.637 314.635 285.81 314.505 285.896 314.333L346.97 161.492C347.057 161.233 347.013 160.974 346.798 160.802C346.582 160.629 346.28 160.629 346.065 160.758L212.399 251.47C212.227 251.556 212.141 251.729 212.141 251.944C212.141 252.117 212.227 252.333 212.356 252.419L284.947 314.549ZM285.076 313.081L213.736 252.031L345.116 162.831L285.076 313.081Z" fill="#013E39"/>
<path fill-rule="evenodd" clip-rule="evenodd" d="M346.409 161.233L212.744 251.988L195.146 329.876L176.815 234.07L346.409 161.233Z" fill="#C9FEC6"/>
<path fill-rule="evenodd" clip-rule="evenodd" d="M346.755 161.752C347.014 161.579 347.1 161.233 346.927 160.974C346.798 160.715 346.453 160.586 346.151 160.715L176.6 233.509C176.342 233.638 176.212 233.897 176.255 234.156L194.586 329.962C194.629 330.221 194.888 330.437 195.147 330.437C195.449 330.437 195.665 330.265 195.751 329.962C195.751 329.962 212.227 256.953 213.262 252.29C218.999 248.491 346.755 161.752 346.755 161.752ZM340.846 164.299L212.4 251.47C212.27 251.556 212.184 251.686 212.141 251.815L195.233 326.94L177.506 234.459C185.96 230.789 312.12 176.647 340.846 164.299Z" fill="#013E39"/>
<path fill-rule="evenodd" clip-rule="evenodd" d="M246.991 281.261L195.146 329.876L212.744 251.988L246.991 281.261Z" fill="#C9FEC6"/>
<path fill-rule="evenodd" clip-rule="evenodd" d="M247.379 281.692C247.509 281.563 247.552 281.39 247.552 281.217C247.552 281.045 247.465 280.872 247.336 280.786L213.089 251.513C212.917 251.383 212.701 251.34 212.529 251.383C212.313 251.47 212.184 251.599 212.141 251.815L194.543 329.703C194.5 329.962 194.586 330.221 194.845 330.351C195.104 330.48 195.362 330.437 195.578 330.265L247.379 281.692ZM246.085 281.304L196.182 328.106C198.683 317.01 211.278 261.184 213.089 253.11L246.085 281.304Z" fill="#013E39"/>
<path fill-rule="evenodd" clip-rule="evenodd" d="M523.12 384.32L708.026 476.844L609.901 525.935L425.039 433.41L523.12 384.32Z" fill="#013E39"/>
<path fill-rule="evenodd" clip-rule="evenodd" d="M523.422 383.802C523.249 383.715 523.034 383.715 522.904 383.802L424.78 432.892C424.564 432.978 424.435 433.194 424.435 433.41C424.435 433.626 424.564 433.842 424.78 433.971L609.642 526.496C609.815 526.582 610.03 526.582 610.16 526.496L708.241 477.406C708.457 477.319 708.586 477.103 708.586 476.844C708.586 476.628 708.457 476.412 708.241 476.326L523.422 383.802ZM523.12 385.01C523.12 385.01 691.549 469.289 706.645 476.844L609.901 525.287C602.396 521.531 441.127 440.836 426.375 433.453L523.12 385.01Z" fill="#013E39"/>
<path fill-rule="evenodd" clip-rule="evenodd" d="M497.586 386.738L682.491 479.262L584.367 528.396L399.504 435.871L497.586 386.738Z" fill="#C9FEC6"/>
<path fill-rule="evenodd" clip-rule="evenodd" d="M497.888 386.22C497.715 386.133 497.499 386.133 497.37 386.22L399.245 435.31C399.03 435.396 398.9 435.612 398.9 435.828C398.9 436.044 399.03 436.26 399.245 436.346L584.108 528.871C584.28 528.957 584.496 528.957 584.625 528.871L682.707 479.78C682.923 479.694 683.052 479.478 683.052 479.262C683.052 479.046 682.923 478.83 682.707 478.744L497.888 386.22ZM497.586 387.428L681.111 479.262C681.111 479.262 589.974 524.898 584.367 527.705C576.862 523.949 415.592 443.254 400.841 435.871L497.586 387.428Z" fill="#013E39"/>
<path fill-rule="evenodd" clip-rule="evenodd" d="M509.231 356.213L694.094 448.737L596.012 497.828L411.15 405.303L509.231 356.213Z" fill="#C9FEC6"/>
<path fill-rule="evenodd" clip-rule="evenodd" d="M509.49 355.695C509.318 355.608 509.102 355.608 508.973 355.695L410.891 404.785C410.676 404.871 410.546 405.087 410.546 405.303C410.546 405.519 410.676 405.735 410.891 405.821L595.754 498.346C595.926 498.432 596.142 498.432 596.271 498.346L694.396 449.299C694.612 449.212 694.741 448.996 694.741 448.78C694.741 448.565 694.612 448.349 694.396 448.262L509.49 355.695ZM509.232 356.904L692.757 448.737L596.013 497.18C596.013 497.18 427.583 412.902 412.487 405.346L509.232 356.904Z" fill="#013E39"/>
<path fill-rule="evenodd" clip-rule="evenodd" d="M487.407 385.788L635.047 459.66L625.428 464.453L477.832 390.58L487.407 385.788Z" fill="#013E39"/>
<path fill-rule="evenodd" clip-rule="evenodd" d="M487.709 385.226C487.536 385.14 487.321 385.14 487.191 385.226L477.616 390.019C477.4 390.105 477.271 390.321 477.271 390.537C477.271 390.753 477.4 390.969 477.616 391.055L625.213 464.928C625.385 465.014 625.601 465.014 625.73 464.928L635.306 460.135C635.521 460.049 635.651 459.833 635.651 459.617C635.651 459.401 635.521 459.186 635.306 459.099L487.709 385.226ZM487.407 386.478L633.666 459.704L625.428 463.849L479.169 390.58L487.407 386.478Z" fill="#013E39"/>
<path fill-rule="evenodd" clip-rule="evenodd" d="M496.076 407.678L591.311 455.343L581.693 460.136L486.458 412.47L496.076 407.678Z" fill="#013E39"/>
<path fill-rule="evenodd" clip-rule="evenodd" d="M496.335 407.117C496.163 407.03 495.947 407.03 495.818 407.117L486.242 411.909C486.027 411.995 485.897 412.211 485.897 412.427C485.897 412.643 486.027 412.859 486.242 412.945L581.477 460.611C581.65 460.697 581.865 460.697 581.995 460.611L591.57 455.818C591.786 455.732 591.915 455.516 591.915 455.3C591.915 455.084 591.786 454.868 591.57 454.782L496.335 407.117ZM496.077 408.325L589.974 455.3L581.736 459.445C581.736 459.445 498.319 417.694 487.838 412.47L496.077 408.325Z" fill="#013E39"/>
</g>
</g>
<defs>
<clipPath id="clip0_67_279">
<rect width="596" height="551.19" fill="white"/>
</clipPath>
<clipPath id="clip1_67_279">
<rect width="790" height="508" fill="white" transform="translate(24 21)"/>
</clipPath>
</defs>
</svg>
