<svg
  width="24"
  height="24"
  viewBox="0 0 24 24"
  fill="#003e39"
  xmlns="http://www.w3.org/2000/svg"
>
  <path
    d="M20.4683 6.71333C19.8321 6.99474 19.1574 7.17956 18.4666 7.26167C19.1947 6.82619 19.7397 6.14084 19.9999 5.33333C19.3166 5.74 18.5674 6.025 17.7866 6.17917C17.2621 5.61798 16.5669 5.2458 15.809 5.12049C15.0512 4.99517 14.2732 5.12374 13.596 5.48621C12.9187 5.84868 12.3802 6.42474 12.0642 7.12483C11.7481 7.82492 11.6722 8.60982 11.8483 9.3575C10.4625 9.28804 9.10686 8.92794 7.86933 8.30055C6.63179 7.67317 5.54003 6.79254 4.66492 5.71583C4.35516 6.24788 4.19238 6.85269 4.19326 7.46833C4.19326 8.67667 4.80826 9.74417 5.74326 10.3692C5.18993 10.3517 4.64878 10.2023 4.16492 9.93333V9.97667C4.16509 10.7814 4.44356 11.5613 4.95313 12.1842C5.46269 12.8071 6.17199 13.2346 6.96075 13.3942C6.4471 13.5334 5.90851 13.5539 5.38576 13.4542C5.60814 14.1469 6.04159 14.7527 6.62541 15.1868C7.20924 15.6208 7.9142 15.8615 8.64159 15.875C7.91866 16.4428 7.0909 16.8625 6.20566 17.1101C5.32041 17.3578 4.39503 17.4285 3.48242 17.3183C5.0755 18.3429 6.93 18.8868 8.82409 18.885C15.2349 18.885 18.7408 13.5742 18.7408 8.96833C18.7408 8.81833 18.7366 8.66667 18.7299 8.51833C19.4123 8.02514 20.0013 7.41418 20.4691 6.71417L20.4683 6.71333Z"
    fill="#003e39"
  ></path>
</svg>
