<svg width="49" height="49" viewBox="0 0 49 49" fill="none" xmlns="http://www.w3.org/2000/svg">
<path d="M24.5001 32.1769C28.74 32.1769 32.1772 28.7398 32.1772 24.4998C32.1772 20.2599 28.74 16.8228 24.5001 16.8228C20.2601 16.8228 16.823 20.2599 16.823 24.4998C16.823 28.7398 20.2601 32.1769 24.5001 32.1769Z" fill="#013E39"/>
<path d="M40.5521 24.4998C40.5521 28.7397 37.1148 32.1769 32.875 32.1769V16.8228C37.1148 16.8228 40.5521 20.26 40.5521 24.4998Z" fill="#013E39"/>
<path d="M48.9271 24.4998C48.9271 28.7397 45.4898 32.1769 41.25 32.1769V16.8228C45.4898 16.8228 48.9271 20.26 48.9271 24.4998Z" fill="#013E39"/>
<path d="M8.448 24.4998C8.448 20.26 11.8852 16.8228 16.1251 16.8228V32.1769C11.8852 32.1769 8.448 28.7397 8.448 24.4998Z" fill="#013E39"/>
<path d="M0.072998 24.4998C0.072998 20.26 3.51024 16.8228 7.75008 16.8228V32.1769C3.51024 32.1769 0.072998 28.7397 0.072998 24.4998Z" fill="#013E39"/>
<path d="M24.5001 8.44775C28.7399 8.44775 32.1772 11.885 32.1772 16.1248H16.823C16.823 11.885 20.2602 8.44775 24.5001 8.44775Z" fill="#013E39"/>
<path d="M24.5001 0.0727539C28.7399 0.0727539 32.1772 3.50999 32.1772 7.74984H16.823C16.823 3.50999 20.2602 0.0727539 24.5001 0.0727539Z" fill="#013E39"/>
<path d="M24.5001 40.5521C20.2602 40.5521 16.823 37.1148 16.823 32.875H32.1772C32.1772 37.1148 28.7399 40.5521 24.5001 40.5521Z" fill="#013E39"/>
<path d="M24.5001 48.9271C20.2602 48.9271 16.823 45.4898 16.823 41.25H32.1772C32.1772 45.4898 28.7399 48.9271 24.5001 48.9271Z" fill="#013E39"/>
<path d="M32.875 40.5521V32.875H40.5521C40.5521 37.1148 37.1148 40.5521 32.875 40.5521Z" fill="#013E39"/>
<path d="M40.5521 16.1248H32.875V8.44775C37.1148 8.44775 40.5521 11.885 40.5521 16.1248Z" fill="#013E39"/>
<path d="M16.1251 8.44775V16.1248H8.448C8.448 11.885 11.8852 8.44775 16.1251 8.44775Z" fill="#013E39"/>
<path d="M8.448 32.875H16.1251V40.5521C11.8852 40.5521 8.448 37.1148 8.448 32.875Z" fill="#013E39"/>
</svg>
