<svg width="43" height="43" viewBox="0 0 43 43" fill="none" xmlns="http://www.w3.org/2000/svg">
<g clip-path="url(#clip0_6_7334)">
<path d="M13.5876 41.4902L13.5876 1.50961C15.7522 0.6547 18.0441 0.145393 20.3723 0.0180664L20.3723 42.9635C18.0441 42.8544 15.7522 42.3632 13.5876 41.4902Z" fill="#013E39"/>
<path d="M7.93053 38.1794L7.93053 4.83805C9.31293 3.7103 10.8409 2.76445 12.4597 2.00049L12.4597 41.017C10.8227 40.253 9.31293 39.3072 7.93053 38.1794Z" fill="#013E39"/>
<path d="M21.5 43L21.5 0C33.3777 0 43 9.62225 43 21.5C43 33.3778 33.3777 43 21.5 43Z" fill="#013E39"/>
<path d="M3.40154 33.0864L3.40154 9.91295C4.36559 8.42141 5.49333 7.03901 6.80298 5.82031L6.80298 37.179C5.49333 35.9603 4.3474 34.5961 3.40154 33.0864Z" fill="#013E39"/>
<path d="M-0.000127077 21.4996C-0.000127077 18.1709 0.763831 14.8786 2.25537 11.8955L2.25537 31.1036C0.763831 28.1206 -0.000127077 24.8282 -0.000127077 21.4996Z" fill="#013E39"/>
</g>
<defs>
<clipPath id="clip0_6_7334">
<rect width="43" height="43" fill="white"/>
</clipPath>
</defs>
</svg>
