
<svg width="59" height="59" viewBox="0 0 59 59" fill="none" xmlns="http://www.w3.org/2000/svg">
<path d="M21.5105 53.3994L21.5105 5.60791C21.9177 5.46963 22.3248 5.34671 22.7397 5.23148L22.7397 53.7759C22.3248 53.6606 21.9177 53.53 21.5105 53.3994Z" fill="#013E39"/>
<path d="M16.5938 51.1411L16.5937 7.85908C16.9932 7.62093 17.4081 7.39046 17.8229 7.17535L17.8229 51.8325C17.4081 51.6097 16.9932 51.3793 16.5938 51.1411Z" fill="#013E39"/>
<path d="M23.9688 54.0831L23.9687 4.91647C24.3759 4.82429 24.7831 4.74746 25.1979 4.67064L25.1979 54.3213C24.7831 54.2521 24.3759 54.1753 23.9688 54.0831Z" fill="#013E39"/>
<path d="M41.177 51.8247L41.177 7.16754C41.5918 7.38265 42.0067 7.61312 42.4062 7.85127L42.4062 51.1333C42.0067 51.3791 41.5918 51.6096 41.177 51.8247Z" fill="#013E39"/>
<path d="M43.6355 50.3574L43.6355 8.6349C44.058 8.91914 44.4652 9.21875 44.8647 9.53372L44.8647 49.4663C44.4652 49.7736 44.058 50.0732 43.6355 50.3574Z" fill="#013E39"/>
<path d="M14.1355 49.4663L14.1355 9.53372C14.535 9.22643 14.9421 8.92683 15.3647 8.6349L15.3647 50.3574C14.9421 50.0732 14.535 49.7736 14.1355 49.4663Z" fill="#013E39"/>
<path d="M36.2605 53.7759L36.2605 5.22379C36.6753 5.33903 37.0825 5.46194 37.4897 5.60023L37.4897 53.3918C37.0825 53.53 36.6753 53.6606 36.2605 53.7759Z" fill="#013E39"/>
<path d="M11.677 47.3152L11.677 11.6924C12.0688 11.2929 12.4836 10.9165 12.9062 10.5477L12.9062 48.4521C12.4836 48.0834 12.0688 47.707 11.677 47.3152Z" fill="#013E39"/>
<path d="M19.052 52.4317L19.052 6.57611C19.4592 6.39174 19.8663 6.21504 20.2812 6.05371L20.2812 52.9541C19.8663 52.7851 19.4592 52.6161 19.052 52.4317Z" fill="#013E39"/>
<path d="M26.427 54.5059L26.427 4.49414C26.8342 4.44805 27.2413 4.40195 27.6562 4.37891L27.6562 54.6211C27.2413 54.5904 26.8342 54.552 26.427 54.5059Z" fill="#013E39"/>
<path d="M31.3438 54.6211L31.3437 4.37891C31.7586 4.40964 32.1658 4.44805 32.5729 4.49414L32.5729 54.5059C32.1658 54.552 31.7586 54.5904 31.3438 54.6211Z" fill="#013E39"/>
<path d="M29.5001 54.6978C29.2927 54.6978 29.0929 54.6901 28.8855 54.6824L28.8855 4.31728C29.0929 4.3096 29.2927 4.30192 29.5001 4.30192C29.7075 4.30192 29.9072 4.3096 30.1147 4.31728L30.1147 54.6824C29.9072 54.6901 29.7075 54.6978 29.5001 54.6978Z" fill="#013E39"/>
<path d="M33.802 54.3213L33.802 4.67064C34.2168 4.73978 34.624 4.82429 35.0312 4.91647L35.0312 54.0831C34.624 54.1753 34.2168 54.2521 33.802 54.3213Z" fill="#013E39"/>
<path d="M38.7188 52.9463L38.7187 6.0459C39.1336 6.20723 39.5408 6.38392 39.9479 6.56829L39.9479 52.4239C39.5408 52.6159 39.1336 52.785 38.7188 52.9463Z" fill="#013E39"/>
<path d="M53.4688 21.7256C55.1051 26.7805 55.1051 32.2273 53.4688 37.2822V21.7256Z" fill="#013E39"/>
<path d="M9.21875 44.4494L9.21875 14.5499C9.61055 14.0198 10.0177 13.5128 10.4479 13.0211L10.4479 45.9858C10.0177 45.4865 9.61055 44.9795 9.21875 44.4494Z" fill="#013E39"/>
<path d="M48.552 45.9785L48.552 13.0138C48.9822 13.5055 49.3894 14.0202 49.7812 14.5426L49.7812 44.4421C49.3894 44.9798 48.9822 45.4868 48.552 45.9785Z" fill="#013E39"/>
<path d="M4.302 29.5001C4.302 26.8574 4.71685 24.2377 5.53117 21.7256L5.53117 37.2822C4.71685 34.7624 4.302 32.1428 4.302 29.5001Z" fill="#013E39"/>
<path d="M51.0105 42.6294V16.3713C51.4561 17.1011 51.8709 17.8617 52.2397 18.6299V40.3631C51.8709 41.139 51.4561 41.8919 51.0105 42.6294Z" fill="#013E39"/>
<path d="M46.0938 48.4521L46.0937 10.5477C46.5163 10.9165 46.9311 11.2929 47.3229 11.6924L47.3229 47.3152C46.9311 47.707 46.5163 48.0834 46.0938 48.4521Z" fill="#013E39"/>
<path d="M6.7605 40.3631L6.7605 18.6299C7.12925 17.854 7.54409 17.1011 7.98966 16.3713L7.98966 42.6294C7.54409 41.8919 7.12925 41.139 6.7605 40.3631Z" fill="#013E39"/>
<path d="M29.5001 46.7085C19.9971 46.7085 12.2917 39.0032 12.2917 29.5002C12.2917 19.9972 19.9971 12.2918 29.5001 12.2918C39.0031 12.2918 46.7084 19.9972 46.7084 29.5002C46.7084 39.0032 39.0031 46.7085 29.5001 46.7085ZM29.5001 22.7397C25.7665 22.7397 22.7397 25.7666 22.7397 29.5002C22.7397 33.2338 25.7665 36.2606 29.5001 36.2606C33.2337 36.2606 36.2605 33.2338 36.2605 29.5002C36.2605 25.7666 33.2337 22.7397 29.5001 22.7397Z" fill="#013E39"/>
</svg>
