
<svg width="37" height="37" viewBox="0 0 37 37" fill="none" xmlns="http://www.w3.org/2000/svg">
<path d="M0.583496 18.4996C0.583496 8.60068 8.60116 0.583008 18.5001 0.583008C28.399 0.583008 36.4167 8.60068 36.4167 18.4996C36.4167 28.3985 28.399 36.4162 18.5001 36.4162C8.6161 36.4012 0.598427 28.3836 0.583496 18.4996ZM18.5001 18.4996C16.7681 18.4996 15.3647 19.9031 15.3647 21.635C15.3647 23.3669 16.7681 24.7704 18.5001 24.7704C20.232 24.7704 21.6355 23.3669 21.6355 21.635C21.6355 19.9031 20.232 18.4996 18.5001 18.4996ZM22.0834 21.635C22.0834 23.6207 20.4858 25.2183 18.515 25.2332C16.5292 25.2332 14.9317 23.6357 14.9168 21.6648C14.9168 21.0975 15.0511 20.5301 15.3049 20.0225C14.1553 21.7843 14.6629 24.1433 16.4247 25.293C18.1865 26.4426 20.5455 25.935 21.6952 24.1732C22.5164 22.9041 22.5164 21.2767 21.6952 20.0225C21.949 20.5152 22.0834 21.0676 22.0834 21.635ZM22.7553 22.0829C22.7553 24.427 20.8591 26.3381 18.515 26.353C16.1709 26.353 14.2598 24.4568 14.2449 22.1128C14.2449 21.426 14.4091 20.7541 14.7227 20.1569C13.3939 22.2471 14.0209 25.0093 16.1112 26.3381C18.2015 27.6669 20.9636 27.0398 22.2924 24.9496C23.2181 23.4864 23.2181 21.6201 22.2924 20.1419C22.591 20.7392 22.7553 21.411 22.7553 22.0829ZM23.4271 22.5308C23.4271 25.2482 21.2323 27.4579 18.515 27.4728C15.7977 27.4728 13.5879 25.278 13.573 22.5607C13.573 21.7694 13.7671 20.978 14.1254 20.2763C12.6175 22.6951 13.364 25.8752 15.7678 27.3683C18.1865 28.8763 21.3667 28.1297 22.8598 25.7259C23.9049 24.0537 23.9049 21.9485 22.8598 20.2763C23.233 20.9631 23.4271 21.7395 23.4271 22.5308ZM24.099 22.9787C24.099 26.0693 21.6056 28.5777 18.515 28.5926C15.4244 28.5926 12.9161 26.0992 12.9011 23.0086C12.9011 22.0978 13.1251 21.2169 13.5432 20.4107C11.856 23.1579 12.722 26.7412 15.4543 28.4134C18.2015 30.1006 21.7848 29.2346 23.457 26.5023C24.6066 24.636 24.6066 22.277 23.457 20.4107C23.875 21.1871 24.099 22.0829 24.099 22.9787ZM24.7709 23.4266C24.7709 26.8905 21.9789 29.6974 18.515 29.7124C15.0511 29.7124 12.2442 26.9204 12.2293 23.4565C12.2293 22.4412 12.4682 21.4409 12.9459 20.5301C11.0796 23.5909 12.065 27.5923 15.1258 29.4436C18.1865 31.3099 22.1879 30.3245 24.0393 27.2638C25.2934 25.1884 25.2934 22.6055 24.0393 20.5301C24.532 21.426 24.7709 22.4114 24.7709 23.4266ZM25.4427 23.8746C25.4427 27.7117 22.3521 30.8172 18.515 30.8322C14.6779 30.8322 11.5723 27.7416 11.5574 23.9044C11.5574 22.7697 11.8261 21.6648 12.3487 20.6645C10.3182 24.0537 11.4081 28.4582 14.8122 30.5037C18.2015 32.5342 22.606 31.4443 24.6514 28.0402C26.0101 25.7707 26.0101 22.9339 24.6514 20.6645C25.174 21.6499 25.4427 22.7548 25.4427 23.8746ZM26.1146 24.3225C26.1146 28.5329 22.7105 31.937 18.515 31.952C14.3046 31.952 10.9005 28.5478 10.8855 24.3523C10.8855 23.1131 11.1841 21.8888 11.7664 20.784C9.55672 24.5016 10.7661 29.3093 14.4987 31.5339C18.2164 33.7436 23.024 32.5342 25.2487 28.8016C26.7268 26.3381 26.7268 23.2475 25.2487 20.784C25.816 21.8739 26.1146 23.0832 26.1146 24.3225ZM26.7865 24.7704C26.7865 29.354 23.0837 33.0568 18.515 33.0717C13.9313 33.0717 10.2286 29.369 10.2137 24.8002C10.2137 23.4416 10.5421 22.1128 11.1692 20.9183C8.78033 24.9645 10.1241 30.1902 14.1702 32.579C18.2164 34.9679 23.4421 33.6242 25.8309 29.578C27.4136 26.9054 27.4136 23.5909 25.8309 20.9183C26.458 22.0978 26.7865 23.4266 26.7865 24.7704ZM9.54179 25.2183C9.54179 20.2763 13.5432 16.26 18.5001 16.26C23.4421 16.26 27.4584 20.2614 27.4584 25.2183C27.4584 27.8909 26.2639 30.429 24.2035 32.1311C28.4886 28.9808 29.3993 22.9489 26.249 18.6638C23.0987 14.3788 17.0667 13.468 12.7817 16.6183C8.49665 19.7687 7.58589 25.8006 10.7362 30.0856C11.3185 30.862 12.0053 31.5638 12.7817 32.1311C10.7362 30.4141 9.54179 27.8909 9.54179 25.2183ZM8.422 24.3822C8.422 18.8131 12.931 14.3041 18.4851 14.2892C24.0542 14.2892 28.5632 18.7982 28.5781 24.3523C28.5781 27.4429 27.1598 30.3693 24.741 32.2804C29.5785 28.8315 30.6983 22.1277 27.2643 17.2902C23.8153 12.4527 17.1115 11.333 12.2741 14.767C7.43659 18.2159 6.3168 24.9197 9.75082 29.7572C10.4376 30.7276 11.2886 31.5787 12.2741 32.2804C9.84039 30.3843 8.422 27.4579 8.422 24.3822ZM7.30221 23.5461C7.30221 17.3649 12.3039 12.3482 18.4851 12.3333C24.6664 12.3333 29.683 17.335 29.6979 23.5162C29.6979 26.9652 28.1153 30.22 25.4129 32.3401C30.7431 28.5329 31.9674 21.1124 28.1601 15.7822C24.3528 10.4521 16.9324 9.22776 11.6022 13.035C6.27201 16.8423 5.04771 24.2628 8.85499 29.5929C9.61644 30.653 10.5421 31.5787 11.6022 32.3401C8.88484 30.22 7.30221 26.9801 7.30221 23.5461ZM6.18243 22.6951C6.18243 15.8868 11.6918 10.3774 18.4851 10.3625C25.2934 10.3625 30.8028 15.8718 30.8177 22.6652C30.8177 26.4575 29.0709 30.0558 26.0698 32.3849C31.8927 28.2044 33.2365 20.0822 29.041 14.2593C24.8455 8.43644 16.7383 7.0927 10.9154 11.2882C5.0925 15.4687 3.74876 23.5909 7.94422 29.4138C8.7654 30.5634 9.76574 31.5638 10.9154 32.3849C7.9293 30.0707 6.18243 26.4874 6.18243 22.6951ZM5.06264 21.8589C5.06264 14.4385 11.0647 8.42151 18.4851 8.40658C25.9056 8.40658 31.9226 14.4086 31.9375 21.8291C31.9375 25.9798 30.0264 29.9065 26.7417 32.4447C33.0722 27.8909 34.5056 19.0669 29.9518 12.7514C25.398 6.42083 16.574 4.9875 10.2584 9.5413C3.92792 14.0951 2.4946 22.919 7.04839 29.2346C7.94422 30.4738 9.01922 31.5488 10.2584 32.4447C6.97374 29.9214 5.06264 26.0096 5.06264 21.8589ZM3.94285 21.0228C3.94285 12.9902 10.4525 6.46562 18.4851 6.45069C26.5177 6.45069 33.0424 12.9604 33.0573 20.993C33.0573 25.502 30.982 29.7572 27.4136 32.5193C34.2368 27.5922 35.7746 18.0815 30.8476 11.2583C25.9205 4.43507 16.4098 2.89723 9.58658 7.82429C2.76334 12.7514 1.2255 22.2621 6.15256 29.0853C7.10812 30.3992 8.25776 31.5638 9.58658 32.5193C6.03312 29.7572 3.94285 25.5169 3.94285 21.0228ZM2.82307 20.1718C2.82307 11.5121 9.82547 4.49479 18.4851 4.47986C27.1448 4.47986 34.1622 11.4823 34.1771 20.1419C34.1771 25.0093 31.9375 29.5929 28.0854 32.5641C35.4014 27.2638 37.0437 17.0513 31.7434 9.73539C26.4431 2.41946 16.2306 0.777104 8.9147 6.07743C1.59877 11.3777 -0.043586 21.5902 5.25674 28.9061C6.27201 30.3096 7.51124 31.5488 8.9147 32.5641C5.07757 29.6079 2.82307 25.0242 2.82307 20.1718ZM35.9687 18.4996C35.9687 8.8545 28.1601 1.03092 18.515 1.01599C8.86991 1.01599 1.04634 8.82463 1.03141 18.4697C1.03141 24.0687 3.70397 29.3391 8.24283 32.6238C0.897034 26.9652 -0.476565 16.4093 5.19702 9.06352C10.8557 1.71772 21.4115 0.359051 28.7573 6.0177C36.1031 11.6913 37.4618 22.2322 31.8031 29.578C30.9222 30.7277 29.892 31.7429 28.7573 32.6238C33.2813 29.354 35.9687 24.0985 35.9687 18.4996Z" fill="#013E39"/>
</svg>
