
<svg width="349" height="783" viewBox="0 0 349 783" fill="none" xmlns="http://www.w3.org/2000/svg">
<path d="M187.55 108.39C187.55 103.009 183.188 98.6467 177.807 98.6467C172.426 98.6467 168.064 103.009 168.064 108.39C168.064 113.77 172.426 118.132 177.807 118.132C183.188 118.132 187.55 113.77 187.55 108.39ZM179.634 550.472L179.634 108.39L175.98 108.39L175.98 550.472L179.634 550.472Z" fill="#013E39"/>
<path d="M104.736 36.5358C104.736 31.155 100.374 26.7929 94.9931 26.7929C89.6123 26.7929 85.2503 31.155 85.2503 36.5358C85.2503 41.9166 89.6123 46.2787 94.9931 46.2787C100.374 46.2787 104.736 41.9166 104.736 36.5358ZM96.82 393.368L96.8199 36.5358L93.1663 36.5358L93.1664 393.368L96.82 393.368Z" fill="#013E39"/>
<path d="M263.057 36.5357C263.057 31.1549 258.695 26.7929 253.314 26.7929C247.934 26.7929 243.572 31.1549 243.572 36.5357C243.572 41.9165 247.934 46.2786 253.314 46.2786C258.695 46.2786 263.057 41.9166 263.057 36.5357ZM255.141 209.471L255.141 36.5357L251.488 36.5357L251.488 209.471L255.141 209.471Z" fill="#013E39"/>
<g filter="url(#filter0_d_35_2)">
<rect x="59.6748" y="7.30713" width="58.4571" height="58.4571" rx="29.2286" fill="#F6F8FF"/>
<rect x="60.2837" y="7.91606" width="57.2393" height="57.2393" rx="28.6196" stroke="#013E39" stroke-width="1.21786"/>
</g>
<path d="M66.8936 36.6497C66.8936 24.5942 76.6579 14.8298 88.7134 14.8298C100.769 14.8298 110.533 24.5942 110.533 36.6497C110.533 48.7051 100.769 58.4695 88.7134 58.4695C76.6761 58.4513 66.9117 48.6869 66.8936 36.6497ZM88.7134 36.6497C86.6041 36.6497 84.8949 38.3589 84.8949 40.4681C84.8949 42.5774 86.6041 44.2866 88.7134 44.2866C90.8226 44.2866 92.5319 42.5774 92.5319 40.4681C92.5319 38.3589 90.8226 36.6497 88.7134 36.6497ZM93.0774 40.4681C93.0774 42.8865 91.1317 44.8321 88.7316 44.8503C86.3132 44.8503 84.3676 42.9047 84.3494 40.5045C84.3494 39.8135 84.5131 39.1226 84.8222 38.5044C83.4221 40.65 84.0403 43.5229 86.1859 44.923C88.3315 46.3231 91.2045 45.7049 92.6046 43.5593C93.6047 42.0137 93.6047 40.0317 92.6046 38.5044C92.9137 39.1044 93.0774 39.7772 93.0774 40.4681ZM93.8956 41.0136C93.8956 43.8684 91.5863 46.1958 88.7316 46.214C85.8768 46.214 83.5494 43.9048 83.5312 41.05C83.5312 40.2136 83.7312 39.3953 84.113 38.668C82.4947 41.2136 83.2584 44.5775 85.8041 46.1958C88.3497 47.8141 91.7136 47.0505 93.3319 44.5048C94.4593 42.7229 94.4593 40.45 93.3319 38.6498C93.6956 39.3771 93.8956 40.1954 93.8956 41.0136ZM94.7138 41.5591C94.7138 44.8685 92.0409 47.5596 88.7316 47.5778C85.4222 47.5778 82.7311 44.9048 82.7129 41.5955C82.7129 40.6318 82.9493 39.6681 83.3857 38.8135C81.5492 41.7591 82.4584 45.6322 85.3859 47.4505C88.3315 49.287 92.2046 48.3778 94.0229 45.4503C95.2957 43.4138 95.2957 40.85 94.0229 38.8135C94.4775 39.6499 94.7138 40.5954 94.7138 41.5591ZM95.5321 42.1046C95.5321 45.8685 92.4955 48.9233 88.7316 48.9415C84.9676 48.9415 81.9129 45.9049 81.8947 42.141C81.8947 41.0318 82.1674 39.959 82.6766 38.9771C80.6219 42.3228 81.6765 46.6868 85.004 48.7233C88.3497 50.778 92.7137 49.7234 94.7502 46.3959C96.1503 44.123 96.1503 41.25 94.7502 38.9771C95.2593 39.9226 95.5321 41.0136 95.5321 42.1046ZM96.3503 42.6501C96.3503 46.8686 92.9501 50.2871 88.7316 50.3052C84.5131 50.3052 81.0946 46.905 81.0764 42.6865C81.0764 41.45 81.3674 40.2318 81.9492 39.1226C79.6763 42.8501 80.8764 47.7232 84.604 49.9779C88.3315 52.2508 93.2046 51.0508 95.4594 47.3232C96.9867 44.7957 96.9867 41.65 95.4594 39.1226C96.0594 40.2136 96.3503 41.4137 96.3503 42.6501ZM97.1686 43.1956C97.1686 47.8687 93.4046 51.6508 88.7316 51.669C84.0585 51.669 80.2764 47.9051 80.2582 43.232C80.2582 41.8501 80.5855 40.5045 81.2219 39.2862C78.749 43.4138 80.0764 48.7779 84.2221 51.269C88.3497 53.7419 93.7138 52.4145 96.2049 48.2687C97.8595 45.5049 97.8595 42.0501 96.2049 39.2862C96.8413 40.4863 97.1686 41.8319 97.1686 43.1956ZM97.9868 43.7411C97.9868 48.8688 93.841 53.0145 88.7316 53.0327C83.6039 53.0327 79.4581 48.887 79.44 43.7775C79.44 42.2683 79.8036 40.7773 80.5128 39.4317C77.8217 43.9593 79.2945 49.8143 83.8403 52.5236C88.3679 55.2147 94.2229 53.7419 96.9322 49.1961C98.7323 46.1958 98.7323 42.4319 96.9322 39.4317C97.6232 40.7591 97.9868 42.2319 97.9868 43.7411ZM98.8051 44.2866C98.8051 49.8689 94.2956 54.3783 88.7316 54.3965C83.1493 54.3965 78.6399 49.887 78.6217 44.323C78.6217 42.6683 79.0217 41.05 79.7854 39.5953C76.8761 44.523 78.5126 50.8871 83.4403 53.7964C88.3679 56.7057 94.732 55.0692 97.6413 50.1416C99.5688 46.8868 99.5688 42.8501 97.6413 39.5953C98.405 41.0318 98.8051 42.6501 98.8051 44.2866ZM77.8035 44.8321C77.8035 38.8135 82.6766 33.9222 88.7134 33.9222C94.732 33.9222 99.6233 38.7953 99.6233 44.8321C99.6233 48.0869 98.1687 51.178 95.6594 53.2509C100.878 49.4143 101.987 42.0683 98.1505 36.8497C94.3138 31.6311 86.9678 30.5219 81.7492 34.3586C76.5306 38.1952 75.4215 45.5413 79.2581 50.7598C79.9673 51.7054 80.8037 52.56 81.7492 53.2509C79.2581 51.1599 77.8035 48.0869 77.8035 44.8321ZM76.4397 43.8138C76.4397 37.0315 81.9311 31.5402 88.6952 31.522C95.4775 31.522 100.969 37.0133 100.987 43.7775C100.987 47.5414 99.2596 51.1053 96.314 53.4328C102.205 49.2324 103.569 41.0682 99.3869 35.1768C95.1866 29.2855 87.0223 27.9217 81.131 32.1039C75.2396 36.3042 73.8759 44.4684 78.058 50.3598C78.8945 51.5417 79.9309 52.5781 81.131 53.4328C78.1671 51.1235 76.4397 47.5596 76.4397 43.8138ZM75.076 42.7956C75.076 35.2677 81.1674 29.1582 88.6952 29.14C96.2231 29.14 102.333 35.2314 102.351 42.7592C102.351 46.9595 100.423 50.9235 97.1322 53.5055C103.624 48.8688 105.115 39.8317 100.478 33.3403C95.8412 26.8489 86.8041 25.3579 80.3127 29.9946C73.8213 34.6313 72.3303 43.6684 76.967 50.1598C77.8944 51.4508 79.0217 52.5781 80.3127 53.5055C77.0034 50.9235 75.076 46.9777 75.076 42.7956ZM73.7123 41.7591C73.7123 33.4676 80.4219 26.758 88.6952 26.7398C96.9867 26.7398 103.696 33.4494 103.715 41.7228C103.715 46.3413 101.587 50.7235 97.9323 53.56C105.024 48.4687 106.66 38.5771 101.551 31.4856C96.4412 24.3942 86.5678 22.7577 79.4763 27.8672C72.3849 32.9585 70.7484 42.8501 75.8579 49.9416C76.8579 51.3417 78.0762 52.56 79.4763 53.56C75.8397 50.7416 73.7123 46.3777 73.7123 41.7591ZM72.3485 40.7409C72.3485 31.7038 79.6582 24.376 88.6952 24.3578C97.7323 24.3578 105.06 31.6675 105.078 40.7045C105.078 45.7594 102.751 50.5416 98.7505 53.6328C106.46 48.0869 108.206 37.3406 102.66 29.6491C97.114 21.9395 86.3678 20.1939 78.6763 25.7398C70.9666 31.2856 69.221 42.0319 74.7669 49.7234C75.8579 51.2326 77.1671 52.5418 78.6763 53.6328C74.676 50.5598 72.3485 45.7958 72.3485 40.7409ZM70.9848 39.7226C70.9848 29.9401 78.9127 21.994 88.6952 21.9758C98.4778 21.9758 106.424 29.9037 106.442 39.6863C106.442 45.1776 103.915 50.3598 99.5688 53.7237C107.878 47.7232 109.751 36.1405 103.751 27.8308C97.7504 19.5211 86.1677 17.6482 77.858 23.6487C69.5483 29.6491 67.6754 41.2318 73.6759 49.5415C74.8396 51.1417 76.2397 52.56 77.858 53.7237C73.5304 50.3598 70.9848 45.1958 70.9848 39.7226ZM69.621 38.6862C69.621 28.1399 78.149 19.5938 88.6952 19.5756C99.2415 19.5756 107.788 28.1036 107.806 38.6498C107.806 44.5775 105.078 50.1598 100.387 53.7782C109.297 47.3232 111.297 34.8859 104.842 25.9761C98.3868 17.0664 85.9495 15.0662 77.0398 21.5212C68.13 27.9763 66.1299 40.4136 72.5849 49.3234C73.8213 51.0326 75.3306 52.5418 77.0398 53.7782C72.3667 50.178 69.621 44.5957 69.621 38.6862ZM109.988 36.6497C109.988 24.9033 100.478 15.3753 88.7316 15.3571C76.9852 15.3571 67.4572 24.867 67.4391 36.6133C67.4391 43.432 70.6938 49.8507 76.2215 53.851C67.2754 46.9595 65.6026 34.104 72.5122 25.1579C79.4036 16.2118 92.2591 14.5571 101.205 21.4485C110.151 28.3581 111.806 41.1955 104.915 50.1416C103.842 51.5417 102.587 52.7782 101.205 53.851C106.715 49.8689 109.988 43.4684 109.988 36.6497Z" fill="#013E39"/>
<g filter="url(#filter1_d_35_2)">
<rect x="224.086" width="58.4571" height="58.4571" rx="29.2286" fill="#F6F8FF" shape-rendering="crispEdges"/>
<path d="M271.8 29.6456C271.8 29.7854 271.791 29.9169 271.79 30.0567L266.445 30.0296C266.454 29.8899 266.455 29.7583 266.455 29.6185L236.465 29.4666C236.465 29.3268 236.458 29.1952 236.458 29.0554C236.459 28.9156 236.468 28.7841 236.469 28.6443L266.459 28.7962C266.46 28.6564 266.453 28.5248 266.453 28.385L271.798 28.412C271.806 28.5519 271.805 28.6834 271.805 28.8232C271.804 28.963 271.811 29.0946 271.811 29.2344C271.81 29.3742 271.801 29.5058 271.8 29.6456Z" fill="#013E39"/>
<path d="M254.012 46.0029C254.408 45.8815 254.803 45.7437 255.19 45.5977L260.535 45.6248C260.148 45.7708 259.761 45.9087 259.357 46.03L259.382 46.0301C259.258 46.0706 259.135 46.1029 259.011 46.1351L258.979 46.1432C258.213 46.3613 257.422 46.53 256.632 46.6412C256.566 46.6491 256.509 46.657 256.443 46.6649C256.254 46.6886 256.056 46.7123 255.867 46.7277C255.785 46.7356 255.702 46.7434 255.62 46.7512C255.431 46.7667 255.25 46.7822 255.061 46.7895C254.987 46.7973 254.905 46.7969 254.83 46.8047C254.567 46.8116 254.304 46.8185 254.041 46.8172C253.811 46.816 253.58 46.8066 253.358 46.7973C253.284 46.7969 253.211 46.7883 253.137 46.7797C252.98 46.7707 252.824 46.7617 252.676 46.7527C252.594 46.7441 252.52 46.7355 252.438 46.7268C252.29 46.7096 252.142 46.7007 251.994 46.6835C251.928 46.6749 251.862 46.6663 251.788 46.6577C251.649 46.6406 251.501 46.6234 251.361 46.598L251.369 46.5981C250.466 46.4537 249.57 46.2436 248.7 45.9678L254.012 45.9947L254.012 46.0029Z" fill="#013E39"/>
<path d="M255.357 12.7042C254.971 12.5542 254.585 12.4125 254.183 12.2871L248.879 12.2602C249.752 11.985 250.649 11.784 251.555 11.657L251.546 11.657C251.686 11.633 251.826 11.6172 251.966 11.6015C252.04 11.5937 252.106 11.5858 252.18 11.5779C252.328 11.5622 252.468 11.5465 252.616 11.539C252.698 11.5312 252.772 11.5234 252.855 11.5156C253.011 11.5081 253.159 11.5006 253.315 11.4932C253.389 11.4936 253.463 11.4857 253.537 11.4779C253.768 11.4708 253.998 11.4638 254.22 11.4649C254.483 11.4662 254.746 11.4758 255.009 11.4853C255.083 11.4857 255.166 11.4944 255.24 11.503C255.429 11.5121 255.618 11.5295 255.799 11.5469C255.881 11.5555 255.963 11.5642 256.045 11.5728C256.242 11.5903 256.431 11.6159 256.629 11.6416C256.694 11.6501 256.752 11.6586 256.818 11.6672C257.607 11.7863 258.387 11.963 259.159 12.1889L259.192 12.1973C259.315 12.2308 259.438 12.2726 259.561 12.3061L259.536 12.306C259.931 12.4313 260.325 12.5731 260.71 12.7231L255.357 12.7042Z" fill="#013E39"/>
<path d="M259.67 15.193C259.49 15.0523 259.301 14.9115 259.121 14.779L243.941 14.7022C244.353 14.4164 244.766 14.1389 245.203 13.8862L257.867 13.9503C257.629 13.8093 257.383 13.6683 257.137 13.5355L262.482 13.5625C262.729 13.6954 262.966 13.8364 263.212 13.9774C263.311 14.0355 263.401 14.0935 263.499 14.1598C263.606 14.2261 263.721 14.2925 263.827 14.367C263.909 14.425 263.991 14.4748 264.073 14.5327C264.204 14.6239 264.335 14.7068 264.458 14.7978L264.475 14.8062C264.663 14.9387 264.843 15.0794 265.023 15.2201L259.67 15.193Z" fill="#013E39"/>
<path d="M262.256 17.6733C262.133 17.5328 262.002 17.4006 261.88 17.2602L241.132 17.1551C241.397 16.8768 241.661 16.5986 241.942 16.3369L261.086 16.4338C260.947 16.2933 260.808 16.1528 260.661 16.0205L266.006 16.0475C266.153 16.1799 266.292 16.3204 266.431 16.4609L266.44 16.4609C266.497 16.5188 266.554 16.5766 266.611 16.6345C266.742 16.7667 266.873 16.899 266.996 17.0312C267.078 17.1138 267.16 17.1965 267.241 17.2873L267.225 17.2873C267.347 17.4277 267.478 17.5599 267.601 17.7003L262.256 17.6733Z" fill="#013E39"/>
<path d="M264.02 20.1493C263.938 20.0091 263.848 19.8771 263.759 19.7368L239.237 19.6126C239.419 19.334 239.601 19.0635 239.792 18.7931L263.212 18.9117C263.114 18.7714 263.024 18.6312 262.918 18.499L268.263 18.5261C268.361 18.6582 268.459 18.7985 268.557 18.9388L268.565 18.9388C268.598 18.9801 268.622 19.0296 268.655 19.0791C268.778 19.2524 268.9 19.4339 269.014 19.6154C269.047 19.6649 269.079 19.7144 269.112 19.764L269.104 19.7639C269.194 19.9042 269.283 20.0362 269.365 20.1764L264.02 20.1493Z" fill="#013E39"/>
<path d="M265.233 22.6227C265.176 22.4826 265.119 22.3507 265.054 22.2106L237.925 22.0732C238.05 21.7942 238.174 21.5235 238.307 21.2528L264.68 21.3864C264.615 21.2462 264.55 21.1061 264.476 20.9741L269.821 21.0012C269.895 21.1332 269.952 21.2732 270.025 21.4134L270.033 21.4135C270.074 21.4959 270.106 21.5783 270.147 21.6607C270.196 21.7597 270.237 21.8586 270.285 21.9575C270.326 22.0482 270.375 22.1389 270.416 22.2378L270.407 22.2377C270.464 22.3778 270.529 22.5097 270.586 22.6498L265.233 22.6227Z" fill="#013E39"/>
<path d="M266.001 25.0937C265.969 24.9538 265.929 24.822 265.897 24.682L237.065 24.536C237.133 24.2567 237.216 23.9858 237.3 23.7148L265.662 23.8585C265.622 23.7185 265.581 23.5785 265.533 23.4466L270.878 23.4737C270.927 23.6055 270.967 23.7455 271.007 23.8855L271.016 23.8856C271.048 23.9926 271.072 24.0997 271.105 24.1985C271.121 24.2562 271.137 24.322 271.153 24.3797C271.185 24.4868 271.218 24.5938 271.242 24.7009L271.234 24.7008C271.266 24.8408 271.306 24.9726 271.338 25.1125L266.001 25.0855L266.001 25.0937Z" fill="#013E39"/>
<path d="M266.392 27.5626C266.376 27.4228 266.36 27.2911 266.344 27.1512L236.576 27.0004C236.61 26.721 236.653 26.4499 236.695 26.1787L266.242 26.3283C266.218 26.1884 266.202 26.0568 266.178 25.9168L271.523 25.9439C271.547 26.0838 271.563 26.2155 271.587 26.3554L271.595 26.3554C271.603 26.4295 271.611 26.4953 271.627 26.5694C271.651 26.7093 271.667 26.8492 271.682 26.9891C271.69 27.0549 271.698 27.1125 271.706 27.1784L271.698 27.1783C271.714 27.3182 271.729 27.4499 271.745 27.5897L266.392 27.5626Z" fill="#013E39"/>
<path d="M266.375 30.8521L271.72 30.8792C271.703 31.0189 271.686 31.1504 271.669 31.2901L271.677 31.2901C271.669 31.3559 271.66 31.4134 271.652 31.4791C271.634 31.6188 271.617 31.7586 271.592 31.8982C271.583 31.9722 271.575 32.0462 271.558 32.1119L271.55 32.1118C271.524 32.2515 271.507 32.383 271.482 32.5227L266.137 32.4956C266.162 32.3559 266.179 32.2244 266.205 32.0848L236.666 31.9352C236.626 31.6636 236.587 31.392 236.555 31.1122L266.324 31.263C266.349 31.1233 266.366 30.9918 266.375 30.8521Z" fill="#013E39"/>
<path d="M265.959 33.3169L271.305 33.344C271.271 33.4836 271.229 33.615 271.196 33.7546L271.204 33.7547C271.17 33.8614 271.137 33.9681 271.112 34.0749C271.095 34.1324 271.078 34.1981 271.062 34.2556C271.028 34.3623 271.003 34.4691 270.97 34.5676L270.961 34.5676C270.919 34.7072 270.878 34.8467 270.828 34.9781L265.482 34.951C265.532 34.8197 265.574 34.6801 265.616 34.5405L237.245 34.3968C237.165 34.125 237.084 33.8532 237.011 33.5733L265.851 33.7193C265.884 33.5879 265.926 33.4566 265.959 33.3169Z" fill="#013E39"/>
<path d="M265.166 35.7798L270.511 35.8069C270.453 35.9464 270.395 36.0777 270.328 36.2171L270.336 36.2172C270.295 36.3074 270.245 36.4059 270.203 36.4961C270.162 36.5946 270.112 36.693 270.062 36.7914C270.021 36.8735 269.987 36.9555 269.946 37.0376L269.938 37.0375C269.871 37.177 269.805 37.3164 269.73 37.4476L264.385 37.4206C264.459 37.2894 264.518 37.1499 264.592 37.0104L238.22 36.8769C238.09 36.6048 237.96 36.3328 237.846 36.0526L264.983 36.1901C265.041 36.0506 265.108 35.9193 265.166 35.7798Z" fill="#013E39"/>
<path d="M263.928 38.241L269.273 38.2681C269.19 38.4074 269.099 38.5386 269.008 38.6779L269.016 38.6779C268.983 38.7271 268.95 38.7763 268.917 38.8255C268.801 39.0058 268.677 39.1861 268.552 39.3582C268.519 39.3991 268.494 39.4483 268.461 39.4975L268.453 39.4975C268.354 39.6367 268.263 39.7761 268.155 39.9071L262.81 39.88C262.909 39.749 263.008 39.6097 263.108 39.4704L239.696 39.3518C239.508 39.0795 239.32 38.8071 239.149 38.5267L263.671 38.6509C263.754 38.5115 263.845 38.3804 263.928 38.241Z" fill="#013E39"/>
<path d="M262.139 40.699L267.485 40.7261C267.361 40.8652 267.228 40.9962 267.104 41.1353L267.121 41.1354C267.038 41.2255 266.955 41.299 266.873 41.3891C266.749 41.52 266.616 41.6509 266.484 41.7819C266.426 41.8391 266.368 41.9046 266.311 41.9537L266.302 41.9536C266.162 42.0927 266.021 42.2318 265.873 42.3626L260.528 42.3356C260.676 42.2047 260.817 42.0656 260.957 41.9266L241.821 41.8296C241.543 41.5651 241.273 41.2841 241.02 41.0032L261.759 41.1083C261.883 40.9691 262.015 40.8382 262.139 40.699Z" fill="#013E39"/>
<path d="M259.528 43.1526L264.874 43.1797C264.692 43.3186 264.502 43.4574 264.32 43.5881L264.304 43.5962C264.172 43.686 264.048 43.7758 263.916 43.8574C263.834 43.9145 263.759 43.9635 263.677 44.0207C263.57 44.0941 263.454 44.1593 263.347 44.2246C263.256 44.2817 263.157 44.347 263.066 44.3958C262.827 44.5344 262.58 44.673 262.332 44.8033L256.987 44.7762C257.235 44.6459 257.474 44.5073 257.721 44.3688L245.057 44.3046C244.623 44.0475 244.213 43.7741 243.803 43.4759L258.975 43.5528C259.165 43.4304 259.347 43.2915 259.528 43.1526Z" fill="#013E39"/>
<rect x="224.695" y="0.608929" width="57.2393" height="57.2393" rx="28.6196" stroke="#013E39" stroke-width="1.21786" shape-rendering="crispEdges"/>
</g>
<path d="M160.757 669.821C160.757 675.202 165.119 679.564 170.5 679.564C175.881 679.564 180.243 675.202 180.243 669.821C180.243 664.441 175.881 660.079 170.5 660.079C165.119 660.079 160.757 664.441 160.757 669.821ZM168.673 496.886L168.673 669.821L172.327 669.821L172.327 496.886L168.673 496.886Z" fill="#013E39"/>
<path d="M243.571 741.675C243.571 747.056 247.933 751.418 253.314 751.418C258.695 751.418 263.057 747.056 263.057 741.675C263.057 736.294 258.695 731.932 253.314 731.932C247.933 731.932 243.571 736.294 243.571 741.675ZM251.487 243.572L251.487 741.675L255.141 741.675L255.141 243.572L251.487 243.572Z" fill="#013E39"/>
<path d="M85.2498 741.675C85.2498 747.056 89.6118 751.418 94.9927 751.418C100.373 751.418 104.736 747.056 104.736 741.675C104.736 736.294 100.373 731.932 94.9927 731.932C89.6118 731.932 85.2498 736.294 85.2498 741.675ZM93.1659 453.043L93.1659 741.675L96.8194 741.675L96.8195 453.043L93.1659 453.043Z" fill="#013E39"/>
<g filter="url(#filter2_d_35_2)">
<rect x="56.0215" y="710.011" width="68.2" height="68.2" rx="34.1" fill="#F6F8FF" shape-rendering="crispEdges"/>
<g clip-path="url(#clip0_35_2)">
<path d="M85.4072 721.372C85.7273 721.303 86.0559 721.234 86.3846 721.182L89.6456 735.177L90.1126 720.818C90.277 720.818 90.4413 720.81 90.6143 720.81C90.7787 720.81 90.943 720.818 91.116 720.818L91.5831 735.177L94.8354 721.173C95.164 721.234 95.4927 721.294 95.8128 721.363L93.4687 735.549L99.3937 722.453C99.7051 722.574 100.016 722.704 100.319 722.834L95.2419 736.293L103.606 724.607C103.883 724.789 104.16 724.97 104.436 725.16L96.8507 737.356L107.334 727.53C107.576 727.764 107.81 727.998 108.043 728.24L98.2087 738.723L110.413 731.129C110.604 731.406 110.785 731.682 110.967 731.959L99.2813 740.323L112.731 735.255C112.861 735.557 112.991 735.869 113.112 736.18L100.016 742.105L114.202 739.761C114.271 740.081 114.34 740.41 114.392 740.738L100.388 743.991L114.756 744.458C114.756 744.622 114.764 744.787 114.764 744.96C114.764 745.124 114.756 745.288 114.756 745.461L100.388 745.928L114.392 749.189C114.332 749.518 114.271 749.847 114.202 750.167L100.016 747.823L113.112 753.739C112.991 754.05 112.861 754.362 112.731 754.664L99.2813 749.596L110.967 757.96C110.785 758.237 110.604 758.514 110.413 758.79L98.2087 751.196L108.035 761.679C107.801 761.922 107.568 762.155 107.325 762.389L96.8507 752.554L104.445 764.759C104.168 764.949 103.892 765.131 103.615 765.312L95.2419 753.626L100.319 767.077C100.016 767.206 99.7051 767.336 99.3937 767.457L93.4687 754.362L95.8128 768.547C95.4927 768.616 95.164 768.686 94.8354 768.737L91.5744 754.734L91.1073 769.101C90.943 769.101 90.7787 769.109 90.6057 769.109C90.4413 769.109 90.277 769.101 90.104 769.101L89.6369 754.734L86.376 768.737C86.0473 768.677 85.7186 768.616 85.3986 768.547L87.7599 754.362L81.8349 767.457C81.5235 767.336 81.2121 767.206 80.9094 767.077L85.9781 753.626L77.6139 765.312C77.3371 765.131 77.0603 764.949 76.7835 764.759L84.3779 752.554L73.8945 762.38C73.6523 762.146 73.4188 761.913 73.1853 761.671L83.0113 751.196L70.8153 758.79C70.625 758.514 70.4433 758.237 70.2617 757.96L81.9474 749.596L68.4885 754.664C68.3587 754.362 68.229 754.05 68.1079 753.739L81.2035 747.814L67.0181 750.158C66.9489 749.838 66.8797 749.509 66.8278 749.181L80.8316 745.92L66.4645 745.453C66.4645 745.288 66.4558 745.124 66.4558 744.951C66.4558 744.787 66.4645 744.622 66.4645 744.449L80.8316 743.982L66.8278 740.721C66.8883 740.393 66.9489 740.064 67.0181 739.744L81.2035 742.088L68.1079 736.163C68.229 735.851 68.3587 735.54 68.4885 735.237L81.9387 740.306L70.253 731.959C70.4347 731.682 70.6163 731.406 70.8066 731.129L83.0113 738.723L73.1853 728.24C73.4188 727.998 73.6523 727.764 73.8945 727.53L84.3779 737.356L76.7835 725.152C77.0603 724.962 77.3371 724.78 77.6139 724.598L85.9781 736.284L80.9094 722.834C81.2121 722.704 81.5235 722.574 81.8349 722.453L87.7599 735.549L85.4072 721.372Z" fill="#013E39"/>
</g>
<rect x="56.7319" y="710.721" width="66.7792" height="66.7792" rx="33.3896" stroke="#013E39" stroke-width="1.42083" shape-rendering="crispEdges"/>
</g>
<g filter="url(#filter3_d_35_2)">
<rect x="217.996" y="710.011" width="66.9821" height="66.9821" rx="33.4911" fill="#F6F8FF" shape-rendering="crispEdges"/>
<g clip-path="url(#clip1_35_2)">
<path d="M269.868 726.189H234.982L231.493 722.701H273.357L269.868 726.189Z" fill="#013E39"/>
<path d="M231.493 727.498H273.357L267.688 730.987H237.162L231.493 727.498Z" fill="#013E39"/>
<path d="M231.493 732.294H273.357L265.507 735.783H239.342L231.493 732.294Z" fill="#013E39"/>
<path d="M231.493 737.091H273.357L263.327 740.58H241.523L231.493 737.091Z" fill="#013E39"/>
<path d="M231.493 741.889H273.357L261.146 745.377H243.703L231.493 741.889Z" fill="#013E39"/>
<path d="M231.493 746.685H273.357L258.966 750.174H245.884L231.493 746.685Z" fill="#013E39"/>
<path d="M231.493 751.482H273.357L256.786 754.971H248.064L231.493 751.482Z" fill="#013E39"/>
<path d="M231.493 756.279H273.357L254.605 759.768H250.244L231.493 756.279Z" fill="#013E39"/>
<path d="M231.493 761.076H273.357L252.425 764.564L231.493 761.076Z" fill="#013E39"/>
</g>
<rect x="218.694" y="710.708" width="65.5867" height="65.5867" rx="32.7933" stroke="#013E39" stroke-width="1.39546" shape-rendering="crispEdges"/>
</g>
<g filter="url(#filter4_d_35_2)">
<rect y="317.861" width="341" height="129.588" rx="7.30714" fill="#F6F8FF" shape-rendering="crispEdges"/>
<g clip-path="url(#clip2_35_2)">
<path d="M134.382 388.86C133.495 389.096 133.069 390.19 133.656 390.896L145.968 405.709C146.597 406.466 146.059 407.613 145.074 407.613H136.656C136.311 407.613 135.984 407.46 135.763 407.194L122.913 391.734C122.219 390.898 120.859 391.39 120.859 392.477V406.452C120.859 407.093 120.339 407.613 119.698 407.613H112.011C111.37 407.613 110.85 407.093 110.85 406.452V357.195C110.85 356.553 111.37 356.033 112.011 356.033H129.915C134.696 356.033 138.612 357.378 141.831 360.497C145.05 363.616 146.597 367.733 146.597 372.4C146.597 376.625 145.412 380.143 142.784 383.311C140.59 385.957 137.784 387.958 134.382 388.86ZM128.485 365.457H122.02C121.379 365.457 120.859 365.977 120.859 366.618V378.678C120.859 379.32 121.379 379.84 122.02 379.84H128.485C130.757 379.84 132.261 379.182 133.728 377.856C135.196 376.529 136.111 374.709 136.111 372.4C136.111 370.19 135.172 368.222 133.728 366.945C132.284 365.667 130.805 365.457 128.485 365.457Z" fill="#013E39"/>
<path d="M164.414 407.614C159.447 407.614 155.636 406.056 153.007 403.15C150.377 400.244 149.039 396.744 149.039 392.239V374.536C149.039 373.904 149.551 373.393 150.182 373.393H156.823C157.455 373.393 157.966 373.904 157.966 374.536V392.239C157.966 394.128 158.855 395.939 159.95 397.199C161.046 398.458 162.466 399.183 164.414 399.183C166.362 399.183 167.758 398.458 168.877 397.199C169.997 395.939 170.861 394.128 170.861 392.239V374.536C170.861 373.904 171.373 373.393 172.004 373.393H178.646C179.277 373.393 179.789 373.904 179.789 374.536V392.239C179.789 396.744 178.45 400.244 175.821 403.15C173.192 406.056 169.429 407.614 164.414 407.614Z" fill="#013E39"/>
<path d="M198.635 407.614C193.669 407.614 189.858 406.056 187.228 403.15C184.599 400.244 183.26 396.744 183.26 392.239V374.536C183.26 373.904 183.772 373.393 184.404 373.393H191.045C191.676 373.393 192.188 373.904 192.188 374.536V392.239C192.188 394.128 193.076 395.939 194.172 397.199C195.267 398.458 196.687 399.183 198.635 399.183C200.583 399.183 201.979 398.458 203.099 397.199C204.219 395.939 205.083 394.128 205.083 392.239V374.536C205.083 373.904 205.594 373.393 206.226 373.393H212.867C213.498 373.393 214.01 373.904 214.01 374.536V392.239C214.01 396.744 212.672 400.244 210.042 403.15C207.413 406.056 203.647 407.614 198.635 407.614Z" fill="#013E39"/>
<path d="M231.368 406.47C231.368 407.101 230.857 407.613 230.225 407.613H229.385C221.296 407.613 217.481 403.628 217.481 395.214V357.177C217.481 356.545 217.993 356.033 218.625 356.033H225.266C225.897 356.033 226.409 356.545 226.409 357.177V394.718C226.409 397.181 227.775 398.746 230.229 399.103C230.853 399.194 231.368 399.694 231.368 400.325V406.47Z" fill="#013E39"/>
</g>
<rect x="0.608929" y="318.47" width="339.782" height="128.37" rx="6.69821" stroke="#013E39" stroke-width="1.21786" shape-rendering="crispEdges"/>
</g>
<defs>
<filter id="filter0_d_35_2" x="59.6748" y="7.30713" width="62.1106" height="62.1106" filterUnits="userSpaceOnUse" color-interpolation-filters="sRGB">
<feFlood flood-opacity="0" result="BackgroundImageFix"/>
<feColorMatrix in="SourceAlpha" type="matrix" values="0 0 0 0 0 0 0 0 0 0 0 0 0 0 0 0 0 0 127 0" result="hardAlpha"/>
<feOffset dx="3.65357" dy="3.65357"/>
<feComposite in2="hardAlpha" operator="out"/>
<feColorMatrix type="matrix" values="0 0 0 0 0.00392157 0 0 0 0 0.243137 0 0 0 0 0.223529 0 0 0 1 0"/>
<feBlend mode="normal" in2="BackgroundImageFix" result="effect1_dropShadow_35_2"/>
<feBlend mode="normal" in="SourceGraphic" in2="effect1_dropShadow_35_2" result="shape"/>
</filter>
<filter id="filter1_d_35_2" x="224.086" y="0" width="62.1106" height="62.1106" filterUnits="userSpaceOnUse" color-interpolation-filters="sRGB">
<feFlood flood-opacity="0" result="BackgroundImageFix"/>
<feColorMatrix in="SourceAlpha" type="matrix" values="0 0 0 0 0 0 0 0 0 0 0 0 0 0 0 0 0 0 127 0" result="hardAlpha"/>
<feOffset dx="3.65357" dy="3.65357"/>
<feComposite in2="hardAlpha" operator="out"/>
<feColorMatrix type="matrix" values="0 0 0 0 0.00392157 0 0 0 0 0.243137 0 0 0 0 0.223529 0 0 0 1 0"/>
<feBlend mode="normal" in2="BackgroundImageFix" result="effect1_dropShadow_35_2"/>
<feBlend mode="normal" in="SourceGraphic" in2="effect1_dropShadow_35_2" result="shape"/>
</filter>
<filter id="filter2_d_35_2" x="56.0215" y="710.011" width="72.4625" height="72.4627" filterUnits="userSpaceOnUse" color-interpolation-filters="sRGB">
<feFlood flood-opacity="0" result="BackgroundImageFix"/>
<feColorMatrix in="SourceAlpha" type="matrix" values="0 0 0 0 0 0 0 0 0 0 0 0 0 0 0 0 0 0 127 0" result="hardAlpha"/>
<feOffset dx="4.2625" dy="4.2625"/>
<feComposite in2="hardAlpha" operator="out"/>
<feColorMatrix type="matrix" values="0 0 0 0 0.00392157 0 0 0 0 0.243137 0 0 0 0 0.223529 0 0 0 1 0"/>
<feBlend mode="normal" in2="BackgroundImageFix" result="effect1_dropShadow_35_2"/>
<feBlend mode="normal" in="SourceGraphic" in2="effect1_dropShadow_35_2" result="shape"/>
</filter>
<filter id="filter3_d_35_2" x="217.996" y="710.011" width="71.1686" height="71.1683" filterUnits="userSpaceOnUse" color-interpolation-filters="sRGB">
<feFlood flood-opacity="0" result="BackgroundImageFix"/>
<feColorMatrix in="SourceAlpha" type="matrix" values="0 0 0 0 0 0 0 0 0 0 0 0 0 0 0 0 0 0 127 0" result="hardAlpha"/>
<feOffset dx="4.18638" dy="4.18638"/>
<feComposite in2="hardAlpha" operator="out"/>
<feColorMatrix type="matrix" values="0 0 0 0 0.00392157 0 0 0 0 0.243137 0 0 0 0 0.223529 0 0 0 1 0"/>
<feBlend mode="normal" in2="BackgroundImageFix" result="effect1_dropShadow_35_2"/>
<feBlend mode="normal" in="SourceGraphic" in2="effect1_dropShadow_35_2" result="shape"/>
</filter>
<filter id="filter4_d_35_2" x="0" y="317.861" width="348.307" height="136.895" filterUnits="userSpaceOnUse" color-interpolation-filters="sRGB">
<feFlood flood-opacity="0" result="BackgroundImageFix"/>
<feColorMatrix in="SourceAlpha" type="matrix" values="0 0 0 0 0 0 0 0 0 0 0 0 0 0 0 0 0 0 127 0" result="hardAlpha"/>
<feOffset dx="7.30714" dy="7.30714"/>
<feComposite in2="hardAlpha" operator="out"/>
<feColorMatrix type="matrix" values="0 0 0 0 0.00392157 0 0 0 0 0.243137 0 0 0 0 0.223529 0 0 0 1 0"/>
<feBlend mode="normal" in2="BackgroundImageFix" result="effect1_dropShadow_35_2"/>
<feBlend mode="normal" in="SourceGraphic" in2="effect1_dropShadow_35_2" result="shape"/>
</filter>
<clipPath id="clip0_35_2">
<rect width="48.3083" height="48.3083" fill="white" transform="translate(66.4556 720.8)"/>
</clipPath>
<clipPath id="clip1_35_2">
<rect width="41.8638" height="41.8638" fill="white" transform="translate(231.493 722.701)"/>
</clipPath>
<clipPath id="clip2_35_2">
<rect width="120.518" height="53.2158" fill="white" transform="translate(110.85 355.615)"/>
</clipPath>
</defs>
</svg>
