
<svg width="34" height="34" viewBox="0 0 34 34" fill="none" xmlns="http://www.w3.org/2000/svg">
<g clip-path="url(#clip0_8_9924)">
<path d="M13.3382 0.401787C13.5635 0.353085 13.7948 0.304386 14.0261 0.26786L16.3212 10.1178L16.65 0.0121727C16.7656 0.0121727 16.8813 0.00608444 17.003 0.00608444C17.1187 0.00608444 17.2344 0.0121727 17.3561 0.0121727L17.6849 10.1178L19.9739 0.261772C20.2052 0.304386 20.4365 0.347 20.6618 0.395702L19.012 10.3796L23.1821 1.16275C23.4013 1.24798 23.6204 1.3393 23.8335 1.43061L20.26 10.9031L26.1468 2.6786C26.3416 2.80644 26.5364 2.93429 26.7312 3.06822L21.3923 11.6519L28.7706 4.73626C28.9411 4.90063 29.1055 5.06499 29.2698 5.23545L22.3481 12.6138L30.9379 7.26875C31.0718 7.46356 31.1996 7.65837 31.3275 7.85318L23.103 13.74L32.5694 10.1726C32.6607 10.3857 32.752 10.6048 32.8372 10.824L23.6204 14.9941L33.6043 13.3443C33.653 13.5696 33.7017 13.8009 33.7382 14.0322L23.8822 16.3212L33.9939 16.65C33.9939 16.7656 34 16.8813 34 17.003C34 17.1187 33.9939 17.2344 33.9939 17.3561L23.8822 17.6849L33.7382 19.9799C33.6956 20.2113 33.653 20.4426 33.6043 20.6679L23.6204 19.0181L32.8372 23.1821C32.752 23.4013 32.6607 23.6204 32.5694 23.8335L23.103 20.2661L31.3275 26.1529C31.1996 26.3477 31.0718 26.5425 30.9379 26.7373L22.3481 21.3923L29.2637 28.7706C29.0994 28.9411 28.935 29.1055 28.7645 29.2698L21.3923 22.3481L26.7373 30.9379C26.5425 31.0718 26.3477 31.1996 26.1529 31.3275L20.26 23.103L23.8335 32.5694C23.6204 32.6607 23.4013 32.752 23.1821 32.8372L19.012 23.6204L20.6618 33.6043C20.4365 33.653 20.2052 33.7017 19.9739 33.7382L17.6788 23.8822L17.35 33.9939C17.2344 33.9939 17.1187 34 16.997 34C16.8813 34 16.7656 33.9939 16.6439 33.9939L16.3151 23.8822L14.0201 33.7382C13.7887 33.6956 13.5574 33.653 13.3321 33.6043L14.9941 23.6204L10.824 32.8372C10.6048 32.752 10.3857 32.6607 10.1726 32.5694L13.74 23.103L7.85318 31.3275C7.65837 31.1996 7.46356 31.0718 7.26875 30.9379L12.6138 22.3481L5.23545 29.2637C5.065 29.0994 4.90063 28.935 4.73626 28.7645L11.6519 21.3923L3.06822 26.7373C2.93429 26.5425 2.80645 26.3477 2.6786 26.1529L10.9031 20.2661L1.43062 23.8335C1.3393 23.6204 1.24799 23.4013 1.16276 23.1821L10.3796 19.012L0.395702 20.6618C0.347 20.4365 0.298298 20.2052 0.261772 19.9739L10.1178 17.6788L0.00608826 17.35C0.00608826 17.2344 0 17.1187 0 16.997C0 16.8813 0.00608826 16.7656 0.00608826 16.6439L10.1178 16.3151L0.261772 14.0201C0.304386 13.7887 0.347 13.5574 0.395702 13.3321L10.3796 14.9819L1.16276 10.8118C1.24799 10.5927 1.3393 10.3735 1.43062 10.1604L10.897 13.7278L2.67252 7.85318C2.80036 7.65837 2.9282 7.46356 3.06213 7.26875L11.6519 12.6138L4.73626 5.23545C4.90063 5.06499 5.065 4.90063 5.23545 4.73626L12.6138 11.6519L7.26875 3.06213C7.46356 2.9282 7.65837 2.80036 7.85318 2.67252L13.74 10.897L10.1726 1.43061C10.3857 1.3393 10.6048 1.24798 10.824 1.16275L14.9941 10.3796L13.3382 0.401787Z" fill="#013E39"/>
</g>
<defs>
<clipPath id="clip0_8_9924">
<rect width="34" height="34" fill="white"/>
</clipPath>
</defs>
</svg>
