
<svg width="34" height="34" viewBox="0 0 34 34" fill="none" xmlns="http://www.w3.org/2000/svg">
<path d="M31.5074 17.7487C31.5068 17.8634 31.4995 17.9714 31.4989 18.0862L27.1099 18.064C27.1173 17.9493 27.1178 17.8412 27.1184 17.7264L2.49262 17.6017C2.4932 17.4869 2.487 17.3788 2.48758 17.2641C2.48816 17.1493 2.49546 17.0413 2.49604 16.9265L27.1218 17.0512C27.1224 16.9364 27.1162 16.8283 27.1168 16.7135L31.5058 16.7358C31.512 16.8506 31.5114 16.9586 31.5108 17.0734C31.5102 17.1882 31.5164 17.2963 31.5159 17.4111C31.5153 17.5259 31.508 17.6339 31.5074 17.7487Z" fill="#013E39"/>
<path d="M16.9013 31.1796C17.2259 31.08 17.5506 30.9668 17.8686 30.8469L22.2576 30.8691C21.9396 30.9891 21.6217 31.1023 21.2903 31.2019L21.3105 31.202C21.2091 31.2352 21.1077 31.2617 21.0062 31.2882L20.9792 31.2948C20.3503 31.474 19.7014 31.6125 19.0527 31.7037C18.9986 31.7102 18.9513 31.7167 18.8972 31.7232C18.7418 31.7427 18.5797 31.7621 18.4243 31.7748C18.3568 31.7812 18.2892 31.7876 18.2216 31.7941C18.0663 31.8068 17.9176 31.8195 17.7623 31.8255C17.7015 31.8319 17.634 31.8316 17.5732 31.838C17.3571 31.8437 17.141 31.8494 16.9249 31.8483C16.7358 31.8473 16.5468 31.8396 16.3645 31.8319C16.3037 31.8316 16.243 31.8245 16.1823 31.8175C16.054 31.8101 15.9257 31.8027 15.8042 31.7953C15.7367 31.7882 15.676 31.7812 15.6085 31.7741C15.487 31.7599 15.3655 31.7526 15.2441 31.7385C15.1901 31.7314 15.1361 31.7244 15.0754 31.7173C14.9606 31.7033 14.8392 31.6891 14.7245 31.6683L14.7312 31.6683C13.9891 31.5498 13.2539 31.3772 12.5393 31.1508L16.9013 31.1729L16.9013 31.1796Z" fill="#013E39"/>
<path d="M18.0052 3.83776C17.6885 3.71461 17.3717 3.59821 17.0414 3.49525L12.6861 3.47319C13.403 3.24724 14.1399 3.08216 14.8832 2.97788L14.8764 2.97785C14.9913 2.95817 15.1062 2.94525 15.221 2.93232C15.2818 2.92588 15.3359 2.9194 15.3967 2.91296C15.5183 2.90007 15.6332 2.88714 15.7547 2.88101C15.8223 2.8746 15.8831 2.86815 15.9507 2.86174C16.079 2.85564 16.2006 2.8495 16.3289 2.8434C16.3897 2.84371 16.4505 2.83726 16.5113 2.83082C16.7004 2.82502 16.8895 2.81923 17.0718 2.82015C17.2879 2.82125 17.5039 2.82909 17.7199 2.83694C17.7807 2.83725 17.8482 2.84434 17.9089 2.8514C18.0642 2.85894 18.2194 2.87323 18.3679 2.88749C18.4354 2.89458 18.5029 2.90168 18.5704 2.90877C18.7324 2.9231 18.8876 2.94414 19.0495 2.96522C19.1035 2.97224 19.1508 2.97924 19.2047 2.98626C19.8525 3.08408 20.4932 3.22913 21.127 3.41465L21.154 3.42154C21.2552 3.44906 21.3563 3.48334 21.4574 3.51086L21.4372 3.51076C21.7608 3.61369 22.0843 3.73012 22.401 3.85327L18.0052 3.83776Z" fill="#013E39"/>
<path d="M21.5467 5.88143C21.3988 5.76589 21.244 5.65031 21.096 5.54152L8.63122 5.47839C8.97004 5.24377 9.30882 5.0159 9.66775 4.80839L20.0663 4.86105C19.8711 4.74527 19.6691 4.62946 19.4671 4.52039L23.8561 4.54262C24.0581 4.65168 24.2534 4.76747 24.4554 4.88328C24.5362 4.93096 24.6102 4.9786 24.6909 5.03303C24.7785 5.08749 24.8727 5.14199 24.9602 5.20321C25.0275 5.25081 25.0948 5.29167 25.1621 5.33928C25.2697 5.4141 25.3774 5.48217 25.4783 5.55696L25.4918 5.56378C25.6466 5.67261 25.7945 5.78815 25.9425 5.90369L21.5467 5.88143Z" fill="#013E39"/>
<path d="M23.6702 7.91759C23.5695 7.80229 23.462 7.69371 23.3613 7.5784L6.32514 7.49212C6.54238 7.26364 6.75962 7.03515 6.99029 6.82024L22.7097 6.89985C22.5955 6.78448 22.4813 6.66911 22.3603 6.56046L26.7493 6.58269C26.8703 6.69134 26.9845 6.80671 27.0987 6.92208L27.1055 6.92212C27.1525 6.96962 27.1996 7.01713 27.2466 7.06463C27.3541 7.17322 27.4616 7.2818 27.5623 7.39035C27.6295 7.45822 27.6967 7.52608 27.7638 7.6007L27.7503 7.60063C27.851 7.71594 27.9585 7.82452 28.0592 7.93982L23.6702 7.91759Z" fill="#013E39"/>
<path d="M25.1184 9.9508C25.0515 9.83567 24.9778 9.72725 24.9041 9.61209L4.7686 9.51011C4.91831 9.28128 5.06799 9.05921 5.22442 8.83717L24.4551 8.93456C24.3746 8.81936 24.3009 8.7042 24.2137 8.59571L28.6027 8.61794C28.6832 8.72639 28.7636 8.84159 28.8441 8.95679L28.8508 8.95682C28.8777 8.99072 28.8977 9.03134 28.9245 9.07199C29.0251 9.2143 29.1256 9.36337 29.2194 9.5124C29.2462 9.55305 29.273 9.5937 29.2998 9.63435L29.2931 9.63431C29.3668 9.74948 29.4405 9.85789 29.5074 9.97303L25.1184 9.9508Z" fill="#013E39"/>
<path d="M26.1144 11.982C26.0677 11.867 26.021 11.7587 25.9675 11.6436L3.69156 11.5308C3.79401 11.3018 3.89642 11.0794 4.00559 10.8572L25.6603 10.9668C25.6069 10.8518 25.5535 10.7367 25.4932 10.6284L29.8822 10.6506C29.9425 10.7589 29.9892 10.874 30.0493 10.9891L30.0561 10.9891C30.0895 11.0568 30.1162 11.1245 30.1496 11.1921C30.1897 11.2734 30.2231 11.3546 30.2632 11.4358C30.2966 11.5103 30.3367 11.5847 30.37 11.6659L30.3633 11.6659C30.41 11.7809 30.4634 11.8892 30.5101 12.0043L26.1144 11.982Z" fill="#013E39"/>
<path d="M26.7455 14.0109C26.7191 13.896 26.6859 13.7878 26.6595 13.6728L2.98578 13.5529C3.04097 13.3236 3.10962 13.1011 3.17827 12.8787L26.4671 12.9966C26.4339 12.8816 26.4007 12.7667 26.3607 12.6584L30.7498 12.6807C30.7897 12.7889 30.8229 12.9039 30.8561 13.0188L30.8628 13.0189C30.8894 13.1068 30.9092 13.1947 30.9358 13.2758C30.9491 13.3232 30.9623 13.3773 30.9756 13.4246C31.0021 13.5125 31.0287 13.6004 31.0485 13.6883L31.0418 13.6883C31.0682 13.8032 31.1014 13.9114 31.1278 14.0263L26.7456 14.0041L26.7455 14.0109Z" fill="#013E39"/>
<path d="M27.0661 16.0382C27.0532 15.9233 27.0403 15.8152 27.0273 15.7003L2.58388 15.5765C2.61205 15.3471 2.64694 15.1244 2.68183 14.9018L26.943 15.0247C26.9233 14.9098 26.9103 14.8017 26.8907 14.6868L31.2797 14.709C31.2994 14.8239 31.3123 14.932 31.332 15.0469L31.3387 15.0469C31.3452 15.1077 31.3517 15.1618 31.3649 15.2226C31.3845 15.3375 31.3975 15.4524 31.4104 15.5672C31.4169 15.6213 31.4234 15.6686 31.4299 15.7226L31.4231 15.7226C31.436 15.8375 31.449 15.9456 31.4619 16.0604L27.0661 16.0382Z" fill="#013E39"/>
<path d="M27.0524 18.7395L31.4414 18.7617C31.4273 18.8764 31.4133 18.9844 31.3992 19.0991L31.4059 19.0992C31.3989 19.1531 31.3919 19.2004 31.3849 19.2544C31.3708 19.3691 31.3567 19.4838 31.3359 19.5985C31.3288 19.6592 31.3218 19.72 31.308 19.7739L31.3012 19.7739C31.2804 19.8886 31.2663 19.9965 31.2455 20.1112L26.8565 20.089C26.8773 19.9743 26.8914 19.8663 26.9122 19.7517L2.65782 19.6288C2.62519 19.4058 2.59256 19.1828 2.56671 18.9531L27.0102 19.0769C27.031 18.9622 27.0451 18.8542 27.0524 18.7395Z" fill="#013E39"/>
<path d="M26.7113 20.7634L31.1003 20.7856C31.0728 20.9003 31.0384 21.0082 31.0109 21.1228L31.0176 21.1229C30.9901 21.2105 30.9627 21.2981 30.942 21.3858C30.9283 21.433 30.9145 21.487 30.9007 21.5342C30.8733 21.6218 30.8526 21.7095 30.8252 21.7904L30.8184 21.7903C30.7841 21.905 30.7497 22.0196 30.7087 22.1274L26.3196 22.1052C26.3607 21.9973 26.395 21.8827 26.4294 21.7681L3.13383 21.6501C3.06743 21.427 3.00104 21.2038 2.94143 20.9739L26.6219 21.0938C26.6494 20.9859 26.6837 20.8781 26.7113 20.7634Z" fill="#013E39"/>
<path d="M26.0596 22.7854L30.4486 22.8076C30.4008 22.9222 30.3529 23.03 30.2983 23.1445L30.3051 23.1445C30.271 23.2186 30.23 23.2994 30.1959 23.3735C30.1617 23.4544 30.1208 23.5352 30.0799 23.6161C30.0458 23.6834 30.0184 23.7508 29.9843 23.8181L29.9776 23.8181C29.923 23.9326 29.8684 24.0471 29.807 24.1549L25.418 24.1326C25.4793 24.0249 25.5272 23.9104 25.5885 23.7959L3.93381 23.6862C3.8269 23.4628 3.71999 23.2395 3.62662 23.0094L25.9093 23.1223C25.9572 23.0077 26.0117 22.8999 26.0596 22.7854Z" fill="#013E39"/>
<path d="M25.0432 24.8064L29.4323 24.8286C29.3641 24.9431 29.2893 25.0507 29.2145 25.1651L29.2212 25.1652C29.194 25.2055 29.1668 25.2459 29.1396 25.2863C29.0443 25.4344 28.9423 25.5824 28.8402 25.7237C28.8131 25.7573 28.7926 25.7977 28.7654 25.8381L28.7586 25.8381C28.677 25.9525 28.6022 26.0669 28.5138 26.1745L24.1248 26.1522C24.2064 26.0446 24.288 25.9302 24.3696 25.8158L5.14572 25.7185C4.99155 25.4949 4.83737 25.2713 4.69673 25.041L24.8322 25.1429C24.9003 25.0285 24.9751 24.9208 25.0432 24.8064Z" fill="#013E39"/>
<path d="M23.5745 26.8245L27.9635 26.8467C27.8616 26.961 27.7531 27.0684 27.6512 27.1827L27.6647 27.1828C27.5968 27.2567 27.529 27.3172 27.4611 27.3911C27.3592 27.4986 27.2506 27.6061 27.1421 27.7136C27.0946 27.7606 27.047 27.8144 26.9995 27.8547L26.9928 27.8546C26.8774 27.9688 26.762 28.0831 26.64 28.1905L22.2509 28.1682C22.373 28.0608 22.4884 27.9466 22.6038 27.8324L6.89108 27.7528C6.6626 27.5356 6.44093 27.3049 6.23278 27.0742L23.2622 27.1605C23.364 27.0462 23.4726 26.9387 23.5745 26.8245Z" fill="#013E39"/>
<path d="M21.4304 28.8391L25.8195 28.8613C25.6703 28.9754 25.5144 29.0894 25.3653 29.1967L25.3518 29.2033C25.2434 29.2771 25.1417 29.3508 25.0333 29.4178C24.9656 29.4647 24.9046 29.5049 24.8368 29.5519C24.7488 29.6122 24.654 29.6657 24.5659 29.7193C24.4914 29.7662 24.4101 29.8198 24.3356 29.8599C24.1392 29.9737 23.9361 30.0875 23.7329 30.1945L19.3439 30.1723C19.547 30.0653 19.7434 29.9515 19.9466 29.8377L9.54799 29.785C9.19117 29.5739 8.85468 29.3494 8.5183 29.1046L20.9764 29.1677C21.1322 29.0672 21.2813 28.9531 21.4304 28.8391Z" fill="#013E39"/>
</svg>
