<svg width="108" height="47" viewBox="0 0 108 47" fill="none" xmlns="http://www.w3.org/2000/svg">
<path d="M20.5576 29.5467C19.9851 29.6744 19.7132 30.3702 20.0881 30.8212L31.8776 45.0056C32.2796 45.4892 31.9357 46.2222 31.3068 46.2222H22.9859C22.7654 46.2222 22.5563 46.1241 22.4153 45.9545L10.2822 31.3569C9.83835 30.8229 8.9697 31.1367 8.9697 31.8311V45.4803C8.9697 45.89 8.63752 46.2222 8.22776 46.2222H0.741938C0.332177 46.2222 0 45.89 0 45.4803V0.741937C0 0.332177 0.332177 0 0.741938 0H17.0851C21.3697 0 24.8787 1.20466 27.7633 4C30.648 6.79534 32.0346 10.4847 32.0346 14.6667C32.0346 18.4525 30.972 21.6051 28.6176 24.4444C26.5383 26.952 23.8465 28.8126 20.5576 29.5467ZM15.8038 8.44444H9.71163C9.30187 8.44444 8.9697 8.77662 8.9697 9.18638V20.5914C8.9697 21.0012 9.30187 21.3333 9.71163 21.3333H15.8038C17.84 21.3333 19.1871 20.7441 20.5022 19.5556C21.8172 18.367 22.6378 16.7357 22.6378 14.6667C22.6378 12.6857 21.796 10.9223 20.5022 9.77778C19.2083 8.63323 17.8824 8.44444 15.8038 8.44444Z" fill="#C9FEC6"/>
<path d="M48.0004 46.2223C43.5497 46.2223 40.1345 44.8267 37.7782 42.2223C35.4219 39.6179 34.2227 36.4814 34.2227 32.4446L34.2227 16.286C34.2227 15.8826 34.5496 15.5557 34.953 15.5557L41.4923 15.5557C41.8957 15.5557 42.2227 15.8827 42.2227 16.286L42.2227 32.4446C42.2227 34.1374 43.0186 35.7604 44.0004 36.889C44.9822 38.0176 46.255 38.6668 48.0004 38.6668C49.7458 38.6668 50.9968 38.0176 52.0004 36.889C53.004 35.7604 53.7782 34.1374 53.7782 32.4446L53.7782 16.286C53.7782 15.8826 54.1052 15.5557 54.5086 15.5557L61.0479 15.5557C61.4512 15.5557 61.7782 15.8827 61.7782 16.286L61.7782 32.4446C61.7782 36.4814 60.579 39.6179 58.2227 42.2223C55.8664 44.8267 52.4948 46.2223 48.0004 46.2223Z" fill="#C9FEC6"/>
<path d="M78.6665 46.2223C74.2157 46.2223 70.8005 44.8267 68.4442 42.2223C66.0879 39.6179 64.8887 36.4814 64.8887 32.4446L64.8887 16.286C64.8887 15.8826 65.2157 15.5557 65.619 15.5557L72.1583 15.5557C72.5617 15.5557 72.8887 15.8827 72.8887 16.286L72.8887 32.4446C72.8887 34.1374 73.6847 35.7604 74.6665 36.889C75.6482 38.0176 76.921 38.6668 78.6665 38.6668C80.4119 38.6668 81.6628 38.0176 82.6665 36.889C83.6701 35.7604 84.4442 34.1374 84.4442 32.4446L84.4442 16.286C84.4442 15.8826 84.7712 15.5557 85.1746 15.5557L91.7139 15.5557C92.1172 15.5557 92.4442 15.8827 92.4442 16.286L92.4442 32.4446C92.4442 36.4814 91.245 39.6179 88.8887 42.2223C86.5324 44.8267 83.1572 46.2223 78.6665 46.2223Z" fill="#C9FEC6"/>
<path d="M107.999 45.4919C107.999 45.8952 107.672 46.2222 107.269 46.2222H106.221C98.973 46.2222 95.5547 42.6514 95.5547 35.1111V0.730344C95.5547 0.326986 95.8817 0 96.285 0H102.824C103.228 0 103.555 0.326986 103.555 0.730345V34.6667C103.555 36.9692 104.887 38.3957 107.269 38.6318C107.671 38.6716 107.999 38.9937 107.999 39.397V45.4919Z" fill="#C9FEC6"/>
</svg>
