
<svg width="651" height="442" viewBox="0 0 651 442" fill="none" xmlns="http://www.w3.org/2000/svg">
<path d="M412.084 45.1237L356.001 45.1237C353.021 45.1237 350.447 43.1394 349.634 40.3045L340.016 9.68837C337.713 2.31781 329.992 -1.7927 322.948 0.758651L261.853 22.8703C259.821 23.579 257.654 24.0043 255.486 24.0043L6.00007 24.0042C2.68636 24.0042 5.98685e-05 26.6905 5.97236e-05 30.0042L5.90565e-05 45.2655L5.77699e-05 74.7009C5.7625e-05 78.0146 2.68635 80.7008 6.00006 80.7008L274.587 80.7009C276.754 80.7009 278.922 80.2756 280.954 79.5669L342.048 57.4553C349.093 55.0457 356.814 59.0144 359.117 66.385L368.599 97.0011C369.548 99.836 372.122 101.82 374.966 101.82L431.049 101.82L644.23 101.82C647.544 101.82 650.23 99.1341 650.23 95.8204L650.23 51.1238C650.23 47.81 647.544 45.1238 644.23 45.1238L412.084 45.1237Z" fill="#013E39"/>
<path d="M450.42 158.516L394.338 158.516C391.357 158.516 388.784 156.532 387.971 153.697L378.488 123.081C376.185 115.71 368.464 111.6 361.42 114.151L300.325 136.263C298.293 136.972 296.126 137.397 293.958 137.397L6.00007 137.397C2.68636 137.397 5.99201e-05 140.083 5.97817e-05 143.397L5.91442e-05 158.658L5.79145e-05 188.093C5.7776e-05 191.407 2.68635 194.093 6.00006 194.093L312.923 194.093C315.091 194.093 317.258 193.668 319.29 192.96L380.385 170.848C387.429 168.438 395.15 172.407 397.453 179.778L406.936 210.394C407.884 213.229 410.458 215.213 413.303 215.213L469.385 215.213L644.23 215.213C647.544 215.213 650.23 212.527 650.23 209.213L650.23 164.516C650.23 161.203 647.544 158.516 644.23 158.516L450.42 158.516Z" fill="#013E39"/>
<path d="M488.757 271.911L432.674 271.911C429.694 271.911 427.12 269.926 426.307 267.092L416.825 236.475C414.522 229.105 406.8 224.994 399.756 227.546L338.662 249.657C336.63 250.366 334.462 250.791 332.295 250.791L6.00007 250.791C2.68636 250.791 5.99201e-05 253.478 5.97817e-05 256.791L5.91442e-05 272.053L5.77091e-05 306.404C5.76841e-05 307.003 0.485247 307.488 1.08376 307.488V307.488L351.26 307.488C353.427 307.488 355.595 307.063 357.627 306.354L418.721 284.242C425.766 281.833 433.487 285.802 435.79 293.172L445.272 323.788C446.221 326.623 448.794 328.607 451.639 328.607L507.993 328.607L644.23 328.607C647.544 328.607 650.23 325.921 650.23 322.607L650.23 277.911C650.23 274.597 647.544 271.911 644.23 271.911L488.757 271.911Z" fill="#013E39"/>
<path d="M527.229 385.303L471.146 385.303C468.166 385.303 465.592 383.319 464.779 380.484L455.297 349.868C452.994 342.498 445.272 338.387 438.228 340.938L377.134 363.05C375.102 363.759 372.934 364.184 370.767 364.184L20.3198 364.184L6.00006 364.184C2.68635 364.184 5.99201e-05 366.87 5.97817e-05 370.184L5.79145e-05 414.881C5.7776e-05 418.194 2.68635 420.881 6.00006 420.881L39.5558 420.881L389.732 420.881C391.899 420.881 394.067 420.455 396.099 419.747L457.193 397.635C464.237 395.225 471.959 399.194 474.262 406.565L483.744 437.181C484.693 440.016 487.266 442 490.111 442L546.329 442L644.23 442C647.544 442 650.23 439.314 650.23 436L650.23 391.303C650.23 387.99 647.544 385.303 644.23 385.303L527.229 385.303Z" fill="#013E39"/>
</svg>
