<svg
  width="77"
  height="34"
  viewBox="0 0 77 34"
  fill="none"
  xmlns="http://www.w3.org/2000/svg"
>
  <path
    d="M15.0351 21.2409C14.4681 21.3913 14.1961 22.0904 14.571 22.5415L22.4373 32.0057C22.8393 32.4893 22.4954 33.2223 21.8665 33.2223H16.488C16.2675 33.2223 16.0584 33.1242 15.9174 32.9546L7.70758 23.0772C7.26371 22.5431 6.39506 22.857 6.39506 23.5514V32.4804C6.39506 32.8901 6.06288 33.2223 5.65312 33.2223H0.741937C0.332177 33.2223 0 32.8901 0 32.4804V1.00951C0 0.599754 0.332177 0.267578 0.741937 0.267578H12.1811C15.2358 0.267578 17.7376 1.12645 19.7942 3.11943C21.8509 5.11241 22.8395 7.74275 22.8395 10.7244C22.8395 13.4235 22.0819 15.6712 20.4033 17.6956C19.0014 19.3863 17.2089 20.6644 15.0351 21.2409ZM11.2675 6.28815H7.137C6.72724 6.28815 6.39506 6.62033 6.39506 7.03009V14.7355C6.39506 15.1453 6.72724 15.4775 7.137 15.4775H11.2675C12.7192 15.4775 13.6797 15.0574 14.6173 14.21C15.5549 13.3626 16.1399 12.1995 16.1399 10.7244C16.1399 9.31202 15.5397 8.05479 14.6173 7.23877C13.6948 6.42275 12.7495 6.28815 11.2675 6.28815Z"
    fill="#013E39"
  />
  <path
    d="M34.2225 33.2226C31.0492 33.2226 28.6143 32.2276 26.9344 30.3707C25.2544 28.5139 24.3994 26.2776 24.3994 23.3996L24.3994 12.0887C24.3994 11.6854 24.7264 11.3584 25.1298 11.3584L29.3728 11.3584C29.7761 11.3584 30.1031 11.6854 30.1031 12.0887L30.1031 23.3996C30.1031 24.6065 30.6706 25.7636 31.3706 26.5683C32.0706 27.3729 32.9781 27.8358 34.2225 27.8358C35.4669 27.8358 36.3588 27.3729 37.0743 26.5683C37.7898 25.7636 38.3418 24.6065 38.3418 23.3996L38.3418 12.0887C38.3418 11.6854 38.6688 11.3584 39.0721 11.3584L43.3152 11.3584C43.7185 11.3584 44.0455 11.6854 44.0455 12.0887L44.0455 23.3996C44.0455 26.2776 43.1905 28.5139 41.5105 30.3707C39.8306 32.2276 37.4268 33.2226 34.2225 33.2226Z"
    fill="#013E39"
  />
  <path
    d="M56.0867 33.2226C52.9135 33.2226 50.4786 32.2276 48.7987 30.3707C47.1187 28.5139 46.2637 26.2776 46.2637 23.3996L46.2637 12.0887C46.2637 11.6854 46.5907 11.3584 46.994 11.3584L51.237 11.3584C51.6404 11.3584 51.9674 11.6854 51.9674 12.0887L51.9674 23.3996C51.9674 24.6065 52.5349 25.7636 53.2349 26.5683C53.9348 27.3729 54.8423 27.8358 56.0867 27.8358C57.3311 27.8358 58.223 27.3729 58.9386 26.5683C59.6541 25.7636 60.2061 24.6065 60.2061 23.3996L60.2061 12.0887C60.2061 11.6854 60.533 11.3584 60.9364 11.3584L65.1794 11.3584C65.5828 11.3584 65.9098 11.6854 65.9098 12.0887L65.9098 23.3996C65.9098 26.2776 65.0547 28.5139 63.3748 30.3707C61.6948 32.2276 59.2885 33.2226 56.0867 33.2226Z"
    fill="#013E39"
  />
  <path
    d="M77.0004 32.492C77.0004 32.8953 76.6734 33.2223 76.27 33.2223H75.7329C70.5651 33.2223 68.1279 30.6764 68.1279 25.3005V0.997924C68.1279 0.594565 68.4549 0.267578 68.8583 0.267578H73.1013C73.5046 0.267578 73.8316 0.594565 73.8316 0.997923V24.9836C73.8316 26.557 74.7043 27.5567 76.2722 27.7853C76.6713 27.8435 77.0004 28.1625 77.0004 28.5658V32.492Z"
    fill="#013E39"
  />
</svg>
