<svg width="596" height="552" viewBox="0 0 596 552" fill="none" xmlns="http://www.w3.org/2000/svg">
<g clip-path="url(#clip0_67_615)">
<rect width="596" height="551.19" fill="#CAFDC6"/>
<g clip-path="url(#clip1_67_615)">
<path fill-rule="evenodd" clip-rule="evenodd" d="M445.221 508.517H480.968L541.613 478.187L450.311 432.553L445.221 508.517Z" fill="#1B1E29"/>
<path fill-rule="evenodd" clip-rule="evenodd" d="M444.668 508.477C444.668 508.635 444.707 508.793 444.826 508.911C444.944 509.03 445.102 509.109 445.26 509.109H481.007C481.086 509.109 481.165 509.069 481.284 509.03L541.928 478.699C542.126 478.62 542.244 478.423 542.244 478.186C542.244 477.95 542.126 477.753 541.928 477.674L450.626 432.04C450.468 431.961 450.271 431.961 450.073 432.04C449.916 432.119 449.797 432.316 449.797 432.513L444.668 508.477ZM445.852 507.925L450.863 433.46L540.35 478.186L480.85 507.925H445.852Z" fill="#1B1E29"/>
<path fill-rule="evenodd" clip-rule="evenodd" d="M399.688 359.113L482.822 317.542L746.037 449.118L662.902 490.65L399.688 359.113Z" fill="#1B1E29"/>
<path fill-rule="evenodd" clip-rule="evenodd" d="M399.451 358.601C399.254 358.68 399.136 358.877 399.136 359.113C399.136 359.35 399.254 359.547 399.451 359.626L662.666 491.202C662.824 491.281 663.021 491.281 663.179 491.202L746.314 449.671C746.511 449.592 746.629 449.395 746.629 449.158C746.629 448.961 746.511 448.724 746.314 448.645L483.099 317.069C482.941 316.99 482.744 316.99 482.586 317.069L399.451 358.601ZM400.99 359.113L482.823 318.213L744.775 449.119L662.903 490.019L400.99 359.113Z" fill="#1B1E29"/>
<path fill-rule="evenodd" clip-rule="evenodd" d="M410.499 29.936L697.545 173.384V414.41C697.545 421.47 692.968 424.902 687.287 422.101L420.758 288.868C415.115 286.029 410.499 278.022 410.499 270.962V29.936Z" fill="#C9FEC6"/>
<path fill-rule="evenodd" clip-rule="evenodd" d="M410.775 29.4231C410.578 29.3443 410.38 29.3443 410.222 29.4626C410.065 29.5809 409.946 29.7387 409.946 29.9359V270.962C409.946 278.219 414.681 286.502 420.521 289.381L687.049 422.614C690.127 424.152 692.889 423.915 694.901 422.417C696.874 420.957 698.137 418.157 698.137 414.41V173.423C698.137 173.226 698.018 172.99 697.821 172.911L410.775 29.4231ZM411.091 30.8825C427.662 39.1652 686.655 168.612 696.992 173.778C696.992 184.033 696.992 414.45 696.992 414.45C696.992 417.763 695.967 420.247 694.231 421.549C692.534 422.811 690.166 422.929 687.602 421.628L420.994 288.356C415.51 285.595 411.051 277.785 411.051 270.962V30.8825H411.091Z" fill="#1B1E29"/>
<path fill-rule="evenodd" clip-rule="evenodd" d="M410.499 8.44052C410.499 2.05102 414.642 -1.06484 419.771 1.49885L688.273 135.678C693.402 138.242 697.545 145.499 697.545 151.889V173.424L410.499 29.9361V8.44052Z" fill="#C9FEC6"/>
<path fill-rule="evenodd" clip-rule="evenodd" d="M409.946 8.44033V29.9753C409.946 30.1725 410.065 30.4092 410.262 30.488L697.308 173.936C697.505 174.015 697.703 174.015 697.86 173.897C698.018 173.778 698.137 173.621 698.137 173.423V151.888C698.137 145.302 693.836 137.808 688.549 135.165L420.047 0.946476C417.246 -0.433971 414.721 -0.236764 412.906 1.10424C411.091 2.48469 409.946 5.00893 409.946 8.44033ZM411.091 8.44033C411.091 5.48223 411.998 3.23407 413.576 2.05083C415.115 0.907034 417.206 0.828152 419.534 1.97195L688.036 136.151C693.007 138.636 696.992 145.657 696.992 151.849V172.437L411.091 29.5809V8.44033Z" fill="#1B1E29"/>
<path fill-rule="evenodd" clip-rule="evenodd" d="M462.305 30.3698C458.478 28.4766 455.4 30.8825 455.4 35.8127C455.4 40.7034 458.517 46.2646 462.305 48.1578C466.133 50.051 469.21 47.6451 469.21 42.7149C469.25 37.8242 466.133 32.3024 462.305 30.3698Z" fill="#C9FEC6"/>
<path fill-rule="evenodd" clip-rule="evenodd" d="M462.582 29.8966C460.451 28.8317 458.479 29.0289 457.098 30.1333C455.717 31.1982 454.849 33.1702 454.849 35.8522C454.849 40.9796 458.084 46.7381 462.069 48.7101C464.2 49.775 466.173 49.5778 467.554 48.4735C468.935 47.4086 469.803 45.4365 469.803 42.7545C469.803 37.6271 466.567 31.8687 462.582 29.8966ZM462.069 30.8826C465.739 32.6969 468.658 38.0215 468.658 42.715C468.658 44.9632 467.988 46.6592 466.843 47.5269C465.739 48.3946 464.239 48.4735 462.582 47.6452C458.913 45.8309 455.993 40.5063 455.993 35.8128C455.993 33.5646 456.664 31.8687 457.808 31.001C458.873 30.1333 460.373 30.0544 462.069 30.8826Z" fill="#1B1E29"/>
<path fill-rule="evenodd" clip-rule="evenodd" d="M444.116 21.298C440.289 19.4048 437.211 21.8107 437.211 26.7409C437.211 31.6316 440.328 37.1928 444.116 39.086C447.943 40.9792 451.021 38.5733 451.021 33.6431C451.06 28.7524 447.943 23.1912 444.116 21.298Z" fill="#C9FEC6"/>
<path fill-rule="evenodd" clip-rule="evenodd" d="M444.393 20.7853C442.262 19.7204 440.289 19.9176 438.908 21.0219C437.527 22.0868 436.659 24.0589 436.659 26.7409C436.659 31.8683 439.895 37.6267 443.88 39.5988C446.01 40.6637 447.983 40.4665 449.364 39.3621C450.745 38.2972 451.613 36.3252 451.613 33.6432C451.613 28.5158 448.378 22.7968 444.393 20.7853ZM443.88 21.8108C447.549 23.6251 450.469 28.9496 450.469 33.6432C450.469 35.8913 449.798 37.5873 448.654 38.455C447.549 39.3227 446.05 39.4016 444.393 38.5733C440.723 36.759 437.803 31.4344 437.803 26.7409C437.803 24.4928 438.474 22.7968 439.618 21.9291C440.684 21.0614 442.223 20.9825 443.88 21.8108Z" fill="#1B1E29"/>
<path fill-rule="evenodd" clip-rule="evenodd" d="M425.966 12.2267C422.139 10.3335 419.062 12.7394 419.062 17.6696C419.062 22.5603 422.179 28.1216 425.966 30.0147C429.794 31.9079 432.871 29.502 432.871 24.5718C432.871 19.6417 429.754 14.1199 425.966 12.2267Z" fill="#C9FEC6"/>
<path fill-rule="evenodd" clip-rule="evenodd" d="M426.203 11.714C424.073 10.6491 422.1 10.8463 420.719 11.9506C419.338 13.0156 418.47 14.9876 418.47 17.6696C418.47 22.797 421.705 28.5554 425.69 30.5275C427.821 31.5924 429.794 31.3952 431.175 30.2909C432.556 29.2259 433.424 27.2539 433.424 24.5719C433.424 19.4445 430.188 13.6861 426.203 11.714ZM425.69 12.7395C429.36 14.5538 432.28 19.8783 432.28 24.5719C432.28 26.82 431.609 28.516 430.465 29.3837C429.36 30.2514 427.86 30.3303 426.164 29.502C422.494 27.6877 419.575 22.3631 419.575 17.6696C419.575 15.4215 420.245 13.7255 421.39 12.8578C422.494 11.9506 424.033 11.8718 425.69 12.7395Z" fill="#1B1E29"/>
<path fill-rule="evenodd" clip-rule="evenodd" d="M394.48 37.9424L681.487 181.43V422.456C681.487 429.516 676.91 432.947 671.228 430.147L404.699 296.914C399.057 294.074 394.44 286.068 394.44 279.008V37.9424H394.48Z" fill="#C9FEC6"/>
<path fill-rule="evenodd" clip-rule="evenodd" d="M394.716 37.4295C394.519 37.3506 394.322 37.3506 394.164 37.4689C394.006 37.5873 393.888 37.745 393.888 37.9422V278.968C393.888 286.225 398.622 294.508 404.462 297.387L670.991 430.62C674.068 432.158 676.83 431.922 678.843 430.423C680.816 428.964 682.078 426.163 682.078 422.416V181.43C682.078 181.233 681.96 180.996 681.762 180.917L394.716 37.4295ZM395.032 38.8888L680.934 181.785V422.456C680.934 425.769 679.908 428.254 678.172 429.555C676.475 430.817 674.108 430.936 671.543 429.634L404.975 296.401C399.491 293.64 395.032 285.871 395.032 279.008V38.8888Z" fill="#1B1E29"/>
<path fill-rule="evenodd" clip-rule="evenodd" d="M394.479 16.4469C394.479 10.0574 398.622 6.94151 403.752 9.50519L672.253 143.685C677.383 146.248 681.526 153.506 681.526 159.895V181.43L394.479 37.9424V16.4469Z" fill="#C9FEC6"/>
<path fill-rule="evenodd" clip-rule="evenodd" d="M393.888 16.4468V37.9818C393.888 38.179 394.006 38.4156 394.203 38.4945L681.25 181.943C681.447 182.022 681.644 182.022 681.802 181.903C681.96 181.785 682.078 181.627 682.078 181.43V159.895C682.078 153.308 677.777 145.814 672.49 143.172L403.989 8.99237C401.187 7.61193 398.662 7.80913 396.847 9.15014C395.032 10.4911 393.888 13.0154 393.888 16.4468ZM395.032 16.4468C395.032 13.4887 395.939 11.2405 397.518 10.0573C399.057 8.91349 401.148 8.83461 403.476 9.97841L671.977 144.197C676.949 146.682 680.934 153.703 680.934 159.895V180.483C664.362 172.201 405.37 42.7542 395.032 37.5873V16.4468Z" fill="#1B1E29"/>
<path fill-rule="evenodd" clip-rule="evenodd" d="M446.286 38.4157C442.458 36.5225 439.381 38.9284 439.381 43.8586C439.381 48.7493 442.498 54.3105 446.286 56.2037C450.113 58.0969 453.191 55.691 453.191 50.7608C453.191 45.8701 450.074 40.3088 446.286 38.4157Z" fill="#C9FEC6"/>
<path fill-rule="evenodd" clip-rule="evenodd" d="M446.523 37.903C444.392 36.838 442.419 37.0352 441.038 38.1396C439.657 39.2045 438.789 41.1766 438.789 43.8586C438.789 48.986 442.024 54.7444 446.01 56.7165C448.14 57.7814 450.113 57.5842 451.494 56.4798C452.875 55.4149 453.743 53.4428 453.743 50.7608C453.743 45.6335 450.508 39.875 446.523 37.903ZM446.01 38.9284C449.679 40.7427 452.599 46.0673 452.599 50.7608C452.599 53.009 451.928 54.705 450.784 55.5727C449.679 56.4404 448.18 56.5193 446.523 55.691C442.853 53.8767 439.933 48.5521 439.933 43.8586C439.933 41.6104 440.604 39.9145 441.748 39.0468C442.814 38.179 444.352 38.1002 446.01 38.9284Z" fill="#1B1E29"/>
<path fill-rule="evenodd" clip-rule="evenodd" d="M428.096 29.3048C424.269 27.4116 421.191 29.8176 421.191 34.7477C421.191 39.6385 424.308 45.1997 428.096 47.0929C431.924 48.9861 435.001 46.5801 435.001 41.65C435.001 36.7592 431.924 31.2374 428.096 29.3048Z" fill="#C9FEC6"/>
<path fill-rule="evenodd" clip-rule="evenodd" d="M428.333 28.7921C426.202 27.7272 424.23 27.9244 422.849 29.0288C421.468 30.0937 420.6 32.0657 420.6 34.7478C420.6 39.8751 423.835 45.6336 427.82 47.6056C429.951 48.6705 431.924 48.4733 433.305 47.369C434.686 46.3041 435.554 44.332 435.554 41.65C435.593 36.5621 432.318 30.8036 428.333 28.7921ZM427.82 29.8176C431.49 31.6319 434.409 36.9565 434.409 41.65C434.409 43.8981 433.739 45.5941 432.594 46.4618C431.49 47.3295 429.99 47.4084 428.333 46.5802C424.664 44.7659 421.744 39.4413 421.744 34.7478C421.744 32.4996 422.415 30.8036 423.559 29.9359C424.664 29.0682 426.163 28.9893 427.82 29.8176Z" fill="#1B1E29"/>
<path fill-rule="evenodd" clip-rule="evenodd" d="M409.907 20.2335C406.08 18.3403 403.002 20.7463 403.002 25.6764C403.002 30.5672 406.119 36.1284 409.907 38.0216C413.734 39.9148 416.812 37.5088 416.812 32.5787C416.812 27.6879 413.734 22.1267 409.907 20.2335Z" fill="#C9FEC6"/>
<path fill-rule="evenodd" clip-rule="evenodd" d="M410.144 19.7203C408.013 18.6554 406.04 18.8526 404.659 19.957C403.278 21.0219 402.41 22.994 402.41 25.676C402.41 30.8033 405.646 36.5618 409.631 38.5339C411.761 39.5988 413.734 39.4016 415.115 38.2972C416.496 37.2323 417.364 35.2602 417.364 32.5782C417.404 27.4508 414.129 21.6924 410.144 19.7203ZM409.631 20.7458C413.3 22.5601 416.22 27.8847 416.22 32.5782C416.22 34.8264 415.549 36.5223 414.405 37.3901C413.3 38.2578 411.801 38.3366 410.144 37.5084C406.474 35.6941 403.554 30.3695 403.554 25.676C403.554 23.4278 404.225 21.7318 405.369 20.8641C406.474 19.9964 407.974 19.9175 409.631 20.7458Z" fill="#1B1E29"/>
<path fill-rule="evenodd" clip-rule="evenodd" d="M377.829 46.2646L664.875 189.752V430.778C664.875 437.838 660.298 441.27 654.617 438.469L388.088 305.197C382.446 302.357 377.829 294.351 377.829 287.291V46.2646Z" fill="#C9FEC6"/>
<path fill-rule="evenodd" clip-rule="evenodd" d="M378.105 45.7518C377.908 45.6729 377.71 45.6729 377.553 45.7912C377.395 45.9095 377.276 46.0673 377.276 46.2645V287.291C377.276 294.548 382.011 302.83 387.851 305.71L654.38 438.942C657.457 440.481 660.219 440.244 662.231 438.745C664.204 437.286 665.467 434.486 665.467 430.739V189.752C665.467 189.555 665.348 189.318 665.151 189.239L378.105 45.7518ZM378.421 47.2111C378.421 47.2111 653.669 184.782 664.323 190.107V430.778C664.323 434.091 663.297 436.576 661.561 437.878C659.864 439.14 657.497 439.258 654.932 437.956L388.324 304.684C382.84 301.923 378.381 294.153 378.381 287.291V47.2111H378.421Z" fill="#1B1E29"/>
<path fill-rule="evenodd" clip-rule="evenodd" d="M493.436 155.083C493.436 153.072 492.134 150.784 490.517 149.956L413.932 111.698C412.314 110.909 411.012 111.855 411.012 113.906V121.203C411.012 123.215 412.314 125.502 413.932 126.33L490.517 164.628C492.134 165.417 493.436 164.47 493.436 162.419V155.083Z" fill="#C9FEC6"/>
<path fill-rule="evenodd" clip-rule="evenodd" d="M494.028 155.083C494.028 152.875 492.568 150.35 490.793 149.443L414.208 111.146C413.182 110.633 412.235 110.712 411.525 111.225C410.893 111.698 410.42 112.605 410.42 113.828V121.124C410.42 123.333 411.88 125.857 413.655 126.764L490.24 165.062C491.266 165.575 492.213 165.496 492.923 164.983C493.555 164.51 494.028 163.603 494.028 162.38V155.083ZM492.884 155.083V162.38C492.884 163.169 492.687 163.76 492.253 164.076C491.858 164.352 491.345 164.352 490.793 164.076L414.208 125.818C412.748 125.108 411.604 123.018 411.604 121.203V113.907C411.604 113.118 411.801 112.526 412.235 112.211C412.63 111.935 413.142 111.935 413.695 112.211L490.28 150.508C491.7 151.218 492.884 153.269 492.884 155.083Z" fill="#1B1E29"/>
<path fill-rule="evenodd" clip-rule="evenodd" d="M493.436 184.27C493.436 182.258 492.134 179.971 490.517 179.142L413.932 140.884C412.314 140.095 411.012 141.042 411.012 143.093V150.39C411.012 152.401 412.314 154.689 413.932 155.517L490.517 193.815C492.134 194.603 493.436 193.657 493.436 191.606V184.27Z" fill="#C9FEC6"/>
<path fill-rule="evenodd" clip-rule="evenodd" d="M494.028 184.27C494.028 182.061 492.568 179.537 490.793 178.63L414.208 140.332C413.182 139.82 412.235 139.898 411.525 140.411C410.893 140.884 410.42 141.792 410.42 143.014V150.311C410.42 152.52 411.88 155.044 413.655 155.951L490.24 194.249C491.266 194.761 492.213 194.682 492.923 194.17C493.555 193.696 494.028 192.789 494.028 191.567V184.27ZM492.884 184.27V191.567C492.884 192.355 492.687 192.947 492.253 193.263C491.858 193.539 491.345 193.539 490.793 193.263L414.208 155.004C412.748 154.294 411.604 152.204 411.604 150.39V143.093C411.604 142.304 411.801 141.713 412.235 141.397C412.63 141.121 413.142 141.121 413.695 141.397L490.28 179.695C491.7 180.405 492.884 182.456 492.884 184.27Z" fill="#1B1E29"/>
<path fill-rule="evenodd" clip-rule="evenodd" d="M443.721 187.267C443.721 185.256 442.419 182.968 440.801 182.14L413.932 168.73C412.314 167.941 411.012 168.888 411.012 170.939V178.235C411.012 180.247 412.314 182.534 413.932 183.363L440.801 196.773C442.419 197.562 443.721 196.615 443.721 194.564V187.267Z" fill="#C9FEC6"/>
<path fill-rule="evenodd" clip-rule="evenodd" d="M444.313 187.267C444.313 185.058 442.853 182.534 441.078 181.627L414.208 168.217C413.182 167.704 412.235 167.783 411.525 168.296C410.893 168.769 410.42 169.676 410.42 170.899V178.196C410.42 180.404 411.88 182.929 413.655 183.836L440.525 197.246C441.551 197.759 442.498 197.68 443.208 197.167C443.84 196.694 444.313 195.786 444.313 194.564V187.267ZM443.129 187.267V194.564C443.129 195.353 442.932 195.944 442.498 196.26C442.104 196.536 441.591 196.536 441.038 196.26L414.168 182.85C412.708 182.14 411.564 180.049 411.564 178.235V170.938C411.564 170.15 411.761 169.558 412.195 169.242C412.59 168.966 413.103 168.966 413.655 169.242L440.525 182.653C441.985 183.362 443.129 185.453 443.129 187.267Z" fill="#1B1E29"/>
<path fill-rule="evenodd" clip-rule="evenodd" d="M625.735 217.558L515.375 162.419V329.848L625.735 384.987V217.558Z" fill="#C9FEC6"/>
<path fill-rule="evenodd" clip-rule="evenodd" d="M626.326 217.558C626.326 217.361 626.208 217.124 626.011 217.046L515.651 161.907C515.454 161.828 515.256 161.828 515.098 161.946C514.941 162.064 514.822 162.222 514.822 162.419V329.848C514.822 330.084 514.941 330.282 515.138 330.36L625.498 385.5C625.695 385.578 625.892 385.578 626.05 385.46C626.208 385.342 626.326 385.184 626.326 384.987V217.558ZM625.143 217.913V384.08L515.927 329.493C515.927 321.368 515.927 176.303 515.927 163.326C526.067 168.375 625.143 217.913 625.143 217.913Z" fill="#1B1E29"/>
<path fill-rule="evenodd" clip-rule="evenodd" d="M514.861 162.656L625.221 385.263C625.379 385.539 625.694 385.657 625.971 385.539C626.247 385.381 626.365 385.066 626.247 384.79L515.887 162.183C515.729 161.907 515.414 161.788 515.137 161.907C514.861 162.025 514.743 162.38 514.861 162.656Z" fill="#1B1E29"/>
<path fill-rule="evenodd" clip-rule="evenodd" d="M625.34 217.164L514.98 329.453C514.744 329.69 514.744 330.045 514.98 330.282C515.217 330.518 515.572 330.518 515.809 330.282L626.169 217.992C626.406 217.755 626.406 217.4 626.169 217.164C625.893 216.927 625.537 216.927 625.34 217.164Z" fill="#1B1E29"/>
<path fill-rule="evenodd" clip-rule="evenodd" d="M536.878 256.881V379.583L388.088 305.197C382.446 302.357 377.829 294.351 377.829 287.291V177.368L536.878 256.881Z" fill="#1B1E29"/>
<path fill-rule="evenodd" clip-rule="evenodd" d="M537.47 256.881C537.47 256.684 537.352 256.447 537.154 256.369L378.105 176.855C377.908 176.776 377.71 176.776 377.553 176.894C377.395 177.013 377.276 177.17 377.276 177.368V287.291C377.276 294.548 382.011 302.83 387.851 305.71L536.641 380.096C536.839 380.175 537.036 380.175 537.194 380.057C537.351 379.938 537.47 379.78 537.47 379.583V256.881ZM536.326 257.236V378.637C524.41 372.681 388.364 304.684 388.364 304.684C382.879 301.923 378.421 294.153 378.421 287.291V178.314C390.415 184.309 528.789 253.45 536.326 257.236Z" fill="#1B1E29"/>
<path fill-rule="evenodd" clip-rule="evenodd" d="M377.829 24.7691C377.829 18.3796 381.972 15.2638 387.101 17.8275L655.603 152.007C660.732 154.571 664.875 161.828 664.875 168.217V189.752L377.829 46.2647V24.7691Z" fill="#C9FEC6"/>
<path fill-rule="evenodd" clip-rule="evenodd" d="M377.276 24.7689V46.3039C377.276 46.5406 377.395 46.7378 377.592 46.8166L664.638 190.265C664.796 190.344 665.033 190.344 665.191 190.225C665.348 190.107 665.467 189.949 665.467 189.752V168.217C665.467 161.63 661.166 154.137 655.879 151.494L387.377 17.2751C384.576 15.8946 382.051 16.0918 380.236 17.4329C378.421 18.8133 377.276 21.3375 377.276 24.7689ZM378.421 24.7689C378.421 21.8108 379.328 19.5627 380.906 18.3794C382.445 17.2356 384.536 17.1568 386.864 18.3006L655.366 152.48C660.337 154.965 664.323 161.985 664.323 168.178V188.766L378.421 45.9095V24.7689Z" fill="#1B1E29"/>
<path fill-rule="evenodd" clip-rule="evenodd" d="M429.635 46.7379C425.808 44.8447 422.73 47.2507 422.73 52.1808C422.73 57.0716 425.848 62.6328 429.635 64.526C433.463 66.4192 436.54 64.0132 436.54 59.0831C436.58 54.1529 433.463 48.6311 429.635 46.7379Z" fill="#C9FEC6"/>
<path fill-rule="evenodd" clip-rule="evenodd" d="M429.911 46.2252C427.781 45.1603 425.808 45.3575 424.427 46.4619C423.046 47.5268 422.178 49.4988 422.178 52.1809C422.178 57.3082 425.413 63.0667 429.398 65.0387C431.529 66.1036 433.502 65.9064 434.883 64.8021C436.264 63.7372 437.132 61.7651 437.132 59.0831C437.132 53.9557 433.896 48.1973 429.911 46.2252ZM429.398 47.2112C433.068 49.0256 435.988 54.3501 435.988 59.0437C435.988 61.2918 435.317 62.9878 434.173 63.8555C433.068 64.7232 431.568 64.8021 429.911 63.9738C426.242 62.1595 423.322 56.8349 423.322 52.1414C423.322 49.8933 423.993 48.1973 425.137 47.3296C426.202 46.4619 427.702 46.383 429.398 47.2112Z" fill="#1B1E29"/>
<path fill-rule="evenodd" clip-rule="evenodd" d="M411.446 37.6271C407.619 35.7339 404.541 38.1398 404.541 43.07C404.541 47.9607 407.658 53.5219 411.446 55.4151C415.273 57.3083 418.351 54.9024 418.351 49.9722C418.39 45.0815 415.273 39.5203 411.446 37.6271Z" fill="#013E39"/>
<path fill-rule="evenodd" clip-rule="evenodd" d="M411.722 37.1144C409.591 36.0495 407.618 36.2467 406.237 37.351C404.856 38.4159 403.988 40.388 403.988 43.07C403.988 48.1974 407.224 53.9558 411.209 55.9279C413.339 56.9928 415.312 56.7956 416.693 55.6912C418.074 54.6263 418.942 52.6543 418.942 49.9723C418.942 44.8449 415.707 39.1259 411.722 37.1144ZM411.209 38.1399C414.878 39.9542 417.798 45.2787 417.798 49.9723C417.798 52.2204 417.127 53.9164 415.983 54.7841C414.878 55.6518 413.379 55.7307 411.682 54.9024C408.013 53.0881 405.093 47.7635 405.093 43.07C405.093 40.8219 405.764 39.1259 406.908 38.2582C408.013 37.3905 409.552 37.3116 411.209 38.1399Z" fill="#1B1E29"/>
<path fill-rule="evenodd" clip-rule="evenodd" d="M393.296 28.5553C389.469 26.6621 386.392 29.068 386.392 33.9982C386.392 38.8889 389.509 44.4502 393.296 46.3434C397.124 48.2365 400.201 45.8306 400.201 40.9004C400.201 35.9703 397.084 30.4485 393.296 28.5553Z" fill="#CAFDC6"/>
<path fill-rule="evenodd" clip-rule="evenodd" d="M393.532 28.0426C391.402 26.9777 389.429 27.1749 388.048 28.2792C386.667 29.3442 385.799 31.3162 385.799 33.9982C385.799 39.1256 389.034 44.8841 393.019 46.8561C395.15 47.921 397.123 47.7238 398.504 46.6195C399.885 45.5546 400.753 43.5825 400.753 40.9005C400.753 35.7731 397.517 30.0147 393.532 28.0426ZM393.019 29.0681C396.689 30.8824 399.609 36.207 399.609 40.9005C399.609 43.1486 398.938 44.8446 397.794 45.7123C396.689 46.58 395.189 46.6589 393.532 45.8306C389.863 44.0163 386.943 38.6918 386.943 33.9982C386.943 31.7501 387.614 30.0541 388.758 29.1864C389.823 28.2792 391.362 28.2004 393.019 29.0681Z" fill="#1B1E29"/>
<path fill-rule="evenodd" clip-rule="evenodd" d="M491.188 258.064L275.006 149.995V377.493L491.188 485.523V258.064Z" fill="#C9FEC6"/>
<path fill-rule="evenodd" clip-rule="evenodd" d="M491.78 258.065C491.78 257.828 491.661 257.631 491.464 257.552L275.282 149.483C275.124 149.404 274.887 149.404 274.729 149.522C274.571 149.64 274.453 149.798 274.453 149.995V377.454C274.453 377.651 274.571 377.888 274.769 377.966L490.951 486.036C491.109 486.115 491.346 486.115 491.503 485.996C491.661 485.878 491.78 485.72 491.78 485.523V258.065ZM490.635 258.42V484.616L480.535 479.567L275.597 377.138C275.597 377.138 275.597 166.679 275.597 150.942C290.117 158.199 490.635 258.42 490.635 258.42Z" fill="#1B1E29"/>
<path fill-rule="evenodd" clip-rule="evenodd" d="M445.221 289.617L452.836 285.831V504.73L445.221 508.517V289.617Z" fill="#C9FEC6"/>
<path fill-rule="evenodd" clip-rule="evenodd" d="M444.984 289.105C444.786 289.184 444.668 289.381 444.668 289.618V508.478C444.668 508.675 444.786 508.872 444.944 508.951C445.102 509.069 445.339 509.069 445.497 508.99L453.072 505.204C453.269 505.125 453.388 504.928 453.388 504.691V285.831C453.388 285.634 453.269 285.437 453.112 285.358C452.954 285.24 452.717 285.24 452.559 285.319L444.984 289.105ZM445.812 289.973L452.244 286.739V504.336L445.812 507.571C445.812 492.543 445.812 299.36 445.812 289.973Z" fill="#1B1E29"/>
<path fill-rule="evenodd" clip-rule="evenodd" d="M452.836 285.831V493.805C458.439 486.232 467.711 481.776 480.298 480.08V272.105L452.836 285.831Z" fill="#C9FEC6"/>
<path fill-rule="evenodd" clip-rule="evenodd" d="M452.56 285.319C452.363 285.398 452.244 285.595 452.244 285.831V493.806C452.244 494.042 452.402 494.279 452.639 494.358C452.875 494.437 453.152 494.358 453.27 494.161C458.794 486.706 467.948 482.328 480.337 480.672C480.613 480.632 480.85 480.396 480.85 480.119V272.106C480.85 271.909 480.732 271.711 480.574 271.633C480.416 271.514 480.179 271.514 480.022 271.593L452.56 285.319ZM453.388 286.186L479.706 273.052C479.706 273.052 479.706 468.405 479.706 479.567C467.908 481.224 459.07 485.326 453.388 492.149V286.186Z" fill="#1B1E29"/>
<path fill-rule="evenodd" clip-rule="evenodd" d="M445.22 281.059L229.038 172.99V400.448L445.22 508.517V281.059Z" fill="#C9FEC6"/>
<path fill-rule="evenodd" clip-rule="evenodd" d="M445.812 281.059C445.812 280.862 445.694 280.625 445.497 280.546L229.275 172.477C229.078 172.398 228.88 172.398 228.722 172.516C228.565 172.635 228.446 172.792 228.446 172.99V400.448C228.446 400.645 228.565 400.882 228.762 400.961L444.944 509.03C445.141 509.109 445.339 509.109 445.497 508.99C445.654 508.872 445.773 508.714 445.773 508.517V281.059H445.812ZM444.668 281.414V507.61L229.63 400.132V173.897L444.668 281.414Z" fill="#1B1E29"/>
<path fill-rule="evenodd" clip-rule="evenodd" d="M237.759 168.612L453.941 276.681L446.365 280.467L230.144 172.438L237.759 168.612Z" fill="#C9FEC6"/>
<path fill-rule="evenodd" clip-rule="evenodd" d="M237.995 168.138C237.837 168.059 237.64 168.059 237.482 168.138L229.906 171.925C229.709 172.004 229.591 172.201 229.591 172.437C229.591 172.635 229.709 172.871 229.906 172.95L446.089 281.019C446.247 281.098 446.444 281.098 446.602 281.019L454.177 277.233C454.375 277.154 454.493 276.957 454.493 276.72C454.493 276.523 454.375 276.286 454.177 276.208L237.995 168.138ZM237.758 169.282L452.678 276.681L446.365 279.836C446.365 279.836 247.504 180.444 231.445 172.437L237.758 169.282Z" fill="#1B1E29"/>
<path fill-rule="evenodd" clip-rule="evenodd" d="M437.646 284.845L221.424 176.776V307.918L437.646 415.948V284.845Z" fill="#C9FEC6"/>
<path fill-rule="evenodd" clip-rule="evenodd" d="M438.198 284.845C438.198 284.609 438.079 284.412 437.882 284.333L221.7 176.263C221.502 176.185 221.305 176.185 221.147 176.303C220.989 176.421 220.871 176.579 220.871 176.776V307.879C220.871 308.116 220.989 308.313 221.187 308.392L437.369 416.461C437.527 416.54 437.764 416.54 437.921 416.422C438.079 416.303 438.198 416.146 438.198 415.948V284.845ZM437.053 285.2V415.041L222.015 307.564V177.723L437.053 285.2Z" fill="#1B1E29"/>
<path fill-rule="evenodd" clip-rule="evenodd" d="M282.582 146.209L498.803 254.278L491.188 258.065L275.006 149.995L282.582 146.209Z" fill="#C9FEC6"/>
<path fill-rule="evenodd" clip-rule="evenodd" d="M282.857 145.696C282.7 145.617 282.502 145.617 282.344 145.696L274.769 149.483C274.571 149.562 274.453 149.759 274.453 149.995C274.453 150.193 274.571 150.429 274.769 150.508L490.951 258.577C491.109 258.656 491.306 258.656 491.464 258.577L499.04 254.791C499.237 254.712 499.355 254.515 499.355 254.278C499.355 254.042 499.237 253.845 499.04 253.766L282.857 145.696ZM282.581 146.84L497.501 254.239L491.188 257.394L276.308 149.995L282.581 146.84Z" fill="#1B1E29"/>
<path fill-rule="evenodd" clip-rule="evenodd" d="M282.581 146.209L498.803 254.278L437.646 284.845L221.424 176.776L282.581 146.209Z" fill="#C9FEC6"/>
<path fill-rule="evenodd" clip-rule="evenodd" d="M282.857 145.696C282.699 145.617 282.502 145.617 282.344 145.696L221.187 176.263C220.989 176.342 220.871 176.54 220.871 176.776C220.871 176.973 220.989 177.21 221.187 177.289L437.369 285.358C437.527 285.437 437.724 285.437 437.882 285.358L499.04 254.791C499.237 254.712 499.355 254.515 499.355 254.278C499.355 254.042 499.237 253.845 499.04 253.766L282.857 145.696ZM282.581 146.84L497.501 254.239C489.846 258.065 441.551 282.203 437.606 284.175L222.726 176.776L282.581 146.84Z" fill="#1B1E29"/>
<path fill-rule="evenodd" clip-rule="evenodd" d="M295.444 318.646L330.206 336.001V387.827L295.444 370.472V318.646Z" fill="#C9FEC6"/>
<path fill-rule="evenodd" clip-rule="evenodd" d="M295.68 318.134C295.522 318.055 295.286 318.055 295.128 318.173C294.97 318.291 294.852 318.449 294.852 318.646V370.472C294.852 370.709 294.97 370.906 295.167 370.985L329.968 388.379C330.126 388.458 330.362 388.457 330.52 388.339C330.678 388.221 330.796 388.063 330.796 387.866V336.001C330.796 335.764 330.678 335.567 330.481 335.488L295.68 318.134ZM295.996 319.553C295.996 319.553 326.22 334.66 329.652 336.355C329.652 336.355 329.652 379.978 329.652 386.919L295.996 370.117V319.553Z" fill="#1B1E29"/>
<path fill-rule="evenodd" clip-rule="evenodd" d="M337.149 365.739V332.569L330.205 336.001V387.827L344.054 380.924V369.171L337.149 365.739Z" fill="#C9FEC6"/>
<path fill-rule="evenodd" clip-rule="evenodd" d="M330.482 388.339L344.331 381.437C344.528 381.358 344.646 381.161 344.646 380.924V369.171C344.646 368.973 344.528 368.737 344.331 368.658L337.742 365.345V332.53C337.742 332.332 337.623 332.135 337.465 332.056C337.307 331.938 337.071 331.938 336.913 332.017L330.008 335.488C329.811 335.567 329.692 335.764 329.692 336V387.826C329.692 388.024 329.811 388.221 329.969 388.3C330.087 388.418 330.284 388.418 330.482 388.339ZM336.873 383.882L330.797 386.919V336.355L336.558 333.476V365.7C336.558 365.936 336.676 366.134 336.873 366.213L343.463 369.526V380.569L336.873 383.882Z" fill="#1B1E29"/>
<path fill-rule="evenodd" clip-rule="evenodd" d="M295.444 318.607L302.507 315.097L337.15 332.569L330.206 336.001L295.444 318.607Z" fill="#C9FEC6"/>
<path fill-rule="evenodd" clip-rule="evenodd" d="M295.167 318.094C294.97 318.173 294.852 318.37 294.852 318.607C294.852 318.804 294.97 319.041 295.167 319.12L329.968 336.513C330.126 336.592 330.323 336.592 330.481 336.513L337.386 333.043C337.583 332.964 337.701 332.766 337.701 332.53C337.701 332.333 337.583 332.096 337.386 332.017L302.782 314.545C302.624 314.466 302.427 314.466 302.269 314.545L295.167 318.094ZM296.706 318.607L302.506 315.688L335.847 332.53L330.205 335.33L296.706 318.607Z" fill="#1B1E29"/>
<path fill-rule="evenodd" clip-rule="evenodd" d="M312.805 342.548C307.439 339.866 303.099 343.297 303.099 350.16C303.099 357.023 307.439 364.793 312.805 367.475C318.171 370.157 322.511 366.725 322.511 359.863C322.511 353 318.171 345.23 312.805 342.548Z" fill="#1B1E29"/>
<path fill-rule="evenodd" clip-rule="evenodd" d="M313.081 342.035C310.161 340.576 307.517 340.813 305.624 342.311C303.769 343.771 302.546 346.492 302.546 350.16C302.546 357.26 307.044 365.227 312.568 367.988C315.488 369.447 318.131 369.21 320.025 367.712C321.88 366.252 323.103 363.531 323.103 359.863C323.103 352.763 318.605 344.796 313.081 342.035ZM312.568 343.061C317.776 345.664 321.959 353.197 321.959 359.863C321.959 363.097 320.972 365.503 319.354 366.804C317.737 368.066 315.527 368.185 313.12 366.962C307.912 364.359 303.73 356.826 303.73 350.16C303.73 346.926 304.716 344.52 306.334 343.218C307.912 341.956 310.122 341.838 312.568 343.061Z" fill="#1B1E29"/>
<path fill-rule="evenodd" clip-rule="evenodd" d="M406.75 233.808V205.292C406.75 192.908 398.465 178.748 388.245 173.66L326.575 142.857C322.116 140.609 318.013 140.49 314.817 142.107L302.467 148.26C305.663 146.643 309.766 146.801 314.225 149.009L375.895 179.813C386.115 184.901 394.4 199.1 394.4 211.445V239.961L406.75 233.808Z" fill="#C9FEC6"/>
<path fill-rule="evenodd" clip-rule="evenodd" d="M302.506 148.812C302.348 148.812 302.23 148.733 302.151 148.654C302.072 148.575 302.033 148.497 301.993 148.378C301.914 148.102 302.072 147.866 302.309 147.747L314.659 141.594C314.422 141.713 314.304 141.989 314.343 142.225C314.264 141.949 314.422 141.713 314.659 141.594C318.013 139.938 322.274 140.017 326.93 142.344L388.521 173.147C398.898 178.314 407.342 192.75 407.342 205.292V233.808C407.342 234.045 407.224 234.242 407.026 234.321L394.677 240.474C394.519 240.553 394.282 240.553 394.124 240.434C393.966 240.316 393.848 240.158 393.848 239.961V211.445C393.848 199.297 385.72 185.335 375.659 180.326C375.659 180.326 314.027 149.522 313.988 149.522C309.727 147.392 305.781 147.234 302.743 148.773C302.703 148.812 302.585 148.812 302.506 148.812ZM307.083 146.603L315.093 142.58C318.17 141.042 322.077 141.2 326.338 143.33L388.008 174.133C398.03 179.143 406.198 193.105 406.198 205.253V233.414L394.992 239.054V211.484C394.992 198.903 386.549 184.507 376.171 179.34L314.501 148.536C311.897 147.195 309.372 146.564 307.083 146.603Z" fill="#1B1E29"/>
<path fill-rule="evenodd" clip-rule="evenodd" d="M321.169 191.054V167.941L315.843 165.299C311.818 163.287 308.819 164.944 308.819 169.913V197.207L321.169 191.054Z" fill="#C9FEC6"/>
<path fill-rule="evenodd" clip-rule="evenodd" d="M321.407 191.566C321.604 191.487 321.722 191.29 321.722 191.054V167.941C321.722 167.744 321.604 167.507 321.407 167.428L316.08 164.786C313.831 163.681 311.898 163.642 310.517 164.51C309.136 165.377 308.268 167.192 308.268 169.913V197.206C308.268 197.404 308.386 197.601 308.544 197.68C308.702 197.798 308.938 197.798 309.096 197.719L321.407 191.566ZM320.578 190.699L309.412 196.299V169.913C309.412 167.704 310.004 166.166 311.148 165.456C312.253 164.746 313.791 164.904 315.606 165.811L320.617 168.296L320.578 190.699Z" fill="#1B1E29"/>
<path fill-rule="evenodd" clip-rule="evenodd" d="M394.441 239.961V211.445C394.441 199.06 386.155 184.901 375.935 179.813L314.265 149.009C304.046 143.922 295.76 149.798 295.76 162.183V190.699L308.82 197.207V169.874C308.82 164.904 311.779 163.248 315.843 165.259L367.334 190.975C374.712 194.643 380.67 204.898 380.67 213.812V233.098L394.441 239.961Z" fill="#C9FEC6"/>
<path fill-rule="evenodd" clip-rule="evenodd" d="M394.164 240.474L380.394 233.611C380.197 233.532 380.078 233.335 380.078 233.098V213.811C380.078 205.095 374.239 195.116 367.058 191.488L315.567 165.772C313.791 164.865 312.213 164.746 311.108 165.417C310.004 166.127 309.372 167.626 309.372 169.874V197.207C309.372 197.404 309.254 197.601 309.096 197.68C308.938 197.798 308.702 197.798 308.544 197.719L295.484 191.211C295.286 191.133 295.168 190.935 295.168 190.699V162.183C295.168 155.754 297.338 151.06 300.81 148.575C304.322 146.091 309.136 145.854 314.462 148.496L376.133 179.3C386.51 184.467 394.954 198.902 394.954 211.445V239.961L394.362 240.553H394.322C394.243 240.513 394.204 240.513 394.164 240.474ZM393.849 239.054L381.223 232.743V213.811C381.223 204.7 375.107 194.248 367.571 190.462L316.08 164.746C313.831 163.642 311.898 163.603 310.517 164.47C309.136 165.338 308.268 167.152 308.268 169.874V196.26L296.352 190.304V162.143C296.352 156.188 298.324 151.77 301.52 149.483C304.716 147.195 309.136 147.077 314.028 149.483C314.028 149.483 375.659 180.286 375.699 180.286C385.721 185.295 393.888 199.257 393.888 211.405V239.054H393.849Z" fill="#1B1E29"/>
<path fill-rule="evenodd" clip-rule="evenodd" d="M498.803 254.278V481.737L491.188 485.523V266.663L445.221 289.618V412.162L437.646 415.948V284.845L498.803 254.278Z" fill="#C9FEC6"/>
<path fill-rule="evenodd" clip-rule="evenodd" d="M499.356 481.737V254.278L498.764 254.87L498.527 253.766L490.951 257.552L437.369 284.333C437.172 284.412 437.054 284.609 437.054 284.845V415.948C437.054 416.146 437.172 416.343 437.33 416.422C437.488 416.54 437.724 416.54 437.882 416.461L445.458 412.675C445.655 412.596 445.774 412.399 445.774 412.162V289.973L490.596 267.57V485.523C490.596 485.72 490.715 485.917 490.872 485.996C491.03 486.115 491.267 486.115 491.425 486.036L499 482.249C499.237 482.17 499.356 481.973 499.356 481.737ZM498.211 255.186V262.837V481.342L491.78 484.576C491.78 469.155 491.78 266.623 491.78 266.623C491.78 266.426 491.662 266.229 491.504 266.15C491.346 266.032 491.109 266.032 490.951 266.111L444.984 289.105C444.787 289.184 444.669 289.381 444.669 289.618C444.669 289.618 444.669 404.589 444.669 411.807L438.237 415.041V285.2L491.504 258.577L498.211 255.186Z" fill="#1B1E29"/>
<path fill-rule="evenodd" clip-rule="evenodd" d="M265.694 198.903V268.359C265.694 276.602 260.328 280.625 253.699 277.351L221.424 261.22V176.815L265.694 198.903Z" fill="#1B1E29"/>
<path fill-rule="evenodd" clip-rule="evenodd" d="M266.286 198.903C266.286 198.706 266.167 198.469 265.97 198.39L221.7 176.263C221.502 176.185 221.305 176.185 221.147 176.303C220.989 176.421 220.871 176.579 220.871 176.776V261.181C220.871 261.378 220.989 261.615 221.187 261.693L253.462 277.825C257.013 279.6 260.209 279.363 262.537 277.628C264.826 275.932 266.286 272.698 266.286 268.359V198.903ZM265.102 199.258V268.359C265.102 272.264 263.879 275.182 261.827 276.721C259.815 278.219 257.013 278.338 253.975 276.839L222.015 260.865V177.723L265.102 199.258Z" fill="#1B1E29"/>
<path fill-rule="evenodd" clip-rule="evenodd" d="M646.449 512.855C692.534 512.855 729.899 533.404 729.899 558.686C729.899 583.968 692.494 604.517 646.449 604.517C642.029 604.517 622.143 603.571 617.922 603.216C577.992 599.784 562.998 581.562 562.998 558.686C562.959 533.365 600.363 512.855 646.449 512.855Z" fill="#1B1E29"/>
<path fill-rule="evenodd" clip-rule="evenodd" d="M646.449 512.264C618.671 512.264 594.011 519.719 578.741 531.157C568.443 538.848 562.406 548.392 562.406 558.687C562.406 567.955 564.853 576.475 570.376 583.614C578.623 594.223 593.695 601.717 617.882 603.768C622.104 604.123 642.069 605.07 646.488 605.07C674.265 605.07 698.926 597.615 714.195 586.177C724.494 578.486 730.53 568.941 730.53 558.647C730.53 548.353 724.494 538.848 714.195 531.117C698.847 519.719 674.226 512.264 646.449 512.264ZM646.449 513.408C673.95 513.408 698.334 520.744 713.446 532.064C723.428 539.518 729.347 548.708 729.347 558.647C729.347 568.586 723.428 577.776 713.446 585.231C698.334 596.55 673.95 603.886 646.449 603.886C642.03 603.886 622.183 602.94 617.961 602.585C594.208 600.534 579.373 593.277 571.284 582.864C565.918 575.962 563.55 567.679 563.55 558.647C563.55 548.708 569.469 539.518 579.451 532.064C594.524 520.744 618.947 513.408 646.449 513.408Z" fill="#1B1E29"/>
<path fill-rule="evenodd" clip-rule="evenodd" d="M543.744 542.634C543.941 553.283 552.227 563.893 568.641 572.018C601.982 588.504 656.274 588.504 689.852 572.018V597.378C656.274 613.865 601.982 613.865 568.641 597.378C552.464 589.372 544.178 578.959 543.784 568.468V542.634H543.744Z" fill="#C9FEC6"/>
<path fill-rule="evenodd" clip-rule="evenodd" d="M543.744 543.186V543.225L543.152 542.673V568.547C543.152 568.586 543.152 568.665 543.192 568.704C543.705 579.314 552.03 589.884 568.365 597.97C601.824 614.535 656.353 614.535 690.088 597.97C690.286 597.891 690.404 597.654 690.404 597.457V572.096L689.852 572.648C689.891 572.57 690.246 571.662 690.088 571.584C689.457 571.268 689.812 572.57 689.812 572.648L689.26 572.096V572.215C689.22 571.978 689.339 571.702 689.575 571.584C656.116 587.991 602.061 587.991 568.878 571.584C552.74 563.577 544.494 553.204 544.297 542.713L543.744 543.304C543.744 543.304 544.415 542.16 543.744 542.16C543.389 542.081 543.665 542.949 543.744 543.186ZM544.336 549.26C547.137 557.779 555.147 565.983 568.405 572.53C601.627 588.977 655.525 589.096 689.299 572.925V597.023C655.84 613.273 601.982 613.234 568.917 596.865C553.016 588.977 544.77 578.801 544.375 568.468V549.26H544.336ZM544.099 568.744L543.784 569.059V569.099L544.099 568.744Z" fill="#1B1E29"/>
<path fill-rule="evenodd" clip-rule="evenodd" d="M689.851 572.018C656.274 588.504 601.981 588.504 568.641 572.018C535.3 555.531 535.458 528.711 569.075 512.185C592.867 500.471 627.115 497.04 656.905 501.931L638.558 528.79L629.483 530.289V541.845L689.851 572.018Z" fill="#C9FEC6"/>
<path fill-rule="evenodd" clip-rule="evenodd" d="M690.127 572.53C690.325 572.451 690.443 572.254 690.443 572.018C690.443 571.781 690.325 571.584 690.127 571.505L630.075 541.49V530.762L638.637 529.342C638.795 529.303 638.913 529.224 639.031 529.105L657.379 502.246C657.497 502.088 657.497 501.891 657.418 501.694C657.339 501.497 657.181 501.378 656.984 501.339C627.076 496.448 592.709 499.879 568.799 511.633C551.753 520.034 543.231 531.078 543.152 542.082C543.073 553.086 551.438 564.129 568.365 572.491C601.863 589.096 656.392 589.096 690.127 572.53ZM688.549 572.018C655.011 587.913 601.745 587.755 568.878 571.505C552.464 563.38 544.217 552.77 544.296 542.121C544.375 531.472 552.74 520.823 569.272 512.698C592.749 501.142 626.405 497.71 655.879 502.364L638.203 528.277L629.364 529.737C629.088 529.776 628.891 530.013 628.891 530.289V541.845C628.891 542.042 629.009 542.279 629.207 542.358C629.246 542.358 680.579 568.034 688.549 572.018Z" fill="#1B1E29"/>
<path fill-rule="evenodd" clip-rule="evenodd" d="M173.76 133.943C173.76 125.699 179.126 121.676 185.755 124.95L241.664 152.874C248.293 156.188 253.659 165.575 253.659 173.818V274.354C253.659 282.597 248.293 286.62 241.664 283.346L185.755 255.422C179.126 252.109 173.76 242.722 173.76 234.479V133.943Z" fill="#C9FEC6"/>
<path fill-rule="evenodd" clip-rule="evenodd" d="M173.168 133.943V234.479C173.168 242.958 178.692 252.543 185.478 255.935L241.388 283.859C244.939 285.634 248.135 285.397 250.463 283.662C252.752 281.966 254.212 278.732 254.212 274.393V173.857C254.212 165.377 248.688 155.793 241.901 152.401L185.991 124.477C182.44 122.702 179.244 122.938 176.916 124.674C174.628 126.37 173.168 129.565 173.168 133.943ZM174.312 133.943C174.312 130.038 175.535 127.119 177.587 125.581C179.599 124.082 182.401 123.964 185.439 125.463L241.349 153.387C247.78 156.621 253.028 165.772 253.028 173.818V274.354C253.028 278.258 251.805 281.177 249.753 282.715C247.741 284.214 244.939 284.332 241.901 282.834L185.991 254.909C179.56 251.675 174.312 242.525 174.312 234.479V133.943Z" fill="#1B1E29"/>
<path fill-rule="evenodd" clip-rule="evenodd" d="M249.122 283.82L254.054 281.375C256.816 279.994 258.552 276.681 258.552 271.948V171.373C258.552 163.129 253.186 153.703 246.558 150.429L190.648 122.505C187.767 121.046 185.084 121.006 183.033 122.11C179.679 123.806 180.783 123.215 177.43 124.911V124.99C179.6 123.491 182.52 123.333 185.755 124.95L241.665 152.875C248.294 156.188 253.66 165.575 253.66 173.818V274.354C253.62 279.126 251.845 282.439 249.122 283.82Z" fill="#C9FEC6"/>
<path fill-rule="evenodd" clip-rule="evenodd" d="M249.083 284.411C248.846 284.411 248.649 284.253 248.57 284.056C248.57 284.017 248.57 284.017 248.53 283.977C248.451 283.701 248.609 283.465 248.846 283.346C251.45 282.045 253.028 278.889 253.028 274.433V173.857C253.028 165.811 247.82 156.621 241.349 153.427L185.479 125.463C182.48 123.964 179.758 124.043 177.745 125.463C177.666 125.541 177.548 125.581 177.43 125.581C177.43 125.581 176.877 125.541 176.838 125.029V124.95L177.39 125.463L177.114 124.516L177.193 124.437V124.358L177.982 123.964H178.022H178.061L182.796 121.597C182.559 121.716 182.441 121.992 182.48 122.228C182.401 121.992 182.52 121.716 182.756 121.597C184.966 120.414 187.807 120.414 190.924 121.992L246.834 149.916C253.62 153.308 259.144 162.932 259.144 171.372V271.908C259.144 276.917 257.211 280.428 254.33 281.847L249.398 284.293C249.28 284.372 249.201 284.411 249.083 284.411ZM253.778 280.861L252.397 281.571C253.541 279.797 254.212 277.351 254.212 274.393V173.857C254.212 165.377 248.688 155.793 241.902 152.401L185.992 124.477C184.611 123.767 183.269 123.412 182.007 123.293L183.23 122.702C183.269 122.702 183.269 122.702 183.269 122.662C185.203 121.637 187.688 121.716 190.371 123.057L246.281 150.981C252.713 154.215 257.96 163.366 257.96 171.412V271.948C257.96 276.405 256.343 279.56 253.778 280.861Z" fill="#1B1E29"/>
<path fill-rule="evenodd" clip-rule="evenodd" d="M213.493 166.758C203.787 161.907 195.896 168.099 195.896 180.602C195.896 193.105 203.787 207.185 213.493 212.037C223.199 216.888 231.091 210.696 231.091 198.193C231.091 185.69 223.199 171.609 213.493 166.758Z" fill="#C9FEC6"/>
<path fill-rule="evenodd" clip-rule="evenodd" d="M213.769 166.245C208.679 163.682 204.063 164.076 200.709 166.719C197.395 169.322 195.343 174.134 195.343 180.602C195.343 193.302 203.392 207.58 213.256 212.549C218.346 215.113 222.962 214.719 226.316 212.076C229.63 209.473 231.682 204.661 231.682 198.193C231.682 185.453 223.633 171.175 213.769 166.245ZM213.256 167.271C222.805 172.043 230.538 185.887 230.538 198.193C230.538 204.227 228.684 208.724 225.606 211.169C222.568 213.535 218.385 213.812 213.769 211.524C204.22 206.752 196.487 192.908 196.487 180.602C196.487 174.567 198.341 170.071 201.419 167.626C204.418 165.22 208.6 164.944 213.256 167.271Z" fill="#1B1E29"/>
<path fill-rule="evenodd" clip-rule="evenodd" d="M233.457 234.005L193.922 214.245V220.201L233.457 239.961V234.005Z" fill="#C9FEC6"/>
<path fill-rule="evenodd" clip-rule="evenodd" d="M234.049 234.006C234.049 233.808 233.931 233.572 233.734 233.493L194.159 213.733C193.961 213.654 193.764 213.654 193.606 213.772C193.448 213.89 193.33 214.048 193.33 214.245V220.201C193.33 220.438 193.448 220.635 193.646 220.714L233.221 240.474C233.418 240.553 233.615 240.553 233.773 240.434C233.931 240.316 234.049 240.158 234.049 239.961V234.006ZM232.905 234.361V239.015C232.905 239.015 198.183 221.66 194.474 219.807V215.153L232.905 234.361Z" fill="#1B1E29"/>
<path fill-rule="evenodd" clip-rule="evenodd" d="M224.344 240.592L201.577 229.233V235.189L224.344 246.548V240.592Z" fill="#C9FEC6"/>
<path fill-rule="evenodd" clip-rule="evenodd" d="M224.896 240.592C224.896 240.355 224.778 240.158 224.58 240.079L201.814 228.72C201.617 228.641 201.419 228.641 201.262 228.759C201.104 228.878 200.985 229.036 200.985 229.233V235.188C200.985 235.386 201.104 235.622 201.301 235.701L224.067 247.06C224.265 247.139 224.462 247.139 224.62 247.021C224.778 246.902 224.896 246.745 224.896 246.547V240.592ZM223.752 240.947V245.601L202.13 234.794V230.14L223.752 240.947Z" fill="#1B1E29"/>
<path fill-rule="evenodd" clip-rule="evenodd" d="M147.126 399.107C144.207 397.647 139.748 397.45 137.262 398.712L77.2489 428.688C74.7237 429.95 75.0788 432.159 78.038 433.618L134.54 461.858C137.46 463.317 141.918 463.514 144.404 462.252L204.417 432.277C206.942 431.015 206.587 428.806 203.628 427.347L147.126 399.107Z" fill="#1B1E29"/>
<path fill-rule="evenodd" clip-rule="evenodd" d="M147.403 398.594C144.325 397.056 139.669 396.898 137.026 398.2L77.0122 428.175C75.4734 428.964 74.8815 430.068 75.0393 431.172C75.1972 432.198 76.1047 433.302 77.7618 434.131L134.264 462.371C137.341 463.909 141.997 464.067 144.641 462.765L204.654 432.79C206.193 432.001 206.785 430.896 206.627 429.792C206.469 428.767 205.562 427.662 203.904 426.834L147.403 398.594ZM146.89 399.619L203.391 427.859C204.181 428.254 204.772 428.688 205.127 429.161C205.443 429.555 205.562 429.95 205.522 430.344C205.443 430.896 204.97 431.37 204.181 431.764L144.167 461.74C141.8 462.923 137.578 462.765 134.816 461.345L78.2748 433.145C77.4856 432.75 76.8938 432.316 76.5387 431.843C76.223 431.449 76.1047 431.054 76.1441 430.66C76.223 430.108 76.6965 429.634 77.4856 429.24L137.499 399.264C139.906 398.042 144.088 398.2 146.89 399.619Z" fill="#1B1E29"/>
<path fill-rule="evenodd" clip-rule="evenodd" d="M147.126 384.395C144.207 382.936 139.748 382.739 137.262 384.001L77.2489 413.976C74.7237 415.238 75.0788 417.447 78.038 418.906L134.54 447.146C137.46 448.606 141.918 448.803 144.404 447.541L204.417 417.565C206.942 416.303 206.587 414.095 203.628 412.635L147.126 384.395Z" fill="#C9FEC6"/>
<path fill-rule="evenodd" clip-rule="evenodd" d="M147.403 383.922C144.325 382.384 139.669 382.226 137.026 383.528L77.0122 413.503C75.4734 414.292 74.8815 415.396 75.0393 416.501C75.1972 417.526 76.1047 418.63 77.7618 419.459L134.264 447.699C137.341 449.237 141.997 449.395 144.641 448.093L204.654 418.118C206.193 417.329 206.785 416.225 206.627 415.12C206.469 414.095 205.562 412.99 203.904 412.162L147.403 383.922ZM146.89 384.908L203.391 413.148C204.181 413.543 204.772 413.976 205.127 414.45C205.443 414.844 205.562 415.239 205.522 415.633C205.443 416.185 204.97 416.658 204.181 417.053L144.167 447.028C141.8 448.211 137.578 448.054 134.816 446.634L78.2748 418.433C77.4856 418.039 76.8938 417.605 76.5387 417.132C76.223 416.737 76.1047 416.343 76.1441 415.948C76.223 415.396 76.6965 414.923 77.4856 414.529L137.499 384.553C139.906 383.37 144.088 383.528 146.89 384.908Z" fill="#1B1E29"/>
<path fill-rule="evenodd" clip-rule="evenodd" d="M206.114 415.475V422.417C206.114 423.206 205.562 423.955 204.417 424.547L144.404 454.522C141.879 455.784 137.46 455.587 134.54 454.128L78.0381 425.888C76.4204 425.059 75.5918 424.034 75.5918 423.048V416.106C75.5918 417.092 76.4204 418.118 78.0381 418.946L134.54 447.186C137.46 448.645 141.918 448.842 144.404 447.58L204.417 417.605C205.562 417.053 206.114 416.264 206.114 415.475Z" fill="#C9FEC6"/>
<path fill-rule="evenodd" clip-rule="evenodd" d="M206.114 416.067L205.523 415.475C205.523 416.106 205.049 416.658 204.142 417.092L144.128 447.068C141.761 448.251 137.539 448.093 134.777 446.673L78.2753 418.433C77.5651 418.078 76.9732 417.644 76.6181 417.21C76.3025 416.855 76.1446 416.461 76.1446 416.106L75.5528 416.698C75.5528 416.698 75.7501 415.554 75.5528 415.554C74.8031 415.554 75.5528 416.698 75.5528 416.698L74.9609 416.106V423.048C74.9609 424.192 75.8684 425.454 77.7229 426.361L134.225 454.601C137.302 456.139 141.958 456.297 144.602 454.995L204.615 425.02C205.996 424.349 206.627 423.363 206.627 422.417V415.475L206.114 416.067C206.114 416.067 206.193 414.883 205.996 414.923C205.286 415.081 206.075 416.027 206.114 416.067ZM205.523 417.565V422.377C205.523 422.693 205.759 422.969 206.114 422.969C205.799 422.969 205.523 422.693 205.523 422.377C205.523 423.008 205.049 423.56 204.142 423.994L144.128 453.97C141.761 455.153 137.539 454.995 134.777 453.575L78.2753 425.375C77.5651 425.02 76.9732 424.586 76.6181 424.152C76.3025 423.797 76.1446 423.403 76.1446 423.048V418.354C76.5787 418.749 77.0916 419.104 77.7624 419.459L134.264 447.699C137.342 449.237 141.998 449.395 144.641 448.093L204.655 418.118C205.01 417.96 205.286 417.763 205.523 417.565ZM75.5922 423.639C75.5922 423.639 74.7637 422.653 75.4739 422.496C75.6317 422.456 75.5922 423.6 75.5922 423.639ZM206.114 422.969C206.114 422.969 205.286 421.983 205.996 421.825C206.193 421.825 206.114 422.969 206.114 422.969Z" fill="#1B1E29"/>
<path fill-rule="evenodd" clip-rule="evenodd" d="M509.969 600.731L270.389 480.987L108.775 561.763L348.395 681.507L509.969 600.731Z" fill="#1B1E29"/>
<path fill-rule="evenodd" clip-rule="evenodd" d="M510.245 601.244C510.442 601.165 510.561 600.968 510.561 600.731C510.561 600.494 510.442 600.297 510.245 600.218L270.665 480.474C270.507 480.395 270.31 480.395 270.152 480.474L108.538 561.25C108.341 561.329 108.223 561.526 108.223 561.763C108.223 561.999 108.341 562.197 108.538 562.276L348.118 682.019C348.276 682.098 348.473 682.098 348.631 682.019L510.245 601.244ZM508.706 600.731L348.395 680.876C348.395 680.876 127.043 570.243 110.077 561.763C110.077 561.763 263.287 485.207 270.389 481.618C278.793 485.838 492.095 592.448 508.706 600.731Z" fill="#1B1E29"/>
<path fill-rule="evenodd" clip-rule="evenodd" d="M498.369 588.149L264.629 471.324L108.775 549.22L342.516 666.046L498.369 588.149Z" fill="#C9FEC6"/>
<path fill-rule="evenodd" clip-rule="evenodd" d="M498.605 588.662C498.803 588.583 498.921 588.386 498.921 588.149C498.921 587.952 498.803 587.715 498.605 587.636L264.865 470.811C264.707 470.732 264.51 470.732 264.352 470.811L108.538 548.708C108.341 548.787 108.223 548.984 108.223 549.221C108.223 549.457 108.341 549.654 108.538 549.733L342.279 666.559C342.437 666.637 342.634 666.637 342.792 666.559L498.605 588.662ZM497.067 588.149C497.067 588.149 349.499 661.904 342.515 665.375L110.077 549.221C110.077 549.221 257.645 475.465 264.628 471.994C273.23 476.293 497.067 588.149 497.067 588.149Z" fill="#1B1E29"/>
<path fill-rule="evenodd" clip-rule="evenodd" d="M498.369 576.435L264.629 459.61L108.775 537.467L342.516 654.292L498.369 576.435Z" fill="#C9FEC6"/>
<path fill-rule="evenodd" clip-rule="evenodd" d="M498.605 576.948C498.803 576.869 498.921 576.672 498.921 576.435C498.921 576.238 498.803 576.001 498.605 575.922L264.865 459.097C264.707 459.018 264.51 459.018 264.352 459.097L108.538 536.954C108.341 537.033 108.223 537.231 108.223 537.467C108.223 537.704 108.341 537.901 108.538 537.98L342.279 654.805C342.437 654.884 342.634 654.884 342.792 654.805L498.605 576.948ZM497.067 576.435C483.967 582.982 349.184 650.348 342.515 653.661L110.077 537.467L264.628 460.241C273.23 464.54 497.067 576.435 497.067 576.435Z" fill="#1B1E29"/>
<path fill-rule="evenodd" clip-rule="evenodd" d="M498.369 564.603L264.629 447.777L108.775 525.635L342.516 642.46L498.369 564.603Z" fill="#C9FEC6"/>
<path fill-rule="evenodd" clip-rule="evenodd" d="M498.605 565.115C498.803 565.037 498.921 564.839 498.921 564.603C498.921 564.366 498.803 564.169 498.605 564.09L264.865 447.265C264.707 447.186 264.51 447.186 264.352 447.265L108.538 525.122C108.341 525.201 108.223 525.398 108.223 525.635C108.223 525.871 108.341 526.069 108.538 526.147L342.279 642.973C342.437 643.052 342.634 643.052 342.792 642.973L498.605 565.115ZM497.067 564.603L342.515 641.829C342.515 641.829 126.767 533.996 110.077 525.635L264.628 448.409C273.23 452.708 497.067 564.603 497.067 564.603Z" fill="#1B1E29"/>
<path fill-rule="evenodd" clip-rule="evenodd" d="M133.436 525.161L263.563 460.123L282.384 469.51L152.256 534.548L133.436 525.161Z" fill="#013E39"/>
<path fill-rule="evenodd" clip-rule="evenodd" d="M133.198 524.649C133.001 524.728 132.883 524.925 132.883 525.161C132.883 525.398 133.001 525.595 133.198 525.674L152.019 535.061C152.177 535.14 152.374 535.14 152.532 535.061L282.66 470.022C282.857 469.944 282.975 469.746 282.975 469.51C282.975 469.273 282.857 469.076 282.66 468.997L263.839 459.61C263.681 459.531 263.484 459.531 263.326 459.61L133.198 524.649ZM134.698 525.161L263.523 460.754L281.042 469.51C269.166 475.426 158.253 530.88 152.217 533.917L134.698 525.161Z" fill="#013E39"/>
<path fill-rule="evenodd" clip-rule="evenodd" d="M249.753 485.759L282.305 469.47L301.125 478.897L268.574 495.147L249.753 485.759Z" fill="#C9FEC6"/>
<path fill-rule="evenodd" clip-rule="evenodd" d="M249.517 485.247C249.32 485.325 249.201 485.523 249.201 485.759C249.201 485.996 249.32 486.193 249.517 486.272L268.338 495.659C268.495 495.738 268.693 495.738 268.851 495.659L301.402 479.409C301.599 479.33 301.718 479.133 301.718 478.896C301.718 478.66 301.599 478.463 301.402 478.384L282.581 468.997C282.424 468.918 282.226 468.918 282.068 468.997L249.517 485.247ZM251.056 485.759L282.305 470.14L299.824 478.896L268.574 494.515L251.056 485.759Z" fill="#013E39"/>
<path fill-rule="evenodd" clip-rule="evenodd" d="M306.176 513.96L338.727 497.671L357.509 507.097L324.957 523.347L306.176 513.96Z" fill="#C9FEC6"/>
<path fill-rule="evenodd" clip-rule="evenodd" d="M305.9 513.447C305.702 513.526 305.584 513.723 305.584 513.96C305.584 514.157 305.702 514.394 305.9 514.473L324.72 523.86C324.878 523.939 325.076 523.939 325.233 523.86L357.785 507.61C357.982 507.531 358.101 507.334 358.101 507.097C358.101 506.9 357.982 506.663 357.785 506.584L338.964 497.197C338.806 497.118 338.609 497.118 338.451 497.197L305.9 513.447ZM307.438 513.96L338.688 498.341L356.207 507.097L324.957 522.716L307.438 513.96Z" fill="#013E39"/>
<path fill-rule="evenodd" clip-rule="evenodd" d="M268.574 495.146L301.126 478.896L319.907 488.284L287.356 504.533L268.574 495.146Z" fill="#C9FEC6"/>
<path fill-rule="evenodd" clip-rule="evenodd" d="M268.298 494.634C268.101 494.713 267.982 494.91 267.982 495.146C267.982 495.344 268.101 495.58 268.298 495.659L287.119 505.046C287.277 505.125 287.474 505.125 287.632 505.046L320.183 488.796C320.381 488.718 320.499 488.52 320.499 488.284C320.499 488.086 320.381 487.85 320.183 487.771L301.363 478.384C301.205 478.305 301.008 478.305 300.85 478.384L268.298 494.634ZM269.837 495.146L301.086 479.528L318.605 488.284L287.356 503.902L269.837 495.146Z" fill="#013E39"/>
<path fill-rule="evenodd" clip-rule="evenodd" d="M324.957 523.347L357.509 507.097L376.329 516.484L343.778 532.734L324.957 523.347Z" fill="#C9FEC6"/>
<path fill-rule="evenodd" clip-rule="evenodd" d="M324.721 522.834C324.524 522.913 324.405 523.11 324.405 523.347C324.405 523.584 324.524 523.781 324.721 523.86L343.542 533.247C343.7 533.326 343.897 533.326 344.055 533.247L376.606 516.997C376.804 516.918 376.922 516.721 376.922 516.484C376.922 516.248 376.804 516.05 376.606 515.972L357.786 506.585C357.628 506.506 357.43 506.506 357.273 506.585L324.721 522.834ZM326.26 523.347L357.509 507.728L375.028 516.484L343.778 532.103L326.26 523.347Z" fill="#013E39"/>
<path fill-rule="evenodd" clip-rule="evenodd" d="M287.355 504.534L319.907 488.284L338.728 497.671L306.176 513.96L287.355 504.534Z" fill="#C9FEC6"/>
<path fill-rule="evenodd" clip-rule="evenodd" d="M287.118 504.021C286.921 504.1 286.803 504.297 286.803 504.534C286.803 504.731 286.921 504.968 287.118 505.046L305.939 514.433C306.097 514.512 306.294 514.512 306.452 514.433L339.004 498.184C339.201 498.105 339.319 497.908 339.319 497.671C339.319 497.434 339.201 497.237 339.004 497.158L320.183 487.771C320.025 487.692 319.828 487.692 319.67 487.771L287.118 504.021ZM288.657 504.534L319.907 488.915L337.425 497.671L306.176 513.29L288.657 504.534Z" fill="#013E39"/>
<path fill-rule="evenodd" clip-rule="evenodd" d="M343.778 532.734L376.33 516.484L395.111 525.871L362.56 542.121L343.778 532.734Z" fill="#C9FEC6"/>
<path fill-rule="evenodd" clip-rule="evenodd" d="M343.502 532.221C343.305 532.3 343.187 532.497 343.187 532.734C343.187 532.931 343.305 533.168 343.502 533.247L362.323 542.634C362.481 542.713 362.678 542.713 362.836 542.634L395.387 526.384C395.585 526.305 395.703 526.108 395.703 525.871C395.703 525.674 395.585 525.437 395.387 525.358L376.567 515.971C376.409 515.892 376.212 515.892 376.054 515.971L343.502 532.221ZM345.041 532.734L376.291 517.115L393.809 525.871L362.56 541.49L345.041 532.734Z" fill="#013E39"/>
<path fill-rule="evenodd" clip-rule="evenodd" d="M217.201 502.009L249.753 485.759L268.574 495.146L236.022 511.436L217.201 502.009Z" fill="#C9FEC6"/>
<path fill-rule="evenodd" clip-rule="evenodd" d="M216.965 501.496C216.768 501.575 216.649 501.773 216.649 502.009C216.649 502.206 216.768 502.443 216.965 502.522L235.786 511.909C235.944 511.988 236.141 511.988 236.299 511.909L268.85 495.659C269.048 495.58 269.166 495.383 269.166 495.146C269.166 494.91 269.048 494.713 268.85 494.634L250.03 485.247C249.872 485.168 249.675 485.168 249.517 485.247L216.965 501.496ZM218.504 502.009L249.753 486.39L267.272 495.146L236.023 510.765L218.504 502.009Z" fill="#013E39"/>
<path fill-rule="evenodd" clip-rule="evenodd" d="M273.624 530.21L306.176 513.96L324.957 523.347L292.405 539.597L273.624 530.21Z" fill="#C9FEC6"/>
<path fill-rule="evenodd" clip-rule="evenodd" d="M273.348 529.697C273.151 529.776 273.032 529.973 273.032 530.21C273.032 530.447 273.151 530.644 273.348 530.723L292.169 540.11C292.326 540.189 292.524 540.189 292.682 540.11L325.233 523.86C325.43 523.781 325.549 523.584 325.549 523.347C325.549 523.15 325.43 522.913 325.233 522.834L306.412 513.447C306.255 513.368 306.057 513.368 305.9 513.447L273.348 529.697ZM274.887 530.21L306.136 514.591L323.655 523.347L292.405 538.966L274.887 530.21Z" fill="#013E39"/>
<path fill-rule="evenodd" clip-rule="evenodd" d="M236.022 511.436L268.574 495.146L287.355 504.533L254.804 520.823L236.022 511.436Z" fill="#C9FEC6"/>
<path fill-rule="evenodd" clip-rule="evenodd" d="M235.746 510.923C235.549 511.002 235.431 511.199 235.431 511.436C235.431 511.672 235.549 511.869 235.746 511.948L254.567 521.335C254.725 521.414 254.922 521.414 255.08 521.335L287.632 505.085C287.829 505.007 287.947 504.809 287.947 504.573C287.947 504.376 287.829 504.139 287.632 504.06L268.811 494.673C268.653 494.594 268.456 494.594 268.298 494.673L235.746 510.923ZM237.285 511.436L268.535 495.817L286.053 504.573L254.804 520.192L237.285 511.436Z" fill="#013E39"/>
<path fill-rule="evenodd" clip-rule="evenodd" d="M292.405 539.597L324.957 523.347L343.778 532.734L311.226 549.023L292.405 539.597Z" fill="#C9FEC6"/>
<path fill-rule="evenodd" clip-rule="evenodd" d="M292.169 539.084C291.972 539.163 291.854 539.36 291.854 539.597C291.854 539.833 291.972 540.031 292.169 540.109L310.99 549.496C311.148 549.575 311.345 549.575 311.503 549.496L344.055 533.247C344.252 533.168 344.37 532.97 344.37 532.734C344.37 532.497 344.252 532.3 344.055 532.221L325.234 522.834C325.076 522.755 324.879 522.755 324.721 522.834L292.169 539.084ZM293.708 539.597L324.958 523.978L342.476 532.734L311.227 548.353L293.708 539.597Z" fill="#013E39"/>
<path fill-rule="evenodd" clip-rule="evenodd" d="M254.804 520.823L287.355 504.534L306.176 513.96L273.624 530.21L254.804 520.823Z" fill="#C9FEC6"/>
<path fill-rule="evenodd" clip-rule="evenodd" d="M254.567 520.31C254.369 520.389 254.251 520.586 254.251 520.823C254.251 521.059 254.369 521.257 254.567 521.335L273.387 530.722C273.545 530.801 273.743 530.801 273.9 530.722L306.452 514.473C306.649 514.394 306.768 514.197 306.768 513.96C306.768 513.723 306.649 513.526 306.452 513.447L287.631 504.06C287.473 503.981 287.276 503.981 287.118 504.06L254.567 520.31ZM256.105 520.823L287.355 505.204L304.874 513.96L273.624 529.579L256.105 520.823Z" fill="#013E39"/>
<path fill-rule="evenodd" clip-rule="evenodd" d="M311.227 549.023L343.778 532.734L362.559 542.121L330.047 558.41L311.227 549.023Z" fill="#C9FEC6"/>
<path fill-rule="evenodd" clip-rule="evenodd" d="M310.989 548.511C310.792 548.59 310.674 548.787 310.674 549.023C310.674 549.26 310.792 549.457 310.989 549.536L329.81 558.923C329.968 559.002 330.165 559.002 330.323 558.923L362.875 542.673C363.072 542.594 363.19 542.397 363.19 542.161C363.19 541.963 363.072 541.727 362.875 541.648L344.054 532.261C343.896 532.182 343.699 532.182 343.541 532.261L310.989 548.511ZM312.489 549.023L343.738 533.405L361.257 542.161L330.008 557.779L312.489 549.023Z" fill="#013E39"/>
<path fill-rule="evenodd" clip-rule="evenodd" d="M184.689 518.299L217.202 502.009L236.022 511.436L203.471 527.686L184.689 518.299Z" fill="#C9FEC6"/>
<path fill-rule="evenodd" clip-rule="evenodd" d="M184.413 517.786C184.216 517.864 184.098 518.062 184.098 518.298C184.098 518.496 184.216 518.732 184.413 518.811L203.234 528.198C203.392 528.277 203.589 528.277 203.747 528.198L236.299 511.948C236.496 511.869 236.614 511.672 236.614 511.435C236.614 511.238 236.496 511.002 236.299 510.923L217.478 501.536C217.32 501.457 217.123 501.457 216.965 501.536L184.413 517.786ZM185.952 518.298L217.202 502.68L234.72 511.435L203.471 527.054L185.952 518.298Z" fill="#013E39"/>
<path fill-rule="evenodd" clip-rule="evenodd" d="M241.073 546.46L273.625 530.21L292.406 539.597L259.894 555.886L241.073 546.46Z" fill="#C9FEC6"/>
<path fill-rule="evenodd" clip-rule="evenodd" d="M240.836 545.947C240.639 546.026 240.521 546.223 240.521 546.459C240.521 546.696 240.639 546.893 240.836 546.972L259.657 556.359C259.815 556.438 260.012 556.438 260.17 556.359L292.721 540.109C292.919 540.03 293.037 539.833 293.037 539.597C293.037 539.36 292.919 539.163 292.721 539.084L273.861 529.697C273.703 529.618 273.506 529.618 273.348 529.697L240.836 545.947ZM242.375 546.459L273.625 530.841L291.143 539.597L259.894 555.215L242.375 546.459Z" fill="#013E39"/>
<path fill-rule="evenodd" clip-rule="evenodd" d="M329.929 558.371L395.15 525.753L470.433 563.38L405.251 595.998L329.929 558.371Z" fill="#C9FEC6"/>
<path fill-rule="evenodd" clip-rule="evenodd" d="M329.693 557.858C329.495 557.937 329.377 558.134 329.377 558.371C329.377 558.568 329.495 558.805 329.693 558.884L404.976 596.511C405.133 596.59 405.331 596.59 405.489 596.511L470.71 563.932C470.908 563.853 471.026 563.656 471.026 563.42C471.026 563.222 470.908 562.986 470.71 562.907L395.388 525.24C395.23 525.161 395.033 525.161 394.875 525.24L329.693 557.858ZM331.231 558.371L395.151 526.424L469.171 563.42L405.252 595.367L331.231 558.371Z" fill="#013E39"/>
<path fill-rule="evenodd" clip-rule="evenodd" d="M203.471 527.685L236.022 511.436L254.804 520.823L222.291 537.072L203.471 527.685Z" fill="#C9FEC6"/>
<path fill-rule="evenodd" clip-rule="evenodd" d="M203.234 527.173C203.036 527.252 202.918 527.449 202.918 527.686C202.918 527.922 203.036 528.119 203.234 528.198L222.054 537.585C222.212 537.664 222.409 537.664 222.567 537.585L255.119 521.335C255.316 521.257 255.435 521.059 255.435 520.823C255.435 520.586 255.316 520.389 255.119 520.31L236.298 510.923C236.14 510.844 235.943 510.844 235.785 510.923L203.234 527.173ZM204.772 527.686L236.022 512.067L253.541 520.823L222.291 536.441L204.772 527.686Z" fill="#013E39"/>
<path fill-rule="evenodd" clip-rule="evenodd" d="M259.894 555.886L292.406 539.597L311.226 549.023L278.675 565.273L259.894 555.886Z" fill="#C9FEC6"/>
<path fill-rule="evenodd" clip-rule="evenodd" d="M259.617 555.373C259.42 555.452 259.302 555.65 259.302 555.886C259.302 556.123 259.42 556.32 259.617 556.399L278.438 565.786C278.596 565.865 278.793 565.865 278.951 565.786L311.503 549.536C311.7 549.457 311.818 549.26 311.818 549.023C311.818 548.787 311.7 548.59 311.503 548.511L292.682 539.124C292.524 539.045 292.327 539.045 292.169 539.124L259.617 555.373ZM261.156 555.886L292.406 540.267L309.924 549.023L278.675 564.642L261.156 555.886Z" fill="#013E39"/>
<path fill-rule="evenodd" clip-rule="evenodd" d="M222.291 537.073L254.803 520.823L273.624 530.21L241.072 546.46L222.291 537.073Z" fill="#C9FEC6"/>
<path fill-rule="evenodd" clip-rule="evenodd" d="M222.015 536.56C221.818 536.639 221.699 536.836 221.699 537.073C221.699 537.309 221.818 537.507 222.015 537.585L240.836 546.973C240.993 547.051 241.191 547.051 241.349 546.973L273.9 530.723C274.097 530.644 274.216 530.447 274.216 530.21C274.216 530.013 274.097 529.776 273.9 529.697L255.079 520.31C254.922 520.231 254.724 520.231 254.567 520.31L222.015 536.56ZM223.554 537.073L254.803 521.454L272.322 530.21L241.072 545.829L223.554 537.073Z" fill="#013E39"/>
<path fill-rule="evenodd" clip-rule="evenodd" d="M278.675 565.273L311.226 549.023L330.047 558.41L297.496 574.66L278.675 565.273Z" fill="#C9FEC6"/>
<path fill-rule="evenodd" clip-rule="evenodd" d="M278.438 564.76C278.24 564.839 278.122 565.036 278.122 565.273C278.122 565.47 278.24 565.707 278.438 565.786L297.258 575.173C297.416 575.252 297.614 575.252 297.771 575.173L330.323 558.923C330.52 558.844 330.639 558.647 330.639 558.41C330.639 558.213 330.52 557.976 330.323 557.897L311.502 548.51C311.344 548.431 311.147 548.431 310.989 548.51L278.438 564.76ZM279.977 565.273L311.226 549.654L328.745 558.41L297.495 574.029L279.977 565.273Z" fill="#013E39"/>
<path fill-rule="evenodd" clip-rule="evenodd" d="M152.138 534.548L184.689 518.298L203.471 527.685L170.919 543.935L152.138 534.548Z" fill="#C9FEC6"/>
<path fill-rule="evenodd" clip-rule="evenodd" d="M151.862 534.036C151.664 534.114 151.546 534.312 151.546 534.548C151.546 534.746 151.664 534.982 151.862 535.061L170.682 544.448C170.84 544.527 171.037 544.527 171.195 544.448L203.747 528.198C203.944 528.119 204.063 527.922 204.063 527.685C204.063 527.488 203.944 527.252 203.747 527.173L184.926 517.786C184.768 517.707 184.571 517.707 184.413 517.786L151.862 534.036ZM153.4 534.548L184.65 518.929L202.169 527.685L170.919 543.304L153.4 534.548Z" fill="#013E39"/>
<path fill-rule="evenodd" clip-rule="evenodd" d="M208.521 562.749L241.073 546.459L259.894 555.886L227.342 572.136L208.521 562.749Z" fill="#C9FEC6"/>
<path fill-rule="evenodd" clip-rule="evenodd" d="M208.284 562.236C208.087 562.315 207.969 562.512 207.969 562.749C207.969 562.946 208.087 563.183 208.284 563.262L227.105 572.649C227.263 572.728 227.46 572.728 227.618 572.649L260.17 556.399C260.367 556.32 260.485 556.123 260.485 555.886C260.485 555.65 260.367 555.452 260.17 555.373L241.349 545.986C241.191 545.908 240.994 545.908 240.836 545.986L208.284 562.236ZM209.823 562.749L241.073 547.13L258.591 555.886L227.342 571.505L209.823 562.749Z" fill="#013E39"/>
<path fill-rule="evenodd" clip-rule="evenodd" d="M170.919 543.935L203.471 527.686L222.291 537.073L189.74 553.362L170.919 543.935Z" fill="#C9FEC6"/>
<path fill-rule="evenodd" clip-rule="evenodd" d="M170.683 543.423C170.486 543.502 170.367 543.699 170.367 543.936C170.367 544.172 170.486 544.369 170.683 544.448L189.504 553.835C189.661 553.914 189.859 553.914 190.017 553.835L222.568 537.585C222.765 537.507 222.884 537.309 222.884 537.073C222.884 536.836 222.765 536.639 222.568 536.56L203.747 527.173C203.59 527.094 203.392 527.094 203.234 527.173L170.683 543.423ZM172.222 543.936L203.471 528.317L220.99 537.073L189.74 552.692L172.222 543.936Z" fill="#013E39"/>
<path fill-rule="evenodd" clip-rule="evenodd" d="M189.74 553.362L222.292 537.073L241.073 546.46L208.522 562.749L189.74 553.362Z" fill="#C9FEC6"/>
<path fill-rule="evenodd" clip-rule="evenodd" d="M189.464 552.849C189.267 552.928 189.148 553.125 189.148 553.362C189.148 553.598 189.267 553.796 189.464 553.875L208.285 563.262C208.443 563.34 208.64 563.34 208.798 563.262L241.349 547.012C241.547 546.933 241.665 546.736 241.665 546.499C241.665 546.302 241.547 546.065 241.349 545.986L222.529 536.599C222.371 536.52 222.174 536.52 222.016 536.599L189.464 552.849ZM191.003 553.362L222.252 537.743L239.771 546.499L208.522 562.118L191.003 553.362Z" fill="#013E39"/>
<path d="M407.935 585.349L417.838 580.419C418.47 580.103 418.785 579.748 418.785 579.314C418.785 578.92 418.588 578.486 418.233 578.092L406.751 563.814C407.501 564.011 408.172 564.169 408.763 564.287L435.239 569.572C436.028 569.691 436.856 569.769 437.646 569.809C438.474 569.848 439.145 569.73 439.737 569.414L448.97 564.8L405.844 556.951L391.284 536.481L381.381 541.411C380.749 541.727 380.394 542.042 380.276 542.279C380.197 542.555 380.315 542.87 380.591 543.225L391.363 557.109C390.929 556.99 390.495 556.872 390.061 556.793C389.627 556.714 389.153 556.596 388.641 556.517L364.099 551.666C363.27 551.508 362.56 551.469 361.968 551.469C361.416 551.508 360.903 551.626 360.469 551.824L350.999 556.557L391.56 563.459L407.935 585.349Z" fill="#013E39"/>
<path fill-rule="evenodd" clip-rule="evenodd" d="M389.982 556.202C389.626 556.123 389.232 556.044 388.837 555.965L364.295 551.114C363.388 550.956 362.638 550.877 362.046 550.917C361.376 550.956 360.823 551.074 360.31 551.35L350.841 556.083C350.604 556.202 350.486 556.438 350.525 556.675C350.565 556.912 350.762 557.109 350.999 557.148L391.323 564.011L407.5 585.625C407.658 585.862 407.974 585.901 408.21 585.783L418.114 580.853C419.022 580.379 419.377 579.788 419.377 579.235C419.337 578.723 419.14 578.21 418.706 577.658L408.329 564.721C408.447 564.76 408.605 564.76 408.723 564.8L435.199 570.085C435.199 570.085 435.199 570.085 435.238 570.085C436.067 570.203 436.895 570.282 437.724 570.322C438.631 570.361 439.46 570.203 440.091 569.888L449.324 565.273C449.561 565.155 449.679 564.918 449.64 564.682C449.6 564.445 449.403 564.248 449.166 564.208C449.166 564.208 409.631 557.03 406.238 556.399L391.836 536.126C391.678 535.889 391.363 535.811 391.126 535.929L381.222 540.859C380.354 541.293 379.96 541.727 379.841 542.082C379.723 542.476 379.802 542.989 380.236 543.541L389.982 556.202ZM408.092 584.599L392.073 563.183C391.994 563.065 391.836 562.986 391.718 562.946C391.718 562.946 360.626 557.661 352.892 556.32L360.823 552.376C361.218 552.179 361.612 552.1 362.125 552.06C362.638 552.06 363.309 552.1 364.098 552.258L388.64 557.109C389.114 557.188 389.587 557.306 390.021 557.385C390.455 557.464 390.889 557.582 391.323 557.7C391.56 557.779 391.797 557.661 391.954 557.464C392.073 557.267 392.073 556.991 391.915 556.793L381.143 542.91C381.064 542.792 380.986 542.713 380.946 542.594C380.907 542.555 380.907 542.476 380.907 542.437C380.907 542.397 380.986 542.358 381.064 542.318C381.222 542.2 381.42 542.082 381.696 541.924L391.126 537.191L405.37 557.267C405.449 557.385 405.567 557.464 405.725 557.503L447.194 565.037L439.5 568.902C438.987 569.138 438.395 569.257 437.685 569.217C436.895 569.178 436.106 569.099 435.357 568.981L408.881 563.696C408.289 563.577 407.619 563.419 406.908 563.222C406.672 563.143 406.395 563.262 406.277 563.459C406.159 563.656 406.159 563.932 406.317 564.129L417.798 578.407C418.035 578.683 418.193 578.999 418.193 579.275C418.193 579.354 418.114 579.433 418.035 579.512C417.917 579.63 417.759 579.709 417.562 579.827L408.092 584.599Z" fill="#013E39"/>
</g>
</g>
<defs>
<clipPath id="clip0_67_615">
<rect width="596" height="551.19" fill="white"/>
</clipPath>
<clipPath id="clip1_67_615">
<rect width="726" height="706" fill="white" transform="translate(75)"/>
</clipPath>
</defs>
</svg>
