
<svg width="233" height="233" viewBox="0 0 233 233" fill="none" xmlns="http://www.w3.org/2000/svg">
<g clip-path="url(#clip0_43_404)">
<path d="M0 120.2C2 181.4 51.3 230.7 112.5 232.7C110.8 212.7 110.9 173.9 116.4 116.4C58.8 121.8 20 121.9 0 120.2Z" fill="#013E39"/>
<path d="M112.5 0C51.3 2 2 51.3 0 112.5C20 110.8 58.8 110.9 116.3 116.4C110.9 58.8 110.7 20 112.5 0Z" fill="#013E39"/>
<path d="M116.3 116.3C121.8 173.8 121.9 212.6 120.2 232.6C181.4 230.6 230.7 181.3 232.7 120.1C212.6 121.9 173.9 121.8 116.3 116.3Z" fill="#013E39"/>
<path d="M232.7 112.5C230.7 51.3 181.4 2 120.2 0C121.9 20 121.8 58.8 116.3 116.3C173.9 110.9 212.6 110.7 232.7 112.5Z" fill="#013E39"/>
</g>
<defs>
<clipPath id="clip0_43_404">
<rect width="232.7" height="232.7" fill="white"/>
</clipPath>
</defs>
</svg>
