
<svg width="160" height="160" viewBox="0 0 160 160" fill="none" xmlns="http://www.w3.org/2000/svg">
<g clip-path="url(#clip0_43_357)">
<path d="M2.81525 79.9998C1.87683 79.7652 0.938416 79.9998 0 79.9998C0.938416 79.9998 1.87683 79.9998 2.81525 79.9998Z" fill="#013E39"/>
<path d="M79.7656 157.185C79.7656 158.123 79.7656 159.061 79.7656 160C80.0002 159.061 80.0002 158.123 79.7656 157.185Z" fill="#013E39"/>
<path d="M79.7656 2.81525C80.0002 1.87683 79.7656 0.938416 79.7656 0C80.0002 0.938416 80.0002 1.87683 79.7656 2.81525Z" fill="#013E39"/>
<path d="M3.04998 80C2.81537 80 2.81537 80 3.04998 80C2.81537 122.698 37.3022 157.185 79.7655 157.185C79.7655 156.716 79.7655 156.481 79.7655 156.012C69.2083 99.2375 60.2934 90.5572 3.04998 80Z" fill="#013E39"/>
<path d="M2.81543 79.7656C3.28464 79.7656 3.75385 79.7656 3.98845 79.7656C60.528 69.443 69.443 60.528 79.7656 3.98845C79.7656 3.51924 79.7656 3.05003 79.7656 2.81543C37.3022 2.81543 2.81543 37.3022 2.81543 79.7656Z" fill="#013E39"/>
<path d="M80 157.185C122.698 157.185 157.185 122.698 157.185 80C99.2375 90.5572 90.7918 99.2375 80 157.185Z" fill="#013E39"/>
<path d="M156.012 79.7656C156.246 79.7656 156.716 79.7656 157.185 79.7656C157.185 37.3022 122.698 2.81543 80 2.81543V3.05003C90.5572 60.2934 99.2375 69.2084 156.012 79.7656Z" fill="#013E39"/>
</g>
<defs>
<clipPath id="clip0_43_357">
<rect width="160" height="160" fill="white"/>
</clipPath>
</defs>
</svg>
