
<svg width="387" height="210" viewBox="0 0 387 210" fill="none" xmlns="http://www.w3.org/2000/svg">
<g clip-path="url(#clip0_43_30)">
<rect width="387" height="210" fill="#013E39"/>
<g clip-path="url(#clip1_43_30)">
<path fill-rule="evenodd" clip-rule="evenodd" d="M287.172 -23.3506L77.6465 81.4602V251.649C77.6465 257.19 81.2399 259.893 85.6979 257.676L279.147 160.92C283.578 158.703 287.199 152.406 287.199 146.839V-23.3506H287.172Z" fill="#C9FEC6"/>
<path fill-rule="evenodd" clip-rule="evenodd" d="M287.712 -23.3503C287.712 -23.5394 287.604 -23.7286 287.442 -23.8097C287.28 -23.9178 287.091 -23.9178 286.902 -23.8367L77.4036 80.9741C77.2145 81.0551 77.1064 81.2443 77.1064 81.4605V251.65C77.1064 254.623 78.1061 256.839 79.6732 258.028C81.2672 259.217 83.4827 259.406 85.9414 258.19L279.391 161.433C283.984 159.136 287.739 152.623 287.739 146.866V-23.3503H287.712ZM286.632 -22.4584L78.1872 81.7849V251.65C78.1872 254.217 78.9707 256.136 80.3216 257.136C81.6185 258.109 83.4287 258.19 85.428 257.19L278.878 160.433C283.146 158.298 286.605 152.19 286.605 146.839V-22.4584H286.632Z" fill="#013E39"/>
<path fill-rule="evenodd" clip-rule="evenodd" d="M196.445 94.434C204.226 100.65 209.414 108.38 209.468 119.137V195.758L243.429 178.758V72.2178L196.445 94.434Z" fill="#013E39"/>
<path fill-rule="evenodd" clip-rule="evenodd" d="M196.202 93.9459C196.04 94.027 195.905 94.1891 195.905 94.3783C195.878 94.5675 195.959 94.7567 196.094 94.8648C203.74 100.973 208.847 108.568 208.928 119.135V195.757C208.928 195.946 209.036 196.135 209.198 196.216C209.36 196.324 209.549 196.324 209.738 196.243L243.7 179.243C243.889 179.162 243.997 178.973 243.997 178.757V72.2162C243.997 72.027 243.889 71.8648 243.754 71.7567C243.592 71.6486 243.403 71.6486 243.241 71.7297L196.202 93.9459ZM210.009 194.892L242.89 178.459V73.081L197.445 94.5675C204.983 100.784 209.927 108.513 210.009 119.162V194.892Z" fill="#013E39"/>
<path fill-rule="evenodd" clip-rule="evenodd" d="M192.906 50.4874C192.906 47.0279 195.148 43.082 197.931 41.6766L267.854 6.70363C270.637 5.32525 272.879 7.00092 272.879 10.4874V23.082C272.879 26.5415 270.637 30.4874 267.854 31.8928L197.931 66.8658C195.148 68.2442 192.906 66.5685 192.906 63.082V50.4874Z" fill="#013E39"/>
<path fill-rule="evenodd" clip-rule="evenodd" d="M192.365 50.4876V63.0822C192.365 65.0281 193.041 66.4605 194.067 67.2173C195.121 68.0011 196.58 68.1362 198.201 67.3254L268.124 32.3524C271.069 30.893 273.447 26.7308 273.447 23.0551V10.4605C273.447 8.5146 272.771 7.08217 271.744 6.32541C270.691 5.54163 269.232 5.40649 267.611 6.2173L197.688 41.2173C194.77 42.6768 192.365 46.8389 192.365 50.4876ZM193.446 50.4876C193.446 47.2173 195.553 43.4876 198.174 42.1632L268.097 7.19028C269.259 6.59568 270.312 6.62271 271.069 7.19028C271.879 7.78487 272.312 8.94703 272.312 10.4605V23.0551C272.312 26.3254 270.204 30.0551 267.584 31.3795L197.688 66.3795C196.526 66.9741 195.472 66.947 194.716 66.3795C193.905 65.7849 193.473 64.6227 193.473 63.1092V50.4876H193.446Z" fill="#013E39"/>
<path fill-rule="evenodd" clip-rule="evenodd" d="M94.3164 99.8116C94.3164 96.3522 96.5589 92.4062 99.3418 91.0008L169.265 56.0278C172.047 54.6495 174.29 56.3251 174.29 59.8116V190.649C174.29 194.109 172.047 198.055 169.265 199.46L99.3418 234.433C96.5589 235.812 94.3164 234.136 94.3164 230.649V99.8116Z" fill="#013E39"/>
<path fill-rule="evenodd" clip-rule="evenodd" d="M93.7764 99.8111V230.649C93.7764 232.595 94.4518 234.027 95.4785 234.784C96.5322 235.568 97.9912 235.703 99.6123 234.892L169.535 199.919C172.48 198.46 174.858 194.298 174.858 190.622V59.8111C174.858 57.8652 174.182 56.4328 173.155 55.676C172.102 54.8922 170.643 54.7571 169.022 55.5679L99.0989 90.5138C96.154 91.9733 93.7764 96.1355 93.7764 99.8111ZM94.8571 99.8111C94.8571 96.5409 96.9645 92.8111 99.5853 91.4868L169.508 56.5138C170.67 55.9192 171.724 55.9463 172.48 56.5138C173.291 57.1084 173.723 58.2706 173.723 59.7841V190.622C173.723 193.892 171.615 197.622 168.995 198.946L99.0989 233.946C97.9372 234.541 96.8834 234.514 96.1269 233.946C95.3164 233.352 94.8841 232.19 94.8841 230.676V99.8111H94.8571Z" fill="#013E39"/>
<path fill-rule="evenodd" clip-rule="evenodd" d="M71.5405 78.4062L77.6466 81.4603V251.649C77.6466 254.839 78.8354 257.082 80.6726 258.001L74.5666 254.947C72.7293 254.028 71.5405 251.785 71.5405 248.595V78.4062Z" fill="#C9FEC6"/>
<path fill-rule="evenodd" clip-rule="evenodd" d="M74.3232 255.433C72.3239 254.433 71 252.027 71 248.595V78.4056C71 78.2164 71.1081 78.0272 71.2702 77.9462C71.4323 77.838 71.6214 77.838 71.8105 77.9191L77.9166 80.9732C78.1058 81.0543 78.2138 81.2434 78.2138 81.4597V251.649C78.2138 254.568 79.2405 256.649 80.9427 257.514C81.1048 257.595 81.2128 257.757 81.2399 257.919C81.2669 258.108 81.2128 258.27 81.0777 258.406C80.9156 258.568 80.6725 258.595 80.4563 258.487L74.3232 255.433ZM72.0807 79.2975V248.595C72.0807 251.514 73.1074 253.595 74.8096 254.46L78.0517 256.081C77.4303 254.919 77.0791 253.406 77.0791 251.649V81.784L72.0807 79.2975Z" fill="#013E39"/>
<path fill-rule="evenodd" clip-rule="evenodd" d="M287.172 -40.2423C287.172 -45.2694 283.903 -47.7018 279.904 -45.7018L84.9143 51.8117C80.8887 53.8117 77.6465 59.5414 77.6465 64.5414V81.4333L287.172 -23.3504V-40.2423Z" fill="#CAFDC6"/>
<path fill-rule="evenodd" clip-rule="evenodd" d="M287.712 -40.2425C287.712 -42.9723 286.793 -44.9723 285.362 -46.0534C283.903 -47.1615 281.876 -47.3236 279.634 -46.1885L84.6712 51.325C80.5104 53.4061 77.0791 59.325 77.0791 64.5412V81.4331C77.0791 81.6223 77.1872 81.8115 77.3493 81.8926C77.5114 82.0007 77.7005 82.0007 77.8896 81.9196L287.415 -22.8371C287.604 -22.9182 287.712 -23.1074 287.712 -23.3236V-40.2425ZM286.631 -23.675V-40.2425C286.631 -42.5398 285.929 -44.2696 284.713 -45.1615C283.551 -46.0263 281.93 -46.1074 280.147 -45.2155L85.1575 52.298C81.2939 54.2169 78.1868 59.7304 78.1868 64.5412V80.5683L286.631 -23.675Z" fill="#013E39"/>
<path fill-rule="evenodd" clip-rule="evenodd" d="M90.6421 54.9734C93.6411 53.4869 96.0727 55.3788 96.0727 59.2437C96.0727 63.1086 93.6411 67.4329 90.6421 68.9464C87.6431 70.4329 85.2114 68.541 85.2114 64.6761C85.2114 60.8113 87.6431 56.4599 90.6421 54.9734Z" fill="#C9FEC6"/>
<path fill-rule="evenodd" clip-rule="evenodd" d="M90.3992 54.4868C87.2381 56.0543 84.6714 60.6219 84.6714 64.6759C84.6714 66.8111 85.3739 68.3787 86.4816 69.2435C87.6164 70.1354 89.1834 70.2976 90.9126 69.4327C94.0737 67.8651 96.6404 63.2976 96.6404 59.2435C96.6404 57.1084 95.9379 55.5408 94.8302 54.6759C93.6954 53.7841 92.1284 53.6219 90.3992 54.4868ZM90.8855 55.4597C92.1554 54.8111 93.3172 54.8651 94.1547 55.5138C95.0193 56.2165 95.5327 57.5138 95.5327 59.2165C95.5327 62.8651 93.2361 67.0003 90.3992 68.4327C89.1294 69.0814 87.9676 69.0273 87.13 68.3786C86.2655 67.6759 85.7521 66.3786 85.7521 64.6759C85.7521 61.0273 88.0486 56.8922 90.8855 55.4597Z" fill="#013E39"/>
<path fill-rule="evenodd" clip-rule="evenodd" d="M104.908 47.8387C107.907 46.3522 110.338 48.2441 110.338 52.1089C110.338 55.9738 107.907 60.2981 104.908 61.8116C101.909 63.2981 99.4771 61.4062 99.4771 57.5414C99.4771 53.6765 101.909 49.3252 104.908 47.8387Z" fill="#C9FEC6"/>
<path fill-rule="evenodd" clip-rule="evenodd" d="M104.665 47.352C101.504 48.9196 98.937 53.4871 98.937 57.5412C98.937 59.6763 99.6395 61.2439 100.747 62.1087C101.882 63.0006 103.449 63.1628 105.178 62.2979C108.339 60.7304 110.906 56.1628 110.906 52.1087C110.906 49.9736 110.204 48.406 109.096 47.5412C107.961 46.6493 106.394 46.4871 104.665 47.352ZM105.151 48.325C106.421 47.6763 107.583 47.7304 108.42 48.379C109.285 49.0817 109.798 50.379 109.798 52.0817C109.798 55.7304 107.502 59.8655 104.665 61.2979C103.395 61.9466 102.233 61.8925 101.396 61.2439C100.531 60.5412 100.018 59.2439 100.018 57.5412C100.018 53.8925 102.314 49.7574 105.151 48.325Z" fill="#013E39"/>
<path fill-rule="evenodd" clip-rule="evenodd" d="M119.173 40.7029C122.172 39.2164 124.604 41.1083 124.604 44.9732C124.604 48.8381 122.172 53.1624 119.173 54.6759C116.174 56.1624 113.743 54.2705 113.743 50.4056C113.743 46.5408 116.174 42.1894 119.173 40.7029Z" fill="#C9FEC6"/>
<path fill-rule="evenodd" clip-rule="evenodd" d="M118.93 40.2162C115.769 41.7838 113.203 46.3514 113.203 50.4054C113.203 52.5406 113.905 54.1081 115.013 54.973C116.148 55.8649 117.715 56.0271 119.444 55.1622C122.605 53.5946 125.172 49.0271 125.172 44.973C125.172 42.8379 124.469 41.2703 123.361 40.4054C122.227 39.5135 120.66 39.3514 118.93 40.2162ZM119.417 41.1892C120.687 40.5406 121.848 40.5946 122.686 41.2433C123.551 41.946 124.064 43.2433 124.064 44.946C124.064 48.5946 121.767 52.7298 118.93 54.1622C117.661 54.8108 116.499 54.7568 115.661 54.1081C114.797 53.4054 114.283 52.1081 114.283 50.4054C114.31 46.7298 116.58 42.6217 119.417 41.1892Z" fill="#013E39"/>
<path fill-rule="evenodd" clip-rule="evenodd" d="M77.6466 81.4603L71.5405 78.4062V61.5143C71.5405 56.4873 74.8097 50.7846 78.8354 48.7576L273.798 -48.7559C275.527 -49.6208 277.094 -49.6478 278.337 -49.0262L284.443 -45.9722C283.2 -46.5938 281.606 -46.5397 279.904 -45.7019L84.9145 51.8116C80.8888 53.8116 77.6466 59.5413 77.6466 64.5413V81.4603Z" fill="#C9FEC6"/>
<path fill-rule="evenodd" clip-rule="evenodd" d="M278.58 -49.5128L284.686 -46.4588C284.848 -46.3777 284.956 -46.2155 284.983 -46.0263C285.01 -45.8371 284.929 -45.648 284.767 -45.5399C284.605 -45.4047 284.389 -45.4047 284.2 -45.4858C283.092 -46.0534 281.687 -45.9723 280.147 -45.2155L85.1575 52.298C81.2939 54.2169 78.1868 59.7304 78.1868 64.5412V81.4331C78.1868 81.6223 78.0787 81.8115 77.9166 81.8926C77.7545 82.0007 77.5654 82.0007 77.3763 81.9196L71.2972 78.8926L71.5404 78.4061H71V61.5142C71 56.298 74.4043 50.3791 78.5921 48.298L273.555 -49.2426C275.446 -50.1885 277.202 -50.2155 278.58 -49.5128ZM278.094 -48.5399C276.986 -49.1074 275.581 -49.0263 274.041 -48.2696L79.0784 49.2439C75.2148 51.1899 72.0807 56.6764 72.0807 61.5142V78.0818L77.0791 80.5953V64.5683C77.0791 59.352 80.4833 53.4331 84.6712 51.352L279.661 -46.1885C280.309 -46.5128 280.903 -46.729 281.498 -46.8371L278.094 -48.5399Z" fill="#013E39"/>
<path fill-rule="evenodd" clip-rule="evenodd" d="M199.795 53.9464C199.795 50.4869 202.038 46.541 204.821 45.1356L274.744 10.1626C277.526 8.78423 279.769 10.4599 279.769 13.9464V26.541C279.769 30.0005 277.526 33.9464 274.744 35.3518L204.821 70.2977C202.038 71.6761 199.795 70.0004 199.795 66.514V53.9464Z" fill="#013E39"/>
<path fill-rule="evenodd" clip-rule="evenodd" d="M199.255 53.9466V66.5412C199.255 68.4871 199.93 69.9195 200.957 70.6763C202.011 71.4601 203.47 71.5952 205.091 70.7844L274.987 35.8114C277.932 34.352 280.309 30.1898 280.309 26.5141V13.9195C280.309 11.9736 279.634 10.5412 278.607 9.78439C277.553 9.00061 276.094 8.86548 274.473 9.67629L204.577 44.6493C201.659 46.1087 199.255 50.2709 199.255 53.9466ZM200.336 53.9466C200.336 50.6763 202.443 46.9466 205.064 45.6222L274.987 10.6493C276.148 10.0547 277.202 10.0817 277.959 10.6493C278.769 11.2439 279.201 12.406 279.201 13.9195V26.5141C279.201 29.7844 277.094 33.5141 274.473 34.8384L204.577 69.8114C203.416 70.406 202.362 70.379 201.605 69.8114C200.795 69.2168 200.363 68.0547 200.363 66.5412V53.9466H200.336Z" fill="#013E39"/>
<path fill-rule="evenodd" clip-rule="evenodd" d="M101.206 103.271C101.206 99.8111 103.449 95.8652 106.231 94.4598L176.154 59.4868C178.937 58.1085 181.18 59.7841 181.18 63.2706V194.108C181.18 197.568 178.937 201.514 176.154 202.919L106.231 237.892C103.449 239.271 101.206 237.595 101.206 234.108V103.271Z" fill="#CAFDC6"/>
<path fill-rule="evenodd" clip-rule="evenodd" d="M100.666 103.271V234.109C100.666 236.055 101.341 237.487 102.368 238.244C103.422 239.028 104.881 239.163 106.502 238.352L176.425 203.379C179.37 201.92 181.747 197.758 181.747 194.082V63.2711C181.747 61.3252 181.072 59.8927 180.045 59.136C178.991 58.3522 177.532 58.217 175.911 59.0279L105.989 93.9738C103.071 95.4333 100.666 99.5954 100.666 103.271ZM101.747 103.271C101.747 100.001 103.854 96.2711 106.475 94.9468L176.398 59.9738C177.559 59.3792 178.613 59.4062 179.37 59.9738C180.18 60.5684 180.613 61.7306 180.613 63.2441V194.082C180.613 197.352 178.505 201.082 175.884 202.406L105.962 237.379C104.8 237.974 103.746 237.947 102.99 237.379C102.179 236.785 101.747 235.622 101.747 234.109V103.271Z" fill="#013E39"/>
<path fill-rule="evenodd" clip-rule="evenodd" d="M277.877 9.97448L274.041 8.05557C273.176 7.62313 272.095 7.65016 270.907 8.24475L200.984 43.2177C198.201 44.5961 195.958 48.5421 195.958 52.0285V64.5961C195.958 66.5961 196.688 67.9745 197.85 68.5691L201.686 70.488C200.525 69.9204 199.795 68.515 199.795 66.515V53.9204C199.795 50.461 202.038 46.515 204.82 45.1096L274.743 10.1366C275.932 9.56908 277.013 9.54205 277.877 9.97448Z" fill="#C9FEC6"/>
<path fill-rule="evenodd" clip-rule="evenodd" d="M197.607 69.0551C196.31 68.4064 195.418 66.8389 195.418 64.5956V52.001C195.418 48.3254 197.823 44.1632 200.741 42.7037L270.664 7.73076C272.042 7.05509 273.285 7.02806 274.284 7.54157L278.121 9.46049C278.283 9.54157 278.391 9.70373 278.418 9.89292C278.445 10.0821 278.364 10.2443 278.229 10.3794C278.067 10.5145 277.824 10.5416 277.634 10.4605C276.905 10.1091 275.986 10.1632 274.987 10.6497L205.064 45.6226C202.443 46.9199 200.336 50.6767 200.336 53.947V66.5416C200.336 68.2713 200.93 69.5145 201.93 70.0281C202.092 70.1091 202.2 70.2713 202.227 70.4605C202.254 70.6497 202.173 70.8118 202.038 70.947C201.876 71.0821 201.633 71.1091 201.443 71.0281L197.607 69.0551ZM273.798 8.54157C273.068 8.19022 272.15 8.24427 271.15 8.73076L201.227 43.7037C198.607 45.001 196.499 48.7578 196.499 52.0281V64.5956C196.499 66.3254 197.094 67.5686 198.093 68.0821L199.66 68.8659C199.417 68.2172 199.282 67.4335 199.282 66.5416V53.947C199.282 50.2713 201.687 46.1091 204.605 44.6497L274.527 9.67671C274.825 9.54157 275.122 9.40644 275.392 9.32535L273.798 8.54157Z" fill="#013E39"/>
<path fill-rule="evenodd" clip-rule="evenodd" d="M179.288 59.2977L175.452 57.3788C174.587 56.9464 173.507 56.9734 172.318 57.568L102.395 92.541C99.6121 93.9194 97.3696 97.8653 97.3696 101.352V232.19C97.3696 234.19 98.0991 235.595 99.2609 236.163L103.097 238.082C101.936 237.514 101.206 236.109 101.206 234.109V103.271C101.206 99.8112 103.449 95.8653 106.232 94.4599L176.154 59.4869C177.343 58.8923 178.424 58.8653 179.288 59.2977Z" fill="#C9FEC6"/>
<path fill-rule="evenodd" clip-rule="evenodd" d="M98.9907 236.649C97.6938 236 96.8022 234.433 96.8022 232.189V101.325C96.8022 97.6489 99.2069 93.4868 102.125 92.0273L172.048 57.0813C173.426 56.4057 174.668 56.3786 175.668 56.8922L179.505 58.8111C179.667 58.8922 179.775 59.0543 179.802 59.2435C179.829 59.4327 179.748 59.5949 179.613 59.73C179.451 59.8651 179.207 59.8922 179.018 59.8111C178.289 59.4597 177.37 59.5138 176.371 60.0003L106.475 94.9462C103.854 96.2435 101.747 100 101.747 103.271V234.108C101.747 235.838 102.341 237.081 103.341 237.595C103.503 237.676 103.611 237.838 103.638 238.027C103.665 238.216 103.584 238.379 103.449 238.514C103.287 238.649 103.043 238.676 102.854 238.595L98.9907 236.649ZM175.182 57.8651C174.452 57.5138 173.534 57.5678 172.534 58.0543L102.638 93.0273C100.017 94.3246 97.91 98.0813 97.91 101.352V232.189C97.91 233.919 98.5044 235.162 99.5041 235.676L101.044 236.46C100.801 235.811 100.666 235.027 100.666 234.135V103.271C100.666 99.5949 103.07 95.4327 105.988 93.9732L175.911 59.0003C176.208 58.8651 176.506 58.73 176.776 58.6489L175.182 57.8651Z" fill="#013E39"/>
<path fill-rule="evenodd" clip-rule="evenodd" d="M192.392 91.9734C192.392 90.3788 193.419 88.568 194.689 87.9463L271.582 49.4869C272.852 48.8382 273.879 49.622 273.879 51.2166V56.9734C273.879 58.568 272.852 60.3788 271.582 61.0004L194.716 99.4599C193.446 100.109 192.419 99.3247 192.419 97.7301V91.9734H192.392Z" fill="#013E39"/>
<path fill-rule="evenodd" clip-rule="evenodd" d="M191.852 91.9735V97.7302C191.852 98.7302 192.23 99.4599 192.744 99.8653C193.311 100.298 194.095 100.379 194.932 99.9464L271.826 61.487C273.258 60.7843 274.419 58.7572 274.419 56.9735V51.2167C274.419 50.2167 274.041 49.487 273.528 49.0816C272.96 48.6491 272.177 48.5681 271.339 49.0005L194.473 87.4599C193.041 88.1626 191.852 90.1897 191.852 91.9735ZM192.96 91.9735C192.96 90.568 193.851 89.0005 194.959 88.4329L271.853 49.9735C272.258 49.7572 272.636 49.7572 272.906 49.9464C273.204 50.1626 273.366 50.6221 273.366 51.2167V56.9735C273.366 58.3789 272.474 59.9464 271.366 60.514L194.473 98.9735C194.068 99.1897 193.689 99.1897 193.419 99.0005C193.122 98.7843 192.96 98.3248 192.96 97.7302V91.9735Z" fill="#013E39"/>
<path d="M315.46 183.082L309.516 180.109C295.737 173.163 293.71 159.19 293.899 154.974V84.7304C293.845 71.7574 285.686 60.8655 276.716 56.8925L270.907 53.9736L196.472 91.2169L196.526 91.2709L202.281 94.1358C211.278 98.1088 219.438 109.001 219.465 121.974V192.217C219.248 196.433 221.302 210.433 235.081 217.352L241.025 220.325L315.46 183.082Z" fill="#C9FEC6"/>
<path fill-rule="evenodd" clip-rule="evenodd" d="M218.897 192.19V121.973C218.843 109.244 210.846 98.541 202.038 94.6491H202.011L196.256 91.7842C196.202 91.7572 196.148 91.7031 196.094 91.6491L196.04 91.595C195.932 91.4599 195.878 91.2977 195.905 91.1356C195.932 90.9734 196.04 90.8383 196.202 90.7572L270.637 53.5139C270.799 53.4329 270.961 53.4329 271.123 53.5139L276.932 56.4058C286.091 60.4599 294.386 71.541 294.44 84.7302V154.946V154.973C294.251 159.109 296.25 172.811 309.759 179.595L315.703 182.568C315.892 182.649 316 182.838 316 183.054C316 183.271 315.892 183.46 315.703 183.541L241.268 220.811C241.106 220.892 240.944 220.892 240.782 220.811L234.838 217.838C220.761 210.757 218.708 196.514 218.897 192.19ZM270.88 54.595L197.661 91.2166L202.497 93.6221C211.656 97.6761 219.951 108.757 220.005 121.946V192.19V192.217C219.816 196.352 221.815 210.054 235.324 216.838L241.025 219.703L314.244 183.082L309.273 180.595C295.223 173.514 293.143 159.271 293.359 154.946V84.7302C293.305 72.0004 285.308 61.2977 276.5 57.4058H276.473L270.88 54.595Z" fill="#013E39"/>
<path fill-rule="evenodd" clip-rule="evenodd" d="M277.202 93.0005L288.469 87.3789V93.0005L277.202 98.6222V93.0005Z" fill="#013E39"/>
<path fill-rule="evenodd" clip-rule="evenodd" d="M276.959 92.5144C276.77 92.5955 276.662 92.7846 276.662 93.0009V98.6225C276.662 98.8117 276.77 99.0009 276.932 99.0819C277.094 99.19 277.283 99.1901 277.472 99.109L288.712 93.4874C288.901 93.4063 289.009 93.2171 289.009 93.0009V87.3792C289.009 87.19 288.901 87.0009 288.739 86.9198C288.577 86.8117 288.387 86.8117 288.198 86.8928L276.959 92.5144ZM277.769 93.3522V97.7576L287.928 92.6765V88.2711L277.769 93.3522Z" fill="#013E39"/>
<path fill-rule="evenodd" clip-rule="evenodd" d="M268.961 97.136L274.581 94.3252V99.9468L268.961 102.758V97.136Z" fill="#013E39"/>
<path fill-rule="evenodd" clip-rule="evenodd" d="M268.719 96.6489C268.529 96.73 268.421 96.9192 268.421 97.1354V102.757C268.421 102.946 268.529 103.135 268.692 103.216C268.854 103.325 269.043 103.325 269.232 103.243L274.852 100.433C275.041 100.352 275.149 100.162 275.149 99.9462V94.3246C275.149 94.1354 275.041 93.9462 274.879 93.8651C274.717 93.757 274.527 93.757 274.338 93.8381L268.719 96.6489ZM269.502 97.4597V101.865L274.041 99.5948V95.1894L269.502 97.4597Z" fill="#013E39"/>
<path fill-rule="evenodd" clip-rule="evenodd" d="M228.92 117.162L241.268 110.973V116.594L228.92 122.783V117.162Z" fill="#013E39"/>
<path fill-rule="evenodd" clip-rule="evenodd" d="M228.678 116.677C228.488 116.758 228.38 116.947 228.38 117.163V122.785C228.38 122.974 228.488 123.163 228.651 123.244C228.813 123.352 229.002 123.352 229.191 123.271L241.565 117.082C241.754 117.001 241.862 116.812 241.862 116.596V110.974C241.862 110.785 241.754 110.596 241.592 110.515C241.43 110.406 241.241 110.406 241.052 110.487L228.678 116.677ZM229.461 117.487V121.893L240.728 116.244V111.839L229.461 117.487Z" fill="#013E39"/>
<path fill-rule="evenodd" clip-rule="evenodd" d="M119.282 110.353L139.626 100.19V105.812L119.282 115.974V110.353Z" fill="#C9FEC6"/>
<path fill-rule="evenodd" clip-rule="evenodd" d="M119.038 109.866C118.849 109.947 118.741 110.136 118.741 110.353V115.974C118.741 116.163 118.849 116.353 119.011 116.434C119.174 116.542 119.363 116.542 119.552 116.461L139.896 106.272C140.085 106.19 140.194 106.001 140.194 105.785V100.163C140.194 99.9742 140.086 99.785 139.923 99.704C139.761 99.5959 139.572 99.5959 139.383 99.6769L119.038 109.866ZM119.822 110.704V115.109L139.086 105.488V101.082L119.822 110.704Z" fill="#013E39"/>
<path fill-rule="evenodd" clip-rule="evenodd" d="M119.282 149.324L139.626 139.162V144.784L119.282 154.946V149.324Z" fill="#C9FEC6"/>
<path fill-rule="evenodd" clip-rule="evenodd" d="M119.038 148.838C118.849 148.919 118.741 149.108 118.741 149.324V154.946C118.741 155.135 118.849 155.324 119.011 155.405C119.174 155.513 119.363 155.513 119.552 155.432L139.896 145.243C140.085 145.162 140.194 144.973 140.194 144.757V139.135C140.194 138.946 140.086 138.757 139.923 138.676C139.761 138.568 139.572 138.568 139.383 138.649L119.038 148.838ZM119.822 149.676V154.081L139.086 144.459V140.054L119.822 149.676Z" fill="#013E39"/>
<path fill-rule="evenodd" clip-rule="evenodd" d="M119.281 187.676L139.626 177.487V183.109L119.281 193.298V187.676Z" fill="#C9FEC6"/>
<path fill-rule="evenodd" clip-rule="evenodd" d="M119.038 187.189C118.849 187.27 118.741 187.46 118.741 187.676V193.297C118.741 193.487 118.849 193.676 119.011 193.757C119.173 193.865 119.362 193.865 119.551 193.784L139.896 183.595C140.085 183.514 140.193 183.324 140.193 183.108V177.487C140.193 177.297 140.085 177.108 139.923 177.027C139.761 176.919 139.572 176.919 139.383 177L119.038 187.189ZM119.821 188V192.406L139.085 182.784V178.379L119.821 188Z" fill="#013E39"/>
<path fill-rule="evenodd" clip-rule="evenodd" d="M119.282 129.73L149.002 114.865V120.487L119.282 135.352V129.73Z" fill="#C9FEC6"/>
<path fill-rule="evenodd" clip-rule="evenodd" d="M119.038 129.244C118.849 129.325 118.741 129.514 118.741 129.73V135.352C118.741 135.541 118.849 135.73 119.011 135.812C119.173 135.92 119.362 135.92 119.551 135.839L149.271 120.974C149.46 120.893 149.568 120.703 149.568 120.487V114.866C149.568 114.676 149.46 114.487 149.298 114.406C149.136 114.298 148.947 114.298 148.758 114.379L119.038 129.244ZM119.821 130.082V134.487L148.461 120.163V115.757L119.821 130.082Z" fill="#013E39"/>
<path fill-rule="evenodd" clip-rule="evenodd" d="M119.281 168.704L149.001 153.839V159.46L119.281 174.325V168.704Z" fill="#C9FEC6"/>
<path fill-rule="evenodd" clip-rule="evenodd" d="M119.038 168.217C118.849 168.298 118.741 168.487 118.741 168.703V174.325C118.741 174.514 118.849 174.703 119.011 174.784C119.173 174.892 119.362 174.892 119.551 174.811L149.271 159.946C149.46 159.865 149.568 159.676 149.568 159.46V153.838C149.568 153.649 149.46 153.46 149.298 153.379C149.136 153.271 148.947 153.271 148.758 153.352L119.038 168.217ZM119.821 169.054V173.46L148.461 159.136V154.73L119.821 169.054Z" fill="#013E39"/>
<path fill-rule="evenodd" clip-rule="evenodd" d="M119.281 207.054L149.001 192.189V197.811L119.281 212.676V207.054Z" fill="#C9FEC6"/>
<path fill-rule="evenodd" clip-rule="evenodd" d="M119.038 206.569C118.849 206.65 118.741 206.839 118.741 207.056V212.677C118.741 212.866 118.849 213.056 119.011 213.137C119.174 213.245 119.363 213.245 119.552 213.164L149.272 198.299C149.461 198.218 149.569 198.029 149.569 197.812V192.191C149.569 192.002 149.461 191.812 149.299 191.731C149.137 191.623 148.947 191.623 148.758 191.704L119.038 206.569ZM119.822 207.38V211.785L148.461 197.461V193.056L119.822 207.38Z" fill="#013E39"/>
<path fill-rule="evenodd" clip-rule="evenodd" d="M144.057 97.9739L155.999 92.001V97.6226L144.057 103.596V97.9739Z" fill="#C9FEC6"/>
<path fill-rule="evenodd" clip-rule="evenodd" d="M143.814 97.4868C143.625 97.5679 143.517 97.7571 143.517 97.9733V103.595C143.517 103.784 143.625 103.973 143.787 104.054C143.949 104.163 144.138 104.162 144.327 104.081L156.269 98.1084C156.458 98.0274 156.566 97.8382 156.566 97.622V92.0003C156.566 91.8112 156.458 91.622 156.296 91.5409C156.134 91.4328 155.945 91.4328 155.756 91.5138L143.814 97.4868ZM144.597 98.2976V102.703L155.459 97.2706V92.8652L144.597 98.2976Z" fill="#013E39"/>
<path fill-rule="evenodd" clip-rule="evenodd" d="M144.057 136.947L155.999 130.974V136.595L144.057 142.568V136.947Z" fill="#C9FEC6"/>
<path fill-rule="evenodd" clip-rule="evenodd" d="M143.814 136.46C143.625 136.542 143.517 136.731 143.517 136.947V142.569C143.517 142.758 143.625 142.947 143.787 143.028C143.949 143.136 144.138 143.136 144.327 143.055L156.269 137.082C156.458 137.001 156.566 136.812 156.566 136.596V130.974C156.566 130.785 156.458 130.596 156.296 130.515C156.134 130.406 155.945 130.406 155.756 130.487L143.814 136.46ZM144.597 137.271V141.677L155.459 136.244V131.839L144.597 137.271Z" fill="#013E39"/>
<path fill-rule="evenodd" clip-rule="evenodd" d="M144.057 175.271L155.999 169.298V174.919L144.057 180.892V175.271Z" fill="#C9FEC6"/>
<path fill-rule="evenodd" clip-rule="evenodd" d="M143.814 174.785C143.625 174.866 143.517 175.055 143.517 175.271V180.893C143.517 181.082 143.625 181.271 143.787 181.352C143.949 181.46 144.138 181.46 144.327 181.379L156.269 175.406C156.458 175.325 156.566 175.136 156.566 174.92V169.298C156.566 169.109 156.458 168.92 156.296 168.839C156.134 168.731 155.945 168.731 155.756 168.812L143.814 174.785ZM144.597 175.623V180.028L155.459 174.595V170.19L144.597 175.623Z" fill="#013E39"/>
<path fill-rule="evenodd" clip-rule="evenodd" d="M152.216 113.271L163.105 107.812V113.433L152.216 118.893V113.271Z" fill="#C9FEC6"/>
<path fill-rule="evenodd" clip-rule="evenodd" d="M151.973 112.784C151.784 112.865 151.676 113.054 151.676 113.271V118.892C151.676 119.081 151.784 119.271 151.946 119.352C152.108 119.46 152.297 119.46 152.486 119.379L163.375 113.946C163.564 113.865 163.672 113.676 163.672 113.46V107.838C163.672 107.649 163.564 107.46 163.402 107.379C163.24 107.271 163.05 107.271 162.861 107.352L151.973 112.784ZM152.757 113.595V118L162.537 113.108V108.703L152.757 113.595Z" fill="#013E39"/>
<path fill-rule="evenodd" clip-rule="evenodd" d="M152.216 152.244L163.105 146.784V152.406L152.216 157.865V152.244Z" fill="#C9FEC6"/>
<path fill-rule="evenodd" clip-rule="evenodd" d="M151.973 151.758C151.784 151.839 151.676 152.028 151.676 152.244V157.866C151.676 158.055 151.784 158.244 151.946 158.325C152.108 158.433 152.297 158.433 152.486 158.352L163.375 152.92C163.564 152.839 163.672 152.65 163.672 152.433V146.812C163.672 146.623 163.564 146.433 163.402 146.352C163.24 146.244 163.05 146.244 162.861 146.325L151.973 151.758ZM152.757 152.569V156.974L162.537 152.082V147.677L152.757 152.569Z" fill="#013E39"/>
<path fill-rule="evenodd" clip-rule="evenodd" d="M152.216 190.568L163.105 185.136V190.757L152.216 196.19V190.568Z" fill="#C9FEC6"/>
<path fill-rule="evenodd" clip-rule="evenodd" d="M151.973 190.082C151.784 190.163 151.676 190.352 151.676 190.569V196.19C151.676 196.379 151.784 196.569 151.946 196.65C152.108 196.758 152.297 196.758 152.486 196.677L163.375 191.244C163.564 191.163 163.672 190.974 163.672 190.758V185.136C163.672 184.947 163.564 184.758 163.402 184.677C163.24 184.569 163.05 184.569 162.861 184.65L151.973 190.082ZM152.757 190.92V195.325L162.537 190.433V186.028L152.757 190.92Z" fill="#013E39"/>
<path fill-rule="evenodd" clip-rule="evenodd" d="M282.849 103.407L288.468 100.596V106.217L282.849 109.028V103.407Z" fill="#013E39"/>
<path fill-rule="evenodd" clip-rule="evenodd" d="M282.578 102.919C282.389 103 282.281 103.19 282.281 103.406V109.027C282.281 109.217 282.389 109.406 282.551 109.487C282.714 109.595 282.903 109.595 283.092 109.514L288.712 106.703C288.901 106.622 289.009 106.433 289.009 106.217V100.595C289.009 100.406 288.901 100.217 288.739 100.136C288.576 100.027 288.387 100.027 288.198 100.109L282.578 102.919ZM283.389 103.757V108.163L287.928 105.892V101.487L283.389 103.757Z" fill="#013E39"/>
<path fill-rule="evenodd" clip-rule="evenodd" d="M271.123 109.271L280.201 104.73V110.352L271.123 114.893V109.271Z" fill="#013E39"/>
<path fill-rule="evenodd" clip-rule="evenodd" d="M270.88 108.784C270.691 108.865 270.583 109.054 270.583 109.27V114.892C270.583 115.081 270.691 115.27 270.853 115.351C271.015 115.46 271.204 115.46 271.393 115.378L280.498 110.838C280.687 110.757 280.795 110.568 280.795 110.351V104.73C280.795 104.541 280.687 104.351 280.525 104.27C280.363 104.162 280.174 104.162 279.985 104.243L270.88 108.784ZM271.663 109.622V114.027L279.661 110.027V105.622L271.663 109.622Z" fill="#013E39"/>
<path fill-rule="evenodd" clip-rule="evenodd" d="M259.289 115.19L268.367 110.649V116.271L259.289 120.812V115.19Z" fill="#013E39"/>
<path fill-rule="evenodd" clip-rule="evenodd" d="M259.046 114.704C258.857 114.785 258.749 114.974 258.749 115.19V120.812C258.749 121.001 258.857 121.19 259.019 121.271C259.181 121.379 259.37 121.379 259.56 121.298L268.665 116.758C268.854 116.677 268.962 116.488 268.962 116.271V110.65C268.962 110.461 268.854 110.271 268.692 110.19C268.53 110.082 268.34 110.082 268.151 110.163L259.046 114.704ZM259.83 115.542V119.947L267.827 115.947V111.542L259.83 115.542Z" fill="#013E39"/>
<path fill-rule="evenodd" clip-rule="evenodd" d="M228.921 130.379L237.891 125.893V131.514L228.921 136.001V130.379Z" fill="#013E39"/>
<path fill-rule="evenodd" clip-rule="evenodd" d="M228.678 129.893C228.488 129.974 228.38 130.163 228.38 130.379V136.001C228.38 136.19 228.488 136.379 228.651 136.46C228.813 136.569 229.002 136.569 229.191 136.488L238.161 132.001C238.35 131.92 238.458 131.731 238.458 131.515V125.893C238.458 125.704 238.35 125.515 238.188 125.433C238.026 125.325 237.837 125.325 237.648 125.406L228.678 129.893ZM229.461 130.731V135.136L237.35 131.19V126.785L229.461 130.731Z" fill="#013E39"/>
<path fill-rule="evenodd" clip-rule="evenodd" d="M277.202 119.461L288.469 113.812V119.461L277.202 125.083V119.461Z" fill="#013E39"/>
<path fill-rule="evenodd" clip-rule="evenodd" d="M276.959 118.946C276.77 119.027 276.662 119.216 276.662 119.433V125.054C276.662 125.243 276.77 125.433 276.932 125.514C277.094 125.622 277.283 125.622 277.472 125.541L288.712 119.919C288.901 119.838 289.009 119.649 289.009 119.433V113.811C289.009 113.622 288.901 113.433 288.739 113.351C288.577 113.243 288.387 113.243 288.198 113.324L276.959 118.946ZM277.769 119.784V124.189L287.928 119.108V114.703L277.769 119.784Z" fill="#013E39"/>
<path fill-rule="evenodd" clip-rule="evenodd" d="M268.961 123.569L274.581 120.758V126.379L268.961 129.19V123.569Z" fill="#013E39"/>
<path fill-rule="evenodd" clip-rule="evenodd" d="M268.719 123.082C268.529 123.164 268.421 123.353 268.421 123.569V129.191C268.421 129.38 268.529 129.569 268.692 129.65C268.854 129.758 269.043 129.758 269.232 129.677L274.852 126.866C275.041 126.785 275.149 126.596 275.149 126.38V120.758C275.149 120.569 275.041 120.38 274.879 120.299C274.717 120.191 274.527 120.191 274.338 120.272L268.719 123.082ZM269.502 123.92V128.326L274.041 126.055V121.65L269.502 123.92Z" fill="#013E39"/>
<path fill-rule="evenodd" clip-rule="evenodd" d="M228.921 143.595L241.268 137.433V143.054L228.921 149.216V143.595Z" fill="#013E39"/>
<path fill-rule="evenodd" clip-rule="evenodd" d="M228.678 143.109C228.488 143.19 228.38 143.38 228.38 143.596V149.217C228.38 149.407 228.488 149.596 228.651 149.677C228.813 149.785 229.002 149.785 229.191 149.704L241.565 143.515C241.754 143.434 241.862 143.244 241.862 143.028V137.407C241.862 137.217 241.754 137.028 241.592 136.947C241.43 136.839 241.241 136.839 241.052 136.92L228.678 143.109ZM229.461 143.947V148.353L240.728 142.704V138.298L229.461 143.947Z" fill="#013E39"/>
<path fill-rule="evenodd" clip-rule="evenodd" d="M277.202 145.892L288.469 140.271V145.892L277.202 151.514V145.892Z" fill="#013E39"/>
<path fill-rule="evenodd" clip-rule="evenodd" d="M276.959 145.406C276.77 145.487 276.662 145.676 276.662 145.892V151.514C276.662 151.703 276.77 151.892 276.932 151.974C277.094 152.082 277.283 152.082 277.472 152.001L288.712 146.379C288.901 146.298 289.009 146.109 289.009 145.892V140.271C289.009 140.082 288.901 139.892 288.739 139.811C288.577 139.703 288.387 139.703 288.198 139.784L276.959 145.406ZM277.769 146.217V150.622L287.928 145.541V141.136L277.769 146.217Z" fill="#013E39"/>
<path fill-rule="evenodd" clip-rule="evenodd" d="M268.961 150.028L274.581 147.217V152.838L268.961 155.649V150.028Z" fill="#013E39"/>
<path fill-rule="evenodd" clip-rule="evenodd" d="M268.719 149.541C268.529 149.623 268.421 149.812 268.421 150.028V155.65C268.421 155.839 268.529 156.028 268.692 156.109C268.854 156.217 269.043 156.217 269.232 156.136L274.852 153.325C275.041 153.244 275.149 153.055 275.149 152.839V147.217C275.149 147.028 275.041 146.839 274.879 146.758C274.717 146.65 274.527 146.65 274.338 146.731L268.719 149.541ZM269.502 150.352V154.758L274.041 152.487V148.082L269.502 150.352Z" fill="#013E39"/>
<path fill-rule="evenodd" clip-rule="evenodd" d="M228.92 170.054L241.268 163.865V169.487L228.92 175.676V170.054Z" fill="#013E39"/>
<path fill-rule="evenodd" clip-rule="evenodd" d="M228.678 169.568C228.488 169.649 228.38 169.839 228.38 170.055V175.676C228.38 175.866 228.488 176.055 228.651 176.136C228.813 176.244 229.002 176.244 229.191 176.163L241.565 169.974C241.754 169.893 241.862 169.703 241.862 169.487V163.866C241.862 163.676 241.754 163.487 241.592 163.406C241.43 163.298 241.241 163.298 241.052 163.379L228.678 169.568ZM229.461 170.379V174.784L240.728 169.136V164.73L229.461 170.379Z" fill="#013E39"/>
<path fill-rule="evenodd" clip-rule="evenodd" d="M282.849 129.866L288.468 127.055V132.676L282.849 135.487V129.866Z" fill="#013E39"/>
<path fill-rule="evenodd" clip-rule="evenodd" d="M282.578 129.379C282.389 129.46 282.281 129.65 282.281 129.866V135.487C282.281 135.677 282.389 135.866 282.551 135.947C282.714 136.055 282.903 136.055 283.092 135.974L288.712 133.163C288.901 133.082 289.009 132.893 289.009 132.677V127.055C289.009 126.866 288.901 126.677 288.739 126.596C288.576 126.487 288.387 126.487 288.198 126.569L282.578 129.379ZM283.389 130.19V134.596L287.928 132.325V127.92L283.389 130.19Z" fill="#013E39"/>
<path fill-rule="evenodd" clip-rule="evenodd" d="M271.123 135.73L280.201 131.162V136.784L271.123 141.351V135.73Z" fill="#013E39"/>
<path fill-rule="evenodd" clip-rule="evenodd" d="M270.88 135.244C270.691 135.325 270.583 135.514 270.583 135.73V141.352C270.583 141.541 270.691 141.73 270.853 141.811C271.015 141.92 271.204 141.92 271.393 141.838L280.498 137.298C280.687 137.217 280.795 137.028 280.795 136.811V131.19C280.795 131.001 280.687 130.811 280.525 130.73C280.363 130.622 280.174 130.622 279.985 130.703L270.88 135.244ZM271.663 136.055V140.46L279.661 136.46V132.055L271.663 136.055Z" fill="#013E39"/>
<path fill-rule="evenodd" clip-rule="evenodd" d="M259.289 141.65L268.367 137.082V142.704L259.289 147.271V141.65Z" fill="#013E39"/>
<path fill-rule="evenodd" clip-rule="evenodd" d="M259.046 141.135C258.857 141.217 258.749 141.406 258.749 141.622V147.244C258.749 147.433 258.857 147.622 259.019 147.703C259.181 147.811 259.37 147.811 259.56 147.73L268.665 143.189C268.854 143.108 268.962 142.919 268.962 142.703V137.081C268.962 136.892 268.854 136.703 268.692 136.622C268.53 136.514 268.34 136.514 268.151 136.595L259.046 141.135ZM259.83 141.973V146.379L267.827 142.379V137.973L259.83 141.973Z" fill="#013E39"/>
<path fill-rule="evenodd" clip-rule="evenodd" d="M228.92 156.838L237.89 152.352V157.973L228.92 162.46V156.838Z" fill="#013E39"/>
<path fill-rule="evenodd" clip-rule="evenodd" d="M228.678 156.352C228.488 156.433 228.38 156.622 228.38 156.838V162.46C228.38 162.649 228.488 162.838 228.651 162.919C228.813 163.028 229.002 163.028 229.191 162.946L238.161 158.46C238.35 158.379 238.458 158.19 238.458 157.974V152.352C238.458 152.163 238.35 151.974 238.188 151.892C238.026 151.784 237.837 151.784 237.648 151.865L228.678 156.352ZM229.461 157.163V161.568L237.35 157.622V153.217L229.461 157.163Z" fill="#013E39"/>
</g>
</g>
<defs>
<clipPath id="clip0_43_30">
<rect width="387" height="210" fill="white"/>
</clipPath>
<clipPath id="clip1_43_30">
<rect width="245" height="309" fill="white" transform="translate(71 -50)"/>
</clipPath>
</defs>
</svg>
