
<svg width="212" height="172" viewBox="0 0 212 172" fill="none" xmlns="http://www.w3.org/2000/svg">
<g clip-path="url(#clip0_73_13176)">
<path d="M157.634 108.098C155.155 108.643 152.767 109.243 150.415 109.897C166.499 94.7173 187.467 81.8459 207.26 74.9739C204.962 67.5201 201.869 60.4118 198.087 53.758C176.685 61.4844 154.323 75.1375 136.702 91.2085C147.068 67.7201 160.8 45.2316 176.16 26.6699C170.407 21.5614 164.111 17.0709 157.363 13.3077C141.804 32.3602 128.217 54.3761 117.47 77.9009V0.618116C113.707 0.218159 109.872 0 106 0C102.128 0 98.2929 0.218159 94.5298 0.618116V77.919C83.7832 54.3943 70.1963 32.3784 54.6373 13.3259C47.8891 17.0891 41.575 21.5795 35.8399 26.6881C51.1999 45.2498 64.9316 67.7383 75.2982 91.2267C57.6767 75.1557 35.3152 61.5026 13.9126 53.7761C10.1314 60.43 7.03772 67.5383 4.74006 74.9921C24.5144 81.8277 45.4828 94.7173 61.5665 109.879C59.2326 109.225 56.8264 108.625 54.3478 108.079C39.0783 104.698 20.8237 103.116 0.0542755 103.389C0.0180918 104.425 0 105.462 0 106.516C0 113.333 0.651306 119.987 1.86346 126.441C41.5569 126.096 69.7983 133.095 83.729 146.748C89.446 152.348 92.8472 159.129 94.0232 167.382C94.186 168.691 94.2946 170.018 94.385 171.364C94.385 171.582 94.4031 171.8 94.4031 172H117.579C117.579 171.782 117.597 171.564 117.597 171.364C117.687 170.018 117.796 168.691 117.959 167.382C119.153 159.129 122.554 152.329 128.253 146.748C142.202 133.095 170.443 126.114 210.118 126.441C211.331 119.987 211.982 113.315 211.982 106.516C211.982 105.48 211.964 104.425 211.928 103.389C191.176 103.116 172.922 104.698 157.634 108.098Z" fill="#013E39"/>
</g>
<defs>
<clipPath id="clip0_73_13176">
<rect width="212" height="172" fill="white"/>
</clipPath>
</defs>
</svg>
