
<svg width="209" height="209" viewBox="0 0 209 209" fill="none" xmlns="http://www.w3.org/2000/svg">
<g clip-path="url(#clip0_21_1242)">
<path d="M112.381 202.858L117.751 181.339C119.296 175.158 127.023 173.111 131.465 177.669L146.88 193.586C152.752 199.651 162.835 193.818 160.517 185.705L154.413 164.38C152.674 158.276 158.315 152.597 164.457 154.336L185.782 160.439C193.895 162.757 199.728 152.674 193.663 146.802L177.708 131.465C173.149 127.023 175.197 119.296 181.378 117.751L202.896 112.381C211.086 110.334 211.086 98.7052 202.896 96.6577L181.378 91.2879C175.197 89.7426 173.149 82.0161 177.708 77.5734L193.625 62.1592C199.69 56.2871 193.856 46.2041 185.744 48.5221L164.419 54.6259C158.315 56.3644 152.636 50.7241 154.374 44.5816L160.478 23.2566C162.796 15.1439 152.713 9.31041 146.841 15.3757L131.427 31.2921C126.984 35.8507 119.258 33.8032 117.712 27.6221L112.342 6.10394C110.295 -2.08608 98.6667 -2.08608 96.6192 6.10394L91.2493 27.6221C89.704 33.8032 81.9776 35.8507 77.5349 31.2921L62.1206 15.3757C56.2485 9.31041 46.1655 15.1439 48.4835 23.2566L54.5874 44.5816C56.3258 50.6855 50.6855 56.3644 44.543 54.6259L23.218 48.5221C15.1053 46.2041 9.27184 56.2871 15.3371 62.1592L31.2535 77.5734C35.8121 82.0161 33.7646 89.7426 27.5835 91.2879L6.06537 96.6577C-2.12465 98.7052 -2.12465 110.334 6.06537 112.381L27.5835 117.751C33.7646 119.296 35.8121 127.023 31.2535 131.465L15.3371 146.88C9.27184 152.752 15.1053 162.835 23.218 160.517L44.543 154.413C50.6469 152.674 56.3258 158.315 54.5874 164.457L48.4835 185.782C46.1655 193.895 56.2485 199.728 62.1206 193.663L77.5349 177.747C81.9776 173.188 89.704 175.236 91.2493 181.417L96.6192 202.935C98.6667 211.048 110.334 211.048 112.381 202.858Z" fill="#013E39"/>
</g>
<defs>
<clipPath id="clip0_21_1242">
<rect width="209" height="209" fill="white"/>
</clipPath>
</defs>
</svg>
