
<svg width="387" height="210" viewBox="0 0 387 210" fill="none" xmlns="http://www.w3.org/2000/svg">
<g clip-path="url(#clip0_43_123)">
<rect width="387" height="210" fill="#013E39"/>
<g clip-path="url(#clip1_43_123)">
<path fill-rule="evenodd" clip-rule="evenodd" d="M271.851 9.29004L121.208 84.4289V234.707L271.851 159.568V9.29004Z" fill="#CAFDC6"/>
<path fill-rule="evenodd" clip-rule="evenodd" d="M272.357 9.28957C272.357 9.12137 272.26 8.95316 272.116 8.88108C271.971 8.78496 271.778 8.78496 271.634 8.85705L120.991 83.9959C120.822 84.068 120.726 84.2602 120.726 84.4284V234.706C120.726 234.874 120.822 235.043 120.967 235.115C121.112 235.211 121.304 235.211 121.449 235.139L272.116 160C272.284 159.928 272.381 159.735 272.381 159.567V9.28957H272.357ZM121.69 84.7408V233.913L271.369 159.279V10.0825L121.69 84.7408Z" fill="#013E39"/>
<path fill-rule="evenodd" clip-rule="evenodd" d="M79.4819 213.897L121.208 234.706V84.4283L79.4819 63.6191V213.897Z" fill="#C9FEC6"/>
<path fill-rule="evenodd" clip-rule="evenodd" d="M79 213.897C79 214.09 79.0964 214.258 79.265 214.33L120.967 235.139C121.112 235.211 121.304 235.211 121.449 235.115C121.593 235.019 121.69 234.875 121.69 234.707V84.4288C121.69 84.2366 121.593 84.0684 121.425 83.9963L79.7227 63.1871C79.5782 63.115 79.3855 63.115 79.2409 63.2112C79.0964 63.3073 79 63.4515 79 63.6197V213.897ZM79.9877 213.585L120.702 233.89V84.7412L79.9877 64.4126V213.585Z" fill="#013E39"/>
<path fill-rule="evenodd" clip-rule="evenodd" d="M271.851 9.29002L230.149 -11.4951L79.4819 63.6197L121.208 84.4289L271.851 9.29002Z" fill="#C9FEC6"/>
<path fill-rule="evenodd" clip-rule="evenodd" d="M272.092 9.72242C272.26 9.65033 272.357 9.4581 272.357 9.28989C272.357 9.09766 272.26 8.92946 272.092 8.85737L230.366 -11.9518C230.221 -12.0239 230.052 -12.0239 229.932 -11.9518L79.265 63.1871C79.0964 63.2592 79 63.4514 79 63.6196C79 63.8118 79.0964 63.98 79.265 64.0521L120.967 84.8613C121.112 84.9334 121.28 84.9334 121.401 84.8613L272.092 9.72242ZM80.59 63.6196L121.208 83.8761L270.767 9.28989L230.149 -10.9666L80.59 63.6196Z" fill="#013E39"/>
<path fill-rule="evenodd" clip-rule="evenodd" d="M186.953 27.9847L192.663 30.8441V7.58398L186.953 10.4434V27.9847Z" fill="#C9FEC6"/>
<path fill-rule="evenodd" clip-rule="evenodd" d="M186.447 27.9842C186.447 28.1764 186.544 28.3446 186.712 28.4167L192.422 31.2521C192.566 31.3242 192.759 31.3242 192.904 31.2281C193.048 31.132 193.145 30.9878 193.145 30.8196V7.58352C193.145 7.41531 193.048 7.24711 192.904 7.17502C192.759 7.07891 192.566 7.07891 192.422 7.15099L186.712 9.98642C186.544 10.0585 186.447 10.2507 186.447 10.4189V27.9842ZM187.435 10.7313V27.6718L192.157 30.0267V8.37648L187.435 10.7313Z" fill="#013E39"/>
<path d="M248.145 -2.53223L253.855 0.327231L103.212 75.4421L97.5503 72.6066C97.6948 72.5105 97.8394 72.4384 97.9839 72.3423L248.145 -2.53223Z" fill="#C9FEC6"/>
<path fill-rule="evenodd" clip-rule="evenodd" d="M248.362 -2.96547C248.217 -3.03755 248.049 -3.03755 247.928 -2.96547L97.7431 71.9331C97.7431 71.9331 97.719 71.9331 97.719 71.9571C97.5744 72.0533 97.4299 72.1254 97.2853 72.2215C97.1167 72.3176 97.0444 72.4858 97.0444 72.654C97.0444 72.8462 97.1649 72.9904 97.3094 73.0865L102.971 75.9219C103.115 75.994 103.284 75.994 103.405 75.9219L254.071 0.759039C254.24 0.686952 254.336 0.494719 254.336 0.326516C254.336 0.134283 254.24 -0.0339199 254.071 -0.106007L248.362 -2.96547ZM98.5863 72.6059L103.188 74.9127L252.746 0.326516L248.145 -1.98027L98.5863 72.6059Z" fill="#013E39"/>
<path d="M97.791 223.029V72.751L102.898 75.2981V225.576L97.791 223.029Z" fill="#C9FEC6"/>
<path fill-rule="evenodd" clip-rule="evenodd" d="M97.3096 223.028C97.3096 223.22 97.4059 223.389 97.5746 223.461L102.682 226.008C102.826 226.08 103.019 226.08 103.164 225.984C103.308 225.888 103.405 225.744 103.405 225.575V75.2976C103.405 75.1054 103.308 74.9372 103.14 74.8651L98.0323 72.318C97.8878 72.2459 97.695 72.2459 97.5505 72.342C97.4059 72.4381 97.3096 72.5823 97.3096 72.7505V223.028ZM98.2973 222.716L102.417 224.782V75.61L98.2973 73.5435V222.716Z" fill="#013E39"/>
<path fill-rule="evenodd" clip-rule="evenodd" d="M196.734 -1.3306L192.663 30.8443L186.953 27.9849V4.74875L161.392 17.4842L157.345 48.4576L151.611 45.6222C151.611 45.6222 151.611 26.1827 151.611 16.6912C151.611 13.5674 153.37 10.708 156.189 9.31427C164.091 5.37351 180.4 -2.77234 189.748 -7.43398C191.242 -8.17888 193.024 -8.10679 194.446 -7.21772L199.842 -4.55049L196.734 -1.3306Z" fill="#C9FEC6"/>
<path fill-rule="evenodd" clip-rule="evenodd" d="M161.85 17.8204L157.827 48.5296C157.803 48.6978 157.706 48.8179 157.562 48.89C157.417 48.9621 157.249 48.9621 157.104 48.89L151.37 46.0546C151.202 45.9825 151.105 45.7903 151.105 45.6221C151.105 45.6221 151.105 26.1825 151.105 16.6911C151.105 13.3751 152.985 10.3474 155.948 8.88163C163.85 4.91683 180.184 -3.20499 189.531 -7.86663C191.169 -8.68362 193.121 -8.61153 194.687 -7.65037L200.059 -4.98314C200.204 -4.91105 200.3 -4.79091 200.324 -4.62271C200.348 -4.47853 200.3 -4.31033 200.204 -4.19018L197.216 -1.09043L193.145 30.9163C193.121 31.0845 193.024 31.2046 192.88 31.3007C192.735 31.3728 192.567 31.3728 192.422 31.3007L186.712 28.4413C186.544 28.3692 186.447 28.177 186.447 28.0088V5.54159L161.85 17.8204ZM198.999 -4.40644L194.205 -6.78532L194.157 -6.80935C192.88 -7.60231 191.29 -7.6744 189.941 -7.00158C180.593 -2.33994 164.283 5.80591 156.357 9.74667C153.731 11.0683 152.069 13.7355 152.069 16.6911V45.3097L156.911 47.7126L160.887 17.436C160.911 17.2678 161.007 17.1236 161.152 17.0515L186.712 4.31611C186.857 4.24402 187.05 4.24402 187.194 4.34013C187.339 4.43625 187.435 4.58042 187.435 4.74863V27.6964L192.253 30.0993L196.253 -1.37878C196.277 -1.4749 196.301 -1.57101 196.397 -1.66713L198.999 -4.40644Z" fill="#013E39"/>
<path fill-rule="evenodd" clip-rule="evenodd" d="M167.102 43.5796L157.297 48.4816C157.297 48.4816 157.297 29.0421 157.297 19.5506C157.297 16.4268 159.056 13.5673 161.874 12.1737C169.8 8.23289 186.11 0.0870339 195.457 -4.5746C196.951 -5.3195 198.734 -5.24742 200.155 -4.35834C201.577 -3.46927 202.444 -1.93141 202.444 -0.249372C202.444 9.79477 202.444 25.9904 202.444 25.9904L192.663 30.8683V7.5841L167.102 20.3195V43.5796Z" fill="#C9FEC6"/>
<path fill-rule="evenodd" clip-rule="evenodd" d="M167.584 20.632V43.5797C167.584 43.772 167.487 43.9402 167.319 44.0123L157.538 48.8902C157.393 48.9622 157.2 48.9623 157.056 48.8661C156.911 48.77 156.815 48.6258 156.815 48.4576C156.815 48.4576 156.815 29.0181 156.815 19.5267C156.815 16.2106 158.694 13.183 161.657 11.7172C169.559 7.77644 185.893 -0.369409 195.241 -5.03105C196.903 -5.84803 198.854 -5.77595 200.42 -4.79076C201.986 -3.80556 202.95 -2.12353 202.95 -0.273293C202.95 9.77085 202.95 25.9664 202.95 25.9664C202.95 26.1587 202.853 26.3269 202.685 26.399L192.904 31.2769C192.759 31.349 192.566 31.3489 192.422 31.2528C192.277 31.1567 192.181 31.0125 192.181 30.8443V8.37717L167.584 20.632ZM201.938 25.6541V-0.273293C201.938 -1.76309 201.167 -3.15678 199.89 -3.94974C198.613 -4.7427 197.023 -4.81479 195.674 -4.14197C186.327 0.519666 170.017 8.66552 162.091 12.6063C159.465 13.9279 157.803 16.5951 157.803 19.5507V47.6887L166.596 43.2914V20.3436C166.596 20.1514 166.692 19.9832 166.861 19.9111L192.422 7.17572C192.566 7.10363 192.759 7.10363 192.904 7.19975C193.048 7.29586 193.145 7.44003 193.145 7.60824V30.0514L201.938 25.6541Z" fill="#013E39"/>
<path fill-rule="evenodd" clip-rule="evenodd" d="M154.574 218.631V101.081L242.965 56.9873V173.961L154.574 218.631Z" fill="#013E39"/>
<path fill-rule="evenodd" clip-rule="evenodd" d="M154.093 218.631C154.093 218.8 154.189 218.968 154.334 219.04C154.478 219.136 154.671 219.136 154.816 219.064L243.206 174.394C243.375 174.322 243.471 174.129 243.471 173.961V56.9878C243.471 56.8196 243.375 56.6514 243.231 56.5793C243.086 56.4832 242.893 56.4832 242.749 56.5553L154.358 100.625C154.189 100.697 154.093 100.889 154.093 101.057V218.631ZM155.081 101.369V217.814L242.484 173.649V57.7808L155.081 101.369Z" fill="#013E39"/>
<path d="M306.518 200.585L298.953 196.813C282.258 188.427 279.801 171.558 280.042 166.464V97.2845C279.993 81.6415 270.116 68.4736 259.227 63.6918L252.192 60.1836L162.115 105.118L162.163 105.19L169.125 108.65C180.015 113.432 189.892 126.6 189.94 142.243V211.423C189.699 216.517 192.157 233.385 208.852 241.771L216.417 245.544L306.518 200.585Z" fill="#C9FEC6"/>
<path fill-rule="evenodd" clip-rule="evenodd" d="M189.435 211.398V142.243C189.386 126.816 179.654 113.816 168.909 109.106H168.885L161.922 105.646C161.874 105.622 161.802 105.574 161.778 105.526L161.73 105.454C161.633 105.334 161.585 105.19 161.609 105.046C161.633 104.901 161.73 104.757 161.874 104.709L251.952 59.7748C252.096 59.7027 252.265 59.7027 252.385 59.7748L259.42 63.283C270.454 68.1369 280.476 81.473 280.524 97.3082V166.488V166.512C280.283 171.534 282.716 188.138 299.146 196.404L306.711 200.177C306.88 200.249 306.976 200.441 306.976 200.609C306.976 200.801 306.88 200.97 306.711 201.042L216.585 245.976C216.441 246.048 216.272 246.048 216.152 245.976L208.587 242.203C191.699 233.697 189.194 216.588 189.435 211.398ZM252.192 60.7359L163.175 105.142L169.318 108.217C180.352 113.071 190.374 126.407 190.422 142.243V211.422V211.446C190.181 216.468 192.615 233.072 209.045 241.338L216.369 244.991L305.386 200.585L298.713 197.269C281.777 188.763 279.295 171.654 279.536 166.464V97.2841C279.488 81.8575 269.755 68.8577 259.01 64.1481H258.986L252.192 60.7359Z" fill="#013E39"/>
<path fill-rule="evenodd" clip-rule="evenodd" d="M238.244 166.199C238.244 164.71 237.28 163.989 236.075 164.589L232.606 166.32C231.426 166.92 230.438 168.602 230.438 170.092C230.438 171.582 231.402 172.303 232.606 171.702L236.075 169.972C237.28 169.371 238.244 167.689 238.244 166.199ZM248.41 150.677C248.41 149.187 247.446 148.466 246.242 149.067L235.786 154.281C234.606 154.882 233.618 156.564 233.618 158.054C233.618 159.543 234.582 160.264 235.786 159.663L246.242 154.449C247.446 153.848 248.41 152.142 248.41 150.677ZM253.807 137.413C253.807 135.923 252.843 135.202 251.638 135.803L242.749 140.248C241.568 140.849 240.58 142.531 240.58 144.021C240.58 145.51 241.544 146.231 242.749 145.631L251.638 141.185C252.843 140.584 253.807 138.878 253.807 137.413Z" fill="#C9FEC6"/>
<path fill-rule="evenodd" clip-rule="evenodd" d="M238.725 166.199C238.725 165.262 238.388 164.589 237.906 164.229C237.376 163.845 236.653 163.748 235.858 164.157L232.389 165.887C231.064 166.56 229.956 168.434 229.956 170.092C229.956 171.029 230.293 171.702 230.775 172.062C231.305 172.447 232.028 172.543 232.823 172.135L236.292 170.404C237.641 169.732 238.725 167.857 238.725 166.199ZM237.738 166.199C237.738 167.497 236.894 169.011 235.858 169.539L232.389 171.27C232.004 171.462 231.642 171.486 231.377 171.294C231.088 171.077 230.944 170.645 230.944 170.092C230.944 168.795 231.787 167.281 232.823 166.752L236.292 165.022C236.678 164.83 237.039 164.806 237.304 164.998C237.593 165.214 237.738 165.647 237.738 166.199ZM248.916 150.677C248.916 149.739 248.579 149.067 248.097 148.706C247.567 148.322 246.844 148.226 246.049 148.634L235.593 153.848C234.268 154.521 233.16 156.396 233.16 158.054C233.16 158.991 233.497 159.663 233.979 160.024C234.509 160.408 235.232 160.505 236.027 160.096L246.483 154.882C247.808 154.209 248.916 152.335 248.916 150.677ZM247.928 150.677C247.928 151.974 247.085 153.488 246.049 154.017L235.593 159.231C235.208 159.423 234.847 159.447 234.582 159.255C234.292 159.039 234.148 158.606 234.148 158.054C234.148 156.756 234.991 155.242 236.027 154.713L246.483 149.499C246.868 149.307 247.23 149.283 247.495 149.475C247.784 149.691 247.928 150.124 247.928 150.677ZM254.288 137.413C254.288 136.475 253.951 135.803 253.469 135.442C252.939 135.058 252.216 134.962 251.421 135.37L242.532 139.815C241.207 140.488 240.098 142.363 240.098 144.021C240.098 144.958 240.436 145.631 240.918 145.991C241.448 146.375 242.17 146.472 242.965 146.063L251.855 141.618C253.204 140.945 254.288 139.071 254.288 137.413ZM253.301 137.413C253.301 138.71 252.457 140.224 251.421 140.753L242.532 145.198C242.146 145.39 241.785 145.414 241.52 145.222C241.231 145.006 241.086 144.573 241.086 144.021C241.086 142.723 241.929 141.209 242.965 140.681L251.855 136.235C252.241 136.043 252.602 136.019 252.867 136.211C253.156 136.427 253.301 136.86 253.301 137.413Z" fill="#013E39"/>
<path fill-rule="evenodd" clip-rule="evenodd" d="M226.463 140.464C226.463 138.975 225.499 138.254 224.295 138.854L207.937 147C206.756 147.601 205.769 149.283 205.769 150.773C205.769 152.263 206.732 152.983 207.937 152.383L224.295 144.237C225.475 143.636 226.463 141.954 226.463 140.464Z" fill="#C9FEC6"/>
<path fill-rule="evenodd" clip-rule="evenodd" d="M226.945 140.464C226.945 139.527 226.607 138.854 226.126 138.494C225.596 138.109 224.873 138.013 224.078 138.422L207.72 146.568C206.395 147.241 205.287 149.115 205.287 150.773C205.287 151.71 205.624 152.383 206.106 152.743C206.636 153.128 207.358 153.224 208.153 152.815L224.511 144.669C225.861 144.021 226.945 142.122 226.945 140.464ZM225.957 140.464C225.957 141.762 225.114 143.276 224.078 143.804L207.72 151.95C207.334 152.142 206.973 152.166 206.708 151.974C206.419 151.758 206.274 151.325 206.274 150.773C206.274 149.475 207.118 147.961 208.153 147.433L224.511 139.287C224.897 139.095 225.258 139.071 225.523 139.263C225.812 139.479 225.957 139.912 225.957 140.464Z" fill="#013E39"/>
<path fill-rule="evenodd" clip-rule="evenodd" d="M249.181 100.696C248.386 98.7259 246.218 98.0291 244.29 98.9903L218.946 111.63C217.525 112.326 217.115 114.489 217.911 116.483C218.706 118.454 220.585 119.439 221.837 118.814L248.001 105.742C249.904 104.781 249.976 102.667 249.181 100.696Z" fill="#C9FEC6"/>
<path fill-rule="evenodd" clip-rule="evenodd" d="M249.639 100.504C248.723 98.2455 246.266 97.4525 244.074 98.5338L218.73 111.173C218.055 111.51 217.549 112.11 217.284 112.879C216.899 113.936 216.947 115.33 217.477 116.628C218.007 117.949 218.995 118.886 219.982 119.247C220.705 119.511 221.452 119.511 222.078 119.199L248.241 106.151C250.386 105.118 250.53 102.739 249.639 100.504ZM248.723 100.865C249.422 102.595 249.446 104.469 247.784 105.286L221.621 118.358C221.235 118.55 220.777 118.526 220.32 118.358C219.549 118.069 218.802 117.325 218.368 116.291C217.935 115.234 217.886 114.105 218.2 113.24C218.392 112.711 218.706 112.302 219.163 112.062L244.507 99.4229C246.146 98.6059 248.025 99.1826 248.723 100.865Z" fill="#013E39"/>
<path fill-rule="evenodd" clip-rule="evenodd" d="M242.652 132.391C242.652 130.901 241.688 130.18 240.484 130.781L232.582 134.722C231.401 135.323 230.414 137.005 230.414 138.494C230.414 139.984 231.377 140.705 232.582 140.104L240.484 136.164C241.688 135.563 242.652 133.881 242.652 132.391Z" fill="#C9FEC6"/>
<path fill-rule="evenodd" clip-rule="evenodd" d="M243.158 132.391C243.158 131.454 242.821 130.781 242.339 130.421C241.809 130.036 241.086 129.94 240.291 130.349L232.389 134.289C231.064 134.962 229.956 136.836 229.956 138.494C229.956 139.432 230.293 140.104 230.775 140.465C231.305 140.849 232.028 140.945 232.823 140.537L240.725 136.596C242.05 135.923 243.158 134.049 243.158 132.391ZM242.17 132.391C242.17 133.689 241.327 135.202 240.291 135.731L232.389 139.672C232.004 139.864 231.642 139.888 231.377 139.696C231.088 139.48 230.944 139.047 230.944 138.494C230.944 137.197 231.787 135.683 232.823 135.154L240.725 131.214C241.11 131.021 241.472 130.997 241.737 131.19C242.026 131.406 242.17 131.838 242.17 132.391Z" fill="#013E39"/>
<path fill-rule="evenodd" clip-rule="evenodd" d="M226.463 172.063C226.463 170.573 225.499 169.852 224.295 170.453L207.937 178.599C206.756 179.2 205.769 180.882 205.769 182.371C205.769 183.861 206.732 184.582 207.937 183.981L224.295 175.836C225.475 175.259 226.463 173.553 226.463 172.063Z" fill="#C9FEC6"/>
<path fill-rule="evenodd" clip-rule="evenodd" d="M226.945 172.063C226.945 171.126 226.607 170.453 226.126 170.093C225.596 169.708 224.873 169.612 224.078 170.02L207.72 178.166C206.395 178.839 205.287 180.713 205.287 182.371C205.287 183.309 205.624 183.981 206.106 184.342C206.636 184.726 207.358 184.822 208.153 184.414L224.511 176.268C225.861 175.619 226.945 173.745 226.945 172.063ZM225.957 172.063C225.957 173.361 225.114 174.874 224.078 175.403L207.72 183.549C207.334 183.741 206.973 183.765 206.708 183.573C206.419 183.357 206.274 182.924 206.274 182.371C206.274 181.074 207.118 179.56 208.153 179.031L224.511 170.886C224.897 170.693 225.258 170.669 225.523 170.862C225.812 171.102 225.957 171.51 225.957 172.063Z" fill="#013E39"/>
<path fill-rule="evenodd" clip-rule="evenodd" d="M256.481 125.495C256.481 124.005 255.517 123.284 254.312 123.885L248.049 127.008C246.868 127.609 245.88 129.291 245.88 130.781C245.88 132.271 246.844 132.992 248.049 132.391L254.312 129.267C255.517 128.666 256.481 126.984 256.481 125.495Z" fill="#C9FEC6"/>
<path fill-rule="evenodd" clip-rule="evenodd" d="M256.987 125.495C256.987 124.557 256.649 123.885 256.168 123.524C255.638 123.14 254.915 123.044 254.12 123.452L247.856 126.576C246.531 127.249 245.423 129.123 245.423 130.781C245.423 131.718 245.76 132.391 246.242 132.751C246.772 133.136 247.495 133.232 248.29 132.823L254.553 129.7C255.878 129.027 256.987 127.153 256.987 125.495ZM255.999 125.495C255.999 126.792 255.156 128.306 254.12 128.835L247.856 131.958C247.471 132.151 247.109 132.175 246.844 131.982C246.555 131.766 246.411 131.334 246.411 130.781C246.411 129.483 247.254 127.97 248.29 127.441L254.553 124.317C254.939 124.125 255.3 124.101 255.565 124.293C255.854 124.509 255.999 124.942 255.999 125.495Z" fill="#013E39"/>
<path fill-rule="evenodd" clip-rule="evenodd" d="M236.581 145.991C236.581 144.501 235.617 143.78 234.413 144.381L222.488 150.34C221.307 150.941 220.319 152.623 220.319 154.113C220.319 155.602 221.283 156.323 222.488 155.722L234.413 149.763C235.617 149.163 236.581 147.48 236.581 145.991Z" fill="#C9FEC6"/>
<path fill-rule="evenodd" clip-rule="evenodd" d="M237.087 145.991C237.087 145.054 236.75 144.381 236.268 144.02C235.738 143.636 235.015 143.54 234.22 143.948L222.295 149.907C220.97 150.58 219.862 152.455 219.862 154.113C219.862 155.05 220.199 155.722 220.681 156.083C221.211 156.467 221.934 156.563 222.729 156.155L234.654 150.196C235.979 149.523 237.087 147.649 237.087 145.991ZM236.099 145.991C236.099 147.288 235.256 148.802 234.22 149.331L222.295 155.29C221.91 155.482 221.548 155.506 221.283 155.314C220.994 155.098 220.85 154.665 220.85 154.113C220.85 152.815 221.693 151.301 222.729 150.772L234.654 144.813C235.039 144.621 235.401 144.597 235.666 144.789C235.955 145.006 236.099 145.438 236.099 145.991Z" fill="#013E39"/>
<path fill-rule="evenodd" clip-rule="evenodd" d="M217.067 155.963C217.067 155.026 216.73 154.353 216.248 153.993C215.718 153.608 214.996 153.512 214.201 153.921L208.13 156.925C206.804 157.597 205.696 159.472 205.696 161.13C205.696 162.067 206.034 162.74 206.515 163.1C207.045 163.484 207.768 163.581 208.563 163.172L214.634 160.144C215.959 159.496 217.067 157.621 217.067 155.963ZM216.08 155.963C216.08 157.261 215.236 158.775 214.201 159.303L208.13 162.307C207.744 162.499 207.383 162.523 207.118 162.331C206.829 162.115 206.684 161.682 206.684 161.13C206.684 159.832 207.527 158.318 208.563 157.79L214.634 154.762C215.02 154.57 215.381 154.546 215.646 154.738C215.935 154.978 216.08 155.411 216.08 155.963Z" fill="#013E39"/>
<path fill-rule="evenodd" clip-rule="evenodd" d="M229.643 160.024C229.643 158.534 228.679 157.813 227.475 158.414L207.937 168.146C206.756 168.746 205.769 170.428 205.769 171.918C205.769 173.408 206.732 174.129 207.937 173.528L227.475 163.796C228.679 163.196 229.643 161.514 229.643 160.024Z" fill="#C9FEC6"/>
<path fill-rule="evenodd" clip-rule="evenodd" d="M230.125 160.024C230.125 159.087 229.787 158.414 229.306 158.054C228.776 157.669 228.053 157.573 227.258 157.981L207.72 167.713C206.395 168.386 205.287 170.26 205.287 171.918C205.287 172.855 205.624 173.528 206.106 173.889C206.636 174.273 207.358 174.369 208.153 173.961L227.692 164.229C229.041 163.58 230.125 161.706 230.125 160.024ZM229.137 160.024C229.137 161.321 228.294 162.835 227.258 163.364L207.72 173.096C207.334 173.288 206.973 173.312 206.708 173.12C206.419 172.903 206.274 172.471 206.274 171.918C206.274 170.621 207.118 169.107 208.153 168.578L227.692 158.846C228.077 158.654 228.438 158.63 228.703 158.822C228.992 159.063 229.137 159.471 229.137 160.024Z" fill="#013E39"/>
<path fill-rule="evenodd" clip-rule="evenodd" d="M274.139 193.569C273.465 192.584 272.044 192.199 270.959 192.728L257.565 199.408C256.505 199.937 256.191 201.186 256.866 202.171C257.541 203.157 258.962 203.541 260.046 203.012L273.441 196.332C274.501 195.804 274.814 194.578 274.139 193.569Z" fill="#C9FEC6"/>
<path fill-rule="evenodd" clip-rule="evenodd" d="M274.549 193.305C273.73 192.103 272.019 191.671 270.743 192.32L257.348 198.976C255.999 199.648 255.589 201.21 256.457 202.46C257.276 203.661 258.986 204.094 260.263 203.445L273.658 196.765C275.007 196.116 275.392 194.554 274.549 193.305ZM273.73 193.857C274.236 194.602 273.995 195.515 273.224 195.9L259.829 202.58C258.962 203.012 257.83 202.7 257.276 201.907C256.77 201.162 257.011 200.249 257.782 199.865L271.176 193.185C272.044 192.752 273.176 193.064 273.73 193.857Z" fill="#013E39"/>
<path fill-rule="evenodd" clip-rule="evenodd" d="M253.71 203.757C253.035 202.772 251.614 202.388 250.53 202.916L243.736 206.305C242.676 206.833 242.363 208.083 243.037 209.068C243.712 210.053 245.133 210.438 246.217 209.909L253.011 206.521C254.095 205.992 254.408 204.743 253.71 203.757Z" fill="#C9FEC6"/>
<path fill-rule="evenodd" clip-rule="evenodd" d="M254.119 203.469C253.3 202.267 251.59 201.835 250.313 202.484L243.519 205.872C242.17 206.545 241.761 208.106 242.628 209.356C243.447 210.557 245.157 210.99 246.434 210.341L253.228 206.953C254.577 206.304 254.987 204.742 254.119 203.469ZM253.3 204.045C253.806 204.79 253.565 205.703 252.794 206.088L246.001 209.476C245.133 209.909 244.001 209.596 243.447 208.803C242.941 208.058 243.182 207.145 243.953 206.761L250.747 203.373C251.614 202.94 252.77 203.229 253.3 204.045Z" fill="#013E39"/>
<path fill-rule="evenodd" clip-rule="evenodd" d="M219.525 227.786C210.563 223.196 206.804 213.633 208.25 198.086L226.559 188.955V179.415L244.989 170.212V156.828L264.214 147.24V189.195L219.525 227.786Z" fill="#013E39"/>
<path fill-rule="evenodd" clip-rule="evenodd" d="M244.507 169.924V156.852C244.507 156.66 244.603 156.491 244.772 156.419L263.997 146.832C264.142 146.76 264.334 146.76 264.479 146.856C264.623 146.952 264.72 147.096 264.72 147.264V189.219C264.72 189.363 264.647 189.507 264.551 189.579L219.838 228.146C219.693 228.266 219.476 228.314 219.284 228.218C210.177 223.556 206.274 213.849 207.744 198.038C207.768 197.869 207.864 197.725 208.009 197.653L226.029 188.666V179.439C226.029 179.247 226.125 179.079 226.294 179.007L244.507 169.924ZM219.452 227.185L263.732 188.979V148.057L245.495 157.164V170.236C245.495 170.428 245.399 170.596 245.23 170.668L227.065 179.727V188.955C227.065 189.147 226.969 189.315 226.8 189.387L208.756 198.398C207.382 213.344 210.9 222.643 219.452 227.185Z" fill="#013E39"/>
<path fill-rule="evenodd" clip-rule="evenodd" d="M256.384 199.841C256.384 199.648 256.384 203.157 256.384 203.157C256.384 206.521 261.492 209.236 267.804 209.236H267.876C274.14 209.212 279.223 206.497 279.223 203.157C279.223 203.157 279.223 199.648 279.223 199.841C279.223 203.205 274.115 205.92 267.804 205.92C261.492 205.92 256.384 203.181 256.384 199.841Z" fill="#C9FEC6"/>
<path fill-rule="evenodd" clip-rule="evenodd" d="M278.741 199.792C278.765 199.384 279.006 199.288 279.223 199.36C279.464 199.312 279.681 199.384 279.705 199.792V199.816V199.84V199.864C279.705 200.297 279.705 203.132 279.705 203.132C279.705 204.622 278.837 205.992 277.32 207.121C275.2 208.683 271.755 209.716 267.876 209.716H267.804C263.901 209.716 260.432 208.683 258.288 207.121C256.746 206.016 255.878 204.622 255.878 203.132C255.878 203.132 255.878 200.297 255.878 199.864V199.84V199.816V199.792C255.903 199.384 256.143 199.288 256.36 199.36C256.601 199.312 256.818 199.384 256.842 199.792V199.816C256.842 201.018 257.613 202.099 258.842 203.012C260.865 204.478 264.118 205.415 267.78 205.415C271.441 205.415 274.694 204.478 276.717 203.012C277.946 202.123 278.717 201.018 278.717 199.816C278.741 199.816 278.741 199.816 278.741 199.792ZM256.866 202.484V203.156C256.866 204.358 257.637 205.439 258.866 206.352C260.889 207.818 264.142 208.755 267.804 208.755H267.876C271.514 208.731 274.742 207.794 276.741 206.352C277.97 205.463 278.717 204.358 278.717 203.18V202.508C278.332 202.988 277.874 203.445 277.296 203.853C275.151 205.415 271.682 206.448 267.78 206.448C263.877 206.448 260.408 205.415 258.263 203.853C257.733 203.397 257.252 202.964 256.866 202.484Z" fill="#013E39"/>
<path fill-rule="evenodd" clip-rule="evenodd" d="M267.804 193.737C261.492 193.737 256.384 196.453 256.384 199.817C256.384 203.181 261.492 205.896 267.804 205.896C274.115 205.896 279.223 203.181 279.223 199.817C279.223 196.453 274.115 193.737 267.804 193.737Z" fill="#C9FEC6"/>
<path fill-rule="evenodd" clip-rule="evenodd" d="M267.804 193.256C263.901 193.256 260.432 194.289 258.288 195.851C256.746 196.956 255.878 198.35 255.878 199.84C255.878 201.33 256.746 202.723 258.288 203.829C260.432 205.391 263.901 206.424 267.804 206.424C271.706 206.424 275.176 205.391 277.32 203.829C278.862 202.723 279.729 201.33 279.729 199.84C279.729 198.35 278.862 196.956 277.32 195.851C275.176 194.289 271.706 193.256 267.804 193.256ZM267.804 194.241C271.465 194.241 274.718 195.178 276.741 196.644C277.97 197.533 278.741 198.638 278.741 199.84C278.741 201.041 277.97 202.123 276.741 203.036C274.718 204.501 271.465 205.439 267.804 205.439C264.142 205.439 260.889 204.501 258.866 203.036C257.637 202.147 256.866 201.041 256.866 199.84C256.866 198.638 257.637 197.557 258.866 196.644C260.889 195.178 264.142 194.241 267.804 194.241Z" fill="#013E39"/>
<path fill-rule="evenodd" clip-rule="evenodd" d="M255.637 195.779C255.637 195.587 255.637 199.095 255.637 199.095C255.637 202.459 260.745 205.174 267.056 205.174H267.129C273.392 205.15 278.476 202.435 278.476 199.095C278.476 199.095 278.476 195.587 278.476 195.779C278.476 199.143 273.368 201.858 267.056 201.858C260.769 201.858 255.637 199.143 255.637 195.779Z" fill="#C9FEC6"/>
<path fill-rule="evenodd" clip-rule="evenodd" d="M255.637 195.299C255.878 195.251 256.095 195.323 256.119 195.732V195.756C256.119 196.957 256.89 198.039 258.119 198.952C260.142 200.417 263.395 201.355 267.057 201.355C270.718 201.355 273.971 200.417 275.994 198.952C277.223 198.063 277.994 196.957 277.994 195.756V195.732C278.018 195.323 278.259 195.227 278.476 195.299C278.717 195.251 278.934 195.323 278.958 195.732V195.756V195.78V195.804C278.958 196.236 278.958 199.072 278.958 199.072C278.958 200.562 278.09 201.931 276.573 203.061C274.453 204.623 271.008 205.656 267.129 205.656H267.057C263.154 205.656 259.685 204.623 257.54 203.061C255.999 201.955 255.131 200.562 255.131 199.072C255.131 199.072 255.131 196.236 255.131 195.804V195.78V195.756V195.732C255.18 195.347 255.42 195.251 255.637 195.299ZM256.143 198.423V199.096C256.143 200.297 256.914 201.379 258.143 202.292C260.166 203.757 263.419 204.695 267.081 204.695H267.153C270.791 204.671 274.019 203.733 276.019 202.292C277.247 201.403 277.994 200.297 277.994 199.12V198.447C277.609 198.928 277.151 199.384 276.573 199.793C274.428 201.355 270.959 202.388 267.057 202.388C263.154 202.388 259.685 201.355 257.54 199.793C256.986 199.36 256.505 198.904 256.143 198.423Z" fill="#013E39"/>
<path fill-rule="evenodd" clip-rule="evenodd" d="M267.081 189.7C260.769 189.7 255.662 192.415 255.662 195.78C255.662 199.144 260.769 201.859 267.081 201.859C273.393 201.859 278.5 199.144 278.5 195.78C278.5 192.415 273.369 189.7 267.081 189.7Z" fill="#C9FEC6"/>
<path fill-rule="evenodd" clip-rule="evenodd" d="M267.081 189.22C263.178 189.22 259.709 190.253 257.565 191.815C256.023 192.92 255.156 194.314 255.156 195.804C255.156 197.293 256.023 198.687 257.565 199.793C259.709 201.354 263.178 202.388 267.081 202.388C270.984 202.388 274.453 201.354 276.597 199.793C278.139 198.687 279.006 197.293 279.006 195.804C279.006 194.314 278.139 192.92 276.597 191.815C274.429 190.229 270.984 189.22 267.081 189.22ZM267.081 190.205C270.743 190.205 273.995 191.142 276.019 192.608C277.247 193.497 278.018 194.602 278.018 195.804C278.018 197.005 277.247 198.086 276.019 199C273.995 200.465 270.743 201.402 267.081 201.402C263.419 201.402 260.167 200.465 258.143 199C256.914 198.11 256.143 197.005 256.143 195.804C256.143 194.602 256.914 193.521 258.143 192.608C260.143 191.118 263.395 190.205 267.081 190.205Z" fill="#013E39"/>
<path fill-rule="evenodd" clip-rule="evenodd" d="M256.866 191.31C256.866 191.118 256.866 194.626 256.866 194.626C256.866 197.99 261.974 200.706 268.285 200.706H268.358C274.621 200.682 279.705 197.966 279.705 194.626C279.705 194.626 279.705 191.118 279.705 191.31C279.705 194.674 274.597 197.39 268.285 197.39C261.974 197.39 256.866 194.674 256.866 191.31Z" fill="#C9FEC6"/>
<path fill-rule="evenodd" clip-rule="evenodd" d="M279.705 190.83C279.946 190.781 280.163 190.854 280.187 191.262V191.286V191.31V191.334C280.187 191.767 280.187 194.602 280.187 194.602C280.187 196.092 279.319 197.462 277.802 198.591C275.682 200.153 272.237 201.186 268.358 201.186H268.286C264.383 201.186 260.914 200.153 258.769 198.591C257.228 197.486 256.36 196.092 256.36 194.602C256.36 194.602 256.36 191.767 256.36 191.334V191.31V191.286V191.262C256.384 190.854 256.625 190.757 256.842 190.83C257.083 190.781 257.3 190.854 257.324 191.262V191.286C257.324 192.488 258.095 193.569 259.324 194.482C261.347 195.948 264.6 196.885 268.261 196.885C271.923 196.885 275.176 195.948 277.199 194.482C278.428 193.593 279.199 192.488 279.199 191.286V191.262C279.247 190.878 279.464 190.781 279.705 190.83ZM257.348 193.953V194.626C257.348 195.828 258.119 196.909 259.348 197.822C261.371 199.288 264.624 200.225 268.286 200.225H268.358C271.996 200.201 275.224 199.264 277.223 197.822C278.452 196.933 279.199 195.828 279.199 194.65V193.977C278.813 194.458 278.356 194.914 277.778 195.323C275.633 196.885 272.164 197.918 268.261 197.918C264.359 197.918 260.89 196.885 258.745 195.323C258.191 194.89 257.734 194.434 257.348 193.953Z" fill="#013E39"/>
<path fill-rule="evenodd" clip-rule="evenodd" d="M268.285 185.23C261.974 185.23 256.866 187.946 256.866 191.31C256.866 194.674 261.974 197.389 268.285 197.389C274.597 197.389 279.705 194.674 279.705 191.31C279.705 187.946 274.573 185.23 268.285 185.23Z" fill="#C9FEC6"/>
<path fill-rule="evenodd" clip-rule="evenodd" d="M268.286 184.75C264.383 184.75 260.914 185.783 258.769 187.345C257.228 188.45 256.36 189.844 256.36 191.334C256.36 192.824 257.228 194.217 258.769 195.323C260.914 196.885 264.383 197.918 268.286 197.918C272.188 197.918 275.657 196.885 277.802 195.323C279.343 194.217 280.211 192.824 280.211 191.334C280.211 189.844 279.343 188.45 277.802 187.345C275.633 185.759 272.188 184.75 268.286 184.75ZM268.286 185.735C271.947 185.735 275.2 186.672 277.223 188.138C278.452 189.027 279.223 190.133 279.223 191.334C279.223 192.535 278.452 193.617 277.223 194.53C275.2 195.996 271.947 196.933 268.286 196.933C264.624 196.933 261.371 195.996 259.348 194.53C258.119 193.641 257.348 192.535 257.348 191.334C257.348 190.133 258.119 189.051 259.348 188.138C261.371 186.648 264.624 185.735 268.286 185.735Z" fill="#013E39"/>
<path fill-rule="evenodd" clip-rule="evenodd" d="M256.119 187.297C256.119 187.104 256.119 190.613 256.119 190.613C256.119 193.977 261.226 196.692 267.538 196.692H267.611C273.874 196.668 278.958 193.953 278.958 190.613C278.958 190.613 278.958 187.104 278.958 187.297C278.958 190.661 273.85 193.376 267.538 193.376C261.226 193.376 256.119 190.661 256.119 187.297Z" fill="#C9FEC6"/>
<path fill-rule="evenodd" clip-rule="evenodd" d="M256.119 186.817C256.36 186.769 256.577 186.841 256.601 187.249V187.273C256.601 188.475 257.372 189.556 258.601 190.469C260.624 191.935 263.877 192.872 267.538 192.872C271.2 192.872 274.453 191.935 276.476 190.469C277.705 189.58 278.476 188.475 278.476 187.273V187.249C278.5 186.841 278.741 186.745 278.958 186.817C279.199 186.769 279.415 186.841 279.44 187.249V187.273V187.297V187.321C279.44 187.754 279.44 190.589 279.44 190.589C279.44 192.079 278.572 193.449 277.055 194.578C274.934 196.14 271.489 197.173 267.611 197.173H267.538C263.636 197.173 260.167 196.14 258.022 194.578C256.481 193.473 255.613 192.079 255.613 190.589C255.613 190.589 255.613 187.754 255.613 187.321V187.297V187.273V187.249C255.661 186.865 255.878 186.769 256.119 186.817ZM278.476 189.941C278.09 190.421 277.633 190.878 277.055 191.286C274.91 192.848 271.441 193.881 267.538 193.881C263.636 193.881 260.167 192.848 258.022 191.286C257.444 190.878 256.986 190.421 256.601 189.941V190.613C256.601 191.815 257.372 192.896 258.601 193.809C260.624 195.275 263.877 196.212 267.538 196.212H267.611C271.249 196.188 274.477 195.251 276.476 193.809C277.705 192.92 278.452 191.815 278.452 190.637V189.941H278.476Z" fill="#013E39"/>
<path fill-rule="evenodd" clip-rule="evenodd" d="M267.538 181.218C261.226 181.218 256.119 183.933 256.119 187.297C256.119 190.661 261.226 193.376 267.538 193.376C273.85 193.376 278.958 190.661 278.958 187.297C278.958 183.933 273.85 181.218 267.538 181.218Z" fill="#C9FEC6"/>
<path fill-rule="evenodd" clip-rule="evenodd" d="M267.538 180.737C263.636 180.737 260.167 181.771 258.022 183.332C256.481 184.438 255.613 185.831 255.613 187.321C255.613 188.811 256.481 190.205 258.022 191.31C260.167 192.872 263.636 193.905 267.538 193.905C271.441 193.905 274.91 192.872 277.055 191.31C278.596 190.205 279.464 188.811 279.464 187.321C279.464 185.831 278.596 184.438 277.055 183.332C274.91 181.747 271.441 180.737 267.538 180.737ZM267.538 181.723C271.2 181.723 274.453 182.66 276.476 184.125C277.705 185.014 278.476 186.12 278.476 187.321C278.476 188.523 277.705 189.604 276.476 190.517C274.453 191.983 271.2 192.92 267.538 192.92C263.877 192.92 260.624 191.983 258.601 190.517C257.372 189.628 256.601 188.523 256.601 187.321C256.601 186.12 257.372 185.039 258.601 184.125C260.624 182.636 263.877 181.723 267.538 181.723Z" fill="#013E39"/>
<path fill-rule="evenodd" clip-rule="evenodd" d="M257.589 184.005C257.589 183.812 257.589 187.321 257.589 187.321C257.589 190.685 262.696 193.4 269.008 193.4H269.08C275.344 193.376 280.427 190.661 280.427 187.321C280.427 187.321 280.427 183.812 280.427 184.005C280.427 187.369 275.32 190.084 269.008 190.084C262.696 190.084 257.589 187.369 257.589 184.005Z" fill="#C9FEC6"/>
<path fill-rule="evenodd" clip-rule="evenodd" d="M280.427 183.525C280.668 183.453 280.885 183.549 280.909 183.957V183.981V184.005V184.029C280.909 184.462 280.909 187.297 280.909 187.297C280.909 188.787 280.042 190.157 278.524 191.286C276.404 192.848 272.959 193.881 269.08 193.881H269.008C265.105 193.881 261.636 192.848 259.492 191.286C257.95 190.181 257.083 188.787 257.083 187.297C257.083 187.297 257.083 184.462 257.083 184.029V184.005V183.981V183.957C257.107 183.549 257.348 183.453 257.565 183.525C257.806 183.453 258.023 183.549 258.047 183.957V183.981C258.047 185.183 258.818 186.264 260.046 187.177C262.07 188.643 265.322 189.58 268.984 189.58C272.646 189.58 275.898 188.643 277.922 187.177C279.151 186.288 279.922 185.183 279.922 183.981V183.957C279.97 183.573 280.187 183.477 280.427 183.525ZM258.071 186.649V187.321C258.071 188.523 258.842 189.604 260.07 190.517C262.094 191.983 265.346 192.92 269.008 192.92H269.08C272.718 192.896 275.946 191.959 277.946 190.517C279.175 189.628 279.922 188.523 279.922 187.345V186.673C279.536 187.153 279.078 187.61 278.5 188.018C276.356 189.58 272.887 190.613 268.984 190.613C265.081 190.613 261.612 189.58 259.468 188.018C258.938 187.586 258.456 187.129 258.071 186.649Z" fill="#013E39"/>
<path fill-rule="evenodd" clip-rule="evenodd" d="M269.008 177.926C262.696 177.926 257.589 180.641 257.589 184.005C257.589 187.369 262.696 190.084 269.008 190.084C275.32 190.084 280.427 187.369 280.427 184.005C280.427 180.641 275.32 177.926 269.008 177.926Z" fill="#C9FEC6"/>
<path fill-rule="evenodd" clip-rule="evenodd" d="M269.008 177.445C265.105 177.445 261.636 178.479 259.492 180.04C257.95 181.146 257.083 182.539 257.083 184.029C257.083 185.519 257.95 186.913 259.492 188.018C261.636 189.58 265.105 190.613 269.008 190.613C272.911 190.613 276.38 189.58 278.524 188.018C280.066 186.913 280.933 185.519 280.933 184.029C280.933 182.539 280.066 181.146 278.524 180.04C276.356 178.455 272.911 177.445 269.008 177.445ZM269.008 178.43C272.67 178.43 275.922 179.368 277.946 180.833C279.175 181.722 279.946 182.828 279.946 184.029C279.946 185.231 279.175 186.312 277.946 187.225C275.922 188.691 272.67 189.628 269.008 189.628C265.346 189.628 262.094 188.691 260.07 187.225C258.842 186.336 258.071 185.231 258.071 184.029C258.071 182.828 258.842 181.747 260.07 180.833C262.094 179.344 265.346 178.43 269.008 178.43Z" fill="#013E39"/>
<path fill-rule="evenodd" clip-rule="evenodd" d="M256.842 179.969C256.842 179.776 256.842 183.285 256.842 183.285C256.842 186.649 261.949 189.364 268.261 189.364H268.333C274.597 189.34 279.68 186.625 279.68 183.285C279.68 183.285 279.68 179.776 279.68 179.969C279.68 183.333 274.573 186.048 268.261 186.048C261.949 186.048 256.842 183.333 256.842 179.969Z" fill="#C9FEC6"/>
<path fill-rule="evenodd" clip-rule="evenodd" d="M256.842 179.488C257.083 179.416 257.3 179.512 257.324 179.92V179.944C257.324 181.146 258.095 182.227 259.323 183.14C261.347 184.606 264.599 185.543 268.261 185.543C271.923 185.543 275.175 184.606 277.199 183.14C278.428 182.251 279.199 181.146 279.199 179.944V179.92C279.223 179.512 279.464 179.416 279.68 179.488C279.921 179.416 280.138 179.512 280.162 179.92V179.944V179.968V179.992C280.162 180.425 280.162 183.26 280.162 183.26C280.162 184.75 279.295 186.12 277.777 187.249C275.657 188.811 272.212 189.844 268.333 189.844H268.261C264.358 189.844 260.889 188.811 258.745 187.249C257.203 186.144 256.336 184.75 256.336 183.26C256.336 183.26 256.336 180.425 256.336 179.992V179.968V179.944V179.92C256.384 179.512 256.601 179.44 256.842 179.488ZM279.199 182.612C278.813 183.092 278.355 183.549 277.777 183.957C275.633 185.519 272.164 186.552 268.261 186.552C264.358 186.552 260.889 185.519 258.745 183.957C258.167 183.549 257.709 183.092 257.324 182.612V183.284C257.324 184.486 258.095 185.567 259.323 186.48C261.347 187.946 264.599 188.883 268.261 188.883H268.333C271.971 188.859 275.199 187.922 277.199 186.48C278.428 185.591 279.174 184.486 279.174 183.308V182.612H279.199Z" fill="#013E39"/>
<path fill-rule="evenodd" clip-rule="evenodd" d="M268.261 173.889C261.949 173.889 256.842 176.604 256.842 179.968C256.842 183.332 261.949 186.047 268.261 186.047C274.573 186.047 279.68 183.332 279.68 179.968C279.68 176.604 274.573 173.889 268.261 173.889Z" fill="#C9FEC6"/>
<path fill-rule="evenodd" clip-rule="evenodd" d="M268.261 173.384C264.358 173.384 260.889 174.417 258.745 175.979C257.203 177.084 256.336 178.478 256.336 179.968C256.336 181.458 257.203 182.851 258.745 183.957C260.889 185.518 264.358 186.552 268.261 186.552C272.164 186.552 275.633 185.518 277.777 183.957C279.319 182.851 280.186 181.458 280.186 179.968C280.186 178.478 279.319 177.084 277.777 175.979C275.633 174.417 272.164 173.384 268.261 173.384ZM268.261 174.369C271.923 174.369 275.175 175.306 277.199 176.772C278.428 177.661 279.199 178.766 279.199 179.968C279.199 181.169 278.428 182.251 277.199 183.164C275.175 184.629 271.923 185.567 268.261 185.567C264.599 185.567 261.347 184.629 259.323 183.164C258.095 182.275 257.324 181.169 257.324 179.968C257.324 178.766 258.095 177.685 259.323 176.772C261.347 175.306 264.599 174.369 268.261 174.369Z" fill="#013E39"/>
<path fill-rule="evenodd" clip-rule="evenodd" d="M258.046 175.499C258.046 175.307 258.046 178.815 258.046 178.815C258.046 182.179 263.154 184.894 269.466 184.894H269.538C275.802 184.87 280.885 182.155 280.885 178.815C280.885 178.815 280.885 175.307 280.885 175.499C280.885 178.863 275.778 181.578 269.466 181.578C263.178 181.578 258.046 178.863 258.046 175.499Z" fill="#C9FEC6"/>
<path fill-rule="evenodd" clip-rule="evenodd" d="M280.909 175.018C281.15 174.946 281.367 175.042 281.391 175.451V175.475V175.499V175.523C281.391 175.955 281.391 178.791 281.391 178.791C281.391 180.28 280.523 181.65 279.006 182.779C276.886 184.341 273.441 185.375 269.562 185.375H269.49C265.587 185.375 262.118 184.341 259.974 182.779C258.432 181.674 257.564 180.28 257.564 178.791C257.564 178.791 257.564 175.955 257.564 175.523V175.499V175.475V175.451C257.589 175.042 257.829 174.946 258.046 175.018C258.287 174.946 258.504 175.042 258.528 175.451V175.475C258.528 176.676 259.299 177.757 260.528 178.67C262.551 180.136 265.804 181.073 269.466 181.073C273.127 181.073 276.38 180.136 278.403 178.67C279.632 177.781 280.403 176.676 280.403 175.475V175.451C280.427 175.042 280.668 174.97 280.909 175.018ZM258.552 178.142V178.815C258.552 180.016 259.323 181.097 260.552 182.01C262.575 183.476 265.828 184.413 269.49 184.413H269.562C273.2 184.389 276.428 183.452 278.428 182.01C279.656 181.121 280.403 180.016 280.403 178.839V178.166C280.018 178.646 279.56 179.103 278.982 179.511C276.837 181.073 273.368 182.107 269.466 182.107C265.563 182.107 262.094 181.073 259.949 179.511C259.395 179.079 258.914 178.622 258.552 178.142Z" fill="#013E39"/>
<path fill-rule="evenodd" clip-rule="evenodd" d="M269.466 169.42C263.154 169.42 258.046 172.135 258.046 175.499C258.046 178.863 263.154 181.579 269.466 181.579C275.778 181.579 280.885 178.863 280.885 175.499C280.909 172.135 275.778 169.42 269.466 169.42Z" fill="#C9FEC6"/>
<path fill-rule="evenodd" clip-rule="evenodd" d="M269.466 168.915C265.563 168.915 262.094 169.948 259.95 171.51C258.408 172.616 257.541 174.009 257.541 175.499C257.541 176.989 258.408 178.382 259.95 179.488C262.094 181.05 265.563 182.083 269.466 182.083C273.369 182.083 276.838 181.05 278.982 179.488C280.524 178.382 281.391 176.989 281.391 175.499C281.391 174.009 280.524 172.616 278.982 171.51C276.838 169.948 273.369 168.915 269.466 168.915ZM269.466 169.9C273.128 169.9 276.38 170.837 278.404 172.303C279.632 173.192 280.403 174.298 280.403 175.499C280.403 176.7 279.632 177.782 278.404 178.695C276.38 180.161 273.128 181.098 269.466 181.098C265.804 181.098 262.552 180.161 260.528 178.695C259.299 177.806 258.528 176.7 258.528 175.499C258.528 174.298 259.299 173.216 260.528 172.303C262.552 170.837 265.804 169.9 269.466 169.9Z" fill="#013E39"/>
<path fill-rule="evenodd" clip-rule="evenodd" d="M257.324 171.486C257.324 171.294 257.324 174.802 257.324 174.802C257.324 178.166 262.431 180.882 268.743 180.882H268.815C275.079 180.857 280.162 178.142 280.162 174.802C280.162 174.802 280.162 171.294 280.162 171.486C280.162 174.85 275.055 177.566 268.743 177.566C262.431 177.566 257.324 174.85 257.324 171.486Z" fill="#C9FEC6"/>
<path fill-rule="evenodd" clip-rule="evenodd" d="M280.162 171.005C280.403 170.933 280.62 171.029 280.644 171.438V171.462V171.486V171.51C280.644 171.942 280.644 174.778 280.644 174.778C280.644 176.268 279.777 177.637 278.259 178.767C276.139 180.329 272.694 181.362 268.815 181.362H268.743C264.84 181.362 261.371 180.329 259.227 178.767C257.685 177.661 256.818 176.268 256.818 174.778C256.818 174.778 256.818 171.942 256.818 171.51V171.486V171.462V171.438C256.842 171.029 257.083 170.933 257.3 171.005C257.541 170.933 257.757 171.029 257.782 171.438V171.462C257.782 172.663 258.552 173.745 259.781 174.658C261.805 176.124 265.057 177.061 268.719 177.061C272.381 177.061 275.633 176.124 277.657 174.658C278.885 173.769 279.656 172.663 279.656 171.462V171.438C279.705 171.029 279.921 170.957 280.162 171.005ZM279.656 174.129C279.271 174.61 278.813 175.066 278.235 175.475C276.091 177.037 272.622 178.07 268.719 178.07C264.816 178.07 261.347 177.037 259.203 175.475C258.625 175.066 258.167 174.61 257.782 174.129V174.802C257.782 176.003 258.552 177.085 259.781 177.998C261.805 179.464 265.057 180.401 268.719 180.401H268.791C272.429 180.377 275.657 179.44 277.657 177.998C278.885 177.109 279.632 176.003 279.632 174.826V174.129H279.656Z" fill="#013E39"/>
<path fill-rule="evenodd" clip-rule="evenodd" d="M268.743 165.406C262.431 165.406 257.324 168.122 257.324 171.486C257.324 174.85 262.431 177.565 268.743 177.565C275.055 177.565 280.162 174.85 280.162 171.486C280.162 168.122 275.031 165.406 268.743 165.406Z" fill="#C9FEC6"/>
<path fill-rule="evenodd" clip-rule="evenodd" d="M268.743 164.902C264.84 164.902 261.371 165.936 259.227 167.497C257.685 168.603 256.818 169.996 256.818 171.486C256.818 172.976 257.685 174.37 259.227 175.475C261.371 177.037 264.84 178.07 268.743 178.07C272.646 178.07 276.115 177.037 278.259 175.475C279.801 174.37 280.668 172.976 280.668 171.486C280.668 169.996 279.801 168.603 278.259 167.497C276.091 165.936 272.646 164.902 268.743 164.902ZM268.743 165.888C272.405 165.888 275.657 166.825 277.681 168.29C278.91 169.18 279.681 170.285 279.681 171.486C279.681 172.688 278.91 173.769 277.681 174.682C275.657 176.148 272.405 177.085 268.743 177.085C265.081 177.085 261.829 176.148 259.805 174.682C258.577 173.793 257.806 172.688 257.806 171.486C257.806 170.285 258.577 169.204 259.805 168.29C261.829 166.825 265.081 165.888 268.743 165.888Z" fill="#013E39"/>
<path fill-rule="evenodd" clip-rule="evenodd" d="M256.577 167.425C256.577 167.232 256.577 170.741 256.577 170.741C256.577 174.105 261.685 176.82 267.996 176.82H268.069C274.332 176.796 279.416 174.081 279.416 170.741C279.416 170.741 279.416 167.232 279.416 167.425C279.416 170.789 274.308 173.504 267.996 173.504C261.685 173.528 256.577 170.789 256.577 167.425Z" fill="#C9FEC6"/>
<path fill-rule="evenodd" clip-rule="evenodd" d="M256.577 166.968C256.818 166.92 257.034 166.992 257.059 167.401V167.425C257.059 168.626 257.829 169.708 259.058 170.621C261.082 172.086 264.334 173.024 267.996 173.024C271.658 173.024 274.91 172.086 276.934 170.621C278.163 169.732 278.933 168.626 278.933 167.425V167.401C278.958 166.992 279.198 166.896 279.415 166.968C279.656 166.92 279.873 166.992 279.897 167.401V167.425V167.449V167.473C279.897 167.905 279.897 170.741 279.897 170.741C279.897 172.231 279.03 173.6 277.512 174.73C275.392 176.291 271.947 177.325 268.068 177.325H267.996C264.093 177.325 260.624 176.291 258.48 174.73C256.938 173.624 256.071 172.231 256.071 170.741C256.071 170.741 256.071 167.905 256.071 167.473V167.449V167.425V167.401C256.119 166.992 256.336 166.896 256.577 166.968ZM278.933 170.092C278.548 170.573 278.09 171.029 277.512 171.438C275.368 173 271.899 174.033 267.996 174.033C264.093 174.033 260.624 173 258.48 171.438C257.902 171.029 257.444 170.573 257.059 170.092V170.765C257.059 171.966 257.829 173.048 259.058 173.961C261.082 175.426 264.334 176.364 267.996 176.364H268.068C271.706 176.34 274.934 175.402 276.934 173.961C278.163 173.072 278.909 171.966 278.909 170.789V170.092H278.933Z" fill="#013E39"/>
<path fill-rule="evenodd" clip-rule="evenodd" d="M267.996 161.346C261.685 161.346 256.577 164.061 256.577 167.425C256.577 170.789 261.685 173.504 267.996 173.504C274.308 173.504 279.416 170.789 279.416 167.425C279.416 164.061 274.308 161.346 267.996 161.346Z" fill="#C9FEC6"/>
<path fill-rule="evenodd" clip-rule="evenodd" d="M267.996 160.865C264.093 160.865 260.624 161.898 258.48 163.46C256.938 164.566 256.071 165.959 256.071 167.449C256.071 168.939 256.938 170.333 258.48 171.438C260.624 173 264.093 174.033 267.996 174.033C271.899 174.033 275.368 173 277.512 171.438C279.054 170.333 279.921 168.939 279.921 167.449C279.921 165.959 279.054 164.566 277.512 163.46C275.368 161.898 271.899 160.865 267.996 160.865ZM267.996 161.85C271.658 161.85 274.91 162.788 276.934 164.253C278.163 165.142 278.933 166.248 278.933 167.449C278.933 168.651 278.163 169.732 276.934 170.645C274.91 172.111 271.658 173.048 267.996 173.048C264.334 173.048 261.082 172.111 259.058 170.645C257.829 169.756 257.059 168.651 257.059 167.449C257.059 166.248 257.829 165.166 259.058 164.253C261.082 162.788 264.334 161.85 267.996 161.85Z" fill="#013E39"/>
<path fill-rule="evenodd" clip-rule="evenodd" d="M257.324 162.956C257.324 162.764 257.324 166.272 257.324 166.272C257.324 169.636 262.431 172.351 268.743 172.351H268.815C275.079 172.327 280.162 169.612 280.162 166.272C280.162 166.272 280.162 162.764 280.162 162.956C280.162 166.32 275.055 169.035 268.743 169.035C262.431 169.059 257.324 166.32 257.324 162.956Z" fill="#C9FEC6"/>
<path fill-rule="evenodd" clip-rule="evenodd" d="M280.162 162.499C280.403 162.451 280.62 162.523 280.644 162.932V162.956V162.98V163.004C280.644 163.437 280.644 166.272 280.644 166.272C280.644 167.762 279.777 169.131 278.259 170.261C276.139 171.823 272.694 172.856 268.815 172.856H268.743C264.84 172.856 261.371 171.823 259.227 170.261C257.685 169.156 256.818 167.762 256.818 166.272C256.818 166.272 256.818 163.437 256.818 163.004V162.98V162.956V162.932C256.842 162.523 257.083 162.427 257.3 162.499C257.541 162.451 257.757 162.523 257.782 162.932V162.956C257.782 164.157 258.552 165.239 259.781 166.152C261.805 167.618 265.057 168.555 268.719 168.555C272.381 168.555 275.633 167.618 277.657 166.152C278.885 165.263 279.656 164.157 279.656 162.956V162.932C279.705 162.523 279.921 162.427 280.162 162.499ZM279.656 165.623C279.271 166.104 278.813 166.56 278.235 166.969C276.091 168.531 272.622 169.564 268.719 169.564C264.816 169.564 261.347 168.531 259.203 166.969C258.625 166.56 258.167 166.104 257.782 165.623V166.296C257.782 167.497 258.552 168.579 259.781 169.492C261.805 170.958 265.057 171.895 268.719 171.895H268.791C272.429 171.871 275.657 170.934 277.657 169.492C278.885 168.603 279.632 167.497 279.632 166.32V165.623H279.656Z" fill="#013E39"/>
<path fill-rule="evenodd" clip-rule="evenodd" d="M268.743 156.876C262.431 156.876 257.324 159.591 257.324 162.955C257.324 166.319 262.431 169.035 268.743 169.035C275.055 169.035 280.162 166.319 280.162 162.955C280.162 159.591 275.031 156.876 268.743 156.876Z" fill="#C9FEC6"/>
<path fill-rule="evenodd" clip-rule="evenodd" d="M268.743 156.396C264.84 156.396 261.371 157.429 259.227 158.991C257.685 160.096 256.818 161.49 256.818 162.979C256.818 164.469 257.685 165.863 259.227 166.968C261.371 168.53 264.84 169.563 268.743 169.563C272.646 169.563 276.115 168.53 278.259 166.968C279.801 165.863 280.668 164.469 280.668 162.979C280.668 161.49 279.801 160.096 278.259 158.991C276.091 157.429 272.646 156.396 268.743 156.396ZM268.743 157.381C272.405 157.381 275.657 158.318 277.681 159.784C278.91 160.673 279.681 161.778 279.681 162.979C279.681 164.181 278.91 165.262 277.681 166.175C275.657 167.641 272.405 168.578 268.743 168.578C265.081 168.578 261.829 167.641 259.805 166.175C258.577 165.286 257.806 164.181 257.806 162.979C257.806 161.778 258.577 160.697 259.805 159.784C261.829 158.318 265.081 157.381 268.743 157.381Z" fill="#013E39"/>
<path fill-rule="evenodd" clip-rule="evenodd" d="M256.577 158.438C256.577 158.246 256.577 161.754 256.577 161.754C256.577 165.118 261.685 167.834 267.996 167.834H268.069C274.332 167.81 279.416 165.094 279.416 161.754C279.416 161.754 279.416 158.246 279.416 158.438C279.416 161.802 274.308 164.518 267.996 164.518C261.685 164.518 256.577 161.778 256.577 158.438Z" fill="#C9FEC6"/>
<path fill-rule="evenodd" clip-rule="evenodd" d="M256.577 157.957C256.818 157.909 257.034 157.981 257.059 158.39V158.414C257.059 159.615 257.829 160.697 259.058 161.61C261.082 163.076 264.334 164.013 267.996 164.013C271.658 164.013 274.91 163.076 276.934 161.61C278.163 160.721 278.933 159.615 278.933 158.414V158.39C278.958 157.981 279.198 157.885 279.415 157.957C279.656 157.909 279.873 157.981 279.897 158.39V158.414V158.438V158.462C279.897 158.895 279.897 161.73 279.897 161.73C279.897 163.22 279.03 164.589 277.512 165.719C275.392 167.281 271.947 168.314 268.068 168.314H267.996C264.093 168.314 260.624 167.281 258.48 165.719C256.938 164.614 256.071 163.22 256.071 161.73C256.071 161.73 256.071 158.895 256.071 158.462V158.438V158.414V158.39C256.119 157.981 256.336 157.885 256.577 157.957ZM278.933 161.081C278.548 161.562 278.09 162.018 277.512 162.427C275.368 163.989 271.899 165.022 267.996 165.022C264.093 165.022 260.624 163.989 258.48 162.427C257.902 162.018 257.444 161.562 257.059 161.081V161.754C257.059 162.956 257.829 164.037 259.058 164.95C261.082 166.416 264.334 167.353 267.996 167.353H268.068C271.706 167.329 274.934 166.392 276.934 164.95C278.163 164.061 278.909 162.956 278.909 161.778V161.081H278.933Z" fill="#013E39"/>
<path fill-rule="evenodd" clip-rule="evenodd" d="M267.996 152.335C261.685 152.335 256.577 155.05 256.577 158.414C256.577 161.778 261.685 164.494 267.996 164.494C274.308 164.494 279.416 161.778 279.416 158.414C279.416 155.074 274.308 152.335 267.996 152.335Z" fill="#C9FEC6"/>
<path fill-rule="evenodd" clip-rule="evenodd" d="M267.996 151.854C264.093 151.854 260.624 152.888 258.48 154.45C256.938 155.555 256.071 156.949 256.071 158.438C256.071 159.928 256.938 161.322 258.48 162.427C260.624 163.989 264.093 165.022 267.996 165.022C271.899 165.022 275.368 163.989 277.512 162.427C279.054 161.322 279.921 159.928 279.921 158.438C279.921 156.949 279.054 155.555 277.512 154.45C275.368 152.888 271.899 151.854 267.996 151.854ZM267.996 152.84C271.658 152.84 274.91 153.777 276.934 155.243C278.163 156.132 278.933 157.237 278.933 158.438C278.933 159.64 278.163 160.721 276.934 161.634C274.91 163.1 271.658 164.037 267.996 164.037C264.334 164.037 261.082 163.1 259.058 161.634C257.829 160.745 257.059 159.64 257.059 158.438C257.059 157.237 257.829 156.156 259.058 155.243C261.082 153.777 264.334 152.84 267.996 152.84Z" fill="#013E39"/>
<path fill-rule="evenodd" clip-rule="evenodd" d="M246.049 204.502C239.737 204.502 234.63 207.217 234.63 210.581C234.63 213.945 239.737 216.661 246.049 216.661C252.361 216.661 257.468 213.945 257.468 210.581C257.468 207.241 252.337 204.502 246.049 204.502Z" fill="#C9FEC6"/>
<path fill-rule="evenodd" clip-rule="evenodd" d="M246.049 204.021C242.146 204.021 238.677 205.055 236.533 206.617C234.991 207.722 234.124 209.116 234.124 210.605C234.124 212.095 234.991 213.489 236.533 214.594C238.677 216.156 242.146 217.189 246.049 217.189C249.952 217.189 253.421 216.156 255.565 214.594C257.107 213.489 257.974 212.095 257.974 210.605C257.974 209.116 257.107 207.722 255.565 206.617C253.397 205.055 249.952 204.021 246.049 204.021ZM246.049 205.007C249.711 205.007 252.963 205.944 254.987 207.41C256.216 208.299 256.987 209.404 256.987 210.605C256.987 211.807 256.216 212.888 254.987 213.801C252.963 215.267 249.711 216.204 246.049 216.204C242.387 216.204 239.135 215.267 237.111 213.801C235.883 212.912 235.112 211.807 235.112 210.605C235.112 209.404 235.883 208.323 237.111 207.41C239.135 205.944 242.387 205.007 246.049 205.007Z" fill="#013E39"/>
<path fill-rule="evenodd" clip-rule="evenodd" d="M236.075 207.313C236.075 207.121 236.075 210.629 236.075 210.629C236.075 213.993 241.183 216.709 247.494 216.709H247.567C253.83 216.685 258.914 213.969 258.914 210.629C258.914 210.629 258.914 207.121 258.914 207.313C258.914 210.677 253.806 213.393 247.494 213.393C241.207 213.393 236.075 210.653 236.075 207.313Z" fill="#C9FEC6"/>
<path fill-rule="evenodd" clip-rule="evenodd" d="M236.075 206.832C236.316 206.784 236.533 206.856 236.557 207.265V207.289C236.557 208.49 237.328 209.572 238.557 210.485C240.58 211.951 243.833 212.888 247.495 212.888C251.156 212.888 254.409 211.951 256.432 210.485C257.661 209.596 258.432 208.49 258.432 207.289V207.265C258.456 206.856 258.697 206.76 258.914 206.832C259.155 206.784 259.372 206.856 259.396 207.265V207.289V207.313V207.337C259.396 207.77 259.396 210.605 259.396 210.605C259.396 212.095 258.528 213.464 257.011 214.594C254.891 216.156 251.445 217.189 247.567 217.189H247.495C243.592 217.189 240.123 216.156 237.978 214.594C236.437 213.489 235.569 212.095 235.569 210.605C235.569 210.605 235.569 207.77 235.569 207.337V207.313V207.289V207.265C235.618 206.856 235.858 206.76 236.075 206.832ZM236.581 209.956V210.629C236.581 211.831 237.352 212.912 238.581 213.825C240.604 215.291 243.857 216.228 247.519 216.228H247.591C251.229 216.204 254.457 215.267 256.456 213.825C257.685 212.936 258.432 211.831 258.432 210.653V209.98C258.047 210.461 257.589 210.917 257.011 211.326C254.866 212.888 251.397 213.921 247.495 213.921C243.592 213.921 240.123 212.888 237.978 211.326C237.424 210.893 236.943 210.437 236.581 209.956Z" fill="#013E39"/>
<path fill-rule="evenodd" clip-rule="evenodd" d="M247.518 201.234C241.206 201.234 236.099 203.95 236.099 207.314C236.099 210.678 241.206 213.393 247.518 213.393C253.83 213.393 258.938 210.678 258.938 207.314C258.938 203.95 253.806 201.234 247.518 201.234Z" fill="#C9FEC6"/>
<path fill-rule="evenodd" clip-rule="evenodd" d="M247.518 200.729C243.616 200.729 240.147 201.763 238.002 203.325C236.461 204.43 235.593 205.824 235.593 207.313C235.593 208.803 236.461 210.197 238.002 211.302C240.147 212.864 243.616 213.897 247.518 213.897C251.421 213.897 254.89 212.864 257.035 211.302C258.576 210.197 259.444 208.803 259.444 207.313C259.444 205.824 258.576 204.43 257.035 203.325C254.866 201.763 251.421 200.729 247.518 200.729ZM247.518 201.715C251.18 201.715 254.433 202.652 256.456 204.118C257.685 205.007 258.456 206.112 258.456 207.313C258.456 208.515 257.685 209.596 256.456 210.509C254.433 211.975 251.18 212.912 247.518 212.912C243.857 212.912 240.604 211.975 238.581 210.509C237.352 209.62 236.581 208.515 236.581 207.313C236.581 206.112 237.352 205.031 238.581 204.118C240.604 202.652 243.857 201.715 247.518 201.715Z" fill="#013E39"/>
<path fill-rule="evenodd" clip-rule="evenodd" d="M235.353 203.253C235.353 203.061 235.353 206.569 235.353 206.569C235.353 209.933 240.46 212.648 246.772 212.648H246.844C253.108 212.624 258.191 209.909 258.191 206.569C258.191 206.569 258.191 203.061 258.191 203.253C258.191 206.617 253.084 209.332 246.772 209.332C240.46 209.332 235.353 206.617 235.353 203.253Z" fill="#C9FEC6"/>
<path fill-rule="evenodd" clip-rule="evenodd" d="M235.353 202.795C235.594 202.723 235.81 202.819 235.834 203.228V203.252C235.834 204.453 236.605 205.535 237.834 206.448C239.858 207.914 243.11 208.851 246.772 208.851C250.434 208.851 253.686 207.914 255.71 206.448C256.938 205.559 257.709 204.453 257.709 203.252V203.228C257.733 202.819 257.974 202.723 258.191 202.795C258.432 202.723 258.649 202.819 258.673 203.228V203.252V203.276V203.3C258.673 203.732 258.673 206.568 258.673 206.568C258.673 208.058 257.806 209.427 256.288 210.557C254.168 212.119 250.723 213.152 246.844 213.152H246.772C242.869 213.152 239.4 212.119 237.256 210.557C235.714 209.451 234.847 208.058 234.847 206.568C234.847 206.568 234.847 203.732 234.847 203.3V203.276V203.252V203.228C234.871 202.819 235.112 202.723 235.353 202.795ZM257.709 205.919C257.324 206.4 256.866 206.856 256.288 207.265C254.144 208.827 250.675 209.86 246.772 209.86C242.869 209.86 239.4 208.827 237.256 207.265C236.678 206.856 236.22 206.4 235.834 205.919V206.592C235.834 207.793 236.605 208.875 237.834 209.788C239.858 211.254 243.11 212.191 246.772 212.191H246.844C250.482 212.167 253.71 211.23 255.71 209.788C256.938 208.899 257.685 207.793 257.685 206.616V205.919H257.709Z" fill="#013E39"/>
<path fill-rule="evenodd" clip-rule="evenodd" d="M246.772 197.173C240.46 197.173 235.353 199.888 235.353 203.252C235.353 206.616 240.46 209.332 246.772 209.332C253.084 209.332 258.191 206.616 258.191 203.252C258.191 199.912 253.084 197.173 246.772 197.173Z" fill="#C9FEC6"/>
<path fill-rule="evenodd" clip-rule="evenodd" d="M246.772 196.692C242.869 196.692 239.4 197.726 237.256 199.288C235.714 200.393 234.847 201.787 234.847 203.276C234.847 204.766 235.714 206.16 237.256 207.265C239.4 208.827 242.869 209.86 246.772 209.86C250.675 209.86 254.144 208.827 256.288 207.265C257.83 206.16 258.697 204.766 258.697 203.276C258.697 201.787 257.83 200.393 256.288 199.288C254.12 197.702 250.675 196.692 246.772 196.692ZM246.772 197.678C250.434 197.678 253.686 198.615 255.71 200.08C256.938 200.97 257.709 202.075 257.709 203.276C257.709 204.478 256.938 205.559 255.71 206.472C253.686 207.938 250.434 208.875 246.772 208.875C243.11 208.875 239.858 207.938 237.834 206.472C236.605 205.583 235.834 204.478 235.834 203.276C235.834 202.075 236.605 200.994 237.834 200.08C239.858 198.615 243.11 197.678 246.772 197.678Z" fill="#013E39"/>
<path fill-rule="evenodd" clip-rule="evenodd" d="M236.557 198.783C236.557 198.591 236.557 202.099 236.557 202.099C236.557 205.463 241.664 208.178 247.976 208.178H248.049C254.312 208.154 259.396 205.439 259.396 202.099C259.396 202.099 259.396 198.591 259.396 198.783C259.396 202.147 254.288 204.862 247.976 204.862C241.664 204.886 236.557 202.147 236.557 198.783Z" fill="#C9FEC6"/>
<path fill-rule="evenodd" clip-rule="evenodd" d="M259.396 198.327C259.637 198.279 259.853 198.351 259.878 198.759V198.783V198.807V198.831C259.878 199.264 259.878 202.099 259.878 202.099C259.878 203.589 259.01 204.959 257.493 206.088C255.372 207.65 251.927 208.683 248.049 208.683H247.976C244.074 208.683 240.605 207.65 238.46 206.088C236.919 204.983 236.051 203.589 236.051 202.099C236.051 202.099 236.051 199.264 236.051 198.831V198.807V198.783V198.759C236.075 198.351 236.316 198.255 236.533 198.327C236.774 198.279 236.991 198.351 237.015 198.759V198.783C237.015 199.985 237.786 201.066 239.014 201.979C241.038 203.445 244.29 204.382 247.952 204.382C251.614 204.382 254.867 203.445 256.89 201.979C258.119 201.09 258.89 199.985 258.89 198.783V198.759C258.938 198.351 259.179 198.255 259.396 198.327ZM258.914 201.45C258.528 201.931 258.071 202.388 257.493 202.796C255.348 204.358 251.879 205.391 247.976 205.391C244.074 205.391 240.605 204.358 238.46 202.796C237.882 202.388 237.424 201.931 237.039 201.45V202.123C237.039 203.325 237.81 204.406 239.039 205.319C241.062 206.785 244.315 207.722 247.976 207.722H248.049C251.687 207.698 254.915 206.761 256.914 205.319C258.143 204.43 258.89 203.325 258.89 202.147V201.45H258.914Z" fill="#013E39"/>
<path fill-rule="evenodd" clip-rule="evenodd" d="M247.976 192.704C241.664 192.704 236.557 195.419 236.557 198.783C236.557 202.148 241.664 204.863 247.976 204.863C254.288 204.863 259.396 202.148 259.396 198.783C259.396 195.443 254.288 192.704 247.976 192.704Z" fill="#C9FEC6"/>
<path fill-rule="evenodd" clip-rule="evenodd" d="M247.976 192.223C244.074 192.223 240.605 193.256 238.46 194.818C236.919 195.923 236.051 197.317 236.051 198.807C236.051 200.296 236.919 201.69 238.46 202.795C240.605 204.357 244.074 205.391 247.976 205.391C251.879 205.391 255.348 204.357 257.493 202.795C259.034 201.69 259.902 200.296 259.902 198.807C259.902 197.317 259.034 195.923 257.493 194.818C255.348 193.232 251.879 192.223 247.976 192.223ZM247.976 193.208C251.638 193.208 254.891 194.145 256.914 195.611C258.143 196.5 258.914 197.605 258.914 198.807C258.914 200.008 258.143 201.089 256.914 202.002C254.891 203.468 251.638 204.405 247.976 204.405C244.315 204.405 241.062 203.468 239.039 202.002C237.81 201.113 237.039 200.008 237.039 198.807C237.039 197.605 237.81 196.524 239.039 195.611C241.062 194.145 244.315 193.208 247.976 193.208Z" fill="#013E39"/>
<path fill-rule="evenodd" clip-rule="evenodd" d="M235.81 194.77C235.81 194.578 235.81 198.086 235.81 198.086C235.81 201.45 240.917 204.166 247.229 204.166H247.302C253.565 204.142 258.649 201.426 258.649 198.086C258.649 198.086 258.649 194.578 258.649 194.77C258.649 198.134 253.541 200.85 247.229 200.85C240.941 200.85 235.81 198.134 235.81 194.77Z" fill="#C9FEC6"/>
<path fill-rule="evenodd" clip-rule="evenodd" d="M258.673 194.314C258.914 194.266 259.131 194.338 259.155 194.746V194.77V194.794V194.819C259.155 195.251 259.155 198.086 259.155 198.086C259.155 199.576 258.288 200.946 256.77 202.075C254.65 203.637 251.205 204.67 247.326 204.67H247.254C243.351 204.67 239.882 203.637 237.738 202.075C236.196 200.97 235.329 199.576 235.329 198.086C235.329 198.086 235.329 195.251 235.329 194.819V194.794V194.77V194.746C235.353 194.338 235.594 194.242 235.81 194.314C236.051 194.266 236.268 194.338 236.292 194.746V194.77C236.292 195.972 237.063 197.053 238.292 197.966C240.316 199.432 243.568 200.369 247.23 200.369C250.892 200.369 254.144 199.432 256.168 197.966C257.396 197.077 258.167 195.972 258.167 194.77V194.746C258.191 194.338 258.432 194.242 258.673 194.314ZM258.167 197.438C257.782 197.918 257.324 198.375 256.746 198.783C254.602 200.345 251.132 201.378 247.23 201.378C243.327 201.378 239.858 200.345 237.714 198.783C237.135 198.375 236.678 197.918 236.292 197.438V198.111C236.292 199.312 237.063 200.393 238.292 201.306C240.316 202.772 243.568 203.709 247.23 203.709H247.302C250.94 203.685 254.168 202.748 256.168 201.306C257.396 200.417 258.143 199.312 258.143 198.135V197.438H258.167Z" fill="#013E39"/>
<path fill-rule="evenodd" clip-rule="evenodd" d="M247.229 188.69C240.917 188.69 235.81 191.406 235.81 194.77C235.81 198.134 240.917 200.849 247.229 200.849C253.541 200.849 258.649 198.134 258.649 194.77C258.673 191.43 253.541 188.69 247.229 188.69Z" fill="#C9FEC6"/>
<path fill-rule="evenodd" clip-rule="evenodd" d="M247.229 188.21C243.327 188.21 239.857 189.243 237.713 190.805C236.171 191.91 235.304 193.304 235.304 194.794C235.304 196.284 236.171 197.677 237.713 198.783C239.857 200.345 243.327 201.378 247.229 201.378C251.132 201.378 254.601 200.345 256.745 198.783C258.287 197.677 259.155 196.284 259.155 194.794C259.155 193.304 258.287 191.91 256.745 190.805C254.601 189.219 251.132 188.21 247.229 188.21ZM247.229 189.195C250.891 189.195 254.144 190.132 256.167 191.598C257.396 192.487 258.167 193.592 258.167 194.794C258.167 195.995 257.396 197.077 256.167 197.99C254.144 199.456 250.891 200.393 247.229 200.393C243.568 200.393 240.315 199.456 238.292 197.99C237.063 197.101 236.292 195.995 236.292 194.794C236.292 193.592 237.063 192.511 238.292 191.598C240.315 190.132 243.568 189.195 247.229 189.195Z" fill="#013E39"/>
<path fill-rule="evenodd" clip-rule="evenodd" d="M235.087 190.733C235.087 190.541 235.087 194.049 235.087 194.049C235.087 197.413 240.195 200.129 246.507 200.129H246.579C252.843 200.105 257.926 197.389 257.926 194.049C257.926 194.049 257.926 190.541 257.926 190.733C257.926 194.097 252.819 196.813 246.507 196.813C240.195 196.813 235.087 194.097 235.087 190.733Z" fill="#C9FEC6"/>
<path fill-rule="evenodd" clip-rule="evenodd" d="M257.926 190.252C258.167 190.18 258.384 190.276 258.408 190.685V190.709V190.733V190.757C258.408 191.19 258.408 194.025 258.408 194.025C258.408 195.515 257.541 196.884 256.023 198.014C253.903 199.576 250.458 200.609 246.579 200.609H246.507C242.604 200.609 239.135 199.576 236.991 198.014C235.449 196.908 234.582 195.515 234.582 194.025C234.582 194.025 234.582 191.19 234.582 190.757V190.733V190.709V190.685C234.606 190.276 234.847 190.18 235.063 190.252C235.304 190.18 235.521 190.276 235.545 190.685V190.709C235.545 191.91 236.316 192.992 237.545 193.905C239.568 195.371 242.821 196.308 246.483 196.308C250.145 196.308 253.397 195.371 255.421 193.905C256.649 193.016 257.42 191.91 257.42 190.709V190.685C257.468 190.276 257.685 190.204 257.926 190.252ZM235.569 193.376V194.049C235.569 195.25 236.34 196.332 237.569 197.245C239.593 198.711 242.845 199.648 246.507 199.648H246.579C250.217 199.624 253.445 198.687 255.445 197.245C256.673 196.356 257.42 195.25 257.42 194.073V193.4C257.035 193.881 256.577 194.337 255.999 194.746C253.855 196.308 250.385 197.341 246.483 197.341C242.58 197.341 239.111 196.308 236.967 194.746C236.412 194.313 235.955 193.857 235.569 193.376Z" fill="#013E39"/>
<path fill-rule="evenodd" clip-rule="evenodd" d="M246.507 184.654C240.195 184.654 235.087 187.37 235.087 190.734C235.087 194.098 240.195 196.813 246.507 196.813C252.819 196.813 257.926 194.098 257.926 190.734C257.926 187.37 252.794 184.654 246.507 184.654Z" fill="#C9FEC6"/>
<path fill-rule="evenodd" clip-rule="evenodd" d="M246.507 184.149C242.604 184.149 239.135 185.183 236.991 186.745C235.449 187.85 234.582 189.244 234.582 190.733C234.582 192.223 235.449 193.617 236.991 194.722C239.135 196.284 242.604 197.317 246.507 197.317C250.41 197.317 253.879 196.284 256.023 194.722C257.565 193.617 258.432 192.223 258.432 190.733C258.432 189.244 257.565 187.85 256.023 186.745C253.855 185.183 250.41 184.149 246.507 184.149ZM246.507 185.135C250.169 185.135 253.421 186.072 255.445 187.538C256.673 188.427 257.444 189.532 257.444 190.733C257.444 191.935 256.673 193.016 255.445 193.929C253.421 195.395 250.169 196.332 246.507 196.332C242.845 196.332 239.593 195.395 237.569 193.929C236.34 193.04 235.569 191.935 235.569 190.733C235.569 189.532 236.34 188.451 237.569 187.538C239.593 186.072 242.845 185.135 246.507 185.135Z" fill="#013E39"/>
<path fill-rule="evenodd" clip-rule="evenodd" d="M235.81 186.263C235.81 186.071 235.81 189.58 235.81 189.58C235.81 192.944 240.917 195.659 247.229 195.659H247.302C253.565 195.635 258.649 192.92 258.649 189.58C258.649 189.58 258.649 186.071 258.649 186.263C258.649 189.628 253.541 192.343 247.229 192.343C240.941 192.343 235.81 189.628 235.81 186.263Z" fill="#C9FEC6"/>
<path fill-rule="evenodd" clip-rule="evenodd" d="M258.673 185.784C258.914 185.736 259.131 185.808 259.155 186.216V186.24V186.264V186.288C259.155 186.721 259.155 189.556 259.155 189.556C259.155 191.046 258.288 192.416 256.77 193.545C254.65 195.107 251.205 196.14 247.326 196.14H247.254C243.351 196.14 239.882 195.107 237.738 193.545C236.196 192.44 235.329 191.046 235.329 189.556C235.329 189.556 235.329 186.721 235.329 186.288V186.264V186.24V186.216C235.353 185.808 235.594 185.712 235.81 185.784C236.051 185.736 236.268 185.808 236.292 186.216V186.24C236.292 187.442 237.063 188.523 238.292 189.436C240.316 190.902 243.568 191.839 247.23 191.839C250.892 191.839 254.144 190.902 256.168 189.436C257.396 188.547 258.167 187.442 258.167 186.24V186.216C258.191 185.808 258.432 185.736 258.673 185.784ZM258.167 188.907C257.782 189.388 257.324 189.845 256.746 190.253C254.602 191.815 251.132 192.848 247.23 192.848C243.327 192.848 239.858 191.815 237.714 190.253C237.135 189.845 236.678 189.388 236.292 188.907V189.58C236.292 190.782 237.063 191.863 238.292 192.776C240.316 194.242 243.568 195.179 247.23 195.179H247.302C250.94 195.155 254.168 194.218 256.168 192.776C257.396 191.887 258.143 190.782 258.143 189.604V188.907H258.167Z" fill="#013E39"/>
<path fill-rule="evenodd" clip-rule="evenodd" d="M247.229 180.185C240.917 180.185 235.81 182.9 235.81 186.264C235.81 189.628 240.917 192.343 247.229 192.343C253.541 192.343 258.649 189.628 258.649 186.264C258.673 182.9 253.541 180.185 247.229 180.185Z" fill="#C9FEC6"/>
<path fill-rule="evenodd" clip-rule="evenodd" d="M247.229 179.68C243.327 179.68 239.857 180.713 237.713 182.275C236.171 183.38 235.304 184.774 235.304 186.264C235.304 187.753 236.171 189.147 237.713 190.252C239.857 191.814 243.327 192.848 247.229 192.848C251.132 192.848 254.601 191.814 256.745 190.252C258.287 189.147 259.155 187.753 259.155 186.264C259.155 184.774 258.287 183.38 256.745 182.275C254.601 180.713 251.132 179.68 247.229 179.68ZM247.229 180.665C250.891 180.665 254.144 181.602 256.167 183.068C257.396 183.957 258.167 185.062 258.167 186.264C258.167 187.465 257.396 188.546 256.167 189.46C254.144 190.925 250.891 191.862 247.229 191.862C243.568 191.862 240.315 190.925 238.292 189.46C237.063 188.57 236.292 187.465 236.292 186.264C236.292 185.062 237.063 183.981 238.292 183.068C240.315 181.602 243.568 180.665 247.229 180.665Z" fill="#013E39"/>
<path fill-rule="evenodd" clip-rule="evenodd" d="M235.087 181.722C235.087 181.53 235.087 185.038 235.087 185.038C235.087 188.403 240.195 191.118 246.507 191.118H246.579C252.843 191.094 257.926 188.379 257.926 185.038C257.926 185.038 257.926 181.53 257.926 181.722C257.926 185.087 252.819 187.802 246.507 187.802C240.195 187.802 235.087 185.087 235.087 181.722Z" fill="#C9FEC6"/>
<path fill-rule="evenodd" clip-rule="evenodd" d="M235.087 181.242C235.328 181.194 235.545 181.266 235.569 181.674V181.698C235.569 182.9 236.34 183.981 237.569 184.894C239.593 186.36 242.845 187.297 246.507 187.297C250.169 187.297 253.421 186.36 255.445 184.894C256.673 184.005 257.444 182.9 257.444 181.698V181.674C257.468 181.266 257.709 181.17 257.926 181.242C258.167 181.194 258.384 181.266 258.408 181.674V181.698V181.722V181.746C258.408 182.179 258.408 185.014 258.408 185.014C258.408 186.504 257.541 187.874 256.023 189.003C253.903 190.565 250.458 191.598 246.579 191.598H246.507C242.604 191.598 239.135 190.565 236.991 189.003C235.449 187.898 234.582 186.504 234.582 185.014C234.582 185.014 234.582 182.179 234.582 181.746V181.722V181.698V181.674C234.606 181.266 234.847 181.194 235.087 181.242ZM235.569 184.365V185.038C235.569 186.24 236.34 187.321 237.569 188.234C239.593 189.7 242.845 190.637 246.507 190.637H246.579C250.217 190.613 253.445 189.676 255.445 188.234C256.673 187.345 257.42 186.24 257.42 185.062V184.389C257.035 184.87 256.577 185.327 255.999 185.735C253.855 187.297 250.385 188.33 246.483 188.33C242.58 188.33 239.111 187.297 236.967 185.735C236.412 185.303 235.955 184.846 235.569 184.365Z" fill="#013E39"/>
<path fill-rule="evenodd" clip-rule="evenodd" d="M246.507 175.643C240.195 175.643 235.087 178.358 235.087 181.722C235.087 185.086 240.195 187.801 246.507 187.801C252.819 187.801 257.926 185.086 257.926 181.722C257.926 178.358 252.794 175.643 246.507 175.643Z" fill="#C9FEC6"/>
<path fill-rule="evenodd" clip-rule="evenodd" d="M246.507 175.139C242.604 175.139 239.135 176.172 236.991 177.734C235.449 178.839 234.582 180.233 234.582 181.723C234.582 183.212 235.449 184.606 236.991 185.711C239.135 187.273 242.604 188.307 246.507 188.307C250.41 188.307 253.879 187.273 256.023 185.711C257.565 184.606 258.432 183.212 258.432 181.723C258.432 180.233 257.565 178.839 256.023 177.734C253.855 176.172 250.41 175.139 246.507 175.139ZM246.507 176.124C250.169 176.124 253.421 177.061 255.445 178.527C256.673 179.416 257.444 180.521 257.444 181.723C257.444 182.924 256.673 184.005 255.445 184.919C253.421 186.384 250.169 187.321 246.507 187.321C242.845 187.321 239.593 186.384 237.569 184.919C236.34 184.029 235.569 182.924 235.569 181.723C235.569 180.521 236.34 179.44 237.569 178.527C239.593 177.061 242.845 176.124 246.507 176.124Z" fill="#013E39"/>
<path fill-rule="evenodd" clip-rule="evenodd" d="M228.053 209.908C221.741 209.908 216.634 212.623 216.634 215.988C216.634 219.352 221.741 222.067 228.053 222.067C234.365 222.067 239.472 219.352 239.472 215.988C239.496 212.623 234.365 209.908 228.053 209.908Z" fill="#C9FEC6"/>
<path fill-rule="evenodd" clip-rule="evenodd" d="M228.053 209.428C224.15 209.428 220.681 210.461 218.537 212.023C216.995 213.128 216.127 214.522 216.127 216.012C216.127 217.502 216.995 218.895 218.537 220.001C220.681 221.562 224.15 222.596 228.053 222.596C231.955 222.596 235.425 221.562 237.569 220.001C239.111 218.895 239.978 217.502 239.978 216.012C239.978 214.522 239.111 213.128 237.569 212.023C235.425 210.437 231.955 209.428 228.053 209.428ZM228.053 210.413C231.715 210.413 234.967 211.35 236.99 212.816C238.219 213.705 238.99 214.81 238.99 216.012C238.99 217.213 238.219 218.294 236.99 219.208C234.967 220.673 231.715 221.61 228.053 221.61C224.391 221.61 221.138 220.673 219.115 219.208C217.886 218.318 217.115 217.213 217.115 216.012C217.115 214.81 217.886 213.729 219.115 212.816C221.138 211.326 224.391 210.413 228.053 210.413Z" fill="#013E39"/>
<path fill-rule="evenodd" clip-rule="evenodd" d="M227.33 205.871C221.018 205.871 215.911 208.586 215.911 211.95C215.911 215.315 221.018 218.03 227.33 218.03C233.642 218.03 238.749 215.315 238.749 211.95C238.749 208.586 233.618 205.871 227.33 205.871Z" fill="#C9FEC6"/>
<path fill-rule="evenodd" clip-rule="evenodd" d="M227.33 205.367C223.427 205.367 219.958 206.4 217.814 207.962C216.272 209.068 215.405 210.461 215.405 211.951C215.405 213.441 216.272 214.835 217.814 215.94C219.958 217.502 223.427 218.535 227.33 218.535C231.233 218.535 234.702 217.502 236.846 215.94C238.388 214.835 239.255 213.441 239.255 211.951C239.255 210.461 238.388 209.068 236.846 207.962C234.678 206.4 231.233 205.367 227.33 205.367ZM227.33 206.352C230.992 206.352 234.244 207.29 236.268 208.755C237.496 209.644 238.267 210.75 238.267 211.951C238.267 213.153 237.496 214.234 236.268 215.147C234.244 216.613 230.992 217.55 227.33 217.55C223.668 217.55 220.416 216.613 218.392 215.147C217.163 214.258 216.393 213.153 216.393 211.951C216.393 210.75 217.163 209.668 218.392 208.755C220.416 207.29 223.668 206.352 227.33 206.352Z" fill="#013E39"/>
<path fill-rule="evenodd" clip-rule="evenodd" d="M216.634 207.481C216.634 207.289 216.634 210.797 216.634 210.797C216.634 214.161 221.741 216.877 228.053 216.877H228.125C234.389 216.853 239.472 214.137 239.472 210.797C239.472 210.797 239.472 207.289 239.472 207.481C239.472 210.845 234.365 213.561 228.053 213.561C221.765 213.561 216.634 210.845 216.634 207.481Z" fill="#C9FEC6"/>
<path fill-rule="evenodd" clip-rule="evenodd" d="M216.633 207C216.874 206.952 217.091 207.024 217.115 207.433V207.457C217.115 208.658 217.886 209.74 219.115 210.653C221.138 212.119 224.391 213.056 228.053 213.056C231.715 213.056 234.967 212.119 236.99 210.653C238.219 209.764 238.99 208.658 238.99 207.457V207.433C239.014 207.024 239.255 206.928 239.472 207C239.713 206.952 239.93 207.024 239.954 207.433V207.457V207.481V207.505C239.954 207.938 239.954 210.773 239.954 210.773C239.954 212.263 239.086 213.632 237.569 214.762C235.449 216.324 232.004 217.357 228.125 217.357H228.053C224.15 217.357 220.681 216.324 218.537 214.762C216.995 213.656 216.127 212.263 216.127 210.773C216.127 210.773 216.127 207.938 216.127 207.505V207.481V207.457V207.433C216.176 207.024 216.417 206.952 216.633 207ZM217.139 210.124V210.797C217.139 211.998 217.91 213.08 219.139 213.993C221.163 215.459 224.415 216.396 228.077 216.396H228.149C231.787 216.372 235.015 215.435 237.015 213.993C238.243 213.104 238.99 211.998 238.99 210.821V210.148C238.605 210.629 238.147 211.085 237.569 211.494C235.425 213.056 231.955 214.089 228.053 214.089C224.15 214.089 220.681 213.056 218.537 211.494C217.982 211.061 217.501 210.605 217.139 210.124Z" fill="#013E39"/>
<path fill-rule="evenodd" clip-rule="evenodd" d="M228.053 201.402C221.741 201.402 216.634 204.118 216.634 207.482C216.634 210.846 221.741 213.561 228.053 213.561C234.365 213.561 239.472 210.846 239.472 207.482C239.496 204.118 234.365 201.402 228.053 201.402Z" fill="#C9FEC6"/>
<path fill-rule="evenodd" clip-rule="evenodd" d="M228.053 200.897C224.15 200.897 220.681 201.931 218.537 203.493C216.995 204.598 216.127 205.992 216.127 207.481C216.127 208.971 216.995 210.365 218.537 211.47C220.681 213.032 224.15 214.065 228.053 214.065C231.955 214.065 235.425 213.032 237.569 211.47C239.111 210.365 239.978 208.971 239.978 207.481C239.978 205.992 239.111 204.598 237.569 203.493C235.425 201.931 231.955 200.897 228.053 200.897ZM228.053 201.883C231.715 201.883 234.967 202.82 236.99 204.286C238.219 205.175 238.99 206.28 238.99 207.481C238.99 208.683 238.219 209.764 236.99 210.677C234.967 212.143 231.715 213.08 228.053 213.08C224.391 213.08 221.138 212.143 219.115 210.677C217.886 209.788 217.115 208.683 217.115 207.481C217.115 206.28 217.886 205.199 219.115 204.286C221.138 202.82 224.391 201.883 228.053 201.883Z" fill="#013E39"/>
<path fill-rule="evenodd" clip-rule="evenodd" d="M215.911 202.94C215.911 202.748 215.911 206.256 215.911 206.256C215.911 209.62 221.018 212.336 227.33 212.336H227.402C233.666 212.312 238.749 209.596 238.749 206.256C238.749 206.256 238.749 202.748 238.749 202.94C238.749 206.304 233.642 209.02 227.33 209.02C221.018 209.02 215.911 206.304 215.911 202.94Z" fill="#C9FEC6"/>
<path fill-rule="evenodd" clip-rule="evenodd" d="M238.749 202.459C238.99 202.387 239.207 202.483 239.231 202.892V202.916V202.94V202.964C239.231 203.397 239.231 206.232 239.231 206.232C239.231 207.722 238.364 209.091 236.846 210.221C234.726 211.783 231.281 212.816 227.402 212.816H227.33C223.427 212.816 219.958 211.783 217.814 210.221C216.272 209.115 215.405 207.722 215.405 206.232C215.405 206.232 215.405 203.397 215.405 202.964V202.94V202.916V202.892C215.429 202.483 215.67 202.387 215.887 202.459C216.128 202.387 216.344 202.483 216.368 202.892V202.916C216.368 204.117 217.139 205.199 218.368 206.112C220.392 207.578 223.644 208.515 227.306 208.515C230.968 208.515 234.22 207.578 236.244 206.112C237.472 205.223 238.243 204.117 238.243 202.916V202.892C238.292 202.483 238.508 202.411 238.749 202.459ZM216.393 205.583V206.256C216.393 207.457 217.163 208.539 218.392 209.452C220.416 210.918 223.668 211.855 227.33 211.855H227.402C231.04 211.831 234.268 210.894 236.268 209.452C237.496 208.563 238.243 207.457 238.243 206.28V205.607C237.858 206.088 237.4 206.544 236.822 206.953C234.678 208.515 231.209 209.548 227.306 209.548C223.403 209.548 219.934 208.515 217.79 206.953C217.236 206.52 216.778 206.064 216.393 205.583Z" fill="#013E39"/>
<path fill-rule="evenodd" clip-rule="evenodd" d="M227.33 196.86C221.018 196.86 215.911 199.576 215.911 202.94C215.911 206.304 221.018 209.019 227.33 209.019C233.642 209.019 238.749 206.304 238.749 202.94C238.749 199.576 233.618 196.86 227.33 196.86Z" fill="#C9FEC6"/>
<path fill-rule="evenodd" clip-rule="evenodd" d="M227.33 196.356C223.427 196.356 219.958 197.39 217.814 198.952C216.272 200.057 215.405 201.451 215.405 202.94C215.405 204.43 216.272 205.824 217.814 206.929C219.958 208.491 223.427 209.524 227.33 209.524C231.233 209.524 234.702 208.491 236.846 206.929C238.388 205.824 239.255 204.43 239.255 202.94C239.255 201.451 238.388 200.057 236.846 198.952C234.678 197.39 231.233 196.356 227.33 196.356ZM227.33 197.342C230.992 197.342 234.244 198.279 236.268 199.745C237.496 200.634 238.267 201.739 238.267 202.94C238.267 204.142 237.496 205.223 236.268 206.136C234.244 207.602 230.992 208.539 227.33 208.539C223.668 208.539 220.416 207.602 218.392 206.136C217.163 205.247 216.393 204.142 216.393 202.94C216.393 201.739 217.163 200.658 218.392 199.745C220.416 198.279 223.668 197.342 227.33 197.342Z" fill="#013E39"/>
</g>
</g>
<defs>
<clipPath id="clip0_43_123">
<rect width="387" height="210" fill="white"/>
</clipPath>
<clipPath id="clip1_43_123">
<rect width="228" height="258" fill="white" transform="translate(79 -12)"/>
</clipPath>
</defs>
</svg>
