
<svg width="126" height="126" viewBox="0 0 126 126" fill="none" xmlns="http://www.w3.org/2000/svg">
<g clip-path="url(#clip0_73_13178)">
<path d="M87.4981 56.441L123.336 41.5117L111.777 21.4817L80.9325 45.0675L104.505 14.2234L84.4883 2.66357L69.559 38.5018L74.5665 0H51.4335L56.441 38.5018L41.5117 2.66357L21.4817 14.2234L45.0675 45.0675L14.2234 21.4817L2.66357 41.5117L38.5018 56.441L0 51.4335V74.5665L38.5018 69.559L2.66357 84.4883L14.2234 104.505L45.0675 80.9325L21.4817 111.777L41.5117 123.336L56.441 87.4981L51.4335 126H74.5665L69.559 87.4981L84.4883 123.336L104.505 111.777L80.9325 80.9325L111.777 104.505L123.336 84.4883L87.4981 69.559L126 74.5665V51.4335L87.4981 56.441Z" fill="#013E39"/>
</g>
<defs>
<clipPath id="clip0_73_13178">
<rect width="126" height="126" fill="white"/>
</clipPath>
</defs>
</svg>
