
<svg width="121" height="121" viewBox="0 0 121 121" fill="none" xmlns="http://www.w3.org/2000/svg">
<g clip-path="url(#clip0_75_21338)">
<path d="M116.967 0C91.2455 0 69.1659 16.1794 60.5 38.9274C51.8341 16.1794 29.7545 0 4.03333 0H0V121H4.03333C29.7545 121 51.8341 104.821 60.5 82.1187C69.1659 104.821 91.2455 121 116.967 121H121V0H116.967ZM8.06667 112.772V8.228C35.0785 10.2792 56.4206 32.9581 56.4206 60.5C56.4206 88.0419 35.0785 110.721 8.06667 112.772ZM112.933 112.772C85.9215 110.721 64.5794 88.0419 64.5794 60.5C64.5794 32.9581 85.9215 10.2792 112.933 8.228V112.772Z" fill="#013E39"/>
</g>
<defs>
<clipPath id="clip0_75_21338">
<rect width="121" height="121" fill="white"/>
</clipPath>
</defs>
</svg>
