
<svg width="160" height="162" viewBox="0 0 160 162" fill="none" xmlns="http://www.w3.org/2000/svg">
<g clip-path="url(#clip0_43_27)">
<path d="M0 83.25V78.75H22.8732C33.4085 78.75 43.7183 75.6562 52.507 69.8625C50.3662 59.85 45.2958 50.625 38.0282 43.3687L20.507 25.875L23.7183 22.6687L41.2394 40.1625C48.5634 47.475 57.8028 52.4812 67.8873 54.675C73.8028 45.8437 77.0141 35.4375 76.9578 24.75V0H81.4648V24.75C81.4648 35.4375 84.6197 45.9 90.5916 54.7875C100.845 52.65 110.254 47.5875 117.634 40.1625L134.93 22.8938L138.141 26.1L120.845 43.3687C113.521 50.6812 108.451 60.0187 106.254 70.1437C114.986 75.7687 125.127 78.8063 135.493 78.75H160V83.25H135.549C125.07 83.25 114.817 86.2875 106.028 92.025C108.113 102.544 113.239 112.162 120.845 119.756L138.366 137.25L135.155 140.456L117.634 122.963C110.085 115.425 100.451 110.25 89.9718 108.225C84.3944 116.887 81.4085 127.013 81.4085 137.306V162.056H76.9014V137.306C76.9014 127.013 73.9718 116.944 68.3944 108.281C58.0845 110.419 48.6197 115.481 41.1268 122.963L24.9577 139.106L21.7465 135.9L37.9155 119.756C45.5775 112.219 50.7042 102.656 52.7887 92.25C43.9437 86.3438 33.5211 83.25 22.9296 83.25H0Z" fill="#013E39"/>
</g>
<defs>
<clipPath id="clip0_43_27">
<rect width="160" height="162" fill="white"/>
</clipPath>
</defs>
</svg>
