
<svg width="156" height="156" viewBox="0 0 156 156" fill="none" xmlns="http://www.w3.org/2000/svg">
<g clip-path="url(#clip0_75_21348)">
<path d="M39 117C28.665 117 18.7479 121.123 11.4214 128.421C4.095 135.748 0 145.665 0 156H78C78 145.665 73.8771 135.748 66.5786 128.421C59.2521 121.123 49.335 117 39 117Z" fill="#013E39"/>
<path d="M39 78C28.665 78 18.7479 82.1229 11.4214 89.4214C4.095 96.7479 0 106.665 0 117H78C78 106.665 73.8771 96.7479 66.5786 89.4214C59.2521 82.1229 49.335 78 39 78Z" fill="#013E39"/>
<path d="M39 39C28.665 39 18.7479 43.1229 11.4214 50.4214C4.095 57.7479 0 67.665 0 78H78C78 67.665 73.8771 57.7479 66.5786 50.4214C59.2521 43.1229 49.335 39 39 39Z" fill="#013E39"/>
<path d="M39 0C28.665 0 18.7479 4.12286 11.4214 11.4214C4.12286 18.7479 0 28.665 0 39H78C78 28.665 73.8771 18.7479 66.5786 11.4214C59.2521 4.12286 49.335 0 39 0Z" fill="#013E39"/>
<path d="M78 0V156H156V78C156 57.3021 147.782 37.4679 133.157 22.8429C118.532 8.21786 98.6979 0 78 0Z" fill="#013E39"/>
</g>
<defs>
<clipPath id="clip0_75_21348">
<rect width="156" height="156" fill="white"/>
</clipPath>
</defs>
</svg>
