<svg
  width="176"
  height="176"
  viewBox="0 0 176 176"
  fill="none"
  xmlns="http://www.w3.org/2000/svg"
>
  <g clip-path="url(#clip0_43_2)">
    <path
      d="M64.1667 159.294L64.1667 16.7295C65.3813 16.317 66.5959 15.9503 67.8334 15.6066L67.8334 160.417C66.5959 160.073 65.3813 159.684 64.1667 159.294Z"
      fill="#013E39"
    />
    <path
      d="M49.5 152.557L49.5 23.4441C50.6917 22.7337 51.9292 22.0462 53.1667 21.4045L53.1667 154.619C51.9292 153.955 50.6917 153.267 49.5 152.557Z"
      fill="#013E39"
    />
    <path
      d="M71.5 161.334L71.5 14.6669C72.7146 14.3919 73.9292 14.1627 75.1667 13.9335L75.1667 162.044C73.9292 161.838 72.7146 161.609 71.5 161.334Z"
      fill="#013E39"
    />
    <path
      d="M122.833 154.596L122.833 21.3811C124.071 22.0228 125.308 22.7103 126.5 23.4207L126.5 152.533C125.308 153.267 124.071 153.954 122.833 154.596Z"
      fill="#013E39"
    />
    <path
      d="M130.167 150.219L130.167 25.7583C131.427 26.6063 132.642 27.5 133.833 28.4396L133.833 147.56C132.642 148.477 131.427 149.371 130.167 150.219Z"
      fill="#013E39"
    />
    <path
      d="M42.1667 147.56L42.1667 28.4396C43.3584 27.5229 44.573 26.6292 45.8334 25.7583L45.8334 150.219C44.573 149.371 43.3584 148.477 42.1667 147.56Z"
      fill="#013E39"
    />
    <path
      d="M108.167 160.417L108.167 15.5837C109.404 15.9274 110.619 16.2941 111.833 16.7066L111.833 159.271C110.619 159.684 109.404 160.073 108.167 160.417Z"
      fill="#013E39"
    />
    <path
      d="M34.8333 141.143L34.8333 34.8789C36.002 33.6872 37.2395 32.5643 38.4999 31.4643L38.4999 144.535C37.2395 143.435 36.002 142.312 34.8333 141.143Z"
      fill="#013E39"
    />
    <path
      d="M56.8333 156.407L56.8333 19.6169C58.0478 19.0669 59.2624 18.5398 60.4999 18.0586L60.4999 157.965C59.2624 157.461 58.0478 156.957 56.8333 156.407Z"
      fill="#013E39"
    />
    <path
      d="M78.8333 162.594L78.8333 13.4062C80.0478 13.2687 81.2624 13.1312 82.4999 13.0625L82.4999 162.938C81.2624 162.846 80.0478 162.731 78.8333 162.594Z"
      fill="#013E39"
    />
    <path
      d="M93.5 162.938L93.5 13.0625C94.7375 13.1542 95.9521 13.2687 97.1667 13.4062L97.1667 162.594C95.9521 162.731 94.7375 162.846 93.5 162.938Z"
      fill="#013E39"
    />
    <path
      d="M88.0001 163.167C87.3813 163.167 86.7855 163.144 86.1667 163.121L86.1667 12.8795C86.7855 12.8566 87.3813 12.8337 88.0001 12.8337C88.6188 12.8337 89.2147 12.8566 89.8334 12.8795L89.8334 163.121C89.2147 163.144 88.6188 163.167 88.0001 163.167Z"
      fill="#013E39"
    />
    <path
      d="M100.833 162.044L100.833 13.9335C102.071 14.1398 103.285 14.3919 104.5 14.6669L104.5 161.334C103.285 161.609 102.071 161.838 100.833 162.044Z"
      fill="#013E39"
    />
    <path
      d="M115.5 157.941L115.5 18.0352C116.738 18.5164 117.952 19.0435 119.167 19.5935L119.167 156.383C117.952 156.956 116.738 157.46 115.5 157.941Z"
      fill="#013E39"
    />
    <path
      d="M159.5 64.8086C164.381 79.8878 164.381 96.1357 159.5 111.215V64.8086Z"
      fill="#013E39"
    />
    <path
      d="M27.5 132.595L27.5 43.4037C28.6688 41.8225 29.8833 40.31 31.1667 38.8433L31.1667 137.179C29.8833 135.689 28.6688 134.177 27.5 132.595Z"
      fill="#013E39"
    />
    <path
      d="M144.833 137.156V38.8208C146.117 40.2875 147.331 41.8229 148.5 43.3812V132.573C147.331 134.177 146.117 135.69 144.833 137.156Z"
      fill="#013E39"
    />
    <path
      d="M12.8333 88.0003C12.8333 80.1169 14.0708 72.3023 16.4999 64.8086L16.4999 111.215C14.0708 103.698 12.8333 95.8836 12.8333 88.0003Z"
      fill="#013E39"
    />
    <path
      d="M152.167 127.165V48.8359C153.496 51.013 154.733 53.2817 155.833 55.5734V120.405C154.733 122.719 153.496 124.965 152.167 127.165Z"
      fill="#013E39"
    />
    <path
      d="M137.5 144.535V31.4643C138.76 32.5643 139.998 33.6872 141.167 34.8789V141.143C139.998 142.312 138.76 143.435 137.5 144.535Z"
      fill="#013E39"
    />
    <path
      d="M20.1667 120.405L20.1667 55.5734C21.2667 53.2588 22.5042 51.013 23.8334 48.8359L23.8334 127.165C22.5042 124.965 21.2667 122.719 20.1667 120.405Z"
      fill="#013E39"
    />
    <path
      d="M88.0001 139.333C59.6522 139.333 36.6667 116.348 36.6667 87.9997C36.6667 59.6518 59.6522 36.6663 88.0001 36.6663C116.348 36.6663 139.333 59.6518 139.333 87.9997C139.333 116.348 116.348 139.333 88.0001 139.333ZM88.0001 67.833C76.8626 67.833 67.8334 76.8622 67.8334 87.9997C67.8334 99.1372 76.8626 108.166 88.0001 108.166C99.1376 108.166 108.167 99.1372 108.167 87.9997C108.167 76.8622 99.1376 67.833 88.0001 67.833Z"
      fill="#013E39"
    />
  </g>
  <defs>
    <clipPath id="clip0_43_2">
      <rect width="176" height="176" fill="white" />
    </clipPath>
  </defs>
</svg>
