
<svg width="370" height="370" viewBox="0 0 370 370" fill="none" xmlns="http://www.w3.org/2000/svg">
<g clip-path="url(#clip0_43_454)">
<path d="M183.2 175H79V183.3H183.2V175Z" fill="#013E39"/>
<path d="M171.6 163.4H67.3999V171.7H171.6V163.4Z" fill="#013E39"/>
<path d="M160 151.8H55.7998V160.1H160V151.8Z" fill="#013E39"/>
<path d="M148.4 140.2H44.2002V148.5H148.4V140.2Z" fill="#013E39"/>
<path d="M136.8 128.6H32.6001V136.9H136.8V128.6Z" fill="#013E39"/>
<path d="M125.2 117H21V125.3H125.2V117Z" fill="#013E39"/>
<path d="M113.6 105.4H9.3999V113.7H113.6V105.4Z" fill="#013E39"/>
<path d="M102.1 93.7998H0V102.1H102.1V93.7998Z" fill="#013E39"/>
<path d="M90.5001 82.2002H11.6001V90.5002H90.5001V82.2002Z" fill="#013E39"/>
<path d="M78.9002 70.5996H23.2002V78.8996H78.9002V70.5996Z" fill="#013E39"/>
<path d="M67.2998 59H34.7998V67.3H67.2998V59Z" fill="#013E39"/>
<path d="M67.3 34.7998H59V67.2998H67.3V34.7998Z" fill="#013E39"/>
<path d="M78.9001 23.2002H70.6001V78.9002H78.9001V23.2002Z" fill="#013E39"/>
<path d="M90.5002 11.5996H82.2002V90.4996H90.5002V11.5996Z" fill="#013E39"/>
<path d="M102.1 0H93.7998V102.1H102.1V0Z" fill="#013E39"/>
<path d="M113.7 9.40039H105.4V113.6H113.7V9.40039Z" fill="#013E39"/>
<path d="M125.3 21H117V125.2H125.3V21Z" fill="#013E39"/>
<path d="M136.9 32.5996H128.6V136.8H136.9V32.5996Z" fill="#013E39"/>
<path d="M148.5 44.2002H140.2V148.4H148.5V44.2002Z" fill="#013E39"/>
<path d="M160.1 55.7998H151.8V160H160.1V55.7998Z" fill="#013E39"/>
<path d="M171.7 67.4004H163.4V171.6H171.7V67.4004Z" fill="#013E39"/>
<path d="M183.3 79H175V183.2H183.3V79Z" fill="#013E39"/>
<path d="M290.5 175H186.3V183.3H290.5V175Z" fill="#013E39"/>
<path d="M302.1 163.4H197.9V171.7H302.1V163.4Z" fill="#013E39"/>
<path d="M313.7 151.8H209.5V160.1H313.7V151.8Z" fill="#013E39"/>
<path d="M325.3 140.2H221.1V148.5H325.3V140.2Z" fill="#013E39"/>
<path d="M336.9 128.6H232.7V136.9H336.9V128.6Z" fill="#013E39"/>
<path d="M348.5 117H244.3V125.3H348.5V117Z" fill="#013E39"/>
<path d="M360.1 105.4H255.9V113.7H360.1V105.4Z" fill="#013E39"/>
<path d="M369.6 93.7998H267.5V102.1H369.6V93.7998Z" fill="#013E39"/>
<path d="M358 82.2002H279.1V90.5002H358V82.2002Z" fill="#013E39"/>
<path d="M346.4 70.5996H290.7V78.8996H346.4V70.5996Z" fill="#013E39"/>
<path d="M334.8 59H302.3V67.3H334.8V59Z" fill="#013E39"/>
<path d="M310.5 34.7998H302.2V67.2998H310.5V34.7998Z" fill="#013E39"/>
<path d="M298.9 23.2002H290.6V78.9002H298.9V23.2002Z" fill="#013E39"/>
<path d="M287.3 11.5996H279V90.4996H287.3V11.5996Z" fill="#013E39"/>
<path d="M275.7 0H267.4V102.1H275.7V0Z" fill="#013E39"/>
<path d="M264.1 9.40039H255.8V113.6H264.1V9.40039Z" fill="#013E39"/>
<path d="M252.5 21H244.2V125.2H252.5V21Z" fill="#013E39"/>
<path d="M241 32.5996H232.7V136.8H241V32.5996Z" fill="#013E39"/>
<path d="M229.4 44.2002H221.1V148.4H229.4V44.2002Z" fill="#013E39"/>
<path d="M217.8 55.7998H209.5V160H217.8V55.7998Z" fill="#013E39"/>
<path d="M206.2 67.4004H197.9V171.6H206.2V67.4004Z" fill="#013E39"/>
<path d="M194.6 79H186.3V183.2H194.6V79Z" fill="#013E39"/>
<path d="M290.5 186.2H186.3V194.5H290.5V186.2Z" fill="#013E39"/>
<path d="M302.1 197.8H197.9V206.1H302.1V197.8Z" fill="#013E39"/>
<path d="M313.7 209.4H209.5V217.7H313.7V209.4Z" fill="#013E39"/>
<path d="M325.3 221H221.1V229.3H325.3V221Z" fill="#013E39"/>
<path d="M336.9 232.601H232.7V240.901H336.9V232.601Z" fill="#013E39"/>
<path d="M348.5 244.101H244.3V252.401H348.5V244.101Z" fill="#013E39"/>
<path d="M360.1 255.7H255.9V264H360.1V255.7Z" fill="#013E39"/>
<path d="M369.6 267.3H267.5V275.6H369.6V267.3Z" fill="#013E39"/>
<path d="M358 278.9H279.1V287.2H358V278.9Z" fill="#013E39"/>
<path d="M346.4 290.5H290.7V298.8H346.4V290.5Z" fill="#013E39"/>
<path d="M334.8 302.101H302.3V310.401H334.8V302.101Z" fill="#013E39"/>
<path d="M310.5 302.2H302.2V334.7H310.5V302.2Z" fill="#013E39"/>
<path d="M298.9 290.601H290.6V346.301H298.9V290.601Z" fill="#013E39"/>
<path d="M287.3 279H279V357.9H287.3V279Z" fill="#013E39"/>
<path d="M275.7 267.4H267.4V369.5H275.7V267.4Z" fill="#013E39"/>
<path d="M264.1 255.8H255.8V360H264.1V255.8Z" fill="#013E39"/>
<path d="M252.5 244.2H244.2V348.4H252.5V244.2Z" fill="#013E39"/>
<path d="M241 232.601H232.7V336.801H241V232.601Z" fill="#013E39"/>
<path d="M229.4 221H221.1V325.2H229.4V221Z" fill="#013E39"/>
<path d="M217.8 209.4H209.5V313.6H217.8V209.4Z" fill="#013E39"/>
<path d="M206.2 197.8H197.9V302H206.2V197.8Z" fill="#013E39"/>
<path d="M194.6 186.2H186.3V290.4H194.6V186.2Z" fill="#013E39"/>
<path d="M183.2 186.2H79V194.5H183.2V186.2Z" fill="#013E39"/>
<path d="M171.6 197.8H67.3999V206.1H171.6V197.8Z" fill="#013E39"/>
<path d="M160 209.4H55.7998V217.7H160V209.4Z" fill="#013E39"/>
<path d="M148.4 221H44.2002V229.3H148.4V221Z" fill="#013E39"/>
<path d="M136.8 232.601H32.6001V240.901H136.8V232.601Z" fill="#013E39"/>
<path d="M125.2 244.101H21V252.401H125.2V244.101Z" fill="#013E39"/>
<path d="M113.6 255.7H9.3999V264H113.6V255.7Z" fill="#013E39"/>
<path d="M102.1 267.3H0V275.6H102.1V267.3Z" fill="#013E39"/>
<path d="M90.5001 278.9H11.6001V287.2H90.5001V278.9Z" fill="#013E39"/>
<path d="M78.9002 290.5H23.2002V298.8H78.9002V290.5Z" fill="#013E39"/>
<path d="M67.2998 302.101H34.7998V310.401H67.2998V302.101Z" fill="#013E39"/>
<path d="M67.3 302.2H59V334.7H67.3V302.2Z" fill="#013E39"/>
<path d="M78.9001 290.601H70.6001V346.301H78.9001V290.601Z" fill="#013E39"/>
<path d="M90.5002 279H82.2002V357.9H90.5002V279Z" fill="#013E39"/>
<path d="M102.1 267.4H93.7998V369.5H102.1V267.4Z" fill="#013E39"/>
<path d="M113.7 255.8H105.4V360H113.7V255.8Z" fill="#013E39"/>
<path d="M125.3 244.2H117V348.4H125.3V244.2Z" fill="#013E39"/>
<path d="M136.9 232.601H128.6V336.801H136.9V232.601Z" fill="#013E39"/>
<path d="M148.5 221H140.2V325.2H148.5V221Z" fill="#013E39"/>
<path d="M160.1 209.4H151.8V313.6H160.1V209.4Z" fill="#013E39"/>
<path d="M171.7 197.8H163.4V302H171.7V197.8Z" fill="#013E39"/>
<path d="M183.3 186.2H175V290.4H183.3V186.2Z" fill="#013E39"/>
</g>
<defs>
<clipPath id="clip0_43_454">
<rect width="369.5" height="369.4" fill="white"/>
</clipPath>
</defs>
</svg>
