
<svg width="387" height="210" viewBox="0 0 387 210" fill="none" xmlns="http://www.w3.org/2000/svg">
<g clip-path="url(#clip0_73_12982)">
<rect width="387" height="210" fill="#013E39"/>
<g clip-path="url(#clip1_73_12982)">
<path fill-rule="evenodd" clip-rule="evenodd" d="M235.858 127.424L325.371 172.019C325.594 172.12 325.838 172.039 325.959 171.816C326.061 171.594 325.98 171.351 325.756 171.229L236.244 126.655C236.02 126.554 235.777 126.635 235.655 126.858C235.554 127.06 235.655 127.323 235.858 127.424Z" fill="#013E39"/>
<path fill-rule="evenodd" clip-rule="evenodd" d="M63.9996 231.424C62.4566 232.193 61.5836 232.638 61.5836 232.638C61.3603 232.739 61.2791 233.002 61.3806 233.225C61.4821 233.447 61.7461 233.528 61.9694 233.427C61.9694 233.427 62.8424 233.002 64.3853 232.233C64.6087 232.132 64.6899 231.869 64.5884 231.647C64.4666 231.404 64.2229 231.323 63.9996 231.424ZM72.5265 227.175C71.1257 227.863 69.8263 228.51 68.6488 229.117C68.4255 229.219 68.3443 229.482 68.4458 229.704C68.5473 229.927 68.8112 230.008 69.0346 229.907C70.2121 229.32 71.5114 228.672 72.9123 227.964C73.1356 227.863 73.2168 227.6 73.1153 227.377C73.0138 227.155 72.7499 227.054 72.5265 227.175ZM81.0738 222.926C79.7338 223.594 78.4345 224.241 77.1961 224.868C76.9727 224.97 76.8915 225.233 76.993 225.455C77.0945 225.678 77.3585 225.759 77.5818 225.658C78.8202 225.03 80.1196 224.383 81.4595 223.715C81.6829 223.614 81.7641 223.351 81.6626 223.128C81.5407 222.906 81.2768 222.805 81.0738 222.926ZM89.6007 218.657C88.3014 219.304 87.002 219.952 85.723 220.599C85.4997 220.7 85.4185 220.963 85.52 221.186C85.6215 221.409 85.8854 221.489 86.1087 221.388C87.3878 220.761 88.6871 220.114 89.9865 219.446C90.2098 219.345 90.291 219.082 90.1895 218.859C90.0677 218.657 89.8038 218.556 89.6007 218.657ZM98.1277 214.408C96.8283 215.055 95.5493 215.703 94.2499 216.35C94.0266 216.451 93.9454 216.714 94.0469 216.937C94.1484 217.16 94.4124 217.24 94.6357 217.139C95.935 216.492 97.2141 215.844 98.5134 215.197C98.7367 215.096 98.8179 214.833 98.7164 214.61C98.5946 214.388 98.351 214.307 98.1277 214.408ZM106.655 210.159C105.376 210.786 104.076 211.433 102.777 212.101C102.554 212.202 102.472 212.465 102.574 212.688C102.675 212.911 102.939 212.991 103.163 212.89C104.462 212.243 105.761 211.595 107.04 210.948C107.264 210.847 107.345 210.584 107.243 210.361C107.142 210.139 106.878 210.058 106.655 210.159ZM115.202 205.91C113.943 206.537 112.644 207.184 111.324 207.852C111.101 207.953 111.02 208.216 111.121 208.439C111.223 208.662 111.487 208.742 111.71 208.641C113.03 207.974 114.329 207.326 115.588 206.699C115.811 206.598 115.892 206.335 115.791 206.112C115.669 205.89 115.405 205.809 115.202 205.91ZM123.729 201.661C122.531 202.268 121.232 202.915 119.851 203.603C119.628 203.704 119.547 203.967 119.648 204.19C119.75 204.413 120.013 204.493 120.237 204.392C121.617 203.704 122.917 203.057 124.115 202.45C124.338 202.349 124.419 202.086 124.318 201.863C124.196 201.641 123.932 201.56 123.729 201.661ZM132.418 197.371C132.438 197.351 132.479 197.331 132.499 197.311L225.687 150.875C225.91 150.774 226.154 150.855 226.275 151.077C226.377 151.3 226.296 151.543 226.072 151.664L132.885 198.1C132.845 198.12 132.784 198.14 132.723 198.14C132.702 198.16 132.662 198.181 132.641 198.201C132.641 198.201 131.22 198.909 128.764 200.143C128.54 200.244 128.297 200.164 128.175 199.941C128.073 199.718 128.155 199.476 128.378 199.354C130.835 198.14 132.256 197.412 132.256 197.412C132.317 197.392 132.357 197.371 132.418 197.371Z" fill="#013E39"/>
<path fill-rule="evenodd" clip-rule="evenodd" d="M200.309 145.473C200.228 144.927 194.99 110.388 199.375 99.1588C206.542 90.762 214.155 85.5823 227.961 75.9714C244.771 64.2766 267.875 62.8805 286.187 59.8859C306.124 56.6486 311.24 92.583 311.768 118.178C311.768 118.3 311.768 118.441 311.768 118.563V118.583C311.768 126.919 302.307 137.198 285.152 145.756C258.901 158.827 224.529 162.934 208.409 154.922C203.537 152.494 200.898 149.216 200.309 145.473Z" fill="#C9FEC6"/>
<path fill-rule="evenodd" clip-rule="evenodd" d="M199.883 145.533C199.801 144.946 197.243 127.991 197.203 114.009C197.182 107.919 197.649 102.416 198.989 98.9963L199.071 98.8749C206.258 90.4578 213.891 85.2578 227.737 75.6268C244.588 63.8914 267.773 62.4751 286.147 59.4806C294.329 58.1452 300.095 63.2035 304.074 71.4587C309.921 83.6189 311.91 102.76 312.235 118.177V118.582V118.602C312.235 122.022 310.692 125.745 307.708 129.549C303.302 135.173 295.73 140.96 285.375 146.14C269.58 154.011 250.821 158.644 234.884 159.352C224.205 159.818 214.764 158.543 208.268 155.306C203.233 152.797 200.532 149.398 199.923 145.553C199.883 145.553 199.883 145.533 199.883 145.533ZM311.342 118.602V118.218C311.037 102.922 309.088 83.9022 303.282 71.8431C299.486 63.9724 294.065 59.0759 286.269 60.3304C268.017 63.3047 244.974 64.6805 228.225 76.3349C214.5 85.8851 206.907 91.0446 199.761 99.3807C198.482 102.719 198.055 108.081 198.076 114.009C198.116 128.011 200.695 145.027 200.756 145.412C201.324 149.033 203.903 152.19 208.633 154.537C215.028 157.713 224.306 158.968 234.823 158.503C250.659 157.794 269.276 153.201 284.969 145.371C295.181 140.272 302.673 134.566 307.018 129.023C309.84 125.421 311.342 121.86 311.342 118.602Z" fill="#013E39"/>
<path fill-rule="evenodd" clip-rule="evenodd" d="M227.412 76.3753L219.799 81.6966C215.921 87.0585 216.49 93.2903 217.931 98.5712L228.407 98.6724L230.965 112.431C253.541 122.851 266.129 130.439 276.747 149.559L283.893 146.403C287.71 121.556 295.323 104.945 292.968 81.5348L281.173 71.3372L283.304 66.2788C275.143 63.5473 262.353 64.3162 254.719 65.0648C245.867 66.0765 236.772 69.8601 227.412 76.3753Z" fill="#C9FEC6"/>
<path fill-rule="evenodd" clip-rule="evenodd" d="M228.042 99.0976L217.931 98.9964C217.728 98.9964 217.566 98.8548 217.525 98.6727C216.043 93.2704 215.495 86.9171 219.454 81.4339C219.474 81.3934 219.515 81.3529 219.556 81.3327L227.169 76.0113C236.589 69.4557 245.766 65.6316 254.678 64.6402C262.373 63.8713 275.224 63.1227 283.447 65.8744C283.569 65.9149 283.65 65.9958 283.711 66.097C283.751 66.1982 283.772 66.3398 283.711 66.441L281.701 71.216L293.253 81.2113L293.395 81.4946C295.75 104.945 288.157 121.577 284.32 146.464C284.299 146.605 284.198 146.727 284.076 146.788L276.93 149.944L276.382 149.762C265.824 130.722 253.278 123.175 230.803 112.816C230.681 112.755 230.58 112.634 230.559 112.512L228.042 99.0976ZM282.716 66.5624C274.595 64.013 262.211 64.7818 254.76 65.5102C245.989 66.5017 236.955 70.2651 227.656 76.7397L220.104 82.0206C216.429 87.1397 216.916 93.0883 218.256 98.1668L228.407 98.268C228.61 98.268 228.793 98.4096 228.834 98.612L231.351 112.148C253.765 122.487 266.352 130.136 276.93 149.033L283.508 146.12C287.324 121.516 294.857 104.985 292.562 81.7778L280.909 71.7016C280.767 71.5802 280.726 71.3779 280.787 71.216L282.716 66.5624Z" fill="#013E39"/>
<path fill-rule="evenodd" clip-rule="evenodd" d="M233.259 159.009C234.051 150.511 234.356 132.645 234.579 121.84C237.015 133.11 239.431 148.832 240.873 158.503C237.117 158.989 236.772 158.908 233.259 159.009ZM305.962 130.966C306.104 120.93 305.515 105.775 302.307 94.5254C306.449 102.598 310.408 124.572 309.839 125.563C308.926 127.121 307.809 128.639 305.962 130.966Z" fill="#013E39"/>
<path fill-rule="evenodd" clip-rule="evenodd" d="M232.833 158.968C232.813 159.09 232.874 159.211 232.955 159.312C233.036 159.393 233.158 159.454 233.28 159.454C236.833 159.353 237.157 159.434 240.934 158.948C241.055 158.928 241.157 158.867 241.218 158.786C241.279 158.705 241.319 158.584 241.299 158.463C239.858 148.791 237.421 133.05 235.005 121.78C234.965 121.557 234.762 121.415 234.538 121.436C234.315 121.456 234.153 121.638 234.153 121.86C233.909 132.625 233.605 150.47 232.833 158.968ZM234.924 125.685C234.701 136.287 234.396 150.855 233.726 158.564C236.65 158.483 237.218 158.544 240.365 158.139C239.086 149.479 237.056 136.287 234.924 125.685ZM305.535 130.965C305.535 131.148 305.657 131.309 305.82 131.37C306.002 131.431 306.185 131.37 306.307 131.229C308.175 128.881 309.312 127.344 310.205 125.766C310.266 125.664 310.306 125.462 310.327 125.159C310.327 124.673 310.246 123.803 310.103 122.65C309.251 116.215 306.023 100.777 302.713 94.3027C302.612 94.1003 302.368 94.0194 302.165 94.1003C301.962 94.1813 301.84 94.4038 301.901 94.6264C305.089 105.856 305.657 120.97 305.535 130.965ZM304.094 100.191C306.023 110.004 306.469 121.375 306.408 129.711C307.789 127.951 308.682 126.676 309.433 125.381C309.433 125.28 309.413 124.086 309.23 122.791C308.56 117.854 306.51 107.556 304.094 100.191Z" fill="#013E39"/>
<path fill-rule="evenodd" clip-rule="evenodd" d="M245.278 66.8257C249.846 65.3487 254.841 64.418 259.997 64.1752C269.925 64.3775 280.157 75.4856 278.066 86.7556C277.457 90.0536 275.752 96.3259 273.783 102.153C264.87 101.364 257.987 100.737 251.795 99.8465C233.097 97.1757 220.834 86.0879 227.453 76.3152H227.473C228.102 75.8498 228.732 75.3844 229.361 74.9393C229.706 74.6965 230.072 74.4537 230.437 74.2109C235.229 70.9129 235.31 63.8514 233.503 57.5791L245.278 66.8257Z" fill="#C9FEC6"/>
<path fill-rule="evenodd" clip-rule="evenodd" d="M230.174 73.8665C232.468 72.2883 233.625 69.7996 233.99 66.9669C234.376 64.0533 233.95 60.7957 233.056 57.7203C232.996 57.5382 233.077 57.3561 233.239 57.2347C233.402 57.1335 233.605 57.1335 233.747 57.2549L245.36 66.3599C249.887 64.9233 254.861 63.9926 259.957 63.7498H259.977C265.053 63.851 270.23 66.7443 273.844 71.054C277.457 75.3637 279.528 81.0898 278.473 86.8563C277.863 90.1745 276.158 96.4671 274.168 102.315C274.108 102.497 273.925 102.618 273.722 102.598C264.809 101.809 257.906 101.181 251.714 100.291C240.345 98.6725 231.351 93.9379 227.412 88.3131C224.712 84.4485 224.326 80.159 227.088 76.0921C227.108 76.0517 227.148 76.0112 227.189 75.991H227.209C227.839 75.5256 228.488 75.0602 229.118 74.6151C229.463 74.3521 229.808 74.1093 230.174 73.8665ZM234.234 58.7319C234.924 61.5444 235.208 64.4377 234.843 67.0681C234.437 70.1638 233.158 72.8548 230.661 74.5746C230.295 74.8174 229.95 75.0602 229.605 75.303C228.996 75.7279 228.387 76.1731 227.758 76.6182C225.26 80.3411 225.646 84.2664 228.123 87.8072C231.96 93.2905 240.771 97.843 251.836 99.4212C257.947 100.291 264.728 100.918 273.458 101.687C275.387 95.9815 277.031 89.8913 277.62 86.6742C278.635 81.1707 276.645 75.7077 273.174 71.5801C269.722 67.4727 264.809 64.7008 259.977 64.5996C254.881 64.8424 249.907 65.7731 245.4 67.2299C245.258 67.2704 245.116 67.2502 244.994 67.149L234.234 58.7319Z" fill="#013E39"/>
<path fill-rule="evenodd" clip-rule="evenodd" d="M249.583 92.5419C250.679 92.6835 251.978 92.9263 253.501 93.3107C256.587 94.0998 260.383 94.5652 265.824 95.0508C270.88 88.1108 274.311 77.8929 273.072 70.791C284.787 81.5754 281.295 127.991 279.427 144.177C269.56 108.385 214.582 94.4033 227.453 76.2945L233.057 71.2766C228.042 80.9279 233.503 88.131 249.583 92.5419Z" fill="#C9FEC6"/>
<path fill-rule="evenodd" clip-rule="evenodd" d="M265.621 94.6063C270.514 87.7674 273.864 77.8126 272.646 70.8726C272.605 70.6905 272.707 70.5084 272.869 70.4275C273.031 70.3465 273.234 70.3668 273.377 70.4882C276.95 73.766 279.163 80.3013 280.401 88.2935C283.284 106.706 281.173 132.888 279.873 144.259C279.853 144.461 279.691 144.623 279.467 144.643C279.264 144.664 279.061 144.522 279.021 144.32C276.077 133.657 269.113 124.956 261.134 117.49C253.115 109.984 244.08 103.752 237.076 98.0662C232.366 94.2421 228.569 90.6406 226.6 87.12C224.57 83.478 224.428 79.8562 227.108 76.0928C227.128 76.0726 227.148 76.0523 227.169 76.0119L232.772 70.994C232.934 70.8524 233.158 70.8524 233.32 70.9738C233.483 71.0952 233.544 71.338 233.442 71.5201C231.513 75.2228 231.168 78.5613 232.467 81.5153C234.457 86.0071 240.203 89.548 249.664 92.1581C250.78 92.2997 252.079 92.5425 253.602 92.9269C256.647 93.6553 260.342 94.1207 265.621 94.6063ZM273.681 72.0461C274.331 79.148 270.981 88.7184 266.19 95.3145C266.108 95.4359 265.946 95.4966 265.804 95.4966C260.342 95.011 256.526 94.5254 253.419 93.7363C251.917 93.3518 250.638 93.109 249.562 92.9876L249.501 92.9674C239.675 90.2764 233.767 86.513 231.716 81.8391C230.539 79.1885 230.579 76.2344 231.838 72.9971L227.778 76.5986C225.341 80.0383 225.484 83.3363 227.351 86.6748C229.28 90.1347 233.016 93.6351 237.624 97.3783C244.629 103.064 253.683 109.316 261.723 116.843C269.296 123.924 275.975 132.139 279.224 142.033C280.523 129.833 282.228 105.674 279.528 88.4149C278.432 81.3535 276.605 75.4453 273.681 72.0461Z" fill="#013E39"/>
<path fill-rule="evenodd" clip-rule="evenodd" d="M281.254 119.291C280.909 129.387 280.076 138.593 279.427 144.198C277.275 136.368 272.971 129.59 267.692 123.58L264.85 105.37L269.377 101.202L281.254 119.291Z" fill="#013E39"/>
<path fill-rule="evenodd" clip-rule="evenodd" d="M281.62 119.048L269.722 100.979C269.662 100.878 269.54 100.797 269.418 100.797C269.296 100.777 269.174 100.817 269.073 100.918L264.545 105.087C264.444 105.188 264.383 105.329 264.403 105.471L267.246 123.681C267.266 123.762 267.286 123.843 267.347 123.904C272.585 129.872 276.869 136.59 279.001 144.339C279.062 144.542 279.244 144.663 279.447 144.663C279.65 144.643 279.813 144.481 279.853 144.278C280.503 138.674 281.335 129.447 281.681 119.351L281.62 119.048ZM280.808 119.412L269.276 101.869L265.297 105.532L268.098 123.377C272.93 128.881 276.93 135.032 279.244 142.033C279.833 136.408 280.523 128.254 280.808 119.412Z" fill="#013E39"/>
<path fill-rule="evenodd" clip-rule="evenodd" d="M249.116 106.827L265.824 95.0508L254.252 110.914L249.116 106.827Z" fill="#013E39"/>
<path fill-rule="evenodd" clip-rule="evenodd" d="M248.852 106.483C248.75 106.564 248.669 106.686 248.669 106.827C248.669 106.969 248.73 107.09 248.831 107.171L253.988 111.258C254.09 111.339 254.191 111.359 254.313 111.339C254.435 111.319 254.536 111.258 254.597 111.157L266.169 95.2941C266.291 95.1323 266.271 94.8895 266.129 94.7276C265.987 94.586 265.743 94.5657 265.56 94.6871L248.852 106.483ZM249.826 106.847L254.171 110.307L263.936 96.933L249.826 106.847Z" fill="#013E39"/>
<path fill-rule="evenodd" clip-rule="evenodd" d="M248.06 -0.490276C266.86 -1.36031 283.467 9.64663 283.284 32.3282C283.122 53.7148 279.102 68.3233 268.809 73.2198C255.754 79.4314 222.824 56.3856 218.52 35.3227C214.764 16.9306 229.26 0.379758 248.06 -0.490276Z" fill="#C9FEC6"/>
<path fill-rule="evenodd" clip-rule="evenodd" d="M248.04 -0.915922C228.976 -0.0458886 214.277 16.768 218.094 35.4029C220.693 48.1499 233.666 61.6253 246.497 69.0105C251.633 71.9646 256.749 73.9474 261.175 74.514C264.18 74.8984 266.86 74.6354 269.012 73.6035C274.25 71.1148 277.904 66.1576 280.259 59.0961C282.574 52.1156 283.65 43.0713 283.731 32.3274C283.792 23.1415 281.153 15.8373 276.727 10.4552C270.088 2.36188 259.47 -1.44199 248.04 -0.915922ZM248.08 -0.0661226C259.226 -0.571956 269.58 3.11051 276.036 11.0015C280.341 16.2622 282.919 23.3641 282.838 32.3274C282.757 42.9702 281.721 51.9336 279.427 58.8331C277.153 65.6315 273.661 70.447 268.626 72.8346C266.596 73.8058 264.078 74.0284 261.277 73.6642C256.952 73.0976 251.958 71.1552 246.923 68.2618C234.315 60.9981 221.505 47.7857 218.947 35.2411C215.252 17.112 229.544 0.803911 248.08 -0.0661226Z" fill="#013E39"/>
<path fill-rule="evenodd" clip-rule="evenodd" d="M231.29 56.6277C225.849 51.7717 219.941 43.4153 217.099 30.3041C208.065 -11.3968 263.754 -16.9205 277.153 -2.12993C286.715 8.43188 275.082 2.46304 279.407 15.2505C271.529 7.82488 239.208 12.3369 242.497 39.6519C243.228 45.6814 238.965 46.0254 237.868 42.262C232.996 25.6504 218.337 34.1687 231.29 56.6277Z" fill="#C9FEC6"/>
<path fill-rule="evenodd" clip-rule="evenodd" d="M230.985 56.9515C231.148 57.0931 231.392 57.0931 231.554 56.9717C231.716 56.8301 231.757 56.6075 231.655 56.4254C227.067 48.4737 225.971 42.3025 226.722 38.4177C227.189 35.9897 228.346 34.4925 229.828 34.108C230.803 33.8652 231.879 34.108 232.934 34.8567C234.66 36.0707 236.325 38.5391 237.442 42.4037C238.071 44.5889 239.695 45.4792 240.994 45.0543C241.522 44.8722 242.03 44.4675 242.395 43.82C242.883 42.9298 243.147 41.5539 242.923 39.6317C240.67 20.835 255.571 13.0249 267.347 12.5393C272.341 12.337 276.808 13.4296 279.102 15.5945C279.244 15.7362 279.467 15.7564 279.63 15.635C279.792 15.5338 279.873 15.3113 279.812 15.1292C278.777 12.0537 278.675 10.0911 278.98 8.73544C279.285 7.42027 280.015 6.67164 280.564 6.00394C280.97 5.51834 281.274 5.05297 281.396 4.48644C281.518 3.96037 281.457 3.3129 281.091 2.48334C280.604 1.3705 279.508 -0.146996 277.457 -2.41313C272.037 -8.42243 259.774 -11.1539 247.572 -9.53526C236.609 -8.07846 225.727 -3.10106 219.941 6.08487C216.084 12.2358 214.48 20.2482 216.693 30.4053C219.535 43.6177 225.504 52.055 230.985 56.9515ZM278.574 14.0568C277.863 11.5074 277.843 9.76734 278.148 8.53311C278.493 7.05607 279.285 6.20627 279.894 5.45764C280.198 5.09344 280.462 4.74947 280.564 4.30434C280.665 3.87944 280.564 3.3736 280.239 2.68567C279.731 1.63354 278.696 0.217203 276.828 -1.8466C271.549 -7.6738 259.571 -10.2637 247.694 -8.68546C236.975 -7.26913 226.316 -2.43336 220.672 6.55024C216.916 12.5393 215.393 20.3494 217.525 30.2232C219.982 41.5944 224.773 49.364 229.544 54.3414C225.971 47.3204 225.179 41.8169 225.849 38.2356C226.397 35.3827 227.859 33.7034 229.605 33.2582C230.782 32.9547 232.122 33.2178 233.422 34.1485C235.249 35.4434 237.056 38.0333 238.274 42.1609C238.741 43.7391 239.797 44.5484 240.71 44.2247C241.157 44.0831 241.563 43.6582 241.807 42.9905C242.111 42.2216 242.213 41.129 242.05 39.7127C239.715 20.2482 255.105 12.1751 267.306 11.649C271.874 11.4669 275.975 12.337 278.574 14.0568Z" fill="#013E39"/>
<path fill-rule="evenodd" clip-rule="evenodd" d="M265.824 95.0508L280.888 96.2445C281.051 98.2679 281.173 100.433 281.274 102.739L265.824 95.0508Z" fill="#013E39"/>
<path fill-rule="evenodd" clip-rule="evenodd" d="M265.865 94.6259C265.662 94.6057 265.459 94.7474 265.418 94.9497C265.357 95.152 265.459 95.3544 265.641 95.4555L281.071 103.144C281.213 103.205 281.376 103.205 281.497 103.124C281.619 103.043 281.7 102.901 281.7 102.74C281.599 100.413 281.477 98.2477 281.315 96.2244C281.294 96.0221 281.132 95.84 280.909 95.8197L265.865 94.6259ZM280.482 96.6493L268.017 95.6579L280.787 102.031C280.706 100.129 280.604 98.3489 280.482 96.6493Z" fill="#013E39"/>
<path fill-rule="evenodd" clip-rule="evenodd" d="M265.824 95.0508L273.539 95.6578C275.041 102.456 267.347 108.607 253.46 103.751L265.824 95.0508Z" fill="#013E39"/>
<path fill-rule="evenodd" clip-rule="evenodd" d="M265.865 94.626C265.764 94.626 265.662 94.6462 265.581 94.7069L253.217 103.407C253.075 103.508 253.014 103.65 253.034 103.812C253.054 103.974 253.176 104.115 253.318 104.156C261.845 107.15 268.098 105.997 271.408 103.164C273.681 101.202 274.615 98.4299 273.966 95.5567C273.925 95.3746 273.763 95.233 273.58 95.2127L265.865 94.626ZM273.174 96.0626L265.946 95.496L254.415 103.63C262.129 106.139 267.794 105.147 270.839 102.537C272.788 100.858 273.621 98.5108 273.174 96.0626Z" fill="#013E39"/>
<path fill-rule="evenodd" clip-rule="evenodd" d="M155.746 222.339C153.472 188.084 158.405 166.758 195.579 148.225C229.93 131.107 266.19 141.871 267.327 196.744C267.327 196.866 267.327 197.007 267.327 197.129V197.149C267.327 205.485 257.866 215.764 240.711 224.322C214.46 237.393 180.088 241.5 163.968 233.488C159.075 231.06 156.436 227.782 155.847 224.039C155.786 223.472 155.746 222.906 155.746 222.339Z" fill="#C9FEC6"/>
<path fill-rule="evenodd" clip-rule="evenodd" d="M155.319 222.359C154.182 205.161 154.873 191.2 160.496 179.202C166.12 167.203 176.697 157.168 195.416 147.84C212.734 139.2 230.539 137.642 244.162 145.109C257.764 152.575 267.225 169.085 267.794 196.724V197.128V197.149C267.794 200.568 266.251 204.291 263.266 208.095C258.861 213.72 251.288 219.507 240.934 224.686C225.139 232.557 206.379 237.19 190.442 237.899C179.763 238.364 170.323 237.089 163.826 233.852C158.791 231.343 156.091 227.944 155.482 224.1V224.079C155.36 223.513 155.319 222.946 155.319 222.359ZM266.9 197.149V196.764C266.352 169.53 257.115 153.222 243.715 145.877C230.316 138.513 212.815 140.131 195.782 148.609C177.307 157.815 166.831 167.709 161.268 179.566C155.705 191.443 155.055 205.262 156.172 222.319C156.172 222.319 156.172 222.339 156.172 222.359C156.172 222.906 156.213 223.432 156.294 223.958C156.862 227.58 159.441 230.736 164.171 233.083C170.566 236.26 179.844 237.514 190.361 237.049C206.197 236.341 224.814 231.748 240.507 223.917C250.719 218.819 258.211 213.113 262.556 207.569C265.398 203.947 266.9 200.406 266.9 197.149Z" fill="#013E39"/>
<path fill-rule="evenodd" clip-rule="evenodd" d="M178.078 158.928C182.93 154.497 188.533 150.754 194.868 147.739C203.293 143.733 214.175 141.77 224.915 143.025C239.451 147.597 248.811 167.203 228.549 176.956C203.253 189.096 175.134 176.329 178.078 158.928Z" fill="#C9FEC6"/>
<path fill-rule="evenodd" clip-rule="evenodd" d="M177.773 158.604C177.692 158.664 177.651 158.766 177.631 158.846C176.433 165.969 180.291 172.362 187.031 176.652C197.02 182.985 213.383 184.705 228.712 177.34C237.015 173.354 240.426 167.729 240.629 162.124C240.913 153.748 233.95 145.412 225.037 142.599L224.956 142.579C214.135 141.304 203.171 143.287 194.665 147.334C188.31 150.369 182.666 154.152 177.773 158.604ZM224.814 143.449C214.175 142.215 203.395 144.157 195.05 148.123C188.818 151.077 183.275 154.78 178.484 159.13C177.408 165.867 181.143 171.857 187.518 175.903C197.304 182.115 213.323 183.754 228.346 176.53C236.264 172.727 239.573 167.405 239.756 162.064C240.04 154.092 233.32 146.14 224.814 143.449Z" fill="#013E39"/>
<path fill-rule="evenodd" clip-rule="evenodd" d="M188.818 237.534C191.965 226.851 192.96 216.086 193.203 205.282C195.639 216.552 198.34 226.992 199.781 236.664C196.005 237.149 192.33 237.433 188.818 237.534ZM261.52 209.511C261.662 199.475 261.074 184.32 257.866 173.07C262.007 181.123 266.982 200.223 266.616 201.316C265.723 203.946 263.997 206.718 261.52 209.511Z" fill="#013E39"/>
<path fill-rule="evenodd" clip-rule="evenodd" d="M188.392 237.412C188.351 237.554 188.371 237.696 188.473 237.797C188.554 237.898 188.696 237.979 188.838 237.959C192.371 237.858 196.066 237.554 199.842 237.068C199.964 237.048 200.065 236.988 200.126 236.907C200.187 236.805 200.228 236.704 200.208 236.583C198.766 226.911 196.066 216.451 193.63 205.181C193.589 204.958 193.386 204.817 193.163 204.837C192.939 204.857 192.777 205.039 192.777 205.262C192.533 216.046 191.518 226.77 188.392 237.412ZM193.528 208.803C193.163 218.272 192.087 227.721 189.407 237.089C192.594 236.988 195.903 236.704 199.294 236.279C197.974 227.741 195.7 218.595 193.528 208.803ZM261.074 209.49C261.074 209.673 261.175 209.834 261.358 209.895C261.52 209.956 261.723 209.915 261.845 209.774C264.383 206.941 266.109 204.108 267.022 201.417C267.063 201.316 267.083 201.134 267.063 200.871C267.022 200.426 266.9 199.637 266.677 198.625C265.459 192.899 261.581 179.343 258.252 172.868C258.15 172.666 257.907 172.585 257.704 172.666C257.501 172.747 257.379 172.969 257.44 173.192C260.647 184.381 261.216 199.515 261.074 209.49ZM259.45 177.724C261.561 187.78 262.028 199.698 261.967 208.317C263.997 205.889 265.418 203.481 266.19 201.175C266.19 201.154 266.19 200.952 266.17 200.75C266.109 200.305 265.987 199.637 265.824 198.807C264.83 194.235 262.17 184.644 259.45 177.724Z" fill="#013E39"/>
<path fill-rule="evenodd" clip-rule="evenodd" d="M200.837 145.372C205.405 143.895 210.399 142.964 215.556 142.721C227.981 142.984 248.06 162.914 224.996 174.002C200.248 185.899 174.708 167.122 183.011 154.861H183.032C183.661 154.396 184.29 153.93 184.92 153.485C185.265 153.242 185.63 153 185.996 152.757C190.787 149.459 190.868 142.397 189.061 136.125L200.837 145.372Z" fill="#C9FEC6"/>
<path fill-rule="evenodd" clip-rule="evenodd" d="M185.732 152.393C188.026 150.815 189.183 148.326 189.549 145.493C189.935 142.58 189.508 139.322 188.615 136.247C188.554 136.065 188.635 135.882 188.798 135.761C188.96 135.66 189.163 135.66 189.305 135.781L200.918 144.886C205.446 143.45 210.42 142.519 215.516 142.276H215.536C220.855 142.377 227.575 146.019 231.798 151.057C234.64 154.436 236.386 158.463 235.879 162.449C235.33 166.698 232.265 170.967 225.159 174.386C210.115 181.61 194.807 177.644 186.768 170.643C181.286 165.868 179.195 159.697 182.626 154.618C182.646 154.578 182.687 154.538 182.727 154.517H182.748C183.377 154.052 184.027 153.587 184.656 153.141C185.022 152.878 185.367 152.636 185.732 152.393ZM189.793 137.279C190.483 140.091 190.767 142.984 190.402 145.615C189.996 148.71 188.717 151.401 186.219 153.121C185.854 153.364 185.509 153.607 185.164 153.85C184.555 154.275 183.946 154.72 183.316 155.165C180.169 159.879 182.26 165.565 187.356 169.996C195.193 176.814 210.135 180.659 224.794 173.618C231.534 170.38 234.518 166.394 235.046 162.348C235.513 158.584 233.848 154.821 231.169 151.624C227.108 146.788 220.672 143.268 215.556 143.166C210.46 143.409 205.486 144.34 200.979 145.797C200.837 145.837 200.695 145.817 200.573 145.716L189.793 137.279Z" fill="#013E39"/>
<path fill-rule="evenodd" clip-rule="evenodd" d="M203.618 78.0546C222.418 77.1846 239.025 88.1916 238.842 110.873C238.68 132.26 234.66 146.868 224.367 151.765C211.292 157.976 178.382 134.931 174.078 113.868C170.322 95.4756 184.818 78.9247 203.618 78.0546Z" fill="#C9FEC6"/>
<path fill-rule="evenodd" clip-rule="evenodd" d="M203.598 77.6102C184.534 78.4803 169.835 95.2942 173.652 113.929C176.251 126.676 189.224 140.151 202.055 147.537C207.191 150.491 212.307 152.474 216.733 153.04C219.738 153.425 222.418 153.162 224.57 152.13C229.808 149.641 233.462 144.684 235.817 137.622C238.132 130.642 239.208 121.598 239.289 110.854C239.35 101.668 236.711 94.3634 232.285 88.9814C225.646 80.9083 215.028 77.0842 203.598 77.6102ZM203.638 78.4803C214.784 77.9744 225.138 81.6569 231.595 89.5479C235.899 94.8086 238.477 101.91 238.396 110.874C238.315 121.517 237.279 130.48 234.985 137.38C232.711 144.178 229.219 148.993 224.184 151.381C222.154 152.352 219.637 152.575 216.835 152.211C212.51 151.644 207.516 149.702 202.481 146.808C189.873 139.544 177.063 126.312 174.505 113.767C170.789 95.6381 185.102 79.3301 203.638 78.4803Z" fill="#013E39"/>
<path fill-rule="evenodd" clip-rule="evenodd" d="M198.116 110.328C197.751 112.695 197.69 115.325 198.035 118.198C198.766 124.228 194.503 124.572 193.406 120.808C188.534 104.197 173.875 112.715 186.828 135.174C181.387 130.318 175.479 121.962 172.637 108.851C164.699 72.127 201.953 62.2936 222.418 68.2624C229.808 70.4274 234.396 74.4943 236.224 79.5122C238.518 84.4693 237.523 91.1261 234.965 93.7767C223.819 86.2499 200.512 98.8755 198.116 110.328Z" fill="#C9FEC6"/>
<path fill-rule="evenodd" clip-rule="evenodd" d="M198.543 110.408C198.177 112.755 198.137 115.324 198.482 118.137C198.705 120.059 198.441 121.435 197.954 122.325C197.588 122.993 197.081 123.398 196.553 123.559C195.274 123.984 193.65 123.094 193 120.909C191.863 117.044 190.198 114.576 188.493 113.362C187.417 112.613 186.341 112.37 185.387 112.613C183.905 112.998 182.747 114.495 182.28 116.923C181.55 120.808 182.646 126.979 187.214 134.931C187.315 135.113 187.275 135.355 187.112 135.477C186.95 135.618 186.706 135.598 186.544 135.457C181.062 130.56 175.093 122.123 172.231 108.91C169.815 97.7619 171.541 89.0616 175.662 82.506C185.285 67.2298 208.064 63.6081 222.54 67.8368C230.072 70.0423 234.741 74.2103 236.63 79.3294C238.03 82.3846 238.233 86.0671 237.604 89.1223C237.178 91.1861 236.345 92.9666 235.29 94.0795H234.985C234.985 94.0592 234.985 94.0592 234.985 93.776L234.741 94.1402C229.28 90.4577 220.834 91.7526 213.465 95.3339C206.075 98.9152 199.72 104.783 198.543 110.408ZM234.884 93.2094C235.736 92.1978 236.386 90.6803 236.751 88.9402C237.36 86.0671 237.178 82.5667 235.838 79.6733L235.817 79.6329C234.011 74.7364 229.503 70.7707 222.296 68.6664C208.125 64.5388 185.813 68.0189 176.413 82.9714C172.393 89.3651 170.749 97.8631 173.104 108.728C175.56 120.1 180.352 127.869 185.123 132.867C181.55 125.846 180.758 120.342 181.428 116.761C181.976 113.908 183.438 112.229 185.184 111.784C186.361 111.48 187.701 111.743 189.001 112.674C190.828 113.969 192.635 116.559 193.853 120.686C194.32 122.265 195.375 123.074 196.289 122.75C196.736 122.608 197.121 122.184 197.385 121.516C197.69 120.747 197.791 119.654 197.629 118.238C197.284 115.324 197.324 112.674 197.71 110.266V110.246C198.928 104.419 205.425 98.2678 213.079 94.5448C220.591 90.9028 229.199 89.6281 234.884 93.2094Z" fill="#013E39"/>
<path fill-rule="evenodd" clip-rule="evenodd" d="M61.0965 172.787C60.4063 162.226 59.1881 136.671 63.9998 128.699C73.6839 112.654 81.1958 107.211 100.219 98.1871C118.186 89.6486 142.874 89.3856 151.888 93.8167C164.293 99.9069 172.373 131.815 172.698 147.192C172.698 147.314 172.698 147.455 172.698 147.577V147.597C172.698 153.748 167.541 160.971 157.918 167.77C154.527 170.177 150.569 172.524 146.082 174.75C141.656 176.955 137.007 178.898 132.256 180.577C108.766 188.873 82.7387 190.593 69.3392 183.916C64.4464 181.488 61.8071 178.21 61.2183 174.467C61.1371 173.92 61.0965 173.354 61.0965 172.787Z" fill="#C9FEC6"/>
<path fill-rule="evenodd" clip-rule="evenodd" d="M60.6701 172.807C60.1829 165.402 59.4317 150.632 60.6904 139.706C61.2386 134.951 62.1725 130.924 63.6342 128.496C73.3793 112.37 80.9115 106.887 100.036 97.8024C110.878 92.6429 124.135 90.4982 134.976 90.5589C142.245 90.5993 148.416 91.6515 152.071 93.432C157.106 95.9005 161.471 102.537 164.882 110.63C169.937 122.669 172.942 137.905 173.124 147.172V147.576V147.597C173.124 153.849 167.927 161.214 158.161 168.113C154.751 170.521 150.771 172.888 146.264 175.134C141.838 177.34 137.169 179.302 132.398 180.982C108.786 189.318 82.6168 190.997 69.1362 184.3C64.1012 181.791 61.401 178.392 60.7919 174.547V174.527C60.7107 173.961 60.6701 173.394 60.6701 172.807ZM172.251 147.597V147.212C172.069 138.006 169.084 122.912 164.069 110.974C160.76 103.104 156.578 96.6086 151.685 94.2009C148.132 92.4608 142.082 91.4491 134.976 91.4087C124.257 91.348 111.121 93.4725 100.402 98.5713C81.4799 107.555 74.0087 112.977 64.3651 128.921C62.944 131.268 62.071 135.194 61.5431 139.787C60.3047 150.672 61.0356 165.382 61.5228 172.747C61.5228 172.747 61.5228 172.767 61.5228 172.787C61.5228 173.333 61.5634 173.86 61.6446 174.386C62.2131 178.007 64.7915 181.164 69.5219 183.511C82.8402 190.147 108.746 188.407 132.093 180.152C136.824 178.473 141.453 176.551 145.858 174.345C150.325 172.119 154.243 169.793 157.634 167.385C167.115 160.728 172.251 153.646 172.251 147.597Z" fill="#013E39"/>
<path fill-rule="evenodd" clip-rule="evenodd" d="M83.4288 109.376C88.2811 104.945 93.8845 101.202 100.219 98.1871C108.644 94.1809 119.526 92.2183 130.266 93.4727C144.803 98.0252 154.162 117.652 133.9 127.384C108.604 139.544 80.485 126.777 83.4288 109.376Z" fill="#013E39"/>
<path fill-rule="evenodd" clip-rule="evenodd" d="M83.1449 109.053C83.0637 109.114 83.0231 109.215 83.0028 109.296C81.8049 116.418 85.6624 122.812 92.4027 127.101C102.391 133.434 118.755 135.154 134.083 127.789C142.387 123.803 145.798 118.178 146.001 112.573C146.285 104.197 139.321 95.8607 130.408 93.0483L130.327 93.0281C119.486 91.7736 108.523 93.7565 100.036 97.7829C93.6614 100.818 88.0174 104.602 83.1449 109.053ZM130.165 93.8981C119.526 92.6639 108.746 94.6063 100.402 98.572C94.169 101.546 88.6265 105.229 83.8352 109.579C82.7591 116.317 86.4947 122.306 92.8696 126.352C102.655 132.564 118.674 134.203 133.697 126.98C141.615 123.176 144.925 117.854 145.107 112.513C145.412 104.541 138.692 96.5891 130.165 93.8981Z" fill="#013E39"/>
<path fill-rule="evenodd" clip-rule="evenodd" d="M94.1689 187.983C97.3158 177.3 98.3106 166.536 98.5542 155.731C100.99 167.001 103.691 177.441 105.132 187.113C101.376 187.578 97.7015 187.882 94.1689 187.983ZM166.871 159.96C167.013 149.924 166.425 134.769 163.217 123.52C167.359 131.572 172.312 150.733 171.927 151.866C171.033 154.456 169.328 157.188 166.871 159.96Z" fill="#013E39"/>
<path fill-rule="evenodd" clip-rule="evenodd" d="M93.7628 187.861C93.7222 188.003 93.7425 188.144 93.844 188.246C93.9252 188.347 94.0673 188.407 94.2094 188.407C97.742 188.306 101.437 188.003 105.213 187.517C105.335 187.497 105.437 187.436 105.497 187.355C105.558 187.254 105.599 187.153 105.579 187.032C104.117 177.36 101.417 166.899 98.9804 155.629C98.9398 155.407 98.7368 155.265 98.5135 155.285C98.2902 155.306 98.1278 155.488 98.1278 155.71C97.8841 166.474 96.8893 177.218 93.7628 187.861ZM98.8789 159.251C98.5135 168.72 97.4375 178.169 94.7576 187.537C97.945 187.436 101.254 187.153 104.645 186.728C103.325 178.19 101.051 169.024 98.8789 159.251ZM166.445 159.939C166.445 160.121 166.546 160.283 166.729 160.344C166.891 160.404 167.094 160.364 167.216 160.222C169.713 157.41 171.439 154.638 172.353 151.967C172.393 151.866 172.414 151.684 172.393 151.401C172.353 150.935 172.231 150.166 172.008 149.135C170.789 143.368 166.932 129.771 163.623 123.276C163.521 123.074 163.278 122.993 163.075 123.074C162.872 123.155 162.75 123.377 162.811 123.6C165.998 134.83 166.587 149.944 166.445 159.939ZM164.8 128.193C166.891 138.249 167.379 150.146 167.318 158.766C169.307 156.378 170.729 154.011 171.5 151.724C171.5 151.704 171.5 151.482 171.48 151.299C171.439 150.854 171.317 150.187 171.135 149.337C170.18 144.744 167.521 135.133 164.8 128.193Z" fill="#013E39"/>
<path fill-rule="evenodd" clip-rule="evenodd" d="M106.188 95.8199C110.756 94.3428 115.75 93.4121 120.907 93.1693C133.332 93.4323 153.411 113.362 130.348 124.45C105.599 136.347 80.0589 117.571 88.3625 105.309H88.3828C89.0122 104.844 89.6415 104.379 90.2709 103.933C90.6161 103.691 90.9815 103.448 91.3469 103.205C96.1383 99.907 96.2195 92.8456 94.4126 86.5732L106.188 95.8199Z" fill="#C9FEC6"/>
<path fill-rule="evenodd" clip-rule="evenodd" d="M91.0827 102.841C93.3769 101.263 94.5341 98.7742 94.8995 95.9415C95.2853 93.0279 94.8589 89.7703 93.9656 86.6949C93.9047 86.5128 93.9859 86.3307 94.1483 86.2093C94.3108 86.1081 94.5138 86.1081 94.6559 86.2295L106.269 95.3345C110.796 93.8979 115.77 92.9672 120.866 92.7244H120.886C126.206 92.8256 132.926 96.4676 137.148 101.506C139.991 104.885 141.737 108.911 141.229 112.897C140.681 117.146 137.615 121.415 130.51 124.835C115.466 132.058 100.158 128.092 92.1181 121.092C86.6365 116.316 84.5454 110.145 87.9765 105.067C87.9968 105.026 88.0374 104.986 88.078 104.966H88.0983C88.7276 104.5 89.3773 104.035 90.0067 103.59C90.3721 103.327 90.7376 103.084 91.0827 102.841ZM95.1431 87.7065C95.8334 90.519 96.1177 93.4123 95.7725 96.0427C95.3665 99.1384 94.0874 101.829 91.5903 103.549C91.2248 103.792 90.8797 104.035 90.5345 104.278C89.9255 104.703 89.3164 105.148 88.687 105.593C85.5402 110.307 87.6313 115.993 92.7272 120.424C100.564 127.242 115.506 131.087 130.165 124.046C136.905 120.808 139.889 116.822 140.417 112.776C140.884 109.012 139.219 105.249 136.539 102.052C132.479 97.2162 126.043 93.6956 120.927 93.5944C115.831 93.8372 110.857 94.768 106.35 96.2248C106.208 96.2652 106.066 96.245 105.944 96.1438L95.1431 87.7065Z" fill="#013E39"/>
<path fill-rule="evenodd" clip-rule="evenodd" d="M108.969 32.5302C127.769 31.6602 144.376 42.6671 144.194 65.3487C144.031 86.7353 138.204 104.682 130.347 108.162C126.977 109.639 119.039 107.07 110.39 102.092C97.0517 94.4442 82.028 81.1307 79.4293 68.3432C75.6734 49.9511 90.1692 33.4003 108.969 32.5302Z" fill="#C9FEC6"/>
<path fill-rule="evenodd" clip-rule="evenodd" d="M108.969 32.1056C89.9051 32.9756 75.2063 49.7895 79.0231 68.4244C81.6624 81.313 96.7673 94.748 110.207 102.457C115.445 105.451 120.419 107.596 124.297 108.507C126.977 109.134 129.149 109.174 130.57 108.547C133.799 107.131 136.702 103.367 139.016 97.9246C142.427 89.9122 144.579 78.2578 144.681 65.3489C144.741 56.163 142.102 48.8588 137.676 43.4767C130.997 35.3834 120.379 31.5795 108.969 32.1056ZM108.989 32.9756C120.135 32.4698 130.489 36.1522 136.945 44.0432C141.249 49.3039 143.828 56.4058 143.747 65.3692C143.645 78.1364 141.534 89.6694 138.164 97.6009C135.951 102.781 133.23 106.423 130.164 107.778C128.885 108.345 126.896 108.264 124.439 107.697C120.622 106.807 115.73 104.703 110.593 101.749C97.356 94.1612 82.4339 80.9691 79.8352 68.2828C76.1605 50.1335 90.4533 33.8254 108.989 32.9756Z" fill="#013E39"/>
<path fill-rule="evenodd" clip-rule="evenodd" d="M89.0527 111.217C98.9399 105.067 98.7775 93.8572 98.4527 70.164C98.1887 50.5781 115.263 36.1315 128.662 36.9004C136.885 37.386 143.199 43.3346 142.529 53.3299V53.4513C136.052 34.4522 109.091 44.407 105.152 70.5687C103.711 80.0581 107.832 103.063 90.1897 110.712C89.8039 110.873 89.4182 111.035 89.0527 111.217Z" fill="#C9FEC6"/>
<path fill-rule="evenodd" clip-rule="evenodd" d="M86.7178 112.957C86.6772 112.978 86.6163 112.998 86.5757 112.998C86.3727 113.018 86.1696 112.876 86.129 112.674C86.0681 112.472 86.1696 112.269 86.3524 112.168C86.5554 112.067 86.8193 112.148 86.9208 112.35C87.0223 112.553 86.9614 112.816 86.7584 112.917C86.7584 112.957 86.7381 112.957 86.7178 112.957L86.4945 112.128L86.3118 112.188L86.7178 112.957ZM88.8292 110.853C88.6262 110.974 88.5653 111.237 88.6871 111.42C88.8089 111.622 89.0526 111.703 89.2556 111.602C89.621 111.42 89.9865 111.258 90.3519 111.096C99.3255 107.211 102.797 99.4212 104.178 91.3886C105.538 83.4976 104.868 75.3638 105.579 70.6089C107.913 55.1304 118.369 45.378 127.769 44.1235C133.941 43.2939 139.605 46.1873 142.123 53.5522C142.184 53.7546 142.387 53.876 142.59 53.8355C142.793 53.8153 142.955 53.6332 142.975 53.4308V53.3094C143.32 48.1904 141.859 44.083 139.28 41.2099C136.682 38.3368 132.946 36.6574 128.723 36.4146C123.262 36.0909 117.212 38.2558 111.933 42.2216C104.056 48.1702 97.9043 58.1857 98.0465 70.1031C98.2089 81.9194 98.3307 90.6197 97.1735 97.1348C96.0162 103.589 93.6612 107.838 88.8292 110.853ZM142.123 51.3266C142.001 47.3811 140.701 44.1842 138.59 41.8574C136.133 39.1461 132.621 37.5881 128.622 37.3453C123.363 37.0418 117.516 39.1461 112.42 42.9904C104.726 48.7974 98.7367 58.5701 98.8788 70.1638C99.0413 82.0408 99.1428 90.8018 97.9855 97.3574C97.0922 102.355 95.4681 106.098 92.5851 108.971C99.3255 104.925 102.087 98.187 103.264 91.2672C104.624 83.3762 103.954 75.2626 104.665 70.5078C107.061 54.5639 117.922 44.5889 127.607 43.3142C133.616 42.5048 139.158 44.9531 142.123 51.3266Z" fill="#013E39"/>
<path fill-rule="evenodd" clip-rule="evenodd" d="M104.3 86.8365C103.447 96.1843 100.666 106.159 90.1694 110.692C80.9725 114.678 69.2987 120.181 67.167 123.742C76.8918 103.549 80.0183 92.259 79.4702 78.561C78.4956 54.5643 70.9838 36.4554 91.6921 21.3816C112.766 6.0245 149.554 27.0874 142.529 53.4312C137.656 39.1262 121.171 41.2305 111.629 54.3215C106.98 64.6809 105.193 78.5408 108.523 93.0481C106.858 90.9843 105.477 88.9205 104.3 86.8365Z" fill="#C9FEC6"/>
<path fill-rule="evenodd" clip-rule="evenodd" d="M104.604 88.2124C103.589 97.2972 100.503 106.706 90.3316 111.096C83.9161 113.868 76.3028 117.389 71.5723 120.485C69.603 121.759 68.1413 122.953 67.5322 123.985C67.4104 124.187 67.1667 124.248 66.9637 124.147C66.7607 124.046 66.6795 123.783 66.781 123.58C76.4449 103.468 79.5714 92.2389 79.0233 78.5814C78.6375 68.9705 77.1961 60.3309 76.9524 52.4197C76.5667 40.4415 78.8608 30.1832 91.4279 21.0378C102.107 13.2479 116.765 14.6845 127.87 21.402C138.976 28.1397 146.508 40.1785 142.935 53.5527C142.894 53.7348 142.711 53.8765 142.529 53.8765C142.346 53.8765 142.163 53.7551 142.102 53.5932C140.214 48.0493 136.54 45.0345 132.195 44.2454C125.617 43.0516 117.598 46.896 111.994 54.5644C107.385 64.8429 105.619 78.5814 108.949 92.9673C108.989 93.1696 108.888 93.3719 108.725 93.4529C108.543 93.5338 108.319 93.4934 108.198 93.3315C106.817 91.6319 105.64 89.9323 104.604 88.2124ZM142.407 51.9745C145.026 39.5513 137.819 28.4634 127.404 22.1506C116.603 15.595 102.33 14.1584 91.9355 21.7459C79.6729 30.6891 77.4397 40.7046 77.8254 52.4197C78.0894 60.3107 79.5105 68.9705 79.8963 78.5611C80.4241 91.7735 77.5615 102.72 68.73 121.476C69.4 120.93 70.1918 120.343 71.1054 119.756C75.8764 116.661 83.5507 113.099 90.0068 110.307C100.341 105.836 103.061 96.0023 103.894 86.7961C103.914 86.614 104.056 86.4521 104.239 86.4117C104.421 86.3712 104.624 86.4521 104.706 86.614C105.579 88.172 106.573 89.7097 107.71 91.2474C104.909 77.3269 106.756 64.1145 111.243 54.1193L111.284 54.0383C117.11 46.0259 125.515 42.1007 132.378 43.3551C136.621 44.1645 140.295 46.9162 142.407 51.9745Z" fill="#013E39"/>
</g>
</g>
<defs>
<clipPath id="clip0_73_12982">
<rect width="387" height="210" fill="white"/>
</clipPath>
<clipPath id="clip1_73_12982">
<rect width="266" height="248" fill="white" transform="translate(60 -10)"/>
</clipPath>
</defs>
</svg>
