
<svg width="184" height="184" viewBox="0 0 184 184" fill="none" xmlns="http://www.w3.org/2000/svg">
<g clip-path="url(#clip0_73_13182)">
<path d="M145.492 53.5022C145.317 53.5022 145.142 53.5022 144.987 53.5022C136.935 53.5994 130.401 47.0648 130.498 39.0132C130.498 38.8382 130.498 38.6826 130.498 38.5075C130.498 17.2506 112.858 -0.213939 91.6013 -8.42103e-06C70.5194 0.213922 53.5022 17.3673 53.5022 38.5075C53.5022 38.6826 53.5022 38.8771 53.5022 39.0521C53.6189 47.0842 47.0453 53.5994 39.0132 53.5022C38.8382 53.5022 38.6631 53.5022 38.5075 53.5022C17.2506 53.5022 -0.213939 71.1612 -8.42103e-06 92.3987C0.213922 113.481 17.3673 130.498 38.5075 130.498C38.6826 130.498 38.8771 130.498 39.0521 130.498C47.0842 130.381 53.5994 136.955 53.5022 144.987C53.5022 145.162 53.5022 145.337 53.5022 145.492C53.5022 166.749 71.1612 184.214 92.3987 184C113.481 183.786 130.498 166.633 130.498 145.492C130.498 145.317 130.498 145.123 130.498 144.948C130.381 136.935 136.935 130.381 144.948 130.498C145.123 130.498 145.317 130.498 145.492 130.498C166.633 130.498 183.786 113.481 184 92.3987C184.214 71.1417 166.749 53.5022 145.492 53.5022Z" fill="#013E39"/>
</g>
<defs>
<clipPath id="clip0_73_13182">
<rect width="184" height="184" fill="white"/>
</clipPath>
</defs>
</svg>
